<?xml version="1.0" encoding="UTF-8" standalone="no"?>
<svg
   width="130"
   height="130"
   viewBox="0 0 121 130"
   fill="none"
   version="1.1"
   id="svg44"
   sodipodi:docname="app-icon.svg"
   xml:space="preserve"
   inkscape:version="1.2.2 (b0a8486541, 2022-12-01)"
   xmlns:inkscape="http://www.inkscape.org/namespaces/inkscape"
   xmlns:sodipodi="http://sodipodi.sourceforge.net/DTD/sodipodi-0.dtd"
   xmlns="http://www.w3.org/2000/svg"
   xmlns:svg="http://www.w3.org/2000/svg"><sodipodi:namedview
     id="namedview46"
     pagecolor="#ffffff"
     bordercolor="#000000"
     borderopacity="0.25"
     inkscape:showpageshadow="2"
     inkscape:pageopacity="0.0"
     inkscape:pagecheckerboard="0"
     inkscape:deskcolor="#d1d1d1"
     showgrid="false"
     inkscape:zoom="2.3688077"
     inkscape:cx="65.222685"
     inkscape:cy="45.592557"
     inkscape:window-width="949"
     inkscape:window-height="1041"
     inkscape:window-x="963"
     inkscape:window-y="31"
     inkscape:window-maximized="1"
     inkscape:current-layer="svg44" /><g
     filter="url(#filter0_di_2_2)"
     id="g6" /><defs
     id="defs42"><filter
       id="filter0_di_2_2"
       x="21"
       y="27"
       width="79"
       height="83"
       filterUnits="userSpaceOnUse"
       color-interpolation-filters="sRGB"><feFlood
         flood-opacity="0"
         result="BackgroundImageFix"
         id="feFlood8" /><feColorMatrix
         in="SourceAlpha"
         type="matrix"
         values="0 0 0 0 0 0 0 0 0 0 0 0 0 0 0 0 0 0 127 0"
         result="hardAlpha"
         id="feColorMatrix10" /><feOffset
         dy="4"
         id="feOffset12" /><feGaussianBlur
         stdDeviation="2"
         id="feGaussianBlur14" /><feComposite
         in2="hardAlpha"
         operator="out"
         id="feComposite16" /><feColorMatrix
         type="matrix"
         values="0 0 0 0 0.261224 0 0 0 0 0.16597 0 0 0 0 0.662652 0 0 0 0.4 0"
         id="feColorMatrix18" /><feBlend
         mode="normal"
         in2="BackgroundImageFix"
         result="effect1_dropShadow_2_2"
         id="feBlend20" /><feBlend
         mode="normal"
         in="SourceGraphic"
         in2="effect1_dropShadow_2_2"
         result="shape"
         id="feBlend22" /><feColorMatrix
         in="SourceAlpha"
         type="matrix"
         values="0 0 0 0 0 0 0 0 0 0 0 0 0 0 0 0 0 0 127 0"
         result="hardAlpha"
         id="feColorMatrix24" /><feOffset
         dy="4"
         id="feOffset26" /><feGaussianBlur
         stdDeviation="2"
         id="feGaussianBlur28" /><feComposite
         in2="hardAlpha"
         operator="arithmetic"
         k2="-1"
         k3="1"
         id="feComposite30" /><feColorMatrix
         type="matrix"
         values="0 0 0 0 0.337255 0 0 0 0 0.227451 0 0 0 0 0.8 0 0 0 0.05 0"
         id="feColorMatrix32" /><feBlend
         mode="normal"
         in2="shape"
         result="effect2_innerShadow_2_2"
         id="feBlend34" /></filter><linearGradient
       id="paint0_linear_2_2"
       x1="61"
       y1="130"
       x2="61"
       y2="-91.5"
       gradientUnits="userSpaceOnUse"><stop
         offset="0.0755157"
         stop-color="#563ACC"
         id="stop37" /><stop
         offset="0.520094"
         stop-color="#6364FF"
         id="stop39" /></linearGradient></defs><g
     style="clip-rule:evenodd;fill-rule:evenodd;image-rendering:optimizeQuality;shape-rendering:geometricPrecision;text-rendering:geometricPrecision"
     id="g4149"
     transform="matrix(0.1290572,0,0,0.12948545,-5.4666919,-1.0015519)"><g
       id="g2603"><path
         style="opacity:1"
         fill="#78b153"
         d="m -0.5,-0.5 c 341.333,0 682.667,0 1024,0 0,341.333 0,682.667 0,1024 -341.333,0 -682.667,0 -1024,0 0,-341.333 0,-682.667 0,-1024 z"
         id="path2601" /></g><g
       id="g2607"><path
         style="opacity:1"
         fill="#7eaf5c"
         d="m 568.5,271.5 c -2.333,0 -4.667,0 -7,0 -5.333,-0.667 -10.667,-1.333 -16,-2 -5.116,-1.306 -10.449,-1.973 -16,-2 -5.156,-0.666 -10.489,-0.999 -16,-1 -8.222,-0.168 -16.222,0.499 -24,2 -2.667,0 -5.333,0 -8,0 2.071,-1.309 4.571,-1.975 7.5,-2 17.602,-0.188 35.102,-1.521 52.5,-4 1,0.167 2,0.333 3,0.5 -2.601,0.92 -5.268,1.587 -8,2 1.444,1.064 3.111,1.564 5,1.5 6.419,-2.702 13.086,-3.535 20,-2.5 -2.551,0.861 -4.884,2.028 -7,3.5 3.959,0.827 7.959,1.327 12,1.5 0.881,0.708 1.547,1.542 2,2.5 z"
         id="path2605" /></g><g
       id="g2611"><path
         style="opacity:1"
         fill="#d4ebca"
         d="m 529.5,267.5 c -11.331,0.407 -22.664,0.741 -34,1 -2,0 -4,0 -6,0 7.778,-1.501 15.778,-2.168 24,-2 5.511,10e-4 10.844,0.334 16,1 z"
         id="path2609" /></g><g
       id="g2615"><path
         style="opacity:1"
         fill="#88b470"
         d="m 481.5,268.5 c -5.498,0.694 -10.831,2.027 -16,4 -1.333,0 -2.667,0 -4,0 0,-0.333 0,-0.667 0,-1 3.098,0.087 3.432,-0.413 1,-1.5 0.333,-0.333 0.667,-0.667 1,-1 5.991,-0.499 11.991,-0.666 18,-0.5 z"
         id="path2613" /></g><g
       id="g2619"><path
         style="opacity:1"
         fill="#fefefe"
         d="m 529.5,267.5 c 5.551,0.027 10.884,0.694 16,2 0.418,0.722 1.084,1.222 2,1.5 4.637,0.829 9.304,1.329 14,1.5 1.333,0 2.667,0 4,0 0.847,1.466 2.18,2.3 4,2.5 3.652,0.499 7.318,0.665 11,0.5 0.333,0 0.667,0 1,0 0.847,1.466 2.18,2.3 4,2.5 9.927,1.401 19.593,3.567 29,6.5 2.306,0.493 4.639,0.826 7,1 1.014,1.174 2.347,1.84 4,2 0,0.667 0.333,1 1,1 0.408,1.143 1.075,2.143 2,3 8.597,2.727 16.263,7.061 23,13 4.344,2.083 8.677,4.083 13,6 0.891,0.61 1.891,0.943 3,1 0.342,0.838 1.008,1.172 2,1 1.085,2.087 2.751,3.42 5,4 1.667,2.333 3.667,4.333 6,6 2,2.333 4,4.667 6,7 1.566,3.731 3.733,7.064 6.5,10 2.648,1.488 5.148,3.154 7.5,5 0.333,3 2,4.667 5,5 0.544,2.08 1.378,4.08 2.5,6 1.011,0.837 2.178,1.17 3.5,1 -0.17,1.322 0.163,2.489 1,3.5 -4.234,-1.076 -5.067,0.424 -2.5,4.5 0.561,0.522 1.228,0.855 2,1 1.393,-1.115 2.893,-1.615 4.5,-1.5 1.211,1.113 1.211,2.28 0,3.5 3.62,0.454 5.787,2.454 6.5,6 1.129,1.641 2.629,2.641 4.5,3 0.667,0.667 1.333,1.333 2,2 0.333,0.667 0.667,1.333 1,2 1.1,1.105 1.767,2.438 2,4 0.081,3.013 1.414,5.013 4,6 2.174,3.015 3.841,6.349 5,10 -0.617,3.995 0.549,7.328 3.5,10 0.333,2 0.667,4 1,6 2.875,5.073 5.709,10.239 8.5,15.5 -0.333,0.333 -0.667,0.667 -1,1 1.678,2.914 3.678,5.414 6,7.5 0.393,1.784 1.059,3.45 2,5 0.693,6.163 2.026,12.163 4,18 -0.333,0.667 -0.667,1.333 -1,2 5.774,14.325 6.607,28.992 2.5,44 -0.69,-1.238 -1.19,-1.238 -1.5,0 -1.852,1.612 -3.185,3.612 -4,6 0.461,2.716 1.127,5.382 2,8 -2.075,6.863 -3.409,13.863 -4,21 -0.966,9.357 -2.3,18.69 -4,28 -0.489,1.495 -1.155,2.829 -2,4 -2.312,4.283 -3.645,8.95 -4,14 -1.198,6.593 -3.198,12.927 -6,19 -1.48,2.888 -2.813,5.888 -4,9 -5.159,8.985 -9.826,18.318 -14,28 -0.333,0 -0.667,0 -1,0 -0.739,-0.131 -1.406,0.036 -2,0.5 -2.847,2.992 -4.514,6.492 -5,10.5 -4.345,6.038 -8.679,12.038 -13,18 -1.333,0 -2.667,0 -4,0 -0.472,3.315 -2.305,5.649 -5.5,7 -0.494,1.634 -0.66,3.301 -0.5,5 -2.667,3 -5.333,6 -8,9 -1.563,1.445 -2.896,3.111 -4,5 -1.278,0.282 -2.278,0.949 -3,2 -2,0.667 -4,1.333 -6,2 0.72,-5.638 1.053,-11.304 1,-17 0,-0.667 0,-1.333 0,-2 1.624,-5.911 2.791,-11.911 3.5,-18 -0.333,-0.667 -0.667,-1.333 -1,-2 -0.741,1.141 -1.575,1.141 -2.5,0 -3.14,0.446 -5.807,1.779 -8,4 1.396,1.352 2.063,3.019 2,5 -3.441,9.29 -4.774,18.956 -4,29 -1.895,3.883 -3.061,8.217 -3.5,13 -0.5,6.325 -0.666,12.658 -0.5,19 -0.997,4.628 -1.997,9.295 -3,14 -1,1.333 -2,2.667 -3,4 -2.357,0.163 -4.69,-0.003 -7,-0.5 -2.663,-2.843 -4.663,-6.009 -6,-9.5 0.237,-1.291 -0.096,-2.291 -1,-3 0,-1 0,-2 0,-3 0.417,-4.317 -0.25,-8.317 -2,-12 0,-0.333 0,-0.667 0,-1 0.024,-12.23 -0.976,-24.23 -3,-36 -1.765,-0.961 -3.765,-1.295 -6,-1 0,1 0,2 0,3 -1.156,7.489 -1.322,15.155 -0.5,23 1.019,2.002 1.852,4.002 2.5,6 0.466,5.991 0.799,11.991 1,18 -1.109,0.057 -2.109,0.39 -3,1 -2.666,0.433 -5.332,0.933 -8,1.5 -0.808,1.706 -2.141,2.539 -4,2.5 0.51,-2.888 -0.156,-5.221 -2,-7 0,-1 0,-2 0,-3 0.163,-7.047 -0.337,-14.047 -1.5,-21 -0.852,-1.071 -1.685,-2.071 -2.5,-3 0.175,-2.121 -0.159,-4.121 -1,-6 0,-1.333 0,-2.667 0,-4 -3.045,-0.158 -5.879,0.509 -8.5,2 -0.096,3.501 0.404,6.834 1.5,10 0.342,0.838 1.008,1.172 2,1 0,0.333 0,0.667 0,1 -0.124,5.569 0.543,10.902 2,16 0.869,2.217 1.202,4.55 1,7 0.27,8.01 0.77,16.01 1.5,24 0.608,1.566 1.442,2.9 2.5,4 0,0.333 0,0.667 0,1 -0.084,5.266 -1.417,10.099 -4,14.5 -3.4,-0.079 -6.4,-1.245 -9,-3.5 -4.06,-3.792 -7.393,-8.126 -10,-13 -1.242,-4.155 -3.242,-7.822 -6,-11 -1.75,-3.835 -3.75,-7.501 -6,-11 -1.955,-5.542 -4.288,-10.875 -7,-16 -0.538,-1.617 -0.871,-3.284 -1,-5 -2,0 -4,0 -6,0 -0.162,2.027 0.005,4.027 0.5,6 3.238,6.942 6.738,13.608 10.5,20 1.409,3.816 3.076,7.483 5,11 -0.466,1.701 -0.466,3.201 0,4.5 -6.387,1.97 -12.387,4.47 -18,7.5 -2.749,-0.226 -5.416,0.107 -8,1 -3.103,-1.812 -6.436,-2.812 -10,-3 -2,-0.333 -4,-0.667 -6,-1 -0.667,-0.667 -1.333,-1.333 -2,-2 0.219,-1.175 -0.114,-2.175 -1,-3 -3.248,-1.145 -6.581,-1.979 -10,-2.5 1.402,-1.342 1.069,-2.176 -1,-2.5 -0.942,0.108 -1.775,0.441 -2.5,1 -1.431,-2.728 -3.431,-3.395 -6,-2 -3.094,-1.066 -6.26,-1.732 -9.5,-2 -3.723,-0.847 -7.389,-1.847 -11,-3 -3.285,-4.134 -7.618,-5.801 -13,-5 -3.377,-0.459 -6.711,-1.126 -10,-2 -3.751,-1.473 -7.417,-3.14 -11,-5 -0.453,-0.958 -1.119,-1.792 -2,-2.5 -2.982,-0.498 -5.982,-0.665 -9,-0.5 -3.407,-1.681 -6.741,-3.347 -10,-5 -0.438,-1.626 -0.772,-3.293 -1,-5 1.304,-2.513 2.304,-5.18 3,-8 2.575,-4.147 4.909,-8.48 7,-13 1.153,-2.97 2.82,-5.637 5,-8 1.25,-0.077 2.083,-0.744 2.5,-2 0.822,-2.617 1.322,-5.284 1.5,-8 1.708,-6.106 3.375,-12.106 5,-18 2.1,-5.68 3.1,-11.68 3,-18 0,-0.667 0,-1.333 0,-2 1.459,-10.906 1.125,-21.906 -1,-33 -0.247,-1.213 -0.914,-1.88 -2,-2 -0.296,-1.903 -0.963,-3.57 -2,-5 -0.023,-2.427 -0.523,-4.76 -1.5,-7 -1.53,-3.061 -3.03,-6.061 -4.5,-9 -1.602,-3.595 -3.602,-6.929 -6,-10 -0.667,-2 -1.333,-4 -2,-6 -1.052,0.149 -2.052,-0.017 -3,-0.5 -1.085,-2.172 -2.419,-4.172 -4,-6 -6.287,-1.819 -12.287,-4.152 -18,-7 1.124,-0.249 2.124,-0.749 3,-1.5 -3.946,-0.684 -7.946,-0.684 -12,0 -3.887,-0.146 -7.554,-0.813 -11,-2 -4.045,-1.677 -8.378,-2.344 -13,-2 -8.673,-0.166 -17.34,0 -26,0.5 -1.237,0.232 -2.237,0.732 -3,1.5 -5.169,0.499 -9.836,2.166 -14,5 -2.525,1.181 -5.025,2.514 -7.5,4 -0.495,1.973 -0.662,3.973 -0.5,6 2.991,0.334 5.324,-0.666 7,-3 2.667,-1 5.333,-2 8,-3 2.687,0.164 5.354,-0.003 8,-0.5 0.881,-0.708 1.547,-1.542 2,-2.5 0.333,0 0.667,0 1,0 12.018,-0.142 24.018,0.191 36,1 0.667,0 1.333,0 2,0 1.792,-0.134 3.458,0.199 5,1 9.303,2.249 18.303,5.582 27,10 1.333,2 3,3.667 5,5 0.919,2.589 2.586,4.589 5,6 0.568,5.137 2.735,9.47 6.5,13 0.333,1.667 0.667,3.333 1,5 0.333,-0.333 0.667,-0.667 1,-1 0.232,1.237 0.732,2.237 1.5,3 0.904,0.709 1.237,1.709 1,3 1.382,9.572 2.382,19.238 3,29 -0.713,6.649 -1.046,13.316 -1,20 -0.088,6.138 -1.421,11.804 -4,17 -1.753,2.646 -2.753,5.646 -3,9 -0.667,2.333 -1.333,4.667 -2,7 -3.823,5.638 -7.156,11.638 -10,18 -0.667,0.333 -1.333,0.667 -2,1 -2.082,0.124 -3.582,1.124 -4.5,3 -0.333,-0.333 -0.667,-0.667 -1,-1 -1.529,1.229 -2.696,2.729 -3.5,4.5 0.237,4.068 0.403,8.234 0.5,12.5 1.33,3.507 3.83,5.173 7.5,5 0.992,-0.172 1.658,0.162 2,1 0.476,2.493 1.81,4.493 4,6 -1.835,0.928 -2.168,2.094 -1,3.5 3.072,0.8 4.739,-0.367 5,-3.5 3.362,-0.43 6.195,0.57 8.5,3 1.707,-0.638 3.54,-0.638 5.5,0 4.851,0.729 9.518,2.062 14,4 0.12,1.086 0.787,1.753 2,2 4.304,1.215 8.638,2.215 13,3 2.788,2.476 6.122,3.476 10,3 7.184,2.618 14.517,4.618 22,6 0.79,0.901 1.79,1.568 3,2 -0.086,0.996 0.248,1.829 1,2.5 5.623,1.93 11.289,3.763 17,5.5 2.442,1.219 4.776,2.719 7,4.5 -2.339,2.55 -1.672,3.05 2,1.5 2.41,1.872 5.077,3.205 8,4 0,3.667 0,7.333 0,11 0,0.667 -0.333,1 -1,1 -1.667,0 -3.333,0 -5,0 0,1 0,2 0,3 -2,0.667 -4,1.333 -6,2 -9.984,0.713 -19.984,1.047 -30,1 -3.402,0.158 -6.736,-0.176 -10,-1 -11.286,-3.169 -22.952,-4.836 -35,-5 -1.667,0 -3.333,0 -5,0 -1.98,-1.605 -4.313,-2.772 -7,-3.5 -3.986,-0.499 -7.986,-0.666 -12,-0.5 -0.333,0 -0.667,0 -1,0 -1.008,-1.839 -2.508,-3.172 -4.5,-4 -4.622,0.109 -9.455,0.109 -14.5,0 -0.111,-0.617 -0.444,-1.117 -1,-1.5 -2.31,-0.497 -4.643,-0.663 -7,-0.5 -0.304,-0.65 -0.637,-1.317 -1,-2 -11.726,-3.562 -23.559,-6.895 -35.5,-10 -4.137,0.737 -8.303,1.071 -12.5,1 -5.047,-1.895 -10.38,-2.895 -16,-3 -2.453,-0.717 -4.787,-1.884 -7,-3.5 -2.982,-0.498 -5.982,-0.665 -9,-0.5 -2.597,-1.389 -4.93,-3.222 -7,-5.5 -3.652,-0.499 -7.318,-0.665 -11,-0.5 -2.246,-0.955 -4.579,-1.622 -7,-2 -2.203,-1.6 -4.536,-2.933 -7,-4 -0.437,-1.574 -1.437,-2.741 -3,-3.5 -3.957,-1.835 -7.957,-3.335 -12,-4.5 -2.64,-1.32 -5.307,-2.653 -8,-4 -6,-4.333 -12,-8.667 -18,-13 -2.639,-1.973 -4.973,-4.306 -7,-7 -0.643,-2.825 -1.977,-5.325 -4,-7.5 0.405,-0.945 1.072,-1.612 2,-2 -0.764,-2.069 -1.264,-4.236 -1.5,-6.5 -0.837,2.344 -2.171,4.344 -4,6 -1.894,-3.373 -4.727,-5.373 -8.5,-6 -2.442,-3.229 -5.108,-6.229 -8,-9 -1.946,-3.939 -4.279,-7.606 -7,-11 0,-0.333 0,-0.667 0,-1 0.143,-1.762 -0.191,-3.429 -1,-5 -2.847,-2.367 -4.68,-5.367 -5.5,-9 -0.671,-0.752 -1.504,-1.086 -2.5,-1 -2.333,-5.333 -4.667,-10.667 -7,-16 -0.122,-6.529 -2.122,-12.196 -6,-17 0,-0.333 0,-0.667 0,-1 -0.407,-3.703 -1.074,-7.37 -2,-11 -0.247,-1.213 -0.914,-1.88 -2,-2 -0.734,-1.208 -1.067,-2.541 -1,-4 -0.84,-4.485 -1.84,-8.819 -3,-13 -1.995,-10.726 -3.328,-21.393 -4,-32 -0.83,-18.975 0.503,-37.642 4,-56 3.215,-7.546 4.882,-15.546 5,-24 0.768,-0.763 1.268,-1.763 1.5,-3 0.371,6.484 1.538,12.818 3.5,19 0.333,-1.167 0.667,-2.333 1,-3.5 -0.667,-3 -1.333,-6 -2,-9 0.327,-1.813 0.993,-3.48 2,-5 -0.3,-2.024 -1.133,-2.524 -2.5,-1.5 -0.167,-1 -0.333,-2 -0.5,-3 1.519,-3.101 2.185,-6.434 2,-10 1.001,-2.672 2.001,-5.338 3,-8 1.517,-0.011 2.684,-0.677 3.5,-2 1.461,-3.179 2.295,-6.512 2.5,-10 0,-0.333 0,-0.667 0,-1 0.996,0.086 1.829,-0.248 2.5,-1 1.015,-2.71 2.515,-5.043 4.5,-7 1.518,2.014 2.185,4.014 2,6 0.668,-2.426 1.002,-4.759 1,-7 -1.586,-1.673 -2.253,-3.673 -2,-6 1.684,-1.791 3.684,-3.291 6,-4.5 -0.333,-0.333 -0.667,-0.667 -1,-1 3.534,-4.513 6.201,-9.346 8,-14.5 1.667,-2.667 3.333,-5.333 5,-8 3.142,-0.299 5.309,-1.966 6.5,-5 1.999,1.753 4.165,3.087 6.5,4 0,-1.667 0,-3.333 0,-5 -1.333,0 -2.667,0 -4,0 0,-1.667 0,-3.333 0,-5 0.667,-1 1.333,-2 2,-3 2.333,-1.667 4.333,-3.667 6,-6 2.667,-0.667 4.333,-2.333 5,-5 1.953,-0.962 3.786,-1.295 5.5,-1 2.197,2.449 3.697,2.283 4.5,-0.5 0.061,-1.711 -0.606,-3.044 -2,-4 1.287,-1.41 2.454,-2.91 3.5,-4.5 1.737,3.033 3.903,3.533 6.5,1.5 -1.293,-0.49 -2.627,-0.657 -4,-0.5 -0.157,-1.373 0.01,-2.707 0.5,-4 1.627,-1.032 2.793,-2.366 3.5,-4 0.711,-1.53 1.711,-2.863 3,-4 1.667,-1.333 3.333,-2.667 5,-4 2.927,-1.257 5.261,-3.257 7,-6 4.231,2.132 6.398,0.799 6.5,-4 0.414,0.457 0.914,0.791 1.5,1 0.952,-1.545 1.285,-3.212 1,-5 0,-0.667 0.333,-1 1,-1 3.082,-1.872 5.749,-4.205 8,-7 1.21,-0.432 2.21,-1.099 3,-2 0.667,-0.333 1.333,-0.667 2,-1 2.091,0.182 4.091,-0.152 6,-1 2.917,-2.875 5.583,-5.875 8,-9 0.473,-1.406 1.473,-2.073 3,-2 6.532,-0.214 11.198,-3.214 14,-9 0.473,-1.406 1.473,-2.073 3,-2 2.788,0.423 4.788,-0.577 6,-3 2.225,-1.394 4.558,-2.56 7,-3.5 0.752,-0.671 1.086,-1.504 1,-2.5 0.667,-0.333 1.333,-0.667 2,-1 1.699,0.16 3.366,-0.006 5,-0.5 3.823,-2.065 7.156,-4.565 10,-7.5 2.066,-1.699 4.4,-3.032 7,-4 1.762,0.143 3.429,-0.191 5,-1 2.342,2.173 4.842,4.173 7.5,6 2.135,-0.627 4.302,-1.127 6.5,-1.5 1.514,-1.439 1.847,-2.939 1,-4.5 -3.049,2.548 -6.383,3.214 -10,2 -0.746,-1.236 -1.079,-2.57 -1,-4 3.988,0.33 6.655,-1.337 8,-5 0,-0.333 0,-0.667 0,-1 3.599,-1.199 7.265,-2.199 11,-3 2.027,0.162 4.027,-0.005 6,-0.5 2.811,-0.983 5.477,-2.149 8,-3.5 7.467,-1.975 15.134,-3.475 23,-4.5 1.733,-1.189 3.4,-2.356 5,-3.5 1.333,0 2.667,0 4,0 4.754,-0.017 9.421,-0.684 14,-2 1.054,0.18 2.054,0.513 3,1 4.477,-0.905 8.811,-1.905 13,-3 11.336,-0.259 22.669,-0.593 34,-1 z"
         id="path2617" /></g><g
       id="g2623"><path
         style="opacity:1"
         fill="#f1fcee"
         d="m 481.5,268.5 c 2.667,0 5.333,0 8,0 2,0 4,0 6,0 -4.189,1.095 -8.523,2.095 -13,3 -0.946,-0.487 -1.946,-0.82 -3,-1 -4.579,1.316 -9.246,1.983 -14,2 5.169,-1.973 10.502,-3.306 16,-4 z"
         id="path2621" /></g><g
       id="g2627"><path
         style="opacity:1"
         fill="#edfce7"
         d="m 545.5,269.5 c 5.333,0.667 10.667,1.333 16,2 0,0.333 0,0.667 0,1 -4.696,-0.171 -9.363,-0.671 -14,-1.5 -0.916,-0.278 -1.582,-0.778 -2,-1.5 z"
         id="path2625" /></g><g
       id="g2631"><path
         style="opacity:1"
         fill="#80ae66"
         d="m 461.5,271.5 c 0,0.333 0,0.667 0,1 -3.962,0.876 -7.962,1.542 -12,2 3.576,-2.228 7.576,-3.228 12,-3 z"
         id="path2629" /></g><g
       id="g2635"><path
         style="opacity:1"
         fill="#88af6c"
         d="m 561.5,272.5 c 0,-0.333 0,-0.667 0,-1 2.333,0 4.667,0 7,0 11.069,1.425 22.069,3.259 33,5.5 2.472,1.978 5.139,3.478 8,4.5 -9.185,-2.629 -18.518,-4.629 -28,-6 -0.333,0 -0.667,0 -1,0 -4.804,-1.361 -9.804,-2.361 -15,-3 -1.333,0 -2.667,0 -4,0 z"
         id="path2633" /></g><g
       id="g2639"><path
         style="opacity:1"
         fill="#e9f8e1"
         d="m 565.5,272.5 c 5.196,0.639 10.196,1.639 15,3 -3.682,0.165 -7.348,-10e-4 -11,-0.5 -1.82,-0.2 -3.153,-1.034 -4,-2.5 z"
         id="path2637" /></g><g
       id="g2643"><path
         style="opacity:1"
         fill="#81ae67"
         d="m 449.5,274.5 c -5.097,2.161 -10.43,3.828 -16,5 1.142,-1.933 2.808,-3.433 5,-4.5 3.652,-0.499 7.318,-0.665 11,-0.5 z"
         id="path2641" /></g><g
       id="g2647"><path
         style="opacity:1"
         fill="#e8f8e3"
         d="m 461.5,272.5 c -1.6,1.144 -3.267,2.311 -5,3.5 -7.866,1.025 -15.533,2.525 -23,4.5 0,-0.333 0,-0.667 0,-1 5.57,-1.172 10.903,-2.839 16,-5 4.038,-0.458 8.038,-1.124 12,-2 z"
         id="path2645" /></g><g
       id="g2651"><path
         style="opacity:1"
         fill="#eafbe5"
         d="m 581.5,275.5 c 9.482,1.371 18.815,3.371 28,6 0.342,0.838 1.008,1.172 2,1 1,0.667 2,1.333 3,2 -9.407,-2.933 -19.073,-5.099 -29,-6.5 -1.82,-0.2 -3.153,-1.034 -4,-2.5 z"
         id="path2649" /></g><g
       id="g2655"><path
         style="opacity:1"
         fill="#8ab06f"
         d="m 433.5,279.5 c 0,0.333 0,0.667 0,1 -3.697,0.508 -7.364,1.174 -11,2 0.847,-1.466 2.18,-2.3 4,-2.5 2.31,-0.497 4.643,-0.663 7,-0.5 z"
         id="path2653" /></g><g
       id="g2659"><path
         style="opacity:1"
         fill="#8cb274"
         d="m 611.5,282.5 c 3.662,0.223 6.995,1.223 10,3 -2.361,-0.174 -4.694,-0.507 -7,-1 -1,-0.667 -2,-1.333 -3,-2 z"
         id="path2657" /></g><g
       id="g2663"><path
         style="opacity:1"
         fill="#84ae6e"
         d="m 422.5,282.5 c -1,0.667 -2,1.333 -3,2 -3.735,0.801 -7.401,1.801 -11,3 3.796,-3.647 8.462,-5.314 14,-5 z"
         id="path2661" /></g><g
       id="g2667"><path
         style="opacity:1"
         fill="#e8f9e0"
         d="m 433.5,280.5 c -2.523,1.351 -5.189,2.517 -8,3.5 -1.973,0.495 -3.973,0.662 -6,0.5 1,-0.667 2,-1.333 3,-2 3.636,-0.826 7.303,-1.492 11,-2 z"
         id="path2665" /></g><g
       id="g2671"><path
         style="opacity:1"
         fill="#88ad6d"
         d="m 406.5,288.5 c -1.28,1.431 -2.947,2.098 -5,2 1.052,-1.756 2.719,-2.423 5,-2 z"
         id="path2669" /></g><g
       id="g2675"><path
         style="opacity:1"
         fill="#88b16c"
         d="m 625.5,287.5 c 13.859,3.751 26.525,10.085 38,19 1.357,1.686 2.69,3.352 4,5 -1.109,-0.057 -2.109,-0.39 -3,-1 -4.483,-3.637 -9.15,-7.137 -14,-10.5 -8.174,-3.588 -16.174,-7.421 -24,-11.5 -0.667,0 -1,-0.333 -1,-1 z"
         id="path2673" /></g><g
       id="g2679"><path
         style="opacity:1"
         fill="#86af6d"
         d="m 401.5,290.5 c -3.034,2.516 -6.368,4.516 -10,6 -2.6,0.968 -4.934,2.301 -7,4 -4.667,2 -9.333,4 -14,6 1.142,-1.933 2.808,-3.433 5,-4.5 7.598,-3.297 14.931,-6.963 22,-11 1.293,-0.49 2.627,-0.657 4,-0.5 z"
         id="path2677" /></g><g
       id="g2683"><path
         style="opacity:1"
         fill="#f6fdf1"
         d="m 406.5,288.5 c 0.667,0 1.333,0 2,0 -1.345,3.663 -4.012,5.33 -8,5 -0.079,1.43 0.254,2.764 1,4 3.617,1.214 6.951,0.548 10,-2 0.847,1.561 0.514,3.061 -1,4.5 -2.198,0.373 -4.365,0.873 -6.5,1.5 -2.658,-1.827 -5.158,-3.827 -7.5,-6 -1.571,0.809 -3.238,1.143 -5,1 3.632,-1.484 6.966,-3.484 10,-6 2.053,0.098 3.72,-0.569 5,-2 z"
         id="path2681" /></g><g
       id="g2687"><path
         style="opacity:1"
         fill="#effae7"
         d="m 626.5,288.5 c 7.826,4.079 15.826,7.912 24,11.5 4.85,3.363 9.517,6.863 14,10.5 -4.323,-1.917 -8.656,-3.917 -13,-6 -6.737,-5.939 -14.403,-10.273 -23,-13 -0.925,-0.857 -1.592,-1.857 -2,-3 z"
         id="path2685" /></g><g
       id="g2691"><path
         style="opacity:1"
         fill="#ecfae4"
         d="m 384.5,300.5 c -2.844,2.935 -6.177,5.435 -10,7.5 -1.634,0.494 -3.301,0.66 -5,0.5 0.333,-0.667 0.667,-1.333 1,-2 4.667,-2 9.333,-4 14,-6 z"
         id="path2689" /></g><g
       id="g2695"><path
         style="opacity:1"
         fill="#8cb076"
         d="m 370.5,306.5 c -0.333,0.667 -0.667,1.333 -1,2 -0.667,0.333 -1.333,0.667 -2,1 -2.693,1.347 -5.36,2.68 -8,4 -0.131,-0.876 0.202,-1.543 1,-2 3.128,-2.14 6.461,-3.807 10,-5 z"
         id="path2693" /></g><g
       id="g2699"><path
         style="opacity:1"
         fill="#ecf9e5"
         d="m 367.5,309.5 c 0.086,0.996 -0.248,1.829 -1,2.5 -2.442,0.94 -4.775,2.106 -7,3.5 -1.212,2.423 -3.212,3.423 -6,3 0.333,-0.667 0.667,-1.333 1,-2 1.911,-0.575 3.578,-1.575 5,-3 2.64,-1.32 5.307,-2.653 8,-4 z"
         id="path2697" /></g><g
       id="g2703"><path
         style="opacity:1"
         fill="#90ae77"
         d="m 669.5,312.5 c 2.249,0.58 3.915,1.913 5,4 -2.249,-0.58 -3.915,-1.913 -5,-4 z"
         id="path2701" /></g><g
       id="g2707"><path
         style="opacity:1"
         fill="#89af6f"
         d="m 354.5,316.5 c -0.333,0.667 -0.667,1.333 -1,2 -1.527,-0.073 -2.527,0.594 -3,2 -4.493,2.079 -8.826,4.412 -13,7 0.011,-1.517 0.677,-2.684 2,-3.5 4.037,-1.35 7.37,-3.683 10,-7 1.634,-0.494 3.301,-0.66 5,-0.5 z"
         id="path2705" /></g><g
       id="g2711"><path
         style="opacity:1"
         fill="#8aaf71"
         d="m 680.5,322.5 c 5.333,3.333 9.667,7.667 13,13 -2.333,-2 -4.667,-4 -7,-6 -2,-2.333 -4,-4.667 -6,-7 z"
         id="path2709" /></g><g
       id="g2715"><path
         style="opacity:1"
         fill="#f1fcee"
         d="m 350.5,320.5 c -2.802,5.786 -7.468,8.786 -14,9 0.333,-0.667 0.667,-1.333 1,-2 4.174,-2.588 8.507,-4.921 13,-7 z"
         id="path2713" /></g><g
       id="g2719"><path
         style="opacity:1"
         fill="#87ae6e"
         d="m 337.5,327.5 c -0.333,0.667 -0.667,1.333 -1,2 -1.527,-0.073 -2.527,0.594 -3,2 -2.667,1.667 -5.333,3.333 -8,5 -0.131,-0.739 0.036,-1.406 0.5,-2 2.634,-2.059 5.134,-4.225 7.5,-6.5 1.293,-0.49 2.627,-0.657 4,-0.5 z"
         id="path2717" /></g><g
       id="g2723"><path
         style="opacity:1"
         fill="#85ad6b"
         d="m 325.5,336.5 c -2,1.667 -4,3.333 -6,5 -0.667,0.333 -1.333,0.667 -2,1 0,-1.333 0,-2.667 0,-4 2.667,-0.667 5.333,-1.333 8,-2 z"
         id="path2721" /></g><g
       id="g2727"><path
         style="opacity:1"
         fill="#edfbe6"
         d="m 333.5,331.5 c -2.417,3.125 -5.083,6.125 -8,9 -1.909,0.848 -3.909,1.182 -6,1 2,-1.667 4,-3.333 6,-5 2.667,-1.667 5.333,-3.333 8,-5 z"
         id="path2725" /></g><g
       id="g2731"><path
         style="opacity:1"
         fill="#e8f7e2"
         d="m 686.5,329.5 c 2.333,2 4.667,4 7,6 2.739,2.733 5.073,5.733 7,9 -2.352,-1.846 -4.852,-3.512 -7.5,-5 -2.767,-2.936 -4.934,-6.269 -6.5,-10 z"
         id="path2729" /></g><g
       id="g2735"><path
         style="opacity:1"
         fill="#8db277"
         d="m 314.5,344.5 c -2.251,2.795 -4.918,5.128 -8,7 1.361,-3.688 4.028,-6.021 8,-7 z"
         id="path2733" /></g><g
       id="g2739"><path
         style="opacity:1"
         fill="#ecfcdf"
         d="m 700.5,344.5 c 1.333,1 2.667,2 4,3 0.333,0.667 0.667,1.333 1,2 -3,-0.333 -4.667,-2 -5,-5 z"
         id="path2737" /></g><g
       id="g2743"><path
         style="opacity:1"
         fill="#85ae6b"
         d="m 704.5,347.5 c 1.644,-0.214 3.144,0.12 4.5,1 6.213,9.23 12.879,18.23 20,27 0.483,0.948 0.649,1.948 0.5,3 -0.667,-0.667 -1.333,-1.333 -2,-2 -4.984,-6.98 -10.317,-13.646 -16,-20 -1.281,-2.947 -3.281,-5.281 -6,-7 -0.333,-0.667 -0.667,-1.333 -1,-2 z"
         id="path2741" /></g><g
       id="g2747"><path
         style="opacity:1"
         fill="#e9f6e4"
         d="m 705.5,349.5 c 2.719,1.719 4.719,4.053 6,7 -1.322,0.17 -2.489,-0.163 -3.5,-1 -1.122,-1.92 -1.956,-3.92 -2.5,-6 z"
         id="path2745" /></g><g
       id="g2751"><path
         style="opacity:1"
         fill="#8aaf70"
         d="m 304.5,352.5 c -1.739,2.743 -4.073,4.743 -7,6 0.011,-1.517 0.677,-2.684 2,-3.5 1.4,-1.438 3.067,-2.271 5,-2.5 z"
         id="path2749" /></g><g
       id="g2755"><path
         style="opacity:1"
         fill="#8daf76"
         d="m 672.5,355.5 c 0,0.333 0,0.667 0,1 -3.018,-0.165 -6.018,0.002 -9,0.5 -0.556,0.383 -0.889,0.883 -1,1.5 -0.333,0 -0.667,0 -1,0 -0.333,0 -0.667,0 -1,0 0.333,-0.667 0.667,-1.333 1,-2 3.457,-2.289 7.124,-2.622 11,-1 z"
         id="path2753" /></g><g
       id="g2759"><path
         style="opacity:1"
         fill="#d5ebc8"
         d="m 672.5,356.5 c 0,-0.333 0,-0.667 0,-1 4.165,1.421 6.165,4.421 6,9 -0.02,1.226 -0.353,2.226 -1,3 0.284,-1.915 -0.049,-3.581 -1,-5 -0.122,-2.792 -1.456,-4.792 -4,-6 z"
         id="path2757" /></g><g
       id="g2763"><path
         style="opacity:1"
         fill="#e6f5e1"
         d="m 661.5,356.5 c -0.333,0.667 -0.667,1.333 -1,2 -0.996,-0.086 -1.829,0.248 -2.5,1 -0.667,3.667 -0.667,7.333 0,11 1.076,2.579 2.909,4.246 5.5,5 6.496,2.422 11.163,0.422 14,-6 0.426,3.999 -1.241,6.499 -5,7.5 -4.827,0.884 -9.494,0.384 -14,-1.5 -1.525,-3.291 -2.191,-6.791 -2,-10.5 0.333,-2.5 0.667,-5 1,-7.5 1.236,-0.746 2.57,-1.079 4,-1 z"
         id="path2761" /></g><g
       id="g2767"><path
         style="opacity:1"
         fill="#f4fdee"
         d="m 304.5,352.5 c 0.333,0 0.667,0 1,0 0.285,1.788 -0.048,3.455 -1,5 -0.586,-0.209 -1.086,-0.543 -1.5,-1 -0.102,4.799 -2.269,6.132 -6.5,4 0.333,-0.667 0.667,-1.333 1,-2 2.927,-1.257 5.261,-3.257 7,-6 z"
         id="path2765" /></g><g
       id="g2771"><path
         style="opacity:1"
         fill="#78b152"
         d="m 675.5,368.5 c -1.783,2.173 -3.783,4.34 -6,6.5 -1.973,0.495 -3.973,0.662 -6,0.5 0.333,-2 0.667,-4 1,-6 -2,0 -4,0 -6,0 -0.165,-3.018 0.002,-6.018 0.5,-9 0.995,-0.566 1.828,-1.233 2.5,-2 0.333,0 0.667,0 1,0 3.264,-0.824 6.598,-1.158 10,-1 -0.216,2.181 0.617,3.847 2.5,5 0.495,1.973 0.662,3.973 0.5,6 z"
         id="path2769" /></g><g
       id="g2775"><path
         style="opacity:1"
         fill="#7fae5f"
         d="m 672.5,356.5 c 2.544,1.208 3.878,3.208 4,6 0.295,2.235 -0.039,4.235 -1,6 0.162,-2.027 -0.005,-4.027 -0.5,-6 -1.883,-1.153 -2.716,-2.819 -2.5,-5 -3.402,-0.158 -6.736,0.176 -10,1 0.111,-0.617 0.444,-1.117 1,-1.5 2.982,-0.498 5.982,-0.665 9,-0.5 z"
         id="path2773" /></g><g
       id="g2779"><path
         style="opacity:1"
         fill="#d3e9c9"
         d="m 296.5,360.5 c -1.739,2.743 -4.073,4.743 -7,6 1.739,-2.743 4.073,-4.743 7,-6 z"
         id="path2777" /></g><g
       id="g2783"><path
         style="opacity:1"
         fill="#f0fbec"
         d="m 711.5,356.5 c 5.683,6.354 11.016,13.02 16,20 -1.871,-0.359 -3.371,-1.359 -4.5,-3 -0.713,-3.546 -2.88,-5.546 -6.5,-6 1.211,-1.22 1.211,-2.387 0,-3.5 -1.607,-0.115 -3.107,0.385 -4.5,1.5 -0.772,-0.145 -1.439,-0.478 -2,-1 -2.567,-4.076 -1.734,-5.576 2.5,-4.5 -0.837,-1.011 -1.17,-2.178 -1,-3.5 z"
         id="path2781" /></g><g
       id="g2787"><path
         style="opacity:1"
         fill="#81b063"
         d="m 660.5,358.5 c 0.333,0 0.667,0 1,0 -0.672,0.767 -1.505,1.434 -2.5,2 -0.498,2.982 -0.665,5.982 -0.5,9 2,0 4,0 6,0 -0.333,2 -0.667,4 -1,6 -2.591,-0.754 -4.424,-2.421 -5.5,-5 -0.667,-3.667 -0.667,-7.333 0,-11 0.671,-0.752 1.504,-1.086 2.5,-1 z"
         id="path2785" /></g><g
       id="g2791"><path
         style="opacity:1"
         fill="#8db273"
         d="m 284.5,370.5 c -1.289,1.137 -2.289,2.47 -3,4 -1.832,0.748 -3.499,1.748 -5,3 1.396,-2.248 3.063,-4.414 5,-6.5 0.948,-0.483 1.948,-0.649 3,-0.5 z"
         id="path2789" /></g><g
       id="g2795"><path
         style="opacity:1"
         fill="#86ac6b"
         d="m 676.5,362.5 c 0.951,1.419 1.284,3.085 1,5 0,0.667 0,1.333 0,2 -2.837,6.422 -7.504,8.422 -14,6 2.027,0.162 4.027,-0.005 6,-0.5 2.217,-2.16 4.217,-4.327 6,-6.5 0.961,-1.765 1.295,-3.765 1,-6 z"
         id="path2793" /></g><g
       id="g2799"><path
         style="opacity:1"
         fill="#ebfbe1"
         d="m 504.5,390.5 c -2.234,-0.947 -4.568,-1.614 -7,-2 -2.432,0.386 -4.766,1.053 -7,2 0.077,-1.25 0.744,-2.083 2,-2.5 3.333,-0.667 6.667,-0.667 10,0 1.256,0.417 1.923,1.25 2,2.5 z"
         id="path2797" /></g><g
       id="g2803"><path
         style="opacity:1"
         fill="#85ae67"
         d="m 730.5,380.5 c 8.58,6.389 13.58,15.056 15,26 -1.153,-2.136 -2.486,-4.136 -4,-6 -1.159,-3.651 -2.826,-6.985 -5,-10 -0.851,-2.382 -2.184,-4.382 -4,-6 -0.233,-1.562 -0.9,-2.895 -2,-4 z"
         id="path2801" /></g><g
       id="g2807"><path
         style="opacity:1"
         fill="#f3faf1"
         d="m 281.5,374.5 c -0.707,1.634 -1.873,2.968 -3.5,4 -0.49,1.293 -0.657,2.627 -0.5,4 1.373,-0.157 2.707,0.01 4,0.5 -2.597,2.033 -4.763,1.533 -6.5,-1.5 -1.046,1.59 -2.213,3.09 -3.5,4.5 1.394,0.956 2.061,2.289 2,4 -0.803,2.783 -2.303,2.949 -4.5,0.5 -1.714,-0.295 -3.547,0.038 -5.5,1 4.333,-4.667 8.667,-9.333 13,-14 1.501,-1.252 3.168,-2.252 5,-3 z"
         id="path2805" /></g><g
       id="g2811"><path
         style="opacity:1"
         fill="#e7f9dd"
         d="m 732.5,384.5 c 1.816,1.618 3.149,3.618 4,6 -2.586,-0.987 -3.919,-2.987 -4,-6 z"
         id="path2809" /></g><g
       id="g2815"><path
         style="opacity:1"
         fill="#87af6e"
         d="m 504.5,390.5 c 1.364,1.691 2.697,3.358 4,5 1.528,8.968 -1.972,14.635 -10.5,17 -5.869,-0.868 -9.536,-4.201 -11,-10 -0.691,-3.521 -0.191,-6.855 1.5,-10 0.667,-0.667 1.333,-1.333 2,-2 2.234,-0.947 4.568,-1.614 7,-2 2.432,0.386 4.766,1.053 7,2 z"
         id="path2813" /></g><g
       id="g2819"><path
         style="opacity:1"
         fill="#d9f2cf"
         d="m 263.5,391.5 c -0.667,2.667 -2.333,4.333 -5,5 1.333,-2 3,-3.667 5,-5 z"
         id="path2817" /></g><g
       id="g2823"><path
         style="opacity:1"
         fill="#7faf5d"
         d="m 276.5,377.5 c -4.333,4.667 -8.667,9.333 -13,14 -2,1.333 -3.667,3 -5,5 -4.153,-0.298 -6.153,1.702 -6,6 -0.667,1 -1.333,2 -2,3 -2.532,3.711 -5.532,7.044 -9,10 1.139,-2.504 1.806,-5.17 2,-8 1.373,0.157 2.707,-0.01 4,-0.5 0.658,-1.905 1.825,-3.405 3.5,-4.5 -1.065,-6.95 1.768,-9.95 8.5,-9 -0.16,-1.699 0.006,-3.366 0.5,-5 1.716,1.052 2.716,0.386 3,-2 0.333,0.333 0.667,0.667 1,1 0.483,-0.948 0.649,-1.948 0.5,-3 3.088,0.303 4.754,-1.03 5,-4 2.172,-1.301 4.505,-2.301 7,-3 z"
         id="path2821" /></g><g
       id="g2827"><path
         style="opacity:1"
         fill="#78b251"
         d="m 493.5,390.5 c 2.027,-0.162 4.027,0.005 6,0.5 1.809,2.238 4.142,3.405 7,3.5 0.165,3.682 -10e-4,7.348 -0.5,11 -2.708,1.396 -5.208,3.063 -7.5,5 -4.744,-0.11 -7.578,-2.444 -8.5,-7 -0.667,-3.333 -0.667,-6.667 0,-10 1.518,-0.663 2.685,-1.663 3.5,-3 z"
         id="path2825" /></g><g
       id="g2831"><path
         style="opacity:1"
         fill="#89b070"
         d="m 258.5,396.5 c -1.667,2.333 -3.667,4.333 -6,6 -0.153,-4.298 1.847,-6.298 6,-6 z"
         id="path2829" /></g><g
       id="g2835"><path
         style="opacity:1"
         fill="#91b37d"
         d="m 646.5,399.5 c 1.792,-0.134 3.458,0.199 5,1 0.38,2.198 -0.287,3.865 -2,5 0,-1.333 0,-2.667 0,-4 -2.756,0.216 -5.09,1.216 -7,3 0.636,-2.295 1.969,-3.961 4,-5 z"
         id="path2833" /></g><g
       id="g2839"><path
         style="opacity:1"
         fill="#f6fbef"
         d="m 646.5,399.5 c -2.031,1.039 -3.364,2.705 -4,5 -2.409,1.201 -4.409,2.867 -6,5 -0.667,0.333 -1.333,0.667 -2,1 -1.263,-1.93 -2.93,-3.597 -5,-5 -0.886,-0.825 -1.219,-1.825 -1,-3 2.198,0.514 4.198,1.514 6,3 2.409,-1.201 4.409,-2.867 6,-5 0.586,0.209 1.086,0.543 1.5,1 1.049,-1.607 2.549,-2.273 4.5,-2 z"
         id="path2837" /></g><g
       id="g2843"><path
         style="opacity:1"
         fill="#79b155"
         d="m 649.5,405.5 c -1.989,0.981 -3.989,1.981 -6,3 -0.667,-0.333 -1.333,-0.667 -2,-1 0.627,-0.917 0.961,-1.917 1,-3 1.91,-1.784 4.244,-2.784 7,-3 0,1.333 0,2.667 0,4 z"
         id="path2841" /></g><g
       id="g2847"><path
         style="opacity:1"
         fill="#7faf5f"
         d="m 754.5,426.5 c -3.517,-6.372 -6.517,-13.038 -9,-20 1.574,0.437 2.741,1.437 3.5,3 0.333,-1.667 0.667,-3.333 1,-5 1.69,2.654 1.856,5.487 0.5,8.5 2.272,4.172 3.605,8.672 4,13.5 z"
         id="path2845" /></g><g
       id="g2851"><path
         style="opacity:1"
         fill="#f5fbec"
         d="m 250.5,405.5 c 0,1.667 0,3.333 0,5 1.333,0 2.667,0 4,0 0,1.667 0,3.333 0,5 -2.335,-0.913 -4.501,-2.247 -6.5,-4 -1.191,3.034 -3.358,4.701 -6.5,5 0,-0.333 0,-0.667 0,-1 3.468,-2.956 6.468,-6.289 9,-10 z"
         id="path2849" /></g><g
       id="g2855"><path
         style="opacity:1"
         fill="#82af68"
         d="m 642.5,404.5 c -0.039,1.083 -0.373,2.083 -1,3 0.667,0.333 1.333,0.667 2,1 2.011,-1.019 4.011,-2.019 6,-3 -2.333,3 -5,5.667 -8,8 0,-1.333 0,-2.667 0,-4 -1.667,0 -3.333,0 -5,0 1.591,-2.133 3.591,-3.799 6,-5 z"
         id="path2853" /></g><g
       id="g2859"><path
         style="opacity:1"
         fill="#edfbe7"
         d="m 488.5,392.5 c -1.691,3.145 -2.191,6.479 -1.5,10 1.464,5.799 5.131,9.132 11,10 8.528,-2.365 12.028,-8.032 10.5,-17 1.802,0.815 2.802,2.315 3,4.5 -3.855,14.175 -12.021,17.341 -24.5,9.5 -0.78,-3.012 -1.947,-5.845 -3.5,-8.5 1.574,-1.826 2.407,-3.993 2.5,-6.5 0.708,-0.881 1.542,-1.547 2.5,-2 z"
         id="path2857" /></g><g
       id="g2863"><path
         style="opacity:1"
         fill="#7cb059"
         d="m 636.5,409.5 c 1.667,0 3.333,0 5,0 0,1.333 0,2.667 0,4 -0.667,1 -1.333,2 -2,3 -1.667,0.667 -3.333,1.333 -5,2 -1.175,0.219 -2.175,-0.114 -3,-1 0.746,-1.236 1.079,-2.57 1,-4 0.333,-0.667 0.667,-1.333 1,-2 0.667,0 1,-0.333 1,-1 0.667,-0.333 1.333,-0.667 2,-1 z"
         id="path2861" /></g><g
       id="g2867"><path
         style="opacity:1"
         fill="#e8fae7"
         d="m 633.5,411.5 c -0.333,0.667 -0.667,1.333 -1,2 -4.333,2.667 -8.667,5.333 -13,8 -0.418,-0.722 -1.084,-1.222 -2,-1.5 5.473,-2.656 10.806,-5.489 16,-8.5 z"
         id="path2865" /></g><g
       id="g2871"><path
         style="opacity:1"
         fill="#effbe9"
         d="m 651.5,400.5 c 1.844,0.704 2.344,2.037 1.5,4 -3.325,3.735 -6.492,7.568 -9.5,11.5 -1.293,0.49 -2.627,0.657 -4,0.5 0.667,-1 1.333,-2 2,-3 3,-2.333 5.667,-5 8,-8 1.713,-1.135 2.38,-2.802 2,-5 z"
         id="path2869" /></g><g
       id="g2875"><path
         style="opacity:1"
         fill="#8cb378"
         d="m 241.5,416.5 c -1.667,2.667 -3.333,5.333 -5,8 -0.333,0 -0.667,0 -1,0 0.563,-3.811 2.563,-6.477 6,-8 z"
         id="path2873" /></g><g
       id="g2879"><path
         style="opacity:1"
         fill="#83b169"
         d="m 632.5,413.5 c 0.079,1.43 -0.254,2.764 -1,4 0.825,0.886 1.825,1.219 3,1 -2.023,3.02 -4.69,5.354 -8,7 2.138,-1.962 3.472,-4.462 4,-7.5 -2.594,-0.449 -4.594,0.551 -6,3 -1.654,0.608 -3.321,1.108 -5,1.5 0,-0.333 0,-0.667 0,-1 4.333,-2.667 8.667,-5.333 13,-8 z"
         id="path2877" /></g><g
       id="g2883"><path
         style="opacity:1"
         fill="#79b156"
         d="m 626.5,425.5 c -2,1 -4,2 -6,3 -3.555,0.387 -6.888,1.387 -10,3 -2,-0.5 -4,-1 -6,-1.5 3.996,-1.331 7.663,-3.165 11,-5.5 1.014,-1.174 2.347,-1.84 4,-2 1.679,-0.392 3.346,-0.892 5,-1.5 1.406,-2.449 3.406,-3.449 6,-3 -0.528,3.038 -1.862,5.538 -4,7.5 z"
         id="path2881" /></g><g
       id="g2887"><path
         style="opacity:1"
         fill="#effae8"
         d="m 561.5,428.5 c -3.286,-0.707 -6.619,-1.04 -10,-1 -0.086,-0.996 0.248,-1.829 1,-2.5 2.667,-0.667 5.333,-0.667 8,0 0.837,1.011 1.17,2.178 1,3.5 z"
         id="path2885" /></g><g
       id="g2891"><path
         style="opacity:1"
         fill="#e5fbe1"
         d="m 613.5,424.5 c -5,2.443 -10.334,4.11 -16,5 0.381,-1.431 1.381,-2.264 3,-2.5 4.316,-0.996 8.649,-1.83 13,-2.5 z"
         id="path2889" /></g><g
       id="g2895"><path
         style="opacity:1"
         fill="#8bb372"
         d="m 551.5,427.5 c 3.381,-0.04 6.714,0.293 10,1 0.667,0 1.333,0 2,0 7.757,1.769 15.757,2.435 24,2 0,0.333 0,0.667 0,1 -10.736,0.314 -21.403,-0.352 -32,-2 -2.267,0.059 -2.933,0.892 -2,2.5 2.667,0.333 5.333,0.667 8,1 0.556,0.383 0.889,0.883 1,1.5 -3.307,-0.551 -6.64,-0.884 -10,-1 -2.031,-1.749 -2.365,-3.749 -1,-6 z"
         id="path2893" /></g><g
       id="g2899"><path
         style="opacity:1"
         fill="#ecfbeb"
         d="m 563.5,428.5 c 10.648,0.777 21.315,1.11 32,1 -2.448,0.973 -5.115,1.306 -8,1 -8.243,0.435 -16.243,-0.231 -24,-2 z"
         id="path2897" /></g><g
       id="g2903"><path
         style="opacity:1"
         fill="#83b166"
         d="m 613.5,424.5 c 0.667,0 1.333,0 2,0 -3.337,2.335 -7.004,4.169 -11,5.5 2,0.5 4,1 6,1.5 3.112,-1.613 6.445,-2.613 10,-3 -4.391,2.526 -9.057,4.526 -14,6 -2.361,0.174 -4.694,0.507 -7,1 1.074,-1.385 2.407,-2.551 4,-3.5 -5.323,-0.499 -10.656,-0.666 -16,-0.5 0,-0.333 0,-0.667 0,-1 2.885,0.306 5.552,-0.027 8,-1 0.667,0 1.333,0 2,0 5.666,-0.89 11,-2.557 16,-5 z"
         id="path2901" /></g><g
       id="g2907"><path
         style="opacity:1"
         fill="#87b06e"
         d="m 230.5,431.5 c -2.575,4.147 -4.909,8.48 -7,13 -0.772,1.194 -1.772,2.194 -3,3 -0.408,-3.099 0.759,-5.433 3.5,-7 1.741,-2.809 2.908,-5.809 3.5,-9 1,0 2,0 3,0 z"
         id="path2905" /></g><g
       id="g2911"><path
         style="opacity:1"
         fill="#edfae7"
         d="m 235.5,424.5 c 0.333,0 0.667,0 1,0 -1.799,5.154 -4.466,9.987 -8,14.5 0.333,0.333 0.667,0.667 1,1 -2.316,1.209 -4.316,2.709 -6,4.5 2.091,-4.52 4.425,-8.853 7,-13 2.022,-2.031 3.689,-4.365 5,-7 z"
         id="path2909" /></g><g
       id="g2915"><path
         style="opacity:1"
         fill="#79b154"
         d="m 587.5,431.5 c 5.344,-0.166 10.677,10e-4 16,0.5 -1.593,0.949 -2.926,2.115 -4,3.5 -0.667,0 -1.333,0 -2,0 -11.683,0.102 -23.35,-0.231 -35,-1 -0.111,-0.617 -0.444,-1.117 -1,-1.5 -2.667,-0.333 -5.333,-0.667 -8,-1 -0.933,-1.608 -0.267,-2.441 2,-2.5 10.597,1.648 21.264,2.314 32,2 z"
         id="path2913" /></g><g
       id="g2919"><path
         style="opacity:1"
         fill="#eefae9"
         d="m 741.5,400.5 c 1.514,1.864 2.847,3.864 4,6 2.483,6.962 5.483,13.628 9,20 0,0.333 0,0.667 0,1 1.941,4.218 3.608,8.551 5,13 -2.322,-2.086 -4.322,-4.586 -6,-7.5 0.333,-0.333 0.667,-0.667 1,-1 -2.791,-5.261 -5.625,-10.427 -8.5,-15.5 -0.333,-2 -0.667,-4 -1,-6 -2.951,-2.672 -4.117,-6.005 -3.5,-10 z"
         id="path2917" /></g><g
       id="g2923"><path
         style="opacity:1"
         fill="#e8f8e2"
         d="m 552.5,433.5 c 3.36,0.116 6.693,0.449 10,1 11.611,3.253 23.278,3.587 35,1 0.667,0 1.333,0 2,0 2.306,-0.493 4.639,-0.826 7,-1 -2.225,1.863 -4.892,2.863 -8,3 -14.401,1.449 -28.735,0.949 -43,-1.5 -1.442,-0.377 -2.442,-1.21 -3,-2.5 z"
         id="path2921" /></g><g
       id="g2927"><path
         style="opacity:1"
         fill="#88ad6a"
         d="m 562.5,434.5 c 11.65,0.769 23.317,1.102 35,1 -11.722,2.587 -23.389,2.253 -35,-1 z"
         id="path2925" /></g><g
       id="g2931"><path
         style="opacity:1"
         fill="#85b169"
         d="m 754.5,427.5 c 0.996,-0.086 1.829,0.248 2.5,1 0.45,2.019 1.283,3.852 2.5,5.5 1.242,0.311 2.242,-0.189 3,-1.5 1.333,1.333 1.333,2.667 0,4 -1.404,-1.499 -2.07,-1.166 -2,1 1.312,3.612 2.312,7.279 3,11 -0.667,-1 -1.333,-2 -2,-3 -0.941,-1.55 -1.607,-3.216 -2,-5 -1.392,-4.449 -3.059,-8.782 -5,-13 z"
         id="path2929" /></g><g
       id="g2935"><path
         style="opacity:1"
         fill="#f1fbee"
         d="m 223.5,444.5 c -0.253,2.327 0.414,4.327 2,6 0.002,2.241 -0.332,4.574 -1,7 0.185,-1.986 -0.482,-3.986 -2,-6 -1.985,1.957 -3.485,4.29 -4.5,7 -0.671,0.752 -1.504,1.086 -2.5,1 1.395,-3.79 3.062,-7.457 5,-11 0,-0.333 0,-0.667 0,-1 1.228,-0.806 2.228,-1.806 3,-3 z"
         id="path2933" /></g><g
       id="g2939"><path
         style="opacity:1"
         fill="#82ae63"
         d="m 220.5,448.5 c -1.938,3.543 -3.605,7.21 -5,11 0,0.333 0,0.667 0,1 -2.508,3.682 -4.508,7.682 -6,12 -0.999,2.662 -1.999,5.328 -3,8 -2.271,5.065 -3.937,10.398 -5,16 -0.333,0 -0.667,0 -1,0 1.465,-8.055 3.131,-16.055 5,-24 1,0 2,0 3,0 -0.16,-1.699 0.006,-3.366 0.5,-5 3,-6 6,-12 9,-18 0.671,-0.752 1.504,-1.086 2.5,-1 z"
         id="path2937" /></g><g
       id="g2943"><path
         style="opacity:1"
         fill="#eaf8e3"
         d="m 761.5,445.5 c 0.667,1 1.333,2 2,3 0.017,2.065 0.35,4.065 1,6 5.425,15.257 7.425,30.924 6,47 0,0.333 0,0.667 0,1 -0.958,4.127 -2.292,8.127 -4,12 -0.129,-1.716 -0.462,-3.383 -1,-5 0.31,-1.238 0.81,-1.238 1.5,0 4.107,-15.008 3.274,-29.675 -2.5,-44 0.333,-0.667 0.667,-1.333 1,-2 -1.974,-5.837 -3.307,-11.837 -4,-18 z"
         id="path2941" /></g><g
       id="g2947"><path
         style="opacity:1"
         fill="#e9f8e3"
         d="m 215.5,460.5 c -0.205,3.488 -1.039,6.821 -2.5,10 -0.816,1.323 -1.983,1.989 -3.5,2 1.492,-4.318 3.492,-8.318 6,-12 z"
         id="path2945" /></g><g
       id="g2951"><path
         style="opacity:1"
         fill="#83ae66"
         d="m 764.5,454.5 c 0.982,0.641 1.982,1.307 3,2 1.178,7.402 2.678,14.735 4.5,22 0.667,6.667 0.667,13.333 0,20 -0.232,1.237 -0.732,2.237 -1.5,3 1.425,-16.076 -0.575,-31.743 -6,-47 z"
         id="path2949" /></g><g
       id="g2955"><path
         style="opacity:1"
         fill="#83ae6a"
         d="m 805.5,496.5 c -1.816,-1.618 -3.149,-3.618 -4,-6 -4.82,-4.601 -10.487,-5.934 -17,-4 1.548,-1.294 3.548,-1.961 6,-2 8.741,-0.483 13.741,3.517 15,12 z"
         id="path2953" /></g><g
       id="g2959"><path
         style="opacity:1"
         fill="#fdfefc"
         d="m 801.5,490.5 c 0.851,2.382 2.184,4.382 4,6 0,1 0,2 0,3 0,1.667 0,3.333 0,5 1.371,17.638 -0.462,34.971 -5.5,52 -0.333,-0.333 -0.667,-0.667 -1,-1 -1.656,2.553 -1.823,5.219 -0.5,8 -3.782,12.225 -8.116,24.225 -13,36 0,0.333 0,0.667 0,1 -2.857,4.38 -5.19,9.047 -7,14 -2.142,4.415 -4.475,8.748 -7,13 -1,0 -2,0 -3,0 -1.441,4.214 -3.441,8.214 -6,12 -1.086,2.92 -1.752,5.92 -2,9 -2.341,5.368 -4.675,10.701 -7,16 -1.37,0.356 -2.37,1.19 -3,2.5 -1.456,3.4 -2.456,6.9 -3,10.5 0,0.333 0,0.667 0,1 -0.958,0.453 -1.792,1.119 -2.5,2 -0.825,3.711 -0.659,7.378 0.5,11 3.397,2.022 7.064,3.022 11,3 0.667,0 1.333,0 2,0 0.473,1.406 1.473,2.073 3,2 0.667,0 1.333,0 2,0 7.452,3.436 14.118,8.103 20,14 0.095,3.192 -0.571,6.192 -2,9 -8.53,2.325 -17.197,2.658 -26,1 -5.403,-3.422 -11.403,-4.755 -18,-4 -1.333,0 -2.667,0 -4,0 -2.015,-1.424 -4.348,-2.09 -7,-2 -1.915,0.284 -3.581,-0.049 -5,-1 0,-1 0,-2 0,-3 -1.624,0.14 -2.79,-0.527 -3.5,-2 -0.519,1.016 -1.353,1.682 -2.5,2 -6.581,-0.607 -12.914,-1.94 -19,-4 -0.333,0 -0.667,0 -1,0 -1.074,-1.784 -2.74,-2.951 -5,-3.5 4.276,-3.621 8.276,-7.454 12,-11.5 1.872,-2.41 3.205,-5.077 4,-8 0,-0.333 0,-0.667 0,-1 4.374,-4.372 8.374,-9.039 12,-14 2.931,-2.75 6.098,-5.416 9.5,-8 0.816,-2.643 1.316,-5.31 1.5,-8 0,-0.667 0,-1.333 0,-2 1.237,-1.465 2.237,-3.132 3,-5 9.887,-16.777 17.887,-34.444 24,-53 0.333,0 0.667,0 1,0 1.69,-2.685 3.19,-5.685 4.5,-9 0.499,-3.652 0.665,-7.318 0.5,-11 1.88,-0.578 2.88,-1.912 3,-4 0.863,-10.8 2.197,-21.466 4,-32 0.333,-2.667 0.667,-5.333 1,-8 0.667,-2 1.333,-4 2,-6 1,0 2,0 3,0 0,-3.333 0,-6.667 0,-10 0,-1.333 0,-2.667 0,-4 1.888,-2.488 2.555,-5.488 2,-9 0,-1 0,-2 0,-3 0.724,-1.718 1.391,-3.552 2,-5.5 4.377,-1.011 8.71,-2.178 13,-3.5 2.965,1.209 5.965,2.209 9,3 z"
         id="path2957" /></g><g
       id="g2963"><path
         style="opacity:1"
         fill="#e7f8e1"
         d="m 801.5,490.5 c -3.035,-0.791 -6.035,-1.791 -9,-3 -4.29,1.322 -8.623,2.489 -13,3.5 -0.609,1.948 -1.276,3.782 -2,5.5 -0.162,-2.027 0.005,-4.027 0.5,-6 2.314,-1.233 4.481,-2.567 6.5,-4 6.513,-1.934 12.18,-0.601 17,4 z"
         id="path2961" /></g><g
       id="g2967"><path
         style="opacity:1"
         fill="#f6fbf0"
         d="m 206.5,480.5 c 0.185,3.566 -0.481,6.899 -2,10 0.167,1 0.333,2 0.5,3 1.367,-1.024 2.2,-0.524 2.5,1.5 -1.007,1.52 -1.673,3.187 -2,5 0.667,3 1.333,6 2,9 -0.333,1.167 -0.667,2.333 -1,3.5 -1.962,-6.182 -3.129,-12.516 -3.5,-19 -0.232,1.237 -0.732,2.237 -1.5,3 1.063,-5.602 2.729,-10.935 5,-16 z"
         id="path2965" /></g><g
       id="g2971"><path
         style="opacity:1"
         fill="#d2eec8"
         d="m 805.5,499.5 c 1.424,2.015 2.09,4.348 2,7 -0.667,-0.667 -1.333,-1.333 -2,-2 0,-1.667 0,-3.333 0,-5 z"
         id="path2969" /></g><g
       id="g2975"><path
         style="opacity:1"
         fill="#d2eaca"
         d="m 777.5,499.5 c 0.555,3.512 -0.112,6.512 -2,9 0.176,-3.227 0.843,-6.227 2,-9 z"
         id="path2973" /></g><g
       id="g2979"><path
         style="opacity:1"
         fill="#85ac66"
         d="m 200.5,496.5 c -0.732,5.594 -2.065,10.927 -4,16 -0.374,-5.87 0.959,-11.203 4,-16 z"
         id="path2977" /></g><g
       id="g2983"><path
         style="opacity:1"
         fill="#ebf9e5"
         d="m 200.5,496.5 c 0.333,0 0.667,0 1,0 -0.118,8.454 -1.785,16.454 -5,24 0,-2.667 0,-5.333 0,-8 1.935,-5.073 3.268,-10.406 4,-16 z"
         id="path2981" /></g><g
       id="g2987"><path
         style="opacity:1"
         fill="#82b065"
         d="m 770.5,502.5 c -0.166,4.346 10e-4,8.679 0.5,13 0.333,0.333 0.667,0.667 1,1 0.608,-1.566 1.442,-2.9 2.5,-4 -0.874,3.289 -1.541,6.623 -2,10 -0.667,2 -1.333,4 -2,6 0.166,-4.014 -10e-4,-8.014 -0.5,-12 -2.128,4.08 -3.962,8.08 -5.5,12 0.987,-4.617 1.654,-9.284 2,-14 1.708,-3.873 3.042,-7.873 4,-12 z"
         id="path2985" /></g><g
       id="g2991"><path
         style="opacity:1"
         fill="#f3fcf1"
         d="m 765.5,509.5 c 0.538,1.617 0.871,3.284 1,5 -0.346,4.716 -1.013,9.383 -2,14 -1.667,5.333 -3.333,10.667 -5,16 0.591,-7.137 1.925,-14.137 4,-21 -0.873,-2.618 -1.539,-5.284 -2,-8 0.815,-2.388 2.148,-4.388 4,-6 z"
         id="path2989" /></g><g
       id="g2995"><path
         style="opacity:1"
         fill="#8bb274"
         d="m 196.5,512.5 c 0,2.667 0,5.333 0,8 -3.497,18.358 -4.83,37.025 -4,56 -1.373,-18.553 -0.873,-37.22 1.5,-56 0.782,-2.81 1.616,-5.477 2.5,-8 z"
         id="path2993" /></g><g
       id="g2999"><path
         style="opacity:1"
         fill="#ecf9e3"
         d="m 774.5,512.5 c 0.333,0 0.667,0 1,0 0,3.333 0,6.667 0,10 -1,0 -2,0 -3,0 0.459,-3.377 1.126,-6.711 2,-10 z"
         id="path2997" /></g><g
       id="g3003"><path
         style="opacity:1"
         fill="#89b56e"
         d="m 805.5,496.5 c 1.755,2.261 2.922,4.928 3.5,8 0.167,4 0.333,8 0.5,12 -0.009,4.393 -0.676,8.393 -2,12 0,-7.333 0,-14.667 0,-22 0.09,-2.652 -0.576,-4.985 -2,-7 0,-1 0,-2 0,-3 z"
         id="path3001" /></g><g
       id="g3007"><path
         style="opacity:1"
         fill="#7cb059"
         d="m 770.5,528.5 c -0.333,2.667 -0.667,5.333 -1,8 -1.268,2.405 -1.935,5.072 -2,8 -1.29,-0.558 -2.123,-1.558 -2.5,-3 -0.499,-4.321 -0.666,-8.654 -0.5,-13 1.538,-3.92 3.372,-7.92 5.5,-12 0.499,3.986 0.666,7.986 0.5,12 z"
         id="path3005" /></g><g
       id="g3011"><path
         style="opacity:1"
         fill="#f0fbf1"
         d="m 805.5,504.5 c 0.667,0.667 1.333,1.333 2,2 0,7.333 0,14.667 0,22 -1.31,5.243 -1.976,10.577 -2,16 -1.663,5.217 -3.33,10.55 -5,16 -0.667,1 -1.333,2 -2,3 -1.323,-2.781 -1.156,-5.447 0.5,-8 0.333,0.333 0.667,0.667 1,1 5.038,-17.029 6.871,-34.362 5.5,-52 z"
         id="path3009" /></g><g
       id="g3015"><path
         style="opacity:1"
         fill="#84b269"
         d="m 764.5,528.5 c -0.166,4.346 10e-4,8.679 0.5,13 0.377,1.442 1.21,2.442 2.5,3 -0.762,4.171 -1.762,8.171 -3,12 -0.088,-5.036 -0.588,-10.036 -1.5,-15 -1.762,8.611 -3.429,17.278 -5,26 -0.757,1.815 -1.59,3.481 -2.5,5 1.7,-9.31 3.034,-18.643 4,-28 1.667,-5.333 3.333,-10.667 5,-16 z"
         id="path3013" /></g><g
       id="g3019"><path
         style="opacity:1"
         fill="#85af6c"
         d="m 805.5,544.5 c 0.699,6.23 -0.968,11.563 -5,16 1.67,-5.45 3.337,-10.783 5,-16 z"
         id="path3017" /></g><g
       id="g3023"><path
         style="opacity:1"
         fill="#90b47f"
         d="m 388.5,557.5 c 0,0.333 0,0.667 0,1 -8.517,-0.326 -16.85,0.007 -25,1 -1.333,0 -2.667,0 -4,0 0.763,-0.768 1.763,-1.268 3,-1.5 8.66,-0.5 17.327,-0.666 26,-0.5 z"
         id="path3021" /></g><g
       id="g3027"><path
         style="opacity:1"
         fill="#dcf2d1"
         d="m 388.5,558.5 c 0,-0.333 0,-0.667 0,-1 4.622,-0.344 8.955,0.323 13,2 -4.31,-0.58 -8.643,-0.914 -13,-1 z"
         id="path3025" /></g><g
       id="g3031"><path
         style="opacity:1"
         fill="#80ad63"
         d="m 363.5,559.5 c 8.15,-0.993 16.483,-1.326 25,-1 4.357,0.086 8.69,0.42 13,1 3.446,1.187 7.113,1.854 11,2 4.059,1.965 8.392,3.465 13,4.5 2.398,1.524 4.731,3.024 7,4.5 -21.959,-9.291 -44.959,-12.958 -69,-11 z"
         id="path3029" /></g><g
       id="g3035"><path
         style="opacity:1"
         fill="#e9f8e5"
         d="m 769.5,536.5 c -1.803,10.534 -3.137,21.2 -4,32 -0.12,2.088 -1.12,3.422 -3,4 0.667,-5.333 1.333,-10.667 2,-16 1.238,-3.829 2.238,-7.829 3,-12 0.065,-2.928 0.732,-5.595 2,-8 z"
         id="path3033" /></g><g
       id="g3039"><path
         style="opacity:1"
         fill="#79b153"
         d="m 363.5,559.5 c 24.041,-1.958 47.041,1.709 69,11 0.333,0 0.667,0 1,0 -0.219,1.175 0.114,2.175 1,3 1.991,1.32 3.991,2.654 6,4 -0.964,2.583 -2.298,3.083 -4,1.5 0.333,-0.333 0.667,-0.667 1,-1 -1.293,-0.49 -2.627,-0.657 -4,-0.5 0.131,-0.876 -0.202,-1.543 -1,-2 -5.488,-2.361 -10.822,-4.861 -16,-7.5 -3.317,-0.498 -6.65,-0.665 -10,-0.5 -1.542,-0.801 -3.208,-1.134 -5,-1 -1.089,-1.617 -2.756,-2.45 -5,-2.5 -6.167,-0.167 -12.333,-0.333 -18.5,-0.5 -6.538,0.004 -12.705,0.67 -18.5,2 -0.333,0 -0.667,0 -1,0 -2.667,0.333 -5.333,0.667 -8,1 0,-1 0,-2 0,-3 4.645,-0.976 8.978,-2.309 13,-4 z"
         id="path3037" /></g><g
       id="g3043"><path
         style="opacity:1"
         fill="#e9f9e0"
         d="m 363.5,565.5 c 4.822,-0.666 9.822,-0.999 15,-1 7.236,-0.202 14.236,0.465 21,2 -11.982,-0.809 -23.982,-1.142 -36,-1 z"
         id="path3041" /></g><g
       id="g3047"><path
         style="opacity:1"
         fill="#93b873"
         d="m 401.5,566.5 c -0.667,0 -1.333,0 -2,0 -6.764,-1.535 -13.764,-2.202 -21,-2 -5.178,10e-4 -10.178,0.334 -15,1 -0.333,0 -0.667,0 -1,0 -1,0 -2,0 -3,0 5.795,-1.33 11.962,-1.996 18.5,-2 6.167,0.167 12.333,0.333 18.5,0.5 2.244,0.05 3.911,0.883 5,2.5 z"
         id="path3045" /></g><g
       id="g3051"><path
         style="opacity:1"
         fill="#7faf60"
         d="m 359.5,559.5 c 1.333,0 2.667,0 4,0 -4.022,1.691 -8.355,3.024 -13,4 0,1 0,2 0,3 2.667,-0.333 5.333,-0.667 8,-1 -2,1 -4,2 -6,3 -2.667,1 -5.333,2 -8,3 -0.667,0 -1.333,0 -2,0 2.401,-1.039 4.735,-2.373 7,-4 -1.545,-0.952 -3.212,-1.285 -5,-1 0.333,-0.667 0.667,-1.333 1,-2 4.164,-2.834 8.831,-4.501 14,-5 z"
         id="path3049" /></g><g
       id="g3055"><path
         style="opacity:1"
         fill="#e8f9e6"
         d="m 358.5,565.5 c 0.333,0 0.667,0 1,0 1,0 2,0 3,0 -0.453,0.958 -1.119,1.792 -2,2.5 -2.646,0.497 -5.313,0.664 -8,0.5 2,-1 4,-2 6,-3 z"
         id="path3053" /></g><g
       id="g3059"><path
         style="opacity:1"
         fill="#77b14d"
         d="m 344.5,566.5 c 1.788,-0.285 3.455,0.048 5,1 -2.265,1.627 -4.599,2.961 -7,4 -1.083,0.039 -2.083,0.373 -3,1 -0.333,-0.5 -0.667,-1 -1,-1.5 1.858,-1.755 3.858,-3.255 6,-4.5 z"
         id="path3057" /></g><g
       id="g3063"><path
         style="opacity:1"
         fill="#ebf8e5"
         d="m 448.5,582.5 c -4.423,-4.76 -9.423,-8.76 -15,-12 -0.333,0 -0.667,0 -1,0 -2.269,-1.476 -4.602,-2.976 -7,-4.5 -4.608,-1.035 -8.941,-2.535 -13,-4.5 4.054,-0.684 8.054,-0.684 12,0 -0.876,0.751 -1.876,1.251 -3,1.5 5.713,2.848 11.713,5.181 18,7 1.581,1.828 2.915,3.828 4,6 0.948,0.483 1.948,0.649 3,0.5 0.667,2 1.333,4 2,6 z"
         id="path3061" /></g><g
       id="g3067"><path
         style="opacity:1"
         fill="#89af6d"
         d="m 345.5,564.5 c -0.333,0.667 -0.667,1.333 -1,2 -2.142,1.245 -4.142,2.745 -6,4.5 0.333,0.5 0.667,1 1,1.5 0.917,-0.627 1.917,-0.961 3,-1 0.667,0 1.333,0 2,0 -1.676,2.334 -4.009,3.334 -7,3 -0.162,-2.027 0.005,-4.027 0.5,-6 2.475,-1.486 4.975,-2.819 7.5,-4 z"
         id="path3065" /></g><g
       id="g3071"><path
         style="opacity:1"
         fill="#8bb36f"
         d="m 406.5,567.5 c 3.35,-0.165 6.683,0.002 10,0.5 5.178,2.639 10.512,5.139 16,7.5 0.798,0.457 1.131,1.124 1,2 -8.697,-4.418 -17.697,-7.751 -27,-10 z"
         id="path3069" /></g><g
       id="g3075"><path
         style="opacity:1"
         fill="#7bb058"
         d="m 764.5,556.5 c -0.667,5.333 -1.333,10.667 -2,16 -0.667,1.333 -1.333,2.667 -2,4 -1.225,0.652 -1.892,1.819 -2,3.5 -1.195,4.084 -1.861,8.25 -2,12.5 -2.056,1.74 -3.389,4.073 -4,7 -0.989,-3.607 -1.323,-7.274 -1,-11 0.538,-4.024 1.205,-8.024 2,-12 0.845,-1.171 1.511,-2.505 2,-4 0.91,-1.519 1.743,-3.185 2.5,-5 1.571,-8.722 3.238,-17.389 5,-26 0.912,4.964 1.412,9.964 1.5,15 z"
         id="path3073" /></g><g
       id="g3079"><path
         style="opacity:1"
         fill="#81ae63"
         d="m 433.5,570.5 c 5.577,3.24 10.577,7.24 15,12 2.398,3.071 4.398,6.405 6,10 -2.251,-2.09 -4.417,-4.423 -6.5,-7 -0.333,0.333 -0.667,0.667 -1,1 2.071,4.331 3.571,8.997 4.5,14 -2.158,-4.31 -4.825,-8.31 -8,-12 -0.919,-2.589 -2.586,-4.589 -5,-6 -2,-1.333 -3.667,-3 -5,-5 1.373,-0.157 2.707,0.01 4,0.5 -0.333,0.333 -0.667,0.667 -1,1 1.702,1.583 3.036,1.083 4,-1.5 -2.009,-1.346 -4.009,-2.68 -6,-4 -0.886,-0.825 -1.219,-1.825 -1,-3 z"
         id="path3077" /></g><g
       id="g3083"><path
         style="opacity:1"
         fill="#d4f1cc"
         d="m 438.5,582.5 c 2.414,1.411 4.081,3.411 5,6 -2.414,-1.411 -4.081,-3.411 -5,-6 z"
         id="path3081" /></g><g
       id="g3087"><path
         style="opacity:1"
         fill="#e7f9df"
         d="m 753.5,576.5 c -0.795,3.976 -1.462,7.976 -2,12 -0.667,0.667 -1.333,1.333 -2,2 0.355,-5.05 1.688,-9.717 4,-14 z"
         id="path3085" /></g><g
       id="g3091"><path
         style="opacity:1"
         fill="#edfbe9"
         d="m 762.5,572.5 c 0.165,3.682 -10e-4,7.348 -0.5,11 -1.31,3.315 -2.81,6.315 -4.5,9 1,-5.332 2,-10.665 3,-16 0.667,-1.333 1.333,-2.667 2,-4 z"
         id="path3089" /></g><g
       id="g3095"><path
         style="opacity:1"
         fill="#8cb372"
         d="m 800.5,560.5 c 0.475,5.623 -1.025,10.623 -4.5,15 -1.145,5.297 -3.145,10.297 -6,15 0.352,4.042 -1.148,7.042 -4.5,9 4.884,-11.775 9.218,-23.775 13,-36 0.667,-1 1.333,-2 2,-3 z"
         id="path3093" /></g><g
       id="g3099"><path
         style="opacity:1"
         fill="#8ab170"
         d="m 760.5,576.5 c -1,5.335 -2,10.668 -3,16 -0.333,0 -0.667,0 -1,0 0.139,-4.25 0.805,-8.416 2,-12.5 0.108,-1.681 0.775,-2.848 2,-3.5 z"
         id="path3097" /></g><g
       id="g3103"><path
         style="opacity:1"
         fill="#86b26a"
         d="m 192.5,576.5 c 0.672,10.607 2.005,21.274 4,32 0,2.667 0,5.333 0,8 -3.5,-12.956 -4.833,-26.289 -4,-40 z"
         id="path3101" /></g><g
       id="g3107"><path
         style="opacity:1"
         fill="#83b065"
         d="m 751.5,588.5 c -0.323,3.726 0.011,7.393 1,11 0.611,-2.927 1.944,-5.26 4,-7 -6.113,18.556 -14.113,36.223 -24,53 0.921,-5.011 2.754,-9.678 5.5,-14 0.781,-1.444 0.614,-2.777 -0.5,-4 -3.853,5.058 -6.686,10.725 -8.5,17 -1.113,0.805 -2.279,1.472 -3.5,2 4.174,-9.682 8.841,-19.015 14,-28 -0.253,2.327 0.414,4.327 2,6 2.362,-3.87 4.529,-7.87 6.5,-12 1.277,-3.597 1.61,-7.264 1,-11 -1.609,2.907 -3.442,5.573 -5.5,8 2.802,-6.073 4.802,-12.407 6,-19 0.667,-0.667 1.333,-1.333 2,-2 z"
         id="path3105" /></g><g
       id="g3111"><path
         style="opacity:1"
         fill="#e4f5dc"
         d="m 443.5,588.5 c 3.175,3.69 5.842,7.69 8,12 0.057,1.109 0.39,2.109 1,3 0.801,1.542 1.134,3.208 1,5 -0.768,-0.763 -1.268,-1.763 -1.5,-3 -0.333,0.333 -0.667,0.667 -1,1 -0.333,-1.667 -0.667,-3.333 -1,-5 -3.765,-3.53 -5.932,-7.863 -6.5,-13 z"
         id="path3109" /></g><g
       id="g3115"><path
         style="opacity:1"
         fill="#83b066"
         d="m 785.5,600.5 c 0.263,6.044 -2.071,10.71 -7,14 1.81,-4.953 4.143,-9.62 7,-14 z"
         id="path3113" /></g><g
       id="g3119"><path
         style="opacity:1"
         fill="#83ad68"
         d="m 452.5,603.5 c 1.25,0.077 2.083,0.744 2.5,2 1.153,4.287 1.987,8.621 2.5,13 -0.849,-2.388 -1.849,-4.721 -3,-7 0.237,-1.291 -0.096,-2.291 -1,-3 0.134,-1.792 -0.199,-3.458 -1,-5 z"
         id="path3117" /></g><g
       id="g3123"><path
         style="opacity:1"
         fill="#7bb156"
         d="m 739.5,618.5 c 1.187,-3.112 2.52,-6.112 4,-9 2.058,-2.427 3.891,-5.093 5.5,-8 0.61,3.736 0.277,7.403 -1,11 -1.971,4.13 -4.138,8.13 -6.5,12 -1.586,-1.673 -2.253,-3.673 -2,-6 z"
         id="path3121" /></g><g
       id="g3127"><path
         style="opacity:1"
         fill="#a6c993"
         d="m 196.5,608.5 c 1.16,4.181 2.16,8.515 3,13 -0.667,-1 -1.333,-2 -2,-3 0.172,-0.992 -0.162,-1.658 -1,-2 0,-2.667 0,-5.333 0,-8 z"
         id="path3125" /></g><g
       id="g3131"><path
         style="opacity:1"
         fill="#83b06a"
         d="m 460.5,608.5 c 1.037,1.43 1.704,3.097 2,5 2.688,11.485 3.688,23.151 3,35 0,0.667 0,1.333 0,2 -0.667,2 -1.333,4 -2,6 0.885,-8.987 1.052,-17.987 0.5,-27 -0.085,-3.971 -1.085,-7.638 -3,-11 -0.498,-3.317 -0.665,-6.65 -0.5,-10 z"
         id="path3129" /></g><g
       id="g3135"><path
         style="opacity:1"
         fill="#7ab155"
         d="m 454.5,592.5 c 1.47,2.939 2.97,5.939 4.5,9 0.977,2.24 1.477,4.573 1.5,7 -0.165,3.35 0.002,6.683 0.5,10 1.915,3.362 2.915,7.029 3,11 0.552,9.013 0.385,18.013 -0.5,27 0,1.667 0,3.333 0,5 -1.877,3.987 -3.711,7.987 -5.5,12 -2,-2 -2,-4 0,-6 0.499,-3.652 0.665,-7.318 0.5,-11 1.277,-1.194 1.944,-2.86 2,-5 1.291,-10.35 1.124,-20.683 -0.5,-31 -0.333,1 -0.667,2 -1,3 -0.198,-1.882 -0.698,-3.548 -1.5,-5 -0.513,-4.379 -1.347,-8.713 -2.5,-13 -0.417,-1.256 -1.25,-1.923 -2.5,-2 -0.61,-0.891 -0.943,-1.891 -1,-3 -0.929,-5.003 -2.429,-9.669 -4.5,-14 0.333,-0.333 0.667,-0.667 1,-1 2.083,2.577 4.249,4.91 6.5,7 z"
         id="path3133" /></g><g
       id="g3139"><path
         style="opacity:1"
         fill="#8bb170"
         d="m 778.5,614.5 c -1.042,4.419 -2.375,8.752 -4,13 -1.445,1.563 -3.111,2.896 -5,4 0.233,-1.562 0.9,-2.895 2,-4 2.525,-4.252 4.858,-8.585 7,-13 z"
         id="path3137" /></g><g
       id="g3143"><path
         style="opacity:1"
         fill="#7faf60"
         d="m 774.5,627.5 c -1.82,3.144 -3.487,6.477 -5,10 -1.142,1.326 -2.476,2.326 -4,3 1.061,-3.122 2.395,-6.122 4,-9 1.889,-1.104 3.555,-2.437 5,-4 z"
         id="path3141" /></g><g
       id="g3147"><path
         style="opacity:1"
         fill="#86af6e"
         d="m 197.5,618.5 c 0.667,1 1.333,2 2,3 -0.067,1.459 0.266,2.792 1,4 0.493,2.306 0.826,4.639 1,7 -1.25,-0.077 -2.083,-0.744 -2.5,-2 -0.501,-4.01 -1.001,-8.01 -1.5,-12 z"
         id="path3145" /></g><g
       id="g3151"><path
         style="opacity:1"
         fill="#e6f4df"
         d="m 462.5,613.5 c 1.086,0.12 1.753,0.787 2,2 2.125,11.094 2.459,22.094 1,33 0.688,-11.849 -0.312,-23.515 -3,-35 z"
         id="path3149" /></g><g
       id="g3155"><path
         style="opacity:1"
         fill="#effdea"
         d="m 200.5,625.5 c 1.086,0.12 1.753,0.787 2,2 0.926,3.63 1.593,7.297 2,11 -1,-2 -2,-4 -3,-6 -0.174,-2.361 -0.507,-4.694 -1,-7 z"
         id="path3153" /></g><g
       id="g3159"><path
         style="opacity:1"
         fill="#ecfaea"
         d="m 771.5,627.5 c -1.1,1.105 -1.767,2.438 -2,4 -1.605,2.878 -2.939,5.878 -4,9 -1.511,2.505 -2.845,5.172 -4,8 -0.333,0 -0.667,0 -1,0 0.248,-3.08 0.914,-6.08 2,-9 2.559,-3.786 4.559,-7.786 6,-12 1,0 2,0 3,0 z"
         id="path3157" /></g><g
       id="g3163"><path
         style="opacity:1"
         fill="#81ad62"
         d="m 457.5,618.5 c 0.802,1.452 1.302,3.118 1.5,5 0.333,-1 0.667,-2 1,-3 1.624,10.317 1.791,20.65 0.5,31 -0.056,2.14 -0.723,3.806 -2,5 0.122,-6.175 0.455,-12.342 1,-18.5 -0.504,-6.523 -1.171,-13.023 -2,-19.5 z"
         id="path3161" /></g><g
       id="g3167"><path
         style="opacity:1"
         fill="#eefaed"
         d="m 204.5,639.5 c 3.878,4.804 5.878,10.471 6,17 -2.755,-5.257 -4.755,-10.923 -6,-17 z"
         id="path3165" /></g><g
       id="g3171"><path
         style="opacity:1"
         fill="#77b256"
         d="m 732.5,645.5 c -0.763,1.868 -1.763,3.535 -3,5 -3.991,0.628 -5.324,-0.705 -4,-4 1.221,-0.528 2.387,-1.195 3.5,-2 1.814,-6.275 4.647,-11.942 8.5,-17 1.114,1.223 1.281,2.556 0.5,4 -2.746,4.322 -4.579,8.989 -5.5,14 z"
         id="path3169" /></g><g
       id="g3175"><path
         style="opacity:1"
         fill="#e7f7e2"
         d="m 454.5,611.5 c 1.151,2.279 2.151,4.612 3,7 0.829,6.477 1.496,12.977 2,19.5 -0.545,6.158 -0.878,12.325 -1,18.5 -0.667,1.333 -1.333,2.667 -2,4 -0.046,-6.684 0.287,-13.351 1,-20 -0.618,-9.762 -1.618,-19.428 -3,-29 z"
         id="path3173" /></g><g
       id="g3179"><path
         style="opacity:1"
         fill="#edfae1"
         d="m 724.5,646.5 c -1.029,2.017 -2.029,4.017 -3,6 -1.333,1.667 -2.667,3.333 -4,5 0.486,-4.008 2.153,-7.508 5,-10.5 0.594,-0.464 1.261,-0.631 2,-0.5 z"
         id="path3177" /></g><g
       id="g3183"><path
         style="opacity:1"
         fill="#f0fced"
         d="m 729.5,652.5 c -0.184,2.69 -0.684,5.357 -1.5,8 -3.402,2.584 -6.569,5.25 -9.5,8 3.679,-5.371 7.346,-10.704 11,-16 z"
         id="path3181" /></g><g
       id="g3187"><path
         style="opacity:1"
         fill="#87b06c"
         d="m 760.5,648.5 c 0.333,0 0.667,0 1,0 -1.149,4.311 -2.316,8.644 -3.5,13 -0.589,2.363 -2.089,3.363 -4.5,3 2.325,-5.299 4.659,-10.632 7,-16 z"
         id="path3185" /></g><g
       id="g3191"><path
         style="opacity:1"
         fill="#85b16a"
         d="m 201.5,632.5 c 1,2 2,4 3,6 0,0.333 0,0.667 0,1 1.245,6.077 3.245,11.743 6,17 2.333,5.333 4.667,10.667 7,16 0,0.333 0,0.667 0,1 -0.996,0.086 -1.829,-0.248 -2.5,-1 -2.339,-6.01 -4.673,-12.01 -7,-18 -1.241,1.921 -2.741,2.254 -4.5,1 1.437,-1.521 2.104,-3.355 2,-5.5 -2.389,-5.512 -3.722,-11.346 -4,-17.5 z"
         id="path3189" /></g><g
       id="g3195"><path
         style="opacity:1"
         fill="#cfe9c8"
         d="m 465.5,650.5 c 0.1,6.32 -0.9,12.32 -3,18 0.174,-2.361 0.507,-4.694 1,-7 0,-1.667 0,-3.333 0,-5 0.667,-2 1.333,-4 2,-6 z"
         id="path3193" /></g><g
       id="g3199"><path
         style="opacity:1"
         fill="#e9f6e5"
         d="m 674.5,686.5 c 1.097,-4.821 1.097,-9.487 0,-14 -1.085,-2.082 -2.585,-2.416 -4.5,-1 -0.512,6.057 -1.345,12.057 -2.5,18 0,0.667 0,1.333 0,2 -1.092,4.316 -2.092,8.649 -3,13 -0.774,-10.044 0.559,-19.71 4,-29 0.063,-1.981 -0.604,-3.648 -2,-5 2.193,-2.221 4.86,-3.554 8,-4 0.925,1.141 1.759,1.141 2.5,0 0.333,0.667 0.667,1.333 1,2 -0.709,6.089 -1.876,12.089 -3.5,18 z"
         id="path3197" /></g><g
       id="g3203"><path
         style="opacity:1"
         fill="#7fb161"
         d="m 724.5,646.5 c 0.333,0 0.667,0 1,0 -1.324,3.295 0.009,4.628 4,4 0,0.667 0,1.333 0,2 -3.654,5.296 -7.321,10.629 -11,16 -3.626,4.961 -7.626,9.628 -12,14 0.285,-1.788 -0.048,-3.455 -1,-5 -1.352,1.024 -2.685,2.024 -4,3 0.575,-1.911 1.575,-3.578 3,-5 4.321,-5.962 8.655,-11.962 13,-18 1.333,-1.667 2.667,-3.333 4,-5 0.971,-1.983 1.971,-3.983 3,-6 z"
         id="path3201" /></g><g
       id="g3207"><path
         style="opacity:1"
         fill="#77b253"
         d="m 721.5,652.5 c 1.322,0.17 2.489,-0.163 3.5,-1 0.5,0.5 1,1 1.5,1.5 -1.874,2.911 -3.874,5.745 -6,8.5 -0.333,-0.667 -0.667,-1.333 -1,-2 1.437,-2.077 2.104,-4.41 2,-7 z"
         id="path3205" /></g><g
       id="g3211"><path
         style="opacity:1"
         fill="#edfce2"
         d="m 753.5,664.5 c 0,0.667 0,1.333 0,2 -2.254,3.507 -4.254,7.173 -6,11 0.544,-3.6 1.544,-7.1 3,-10.5 0.63,-1.31 1.63,-2.144 3,-2.5 z"
         id="path3209" /></g><g
       id="g3215"><path
         style="opacity:1"
         fill="#83b066"
         d="m 753.5,666.5 c -0.939,7.405 -3.272,14.405 -7,21 1.493,0.641 2.493,1.641 3,3 -2.636,0.009 -3.969,-1.325 -4,-4 0.468,-2.733 1.135,-5.4 2,-8 0,-0.333 0,-0.667 0,-1 1.746,-3.827 3.746,-7.493 6,-11 z"
         id="path3213" /></g><g
       id="g3219"><path
         style="opacity:1"
         fill="#81af63"
         d="m 458.5,656.5 c 0.165,3.682 -10e-4,7.348 -0.5,11 -2,2 -2,4 0,6 1.789,-4.013 3.623,-8.013 5.5,-12 -0.493,2.306 -0.826,4.639 -1,7 -1.625,5.894 -3.292,11.894 -5,18 -0.333,0 -0.667,0 -1,0 0.783,-3.646 0.95,-7.312 0.5,-11 -3.36,3.577 -5.193,7.91 -5.5,13 -1.008,1.999 -2.341,3.666 -4,5 0.667,-2.333 1.333,-4.667 2,-7 1.753,-2.646 2.753,-5.646 3,-9 2.579,-5.196 3.912,-10.862 4,-17 0.667,-1.333 1.333,-2.667 2,-4 z"
         id="path3217" /></g><g
       id="g3223"><path
         style="opacity:1"
         fill="#e7f7e0"
         d="m 217.5,673.5 c 0,-0.333 0,-0.667 0,-1 0.996,-0.086 1.829,0.248 2.5,1 0.82,3.633 2.653,6.633 5.5,9 0.809,1.571 1.143,3.238 1,5 -0.667,-0.667 -1.333,-1.333 -2,-2 -2.337,-4.008 -4.67,-8.008 -7,-12 z"
         id="path3221" /></g><g
       id="g3227"><path
         style="opacity:1"
         fill="#85af65"
         d="m 217.5,673.5 c 2.33,3.992 4.663,7.992 7,12 -4.378,-2.75 -6.712,-6.75 -7,-12 z"
         id="path3225" /></g><g
       id="g3231"><path
         style="opacity:1"
         fill="#f0fce7"
         d="m 704.5,675.5 c -1.425,1.422 -2.425,3.089 -3,5 -2.694,2.027 -5.027,4.361 -7,7 -0.16,-1.699 0.006,-3.366 0.5,-5 3.195,-1.351 5.028,-3.685 5.5,-7 1.333,0 2.667,0 4,0 z"
         id="path3229" /></g><g
       id="g3235"><path
         style="opacity:1"
         fill="#7bb057"
         d="m 706.5,682.5 c 0,0.333 0,0.667 0,1 -2.929,4.599 -6.596,8.599 -11,12 -2.693,0.52 -4.693,2.02 -6,4.5 -0.948,0.483 -1.948,0.649 -3,0.5 0,-1.333 0,-2.667 0,-4 6.418,-4.082 11.418,-9.415 15,-16 1.315,-0.976 2.648,-1.976 4,-3 0.952,1.545 1.285,3.212 1,5 z"
         id="path3233" /></g><g
       id="g3239"><path
         style="opacity:1"
         fill="#78b251"
         d="m 456.5,686.5 c -4.007,5.334 -6.673,11.334 -8,18 -2.388,0.719 -3.888,2.385 -4.5,5 -0.638,-1.109 -1.138,-2.275 -1.5,-3.5 0.644,-3.305 2.144,-6.138 4.5,-8.5 0.49,-1.293 0.657,-2.627 0.5,-4 1.659,-1.334 2.992,-3.001 4,-5 0.307,-5.09 2.14,-9.423 5.5,-13 0.45,3.688 0.283,7.354 -0.5,11 z"
         id="path3237" /></g><g
       id="g3243"><path
         style="opacity:1"
         fill="#e0f4d7"
         d="m 452.5,677.5 c -0.247,3.354 -1.247,6.354 -3,9 0.247,-3.354 1.247,-6.354 3,-9 z"
         id="path3241" /></g><g
       id="g3247"><path
         style="opacity:1"
         fill="#84ae67"
         d="m 674.5,672.5 c -1.333,0 -2.667,0 -4,0 0.328,5.375 -0.005,10.708 -1,16 -0.683,0.363 -1.35,0.696 -2,1 1.155,-5.943 1.988,-11.943 2.5,-18 1.915,-1.416 3.415,-1.082 4.5,1 z"
         id="path3245" /></g><g
       id="g3251"><path
         style="opacity:1"
         fill="#8db280"
         d="m 224.5,685.5 c 0.667,0.667 1.333,1.333 2,2 0,0.333 0,0.667 0,1 -1.548,-0.321 -2.215,-1.321 -2,-3 z"
         id="path3249" /></g><g
       id="g3255"><path
         style="opacity:1"
         fill="#e7fee3"
         d="m 635.5,689.5 c -2.358,-0.247 -4.358,0.419 -6,2 0,-1 0,-2 0,-3 2.235,-0.295 4.235,0.039 6,1 z"
         id="path3253" /></g><g
       id="g3259"><path
         style="opacity:1"
         fill="#8eb278"
         d="m 701.5,680.5 c -3.582,6.585 -8.582,11.918 -15,16 2.667,-3 5.333,-6 8,-9 1.973,-2.639 4.306,-4.973 7,-7 z"
         id="path3257" /></g><g
       id="g3263"><path
         style="opacity:1"
         fill="#8fb579"
         d="m 635.5,689.5 c 0,1 0,2 0,3 -2.563,-0.877 -4.23,0.123 -5,3 0,3.333 0,6.667 0,10 0,0.667 0,1.333 0,2 -0.988,-5.14 -1.321,-10.474 -1,-16 1.642,-1.581 3.642,-2.247 6,-2 z"
         id="path3261" /></g><g
       id="g3267"><path
         style="opacity:1"
         fill="#e8f8e2"
         d="m 747.5,678.5 c -0.865,2.6 -1.532,5.267 -2,8 0.031,2.675 1.364,4.009 4,4 2.203,1.6 4.536,2.933 7,4 -3.936,0.022 -7.603,-0.978 -11,-3 -1.159,-3.622 -1.325,-7.289 -0.5,-11 0.708,-0.881 1.542,-1.547 2.5,-2 z"
         id="path3265" /></g><g
       id="g3271"><path
         style="opacity:1"
         fill="#e9f7de"
         d="m 456.5,686.5 c 0.333,0 0.667,0 1,0 -0.178,2.716 -0.678,5.383 -1.5,8 -0.417,1.256 -1.25,1.923 -2.5,2 1.008,-3.344 2.008,-6.677 3,-10 z"
         id="path3269" /></g><g
       id="g3275"><path
         style="opacity:1"
         fill="#7ead63"
         d="m 635.5,692.5 c 0.023,7.683 0.357,15.35 1,23 -0.667,-2 -1.333,-4 -2,-6 0.328,-5.375 -0.005,-10.708 -1,-16 -1.018,0.693 -2.018,1.359 -3,2 0.77,-2.877 2.437,-3.877 5,-3 z"
         id="path3273" /></g><g
       id="g3279"><path
         style="opacity:1"
         fill="#c4e3af"
         d="m 758.5,694.5 c 1.527,-0.073 2.527,0.594 3,2 -1.527,0.073 -2.527,-0.594 -3,-2 z"
         id="path3277" /></g><g
       id="g3283"><path
         style="opacity:1"
         fill="#e0edd2"
         d="m 629.5,691.5 c -0.321,5.526 0.012,10.86 1,16 0.7,4.298 1.033,8.631 1,13 -0.648,-1.998 -1.481,-3.998 -2.5,-6 -0.822,-7.845 -0.656,-15.511 0.5,-23 z"
         id="path3281" /></g><g
       id="g3287"><path
         style="opacity:1"
         fill="#8db573"
         d="m 667.5,691.5 c -0.312,9.811 -1.646,19.477 -4,29 -0.832,8.648 -1.332,17.314 -1.5,26 -1.039,1.21 -2.206,2.21 -3.5,3 1.564,-4.174 2.231,-8.507 2,-13 0.594,-10.62 1.928,-21.287 4,-32 0.908,-4.351 1.908,-8.684 3,-13 z"
         id="path3285" /></g><g
       id="g3291"><path
         style="opacity:1"
         fill="#83ab65"
         d="m 456.5,686.5 c -0.992,3.323 -1.992,6.656 -3,10 -2.18,2.363 -3.847,5.03 -5,8 1.327,-6.666 3.993,-12.666 8,-18 z"
         id="path3289" /></g><g
       id="g3295"><path
         style="opacity:1"
         fill="#f3fded"
         d="m 610.5,703.5 c -1.32,-1.442 -2.986,-2.108 -5,-2 -0.617,0.111 -1.117,0.444 -1.5,1 -0.498,2.982 -0.665,5.982 -0.5,9 -1.096,-3.166 -1.596,-6.499 -1.5,-10 2.621,-1.491 5.455,-2.158 8.5,-2 0,1.333 0,2.667 0,4 z"
         id="path3293" /></g><g
       id="g3299"><path
         style="opacity:1"
         fill="#86b26b"
         d="m 695.5,695.5 c -2.128,2.63 -4.461,5.13 -7,7.5 0.556,0.383 0.889,0.883 1,1.5 -1,0 -2,0 -3,0 0,-1 0,-2 0,-3 -1.333,0 -2.667,0 -4,0 1.104,-1.889 2.437,-3.555 4,-5 0,1.333 0,2.667 0,4 1.052,0.149 2.052,-0.017 3,-0.5 1.307,-2.48 3.307,-3.98 6,-4.5 z"
         id="path3297" /></g><g
       id="g3303"><path
         style="opacity:1"
         fill="#e9fbe5"
         d="m 706.5,683.5 c -0.795,2.923 -2.128,5.59 -4,8 -3.724,4.046 -7.724,7.879 -12,11.5 2.26,0.549 3.926,1.716 5,3.5 -1.921,-0.863 -3.921,-1.529 -6,-2 -0.111,-0.617 -0.444,-1.117 -1,-1.5 2.539,-2.37 4.872,-4.87 7,-7.5 4.404,-3.401 8.071,-7.401 11,-12 z"
         id="path3301" /></g><g
       id="g3307"><path
         style="opacity:1"
         fill="#8aaf6c"
         d="m 763.5,696.5 c 9.079,1.207 15.745,5.874 20,14 -5.882,-5.897 -12.548,-10.564 -20,-14 z"
         id="path3305" /></g><g
       id="g3311"><path
         style="opacity:1"
         fill="#85ac67"
         d="m 605.5,701.5 c 2.014,-0.108 3.68,0.558 5,2 0.841,1.879 1.175,3.879 1,6 0,1 0,2 0,3 -0.884,-2.523 -1.718,-5.19 -2.5,-8 -0.667,-1.333 -1.333,-1.333 -2,0 0.096,5.309 0.262,10.642 0.5,16 -0.667,-2.333 -1.333,-4.667 -2,-7 0,-0.333 0,-0.667 0,-1 -1.079,-3.699 -1.079,-7.365 0,-11 z"
         id="path3309" /></g><g
       id="g3315"><path
         style="opacity:1"
         fill="#ecf8e3"
         d="m 635.5,689.5 c 2.024,11.77 3.024,23.77 3,36 -0.667,-2.667 -1.333,-5.333 -2,-8 0,-0.667 0,-1.333 0,-2 -0.643,-7.65 -0.977,-15.317 -1,-23 0,-1 0,-2 0,-3 z"
         id="path3313" /></g><g
       id="g3319"><path
         style="opacity:1"
         fill="#e7f7e2"
         d="m 674.5,688.5 c 0.053,5.696 -0.28,11.362 -1,17 2,-0.667 4,-1.333 6,-2 -2.595,2.316 -5.261,4.649 -8,7 -0.333,-0.333 -0.667,-0.667 -1,-1 1.038,-4.269 1.705,-8.602 2,-13 0.463,-2.83 1.129,-5.497 2,-8 z"
         id="path3317" /></g><g
       id="g3323"><path
         style="opacity:1"
         fill="#eaf9e7"
         d="m 696.5,706.5 c 6.086,2.06 12.419,3.393 19,4 1.147,-0.318 1.981,-0.984 2.5,-2 0.71,1.473 1.876,2.14 3.5,2 0,1 0,2 0,3 -8.964,-0.653 -17.298,-2.987 -25,-7 z"
         id="path3321" /></g><g
       id="g3327"><path
         style="opacity:1"
         fill="#f4fcf1"
         d="m 241.5,708.5 c 3.773,0.627 6.606,2.627 8.5,6 1.829,-1.656 3.163,-3.656 4,-6 0.236,2.264 0.736,4.431 1.5,6.5 -0.928,0.388 -1.595,1.055 -2,2 2.023,2.175 3.357,4.675 4,7.5 -5.667,-5 -11,-10.333 -16,-16 z"
         id="path3325" /></g><g
       id="g3331"><path
         style="opacity:1"
         fill="#d7eac6"
         d="m 605.5,701.5 c -1.079,3.635 -1.079,7.301 0,11 -0.992,0.172 -1.658,-0.162 -2,-1 -0.165,-3.018 0.002,-6.018 0.5,-9 0.383,-0.556 0.883,-0.889 1.5,-1 z"
         id="path3329" /></g><g
       id="g3335"><path
         style="opacity:1"
         fill="#7ead62"
         d="m 672.5,696.5 c -0.295,4.398 -0.962,8.731 -2,13 0.333,0.333 0.667,0.667 1,1 2.739,-2.351 5.405,-4.684 8,-7 0.722,-1.051 1.722,-1.718 3,-2 -2.116,5.243 -5.782,8.909 -11,11 -1.077,5.251 -2.077,5.251 -3,0 0.717,-5.618 2.051,-10.951 4,-16 z"
         id="path3333" /></g><g
       id="g3339"><path
         style="opacity:1"
         fill="#75b352"
         d="m 634.5,709.5 c 0.379,4.797 -0.121,9.464 -1.5,14 -0.033,-6.262 -0.866,-12.262 -2.5,-18 0,-3.333 0,-6.667 0,-10 0.982,-0.641 1.982,-1.307 3,-2 0.995,5.292 1.328,10.625 1,16 z"
         id="path3337" /></g><g
       id="g3343"><path
         style="opacity:1"
         fill="#83ae6a"
         d="m 689.5,704.5 c 2.079,0.471 4.079,1.137 6,2 0.333,0 0.667,0 1,0 7.702,4.013 16.036,6.347 25,7 1.419,0.951 3.085,1.284 5,1 0,0.333 0,0.667 0,1 -4.346,0.166 -8.679,-10e-4 -13,-0.5 -4.746,-2.416 -9.746,-4.083 -15,-5 -3.398,-1.357 -6.398,-3.19 -9,-5.5 z"
         id="path3341" /></g><g
       id="g3347"><path
         style="opacity:1"
         fill="#d7edd0"
         d="m 726.5,715.5 c 0,-0.333 0,-0.667 0,-1 2.652,-0.09 4.985,0.576 7,2 -2.361,-0.174 -4.694,-0.507 -7,-1 z"
         id="path3345" /></g><g
       id="g3351"><path
         style="opacity:1"
         fill="#eafae5"
         d="m 737.5,716.5 c 6.597,-0.755 12.597,0.578 18,4 -6.309,-0.459 -12.309,-1.793 -18,-4 z"
         id="path3349" /></g><g
       id="g3355"><path
         style="opacity:1"
         fill="#78b252"
         d="m 431.5,731.5 c -1.925,-4.631 -1.092,-8.631 2.5,-12 1.083,-2.767 2.25,-5.433 3.5,-8 3.158,-2.559 4.491,-1.559 4,3 -1,0 -2,0 -3,0 -1.728,4.011 -3.395,8.178 -5,12.5 0.529,1.559 1.196,3.059 2,4.5 -1.2,0.792 -2.533,0.792 -4,0 z"
         id="path3353" /></g><g
       id="g3359"><path
         style="opacity:1"
         fill="#f0fef1"
         d="m 664.5,704.5 c -2.072,10.713 -3.406,21.38 -4,32 -0.166,-6.342 0,-12.675 0.5,-19 0.439,-4.783 1.605,-9.117 3.5,-13 z"
         id="path3357" /></g><g
       id="g3363"><path
         style="opacity:1"
         fill="#89b075"
         d="m 611.5,712.5 c 1.157,2.773 1.824,5.773 2,9 -0.617,-0.111 -1.117,-0.444 -1.5,-1 -0.497,-2.646 -0.664,-5.313 -0.5,-8 z"
         id="path3361" /></g><g
       id="g3367"><path
         style="opacity:1"
         fill="#85b068"
         d="m 726.5,715.5 c 2.306,0.493 4.639,0.826 7,1 1.333,0 2.667,0 4,0 5.691,2.207 11.691,3.541 18,4 8.803,1.658 17.47,1.325 26,-1 -0.674,1.524 -1.674,2.858 -3,4 -4.967,1.162 -9.967,1.329 -15,0.5 -11.419,-1.781 -22.752,-3.781 -34,-6 -1.619,-0.236 -2.619,-1.069 -3,-2.5 z"
         id="path3365" /></g><g
       id="g3371"><path
         style="opacity:1"
         fill="#d6eace"
         d="m 605.5,713.5 c 0.667,2.333 1.333,4.667 2,7 0,2.333 0,4.667 0,7 0,0.667 0,1.333 0,2 -1.457,-5.098 -2.124,-10.431 -2,-16 z"
         id="path3369" /></g><g
       id="g3375"><path
         style="opacity:1"
         fill="#e7f9e1"
         d="m 611.5,709.5 c 0.815,0.929 1.648,1.929 2.5,3 1.163,6.953 1.663,13.953 1.5,21 -0.667,-3 -1.333,-6 -2,-9 0,-1 0,-2 0,-3 -0.176,-3.227 -0.843,-6.227 -2,-9 0,-1 0,-2 0,-3 z"
         id="path3373" /></g><g
       id="g3379"><path
         style="opacity:1"
         fill="#edfbe4"
         d="m 441.5,717.5 c -0.696,2.82 -1.696,5.487 -3,8 0.228,1.707 0.562,3.374 1,5 -2.095,-0.26 -3.428,-1.426 -4,-3.5 1.144,-3.807 3.144,-6.973 6,-9.5 z"
         id="path3377" /></g><g
       id="g3383"><path
         style="opacity:1"
         fill="#f2fcef"
         d="m 435.5,712.5 c -1.32,3.306 -3.153,6.306 -5.5,9 -2.914,5.86 -1.748,10.526 3.5,14 0.667,0 1,0.333 1,1 -3.67,0.173 -6.17,-1.493 -7.5,-5 -0.097,-4.266 -0.263,-8.432 -0.5,-12.5 0.804,-1.771 1.971,-3.271 3.5,-4.5 0.333,0.333 0.667,0.667 1,1 0.918,-1.876 2.418,-2.876 4.5,-3 z"
         id="path3381" /></g><g
       id="g3387"><path
         style="opacity:1"
         fill="#8cb177"
         d="m 437.5,711.5 c -1.25,2.567 -2.417,5.233 -3.5,8 -3.592,3.369 -4.425,7.369 -2.5,12 1.1,1.105 1.767,2.438 2,4 -5.248,-3.474 -6.414,-8.14 -3.5,-14 2.347,-2.694 4.18,-5.694 5.5,-9 0.667,-0.333 1.333,-0.667 2,-1 z"
         id="path3385" /></g><g
       id="g3391"><path
         style="opacity:1"
         fill="#87b06d"
         d="m 233.5,699.5 c 2.892,2.771 5.558,5.771 8,9 5,5.667 10.333,11 16,16 2.027,2.694 4.361,5.027 7,7 -3.951,-2.112 -7.784,-4.446 -11.5,-7 -3.931,-6.266 -8.931,-11.6 -15,-16 -1.793,-2.894 -3.293,-5.894 -4.5,-9 z"
         id="path3389" /></g><g
       id="g3395"><path
         style="opacity:1"
         fill="#86b16a"
         d="m 570.5,725.5 c 2.712,5.125 5.045,10.458 7,16 -1.581,-2.174 -3.081,-4.507 -4.5,-7 -0.667,-1.333 -1.333,-1.333 -2,0 0.364,4.212 1.531,8.212 3.5,12 -3.762,-6.392 -7.262,-13.058 -10.5,-20 -0.495,-1.973 -0.662,-3.973 -0.5,-6 2,0 4,0 6,0 0.129,1.716 0.462,3.383 1,5 z"
         id="path3393" /></g><g
       id="g3399"><path
         style="opacity:1"
         fill="#7ab152"
         d="m 570.5,725.5 c 0.308,2.424 -0.026,4.757 -1,7 -2.255,-2.948 -3.922,-6.281 -5,-10 0.865,-1.083 1.865,-1.249 3,-0.5 0.663,1.518 1.663,2.685 3,3.5 z"
         id="path3397" /></g><g
       id="g3403"><path
         style="opacity:1"
         fill="#83af71"
         d="m 607.5,727.5 c 1.765,2.623 2.432,5.623 2,9 -0.333,0 -0.667,0 -1,0 0.202,-2.45 -0.131,-4.783 -1,-7 0,-0.667 0,-1.333 0,-2 z"
         id="path3401" /></g><g
       id="g3407"><path
         style="opacity:1"
         fill="#86ad6a"
         d="m 613.5,724.5 c 0.667,3 1.333,6 2,9 0,1 0,2 0,3 0.075,2.706 0.408,5.373 1,8 0,1 0,2 0,3 -1.741,-1.513 -2.741,-3.513 -3,-6 0.29,-5.591 0.29,-11.258 0,-17 z"
         id="path3405" /></g><g
       id="g3411"><path
         style="opacity:1"
         fill="#eafae8"
         d="m 638.5,726.5 c 1.75,3.683 2.417,7.683 2,12 -1.636,-3.71 -2.302,-7.71 -2,-12 z"
         id="path3409" /></g><g
       id="g3415"><path
         style="opacity:1"
         fill="#eaf5e3"
         d="m 449.5,735.5 c 3.018,-0.165 6.018,0.002 9,0.5 0.881,0.708 1.547,1.542 2,2.5 -3.897,-0.555 -7.563,-1.555 -11,-3 z"
         id="path3413" /></g><g
       id="g3419"><path
         style="opacity:1"
         fill="#87ae6a"
         d="m 636.5,717.5 c 0.667,2.667 1.333,5.333 2,8 0,0.333 0,0.667 0,1 -0.302,4.29 0.364,8.29 2,12 0,1 0,2 0,3 -0.996,0.086 -1.829,-0.248 -2.5,-1 -0.595,-7.665 -1.095,-15.332 -1.5,-23 z"
         id="path3417" /></g><g
       id="g3423"><path
         style="opacity:1"
         fill="#82b065"
         d="m 447.5,693.5 c 0.157,1.373 -0.01,2.707 -0.5,4 -2.356,2.362 -3.856,5.195 -4.5,8.5 0.362,1.225 0.862,2.391 1.5,3.5 0.612,-2.615 2.112,-4.281 4.5,-5 -2.091,4.52 -4.425,8.853 -7,13 -2.856,2.527 -4.856,5.693 -6,9.5 0.572,2.074 1.905,3.24 4,3.5 3.259,1.653 6.593,3.319 10,5 3.437,1.445 7.103,2.445 11,3 3.583,1.86 7.249,3.527 11,5 -18.146,-1.448 -18.146,-0.115 0,4 0.111,0.617 0.444,1.117 1,1.5 6.809,1.866 13.475,4.032 20,6.5 1.006,-0.438 1.006,-1.104 0,-2 1.229,-0.781 2.562,-1.281 4,-1.5 -2.691,-0.156 -5.024,-0.989 -7,-2.5 1.716,0.129 3.383,0.462 5,1 3.611,1.153 7.277,2.153 11,3 1,0.667 2,1.333 3,2 -4.515,-1.482 -9.181,-2.148 -14,-2 0,1 0,2 0,3 -2.361,-0.174 -4.694,-0.507 -7,-1 -4.716,-2.239 -9.716,-3.905 -15,-5 -4.482,-1.938 -9.149,-3.271 -14,-4 -0.667,-0.667 -1.333,-1.333 -2,-2 -1.602,-1.574 -3.602,-2.241 -6,-2 -4.656,-1.66 -9.323,-3.326 -14,-5 -0.342,-0.838 -1.008,-1.172 -2,-1 0,-0.667 -0.333,-1 -1,-1 -0.233,-1.562 -0.9,-2.895 -2,-4 1.467,0.792 2.8,0.792 4,0 -0.804,-1.441 -1.471,-2.941 -2,-4.5 1.605,-4.322 3.272,-8.489 5,-12.5 1,0 2,0 3,0 0.491,-4.559 -0.842,-5.559 -4,-3 2.844,-6.362 6.177,-12.362 10,-18 z"
         id="path3421" /></g><g
       id="g3427"><path
         style="opacity:1"
         fill="#77b254"
         d="m 437.5,734.5 c 1.788,-1.122 3.788,-1.289 6,-0.5 4.374,2.599 9.041,4.599 14,6 -2.577,1.25 -5.243,1.584 -8,1 -4.385,-1.581 -8.385,-3.748 -12,-6.5 z"
         id="path3425" /></g><g
       id="g3431"><path
         style="opacity:1"
         fill="#84b071"
         d="m 632.5,738.5 c -3.957,4.967 -8.957,8.3 -15,10 2.667,-2 5.333,-4 8,-6 1.73,-0.526 3.064,-1.526 4,-3 0.891,-0.61 1.891,-0.943 3,-1 z"
         id="path3429" /></g><g
       id="g3435"><path
         style="opacity:1"
         fill="#93b881"
         d="m 450.5,742.5 c 2.398,-0.241 4.398,0.426 6,2 -2.398,0.241 -4.398,-0.426 -6,-2 z"
         id="path3433" /></g><g
       id="g3439"><path
         style="opacity:1"
         fill="#f1fbec"
         d="m 615.5,736.5 c 1.844,1.779 2.51,4.112 2,7 1.859,0.039 3.192,-0.794 4,-2.5 2.668,-0.567 5.334,-1.067 8,-1.5 -0.936,1.474 -2.27,2.474 -4,3 -2.936,0.906 -5.936,1.572 -9,2 -0.592,-2.627 -0.925,-5.294 -1,-8 z"
         id="path3437" /></g><g
       id="g3443"><path
         style="opacity:1"
         fill="#f8fdf3"
         d="m 436.5,737.5 c 4.677,1.674 9.344,3.34 14,5 1.602,1.574 3.602,2.241 6,2 0.667,0.667 1.333,1.333 2,2 -1.96,-0.638 -3.793,-0.638 -5.5,0 -2.305,-2.43 -5.138,-3.43 -8.5,-3 -0.261,3.133 -1.928,4.3 -5,3.5 -1.168,-1.406 -0.835,-2.572 1,-3.5 -2.19,-1.507 -3.524,-3.507 -4,-6 z"
         id="path3441" /></g><g
       id="g3447"><path
         style="opacity:1"
         fill="#76b24f"
         d="m 471.5,743.5 c 1.1,1.058 2.434,1.892 4,2.5 -1.063,1.188 -2.397,1.688 -4,1.5 -18.146,-4.115 -18.146,-5.448 0,-4 z"
         id="path3445" /></g><g
       id="g3451"><path
         style="opacity:1"
         fill="#e0f9d3"
         d="m 625.5,742.5 c -2.667,2 -5.333,4 -8,6 -0.667,0 -1,-0.333 -1,-1 0,-1 0,-2 0,-3 3.064,-0.428 6.064,-1.094 9,-2 z"
         id="path3449" /></g><g
       id="g3455"><path
         style="opacity:1"
         fill="#e2f5d6"
         d="m 660.5,736.5 c 0.231,4.493 -0.436,8.826 -2,13 0,0.333 0,0.667 0,1 -0.333,0 -0.667,0 -1,0 1.003,-4.705 2.003,-9.372 3,-14 z"
         id="path3453" /></g><g
       id="g3459"><path
         style="opacity:1"
         fill="#8ab170"
         d="m 282.5,744.5 c 2.693,1.347 5.36,2.68 8,4 2.509,1.421 4.843,3.088 7,5 -4.356,-1.011 -8.356,-2.844 -12,-5.5 -1.563,-0.759 -2.563,-1.926 -3,-3.5 z"
         id="path3457" /></g><g
       id="g3463"><path
         style="opacity:1"
         fill="#e2f3da"
         d="m 481.5,745.5 c 5.382,-0.801 9.715,0.866 13,5 -1.617,-0.538 -3.284,-0.871 -5,-1 -2.579,-1.525 -5.246,-2.859 -8,-4 z"
         id="path3461" /></g><g
       id="g3467"><path
         style="opacity:1"
         fill="#7bb057"
         d="m 471.5,743.5 c 3.289,0.874 6.623,1.541 10,2 2.754,1.141 5.421,2.475 8,4 1.976,1.511 4.309,2.344 7,2.5 -1.438,0.219 -2.771,0.719 -4,1.5 1.006,0.896 1.006,1.562 0,2 -6.525,-2.468 -13.191,-4.634 -20,-6.5 -0.556,-0.383 -0.889,-0.883 -1,-1.5 1.603,0.188 2.937,-0.312 4,-1.5 -1.566,-0.608 -2.9,-1.442 -4,-2.5 z"
         id="path3465" /></g><g
       id="g3471"><path
         style="opacity:1"
         fill="#e9f9e1"
         d="m 290.5,748.5 c 4.043,1.165 8.043,2.665 12,4.5 1.563,0.759 2.563,1.926 3,3.5 -2.507,-1.392 -5.173,-2.392 -8,-3 -2.157,-1.912 -4.491,-3.579 -7,-5 z"
         id="path3469" /></g><g
       id="g3475"><path
         style="opacity:1"
         fill="#eaf9e6"
         d="m 472.5,750.5 c 5.284,1.095 10.284,2.761 15,5 -4.362,-0.785 -8.696,-1.785 -13,-3 -1.213,-0.247 -1.88,-0.914 -2,-2 z"
         id="path3473" /></g><g
       id="g3479"><path
         style="opacity:1"
         fill="#eefaeb"
         d="m 608.5,736.5 c 0.333,0 0.667,0 1,0 -0.256,3.769 0.077,7.436 1,11 1.15,5.602 1.816,11.269 2,17 -1.058,-1.1 -1.892,-2.434 -2.5,-4 -0.73,-7.99 -1.23,-15.99 -1.5,-24 z"
         id="path3477" /></g><g
       id="g3483"><path
         style="opacity:1"
         fill="#86ae6c"
         d="m 641.5,744.5 c 1.337,3.491 3.337,6.657 6,9.5 2.31,0.497 4.643,0.663 7,0.5 -8.419,2.27 -12.752,-1.063 -13,-10 z"
         id="path3481" /></g><g
       id="g3487"><path
         style="opacity:1"
         fill="#88ad77"
         d="m 657.5,750.5 c 0.333,0 0.667,0 1,0 -0.025,2.679 -1.358,4.012 -4,4 1,-1.333 2,-2.667 3,-4 z"
         id="path3485" /></g><g
       id="g3491"><path
         style="opacity:1"
         fill="#7ab24f"
         d="m 508.5,755.5 c 1.1,1.058 2.434,1.892 4,2.5 -1.444,1.064 -3.111,1.564 -5,1.5 -4.269,-1.302 -8.602,-2.302 -13,-3 0,-1 0,-2 0,-3 4.819,-0.148 9.485,0.518 14,2 z"
         id="path3489" /></g><g
       id="g3495"><path
         style="opacity:1"
         fill="#e6f7d8"
         d="m 487.5,755.5 c 2.306,0.493 4.639,0.826 7,1 1,0.667 2,1.333 3,2 -3.878,0.476 -7.212,-0.524 -10,-3 z"
         id="path3493" /></g><g
       id="g3499"><path
         style="opacity:1"
         fill="#effaec"
         d="m 505.5,753.5 c 3.24,0.268 6.406,0.934 9.5,2 2.569,-1.395 4.569,-0.728 6,2 0.725,-0.559 1.558,-0.892 2.5,-1 2.069,0.324 2.402,1.158 1,2.5 3.419,0.521 6.752,1.355 10,2.5 0.886,0.825 1.219,1.825 1,3 -3.204,-1.401 -6.537,-2.401 -10,-3 -5.29,-2.765 -10.957,-4.765 -17,-6 -1,-0.667 -2,-1.333 -3,-2 z"
         id="path3497" /></g><g
       id="g3503"><path
         style="opacity:1"
         fill="#81ae61"
         d="m 297.5,753.5 c 2.827,0.608 5.493,1.608 8,3 2.464,1.067 4.797,2.4 7,4 -4.26,-1.085 -8.594,-1.752 -13,-2 -0.331,-1.822 -0.998,-3.489 -2,-5 z"
         id="path3501" /></g><g
       id="g3507"><path
         style="opacity:1"
         fill="#84b065"
         d="m 508.5,755.5 c 6.043,1.235 11.71,3.235 17,6 -3.7,-0.632 -7.367,-1.132 -11,-1.5 -1.333,0.667 -1.333,1.333 0,2 1.991,0.374 3.658,1.207 5,2.5 -7.483,-1.382 -14.816,-3.382 -22,-6 -1,-0.667 -2,-1.333 -3,-2 4.398,0.698 8.731,1.698 13,3 1.889,0.064 3.556,-0.436 5,-1.5 -1.566,-0.608 -2.9,-1.442 -4,-2.5 z"
         id="path3505" /></g><g
       id="g3511"><path
         style="opacity:1"
         fill="#84af69"
         d="m 583.5,752.5 c 2.758,3.178 4.758,6.845 6,11 -2.276,-1.831 -4.109,-4.164 -5.5,-7 -0.49,-1.293 -0.657,-2.627 -0.5,-4 z"
         id="path3509" /></g><g
       id="g3515"><path
         style="opacity:1"
         fill="#effbe7"
         d="m 319.5,762.5 c 3.682,-0.165 7.348,10e-4 11,0.5 2.07,2.278 4.403,4.111 7,5.5 -0.667,0 -1.333,0 -2,0 -5.333,-2 -10.667,-4 -16,-6 z"
         id="path3513" /></g><g
       id="g3519"><path
         style="opacity:1"
         fill="#88ae70"
         d="m 312.5,760.5 c 2.421,0.378 4.754,1.045 7,2 5.333,2 10.667,4 16,6 -2.357,0.163 -4.69,-0.003 -7,-0.5 -3.415,-1.917 -7.081,-3.25 -11,-4 -2.084,-0.697 -3.751,-1.864 -5,-3.5 z"
         id="path3517" /></g><g
       id="g3523"><path
         style="opacity:1"
         fill="#8ab271"
         d="m 519.5,764.5 c 8.953,2.197 17.287,5.53 25,10 -1.333,0 -2.667,0 -4,0 -5.874,-2.851 -11.874,-5.518 -18,-8 -1.21,-0.432 -2.21,-1.099 -3,-2 z"
         id="path3521" /></g><g
       id="g3527"><path
         style="opacity:1"
         fill="#eefce7"
         d="m 579.5,757.5 c 1.271,1.609 2.271,3.442 3,5.5 -4.392,1.868 -8.726,3.701 -13,5.5 -0.333,0 -0.667,0 -1,0 -2.361,0.174 -4.694,0.507 -7,1 5.613,-3.03 11.613,-5.53 18,-7.5 -0.466,-1.299 -0.466,-2.799 0,-4.5 z"
         id="path3525" /></g><g
       id="g3531"><path
         style="opacity:1"
         fill="#89b274"
         d="m 574.5,746.5 c 5.405,5.145 8.405,11.478 9,19 -4.483,1.498 -9.149,2.498 -14,3 4.274,-1.799 8.608,-3.632 13,-5.5 -0.729,-2.058 -1.729,-3.891 -3,-5.5 -1.924,-3.517 -3.591,-7.184 -5,-11 z"
         id="path3529" /></g><g
       id="g3535"><path
         style="opacity:1"
         fill="#f0fbea"
         d="m 522.5,766.5 c 6.126,2.482 12.126,5.149 18,8 -5.711,-1.737 -11.377,-3.57 -17,-5.5 -0.752,-0.671 -1.086,-1.504 -1,-2.5 z"
         id="path3533" /></g><g
       id="g3539"><path
         style="opacity:1"
         fill="#e3f6db"
         d="m 337.5,769.5 c 0,-0.333 0,-0.667 0,-1 3.018,-0.165 6.018,0.002 9,0.5 2.213,1.616 4.547,2.783 7,3.5 -5.333,-1 -10.667,-2 -16,-3 z"
         id="path3537" /></g><g
       id="g3543"><path
         style="opacity:1"
         fill="#86ae69"
         d="m 337.5,769.5 c 5.333,1 10.667,2 16,3 0,0.333 0,0.667 0,1 -6.022,0.759 -11.356,-0.575 -16,-4 z"
         id="path3541" /></g><g
       id="g3547"><path
         style="opacity:1"
         fill="#eafae3"
         d="m 543.5,767.5 c 3.564,0.188 6.897,1.188 10,3 2.584,-0.893 5.251,-1.226 8,-1 -6.358,2.998 -12.358,2.331 -18,-2 z"
         id="path3545" /></g><g
       id="g3551"><path
         style="opacity:1"
         fill="#85ae6b"
         d="m 537.5,766.5 c 2,0.333 4,0.667 6,1 5.642,4.331 11.642,4.998 18,2 2.306,-0.493 4.639,-0.826 7,-1 -4.074,3.398 -8.908,5.065 -14.5,5 -5.625,-2.147 -11.125,-4.48 -16.5,-7 z"
         id="path3549" /></g><g
       id="g3555"><path
         style="opacity:1"
         fill="#e7f6df"
         d="m 353.5,773.5 c 0,-0.333 0,-0.667 0,-1 5.62,0.105 10.953,1.105 16,3 -5.43,-0.036 -10.763,-0.703 -16,-2 z"
         id="path3553" /></g><g
       id="g3559"><path
         style="opacity:1"
         fill="#83af61"
         d="m 610.5,747.5 c 1.755,2.261 2.922,4.928 3.5,8 0.148,6.434 0.982,12.767 2.5,19 -0.826,4.824 -3.493,8.158 -8,10 -1.896,-0.775 -3.563,-1.775 -5,-3 7.643,0.18 10.976,-3.653 10,-11.5 -0.008,-1.707 -0.342,-3.207 -1,-4.5 0,-0.333 0,-0.667 0,-1 -0.184,-5.731 -0.85,-11.398 -2,-17 z"
         id="path3557" /></g><g
       id="g3563"><path
         style="opacity:1"
         fill="#8bb26f"
         d="m 353.5,773.5 c 5.237,1.297 10.57,1.964 16,2 0,0.333 0,0.667 0,1 -5.843,0.669 -11.176,-0.331 -16,-3 z"
         id="path3561" /></g><g
       id="g3567"><path
         style="opacity:1"
         fill="#effbed"
         d="m 418.5,786.5 c -2.667,-0.333 -5.333,-0.667 -8,-1 -2.841,-1.169 -5.841,-2.169 -9,-3 -8.3,-2.926 -16.966,-4.592 -26,-5 -1.879,-0.841 -3.879,-1.175 -6,-1 0,-0.333 0,-0.667 0,-1 4.197,0.071 8.363,-0.263 12.5,-1 11.941,3.105 23.774,6.438 35.5,10 0.363,0.683 0.696,1.35 1,2 z"
         id="path3565" /></g><g
       id="g3571"><path
         style="opacity:1"
         fill="#8ab272"
         d="m 546.5,775.5 c 3.639,-0.078 6.306,1.422 8,4.5 3.152,0.464 4.818,2.297 5,5.5 -0.667,-0.333 -1.333,-0.667 -2,-1 -3.376,-3.378 -7.043,-6.378 -11,-9 z"
         id="path3569" /></g><g
       id="g3575"><path
         style="opacity:1"
         fill="#ebfbe3"
         d="m 612.5,765.5 c 0.658,1.293 0.992,2.793 1,4.5 0.976,7.847 -2.357,11.68 -10,11.5 -1.333,-1.667 -2.667,-3.333 -4,-5 2.6,2.255 5.6,3.421 9,3.5 2.583,-4.401 3.916,-9.234 4,-14.5 z"
         id="path3573" /></g><g
       id="g3579"><path
         style="opacity:1"
         fill="#84af69"
         d="m 375.5,777.5 c 9.034,0.408 17.7,2.074 26,5 -7.939,-1.264 -15.939,-2.264 -24,-3 -0.743,-0.682 -1.409,-1.349 -2,-2 z"
         id="path3577" /></g><g
       id="g3583"><path
         style="opacity:1"
         fill="#f0fcee"
         d="m 540.5,774.5 c 1.333,0 2.667,0 4,0 0.342,0.838 1.008,1.172 2,1 3.957,2.622 7.624,5.622 11,9 -2.923,-0.795 -5.59,-2.128 -8,-4 -3.672,1.55 -4.339,1.05 -2,-1.5 -2.224,-1.781 -4.558,-3.281 -7,-4.5 z"
         id="path3581" /></g><g
       id="g3587"><path
         style="opacity:1"
         fill="#dcf4ce"
         d="m 418.5,786.5 c 2.357,-0.163 4.69,0.003 7,0.5 0.556,0.383 0.889,0.883 1,1.5 -2.928,-0.065 -5.595,-0.732 -8,-2 z"
         id="path3585" /></g><g
       id="g3591"><path
         style="opacity:1"
         fill="#e9f8e7"
         d="m 426.5,788.5 c 5.045,0.109 9.878,0.109 14.5,0 1.992,0.828 3.492,2.161 4.5,4 -6.557,-0.843 -12.89,-2.177 -19,-4 z"
         id="path3589" /></g><g
       id="g3595"><path
         style="opacity:1"
         fill="#e9fae7"
         d="m 557.5,784.5 c 0.667,0.333 1.333,0.667 2,1 0.667,0 1,0.333 1,1 0.368,3.544 -0.632,6.544 -3,9 0,-3.667 0,-7.333 0,-11 z"
         id="path3593" /></g><g
       id="g3599"><path
         style="opacity:1"
         fill="#def1d2"
         d="m 446.5,792.5 c 4.014,-0.166 8.014,10e-4 12,0.5 2.687,0.728 5.02,1.895 7,3.5 -6.513,-1.025 -12.846,-2.358 -19,-4 z"
         id="path3597" /></g><g
       id="g3603"><path
         style="opacity:1"
         fill="#87b06b"
         d="m 560.5,786.5 c 2.717,3.386 2.383,6.719 -1,10 -3.841,3.918 -8.508,5.585 -14,5 2,-0.667 4,-1.333 6,-2 2.174,-0.25 3.841,-1.25 5,-3 0.667,0 1,-0.333 1,-1 2.368,-2.456 3.368,-5.456 3,-9 z"
         id="path3601" /></g><g
       id="g3607"><path
         style="opacity:1"
         fill="#eaf9dd"
         d="m 556.5,796.5 c -1.159,1.75 -2.826,2.75 -5,3 0,-1 0,-2 0,-3 1.667,0 3.333,0 5,0 z"
         id="path3605" /></g><g
       id="g3611"><path
         style="opacity:1"
         fill="#7faf5c"
         d="m 410.5,785.5 c 2.667,0.333 5.333,0.667 8,1 2.405,1.268 5.072,1.935 8,2 6.11,1.823 12.443,3.157 19,4 0.333,0 0.667,0 1,0 6.154,1.642 12.487,2.975 19,4 1.667,0 3.333,0 5,0 0,0.333 0,0.667 0,1 -4.885,-0.252 -9.719,0.081 -14.5,1 -1.171,-0.84 -2.338,-1.673 -3.5,-2.5 -5.352,-0.322 -10.686,-0.822 -16,-1.5 -8.084,-3.017 -16.417,-5.017 -25,-6 -0.627,-0.917 -0.961,-1.917 -1,-3 z"
         id="path3609" /></g><g
       id="g3615"><path
         style="opacity:1"
         fill="#e0f4da"
         d="m 470.5,797.5 c 0,-0.333 0,-0.667 0,-1 12.048,0.164 23.714,1.831 35,5 -1,0 -2,0 -3,0 -2,0 -4,0 -6,0 -4.443,-1.301 -9.109,-1.968 -14,-2 -3.894,-1.093 -7.894,-1.76 -12,-2 z"
         id="path3613" /></g><g
       id="g3619"><path
         style="opacity:1"
         fill="#82ae67"
         d="m 482.5,799.5 c 4.891,0.032 9.557,0.699 14,2 -4.953,0.377 -9.619,-0.289 -14,-2 z"
         id="path3617" /></g><g
       id="g3623"><path
         style="opacity:1"
         fill="#8bb374"
         d="m 502.5,801.5 c 1,0 2,0 3,0 3.264,0.824 6.598,1.158 10,1 9.841,1.105 19.841,1.105 30,0 -0.763,0.768 -1.763,1.268 -3,1.5 -13.029,0.769 -26.029,0.436 -39,-1 -0.556,-0.383 -0.889,-0.883 -1,-1.5 z"
         id="path3621" /></g><g
       id="g3627"><path
         style="opacity:1"
         fill="#e6fadc"
         d="m 545.5,801.5 c 0,0.333 0,0.667 0,1 -10.159,1.105 -20.159,1.105 -30,0 10.016,0.047 20.016,-0.287 30,-1 z"
         id="path3625" /></g></g></svg>
