<?xml version="1.0" encoding="UTF-8"?>
<!DOCTYPE svg PUBLIC "-//W3C//DTD SVG 1.1//EN" "http://www.w3.org/Graphics/SVG/1.1/DTD/svg11.dtd">
<svg xmlns="http://www.w3.org/2000/svg" version="1.1" width="1024px" height="1024px" style="shape-rendering:geometricPrecision; text-rendering:geometricPrecision; image-rendering:optimizeQuality; fill-rule:evenodd; clip-rule:evenodd" xmlns:xlink="http://www.w3.org/1999/xlink">
<g><path style="opacity:1" fill="#78b153" d="M -0.5,-0.5 C 340.833,-0.5 682.167,-0.5 1023.5,-0.5C 1023.5,340.833 1023.5,682.167 1023.5,1023.5C 682.167,1023.5 340.833,1023.5 -0.5,1023.5C -0.5,682.167 -0.5,340.833 -0.5,-0.5 Z"/></g>
<g><path style="opacity:1" fill="#7eaf5c" d="M 568.5,271.5 C 566.167,271.5 563.833,271.5 561.5,271.5C 556.167,270.833 550.833,270.167 545.5,269.5C 540.384,268.194 535.051,267.527 529.5,267.5C 524.344,266.834 519.011,266.501 513.5,266.5C 505.278,266.332 497.278,266.999 489.5,268.5C 486.833,268.5 484.167,268.5 481.5,268.5C 483.571,267.191 486.071,266.525 489,266.5C 506.602,266.312 524.102,264.979 541.5,262.5C 542.5,262.667 543.5,262.833 544.5,263C 541.899,263.92 539.232,264.587 536.5,265C 537.944,266.064 539.611,266.564 541.5,266.5C 547.919,263.798 554.586,262.965 561.5,264C 558.949,264.861 556.616,266.028 554.5,267.5C 558.459,268.327 562.459,268.827 566.5,269C 567.381,269.708 568.047,270.542 568.5,271.5 Z"/></g>
<g><path style="opacity:1" fill="#d4ebca" d="M 529.5,267.5 C 518.169,267.907 506.836,268.241 495.5,268.5C 493.5,268.5 491.5,268.5 489.5,268.5C 497.278,266.999 505.278,266.332 513.5,266.5C 519.011,266.501 524.344,266.834 529.5,267.5 Z"/></g>
<g><path style="opacity:1" fill="#88b470" d="M 481.5,268.5 C 476.002,269.194 470.669,270.527 465.5,272.5C 464.167,272.5 462.833,272.5 461.5,272.5C 461.5,272.167 461.5,271.833 461.5,271.5C 464.598,271.587 464.932,271.087 462.5,270C 462.833,269.667 463.167,269.333 463.5,269C 469.491,268.501 475.491,268.334 481.5,268.5 Z"/></g>
<g><path style="opacity:1" fill="#fefefe" d="M 529.5,267.5 C 535.051,267.527 540.384,268.194 545.5,269.5C 545.918,270.222 546.584,270.722 547.5,271C 552.137,271.829 556.804,272.329 561.5,272.5C 562.833,272.5 564.167,272.5 565.5,272.5C 566.347,273.966 567.68,274.8 569.5,275C 573.152,275.499 576.818,275.665 580.5,275.5C 580.833,275.5 581.167,275.5 581.5,275.5C 582.347,276.966 583.68,277.8 585.5,278C 595.427,279.401 605.093,281.567 614.5,284.5C 616.806,284.993 619.139,285.326 621.5,285.5C 622.514,286.674 623.847,287.34 625.5,287.5C 625.5,288.167 625.833,288.5 626.5,288.5C 626.908,289.643 627.575,290.643 628.5,291.5C 637.097,294.227 644.763,298.561 651.5,304.5C 655.844,306.583 660.177,308.583 664.5,310.5C 665.391,311.11 666.391,311.443 667.5,311.5C 667.842,312.338 668.508,312.672 669.5,312.5C 670.585,314.587 672.251,315.92 674.5,316.5C 676.167,318.833 678.167,320.833 680.5,322.5C 682.5,324.833 684.5,327.167 686.5,329.5C 688.066,333.231 690.233,336.564 693,339.5C 695.648,340.988 698.148,342.654 700.5,344.5C 700.833,347.5 702.5,349.167 705.5,349.5C 706.044,351.58 706.878,353.58 708,355.5C 709.011,356.337 710.178,356.67 711.5,356.5C 711.33,357.822 711.663,358.989 712.5,360C 708.266,358.924 707.433,360.424 710,364.5C 710.561,365.022 711.228,365.355 712,365.5C 713.393,364.385 714.893,363.885 716.5,364C 717.711,365.113 717.711,366.28 716.5,367.5C 720.12,367.954 722.287,369.954 723,373.5C 724.129,375.141 725.629,376.141 727.5,376.5C 728.167,377.167 728.833,377.833 729.5,378.5C 729.833,379.167 730.167,379.833 730.5,380.5C 731.6,381.605 732.267,382.938 732.5,384.5C 732.581,387.513 733.914,389.513 736.5,390.5C 738.674,393.515 740.341,396.849 741.5,400.5C 740.883,404.495 742.049,407.828 745,410.5C 745.333,412.5 745.667,414.5 746,416.5C 748.875,421.573 751.709,426.739 754.5,432C 754.167,432.333 753.833,432.667 753.5,433C 755.178,435.914 757.178,438.414 759.5,440.5C 759.893,442.284 760.559,443.95 761.5,445.5C 762.193,451.663 763.526,457.663 765.5,463.5C 765.167,464.167 764.833,464.833 764.5,465.5C 770.274,479.825 771.107,494.492 767,509.5C 766.31,508.262 765.81,508.262 765.5,509.5C 763.648,511.112 762.315,513.112 761.5,515.5C 761.961,518.216 762.627,520.882 763.5,523.5C 761.425,530.363 760.091,537.363 759.5,544.5C 758.534,553.857 757.2,563.19 755.5,572.5C 755.011,573.995 754.345,575.329 753.5,576.5C 751.188,580.783 749.855,585.45 749.5,590.5C 748.302,597.093 746.302,603.427 743.5,609.5C 742.02,612.388 740.687,615.388 739.5,618.5C 734.341,627.485 729.674,636.818 725.5,646.5C 725.167,646.5 724.833,646.5 724.5,646.5C 723.761,646.369 723.094,646.536 722.5,647C 719.653,649.992 717.986,653.492 717.5,657.5C 713.155,663.538 708.821,669.538 704.5,675.5C 703.167,675.5 701.833,675.5 700.5,675.5C 700.028,678.815 698.195,681.149 695,682.5C 694.506,684.134 694.34,685.801 694.5,687.5C 691.833,690.5 689.167,693.5 686.5,696.5C 684.937,697.945 683.604,699.611 682.5,701.5C 681.222,701.782 680.222,702.449 679.5,703.5C 677.5,704.167 675.5,704.833 673.5,705.5C 674.22,699.862 674.553,694.196 674.5,688.5C 674.5,687.833 674.5,687.167 674.5,686.5C 676.124,680.589 677.291,674.589 678,668.5C 677.667,667.833 677.333,667.167 677,666.5C 676.259,667.641 675.425,667.641 674.5,666.5C 671.36,666.946 668.693,668.279 666.5,670.5C 667.896,671.852 668.563,673.519 668.5,675.5C 665.059,684.79 663.726,694.456 664.5,704.5C 662.605,708.383 661.439,712.717 661,717.5C 660.5,723.825 660.334,730.158 660.5,736.5C 659.503,741.128 658.503,745.795 657.5,750.5C 656.5,751.833 655.5,753.167 654.5,754.5C 652.143,754.663 649.81,754.497 647.5,754C 644.837,751.157 642.837,747.991 641.5,744.5C 641.737,743.209 641.404,742.209 640.5,741.5C 640.5,740.5 640.5,739.5 640.5,738.5C 640.917,734.183 640.25,730.183 638.5,726.5C 638.5,726.167 638.5,725.833 638.5,725.5C 638.524,713.27 637.524,701.27 635.5,689.5C 633.735,688.539 631.735,688.205 629.5,688.5C 629.5,689.5 629.5,690.5 629.5,691.5C 628.344,698.989 628.178,706.655 629,714.5C 630.019,716.502 630.852,718.502 631.5,720.5C 631.966,726.491 632.299,732.491 632.5,738.5C 631.391,738.557 630.391,738.89 629.5,739.5C 626.834,739.933 624.168,740.433 621.5,741C 620.692,742.706 619.359,743.539 617.5,743.5C 618.01,740.612 617.344,738.279 615.5,736.5C 615.5,735.5 615.5,734.5 615.5,733.5C 615.663,726.453 615.163,719.453 614,712.5C 613.148,711.429 612.315,710.429 611.5,709.5C 611.675,707.379 611.341,705.379 610.5,703.5C 610.5,702.167 610.5,700.833 610.5,699.5C 607.455,699.342 604.621,700.009 602,701.5C 601.904,705.001 602.404,708.334 603.5,711.5C 603.842,712.338 604.508,712.672 605.5,712.5C 605.5,712.833 605.5,713.167 605.5,713.5C 605.376,719.069 606.043,724.402 607.5,729.5C 608.369,731.717 608.702,734.05 608.5,736.5C 608.77,744.51 609.27,752.51 610,760.5C 610.608,762.066 611.442,763.4 612.5,764.5C 612.5,764.833 612.5,765.167 612.5,765.5C 612.416,770.766 611.083,775.599 608.5,780C 605.1,779.921 602.1,778.755 599.5,776.5C 595.44,772.708 592.107,768.374 589.5,763.5C 588.258,759.345 586.258,755.678 583.5,752.5C 581.75,748.665 579.75,744.999 577.5,741.5C 575.545,735.958 573.212,730.625 570.5,725.5C 569.962,723.883 569.629,722.216 569.5,720.5C 567.5,720.5 565.5,720.5 563.5,720.5C 563.338,722.527 563.505,724.527 564,726.5C 567.238,733.442 570.738,740.108 574.5,746.5C 575.909,750.316 577.576,753.983 579.5,757.5C 579.034,759.201 579.034,760.701 579.5,762C 573.113,763.97 567.113,766.47 561.5,769.5C 558.751,769.274 556.084,769.607 553.5,770.5C 550.397,768.688 547.064,767.688 543.5,767.5C 541.5,767.167 539.5,766.833 537.5,766.5C 536.833,765.833 536.167,765.167 535.5,764.5C 535.719,763.325 535.386,762.325 534.5,761.5C 531.252,760.355 527.919,759.521 524.5,759C 525.902,757.658 525.569,756.824 523.5,756.5C 522.558,756.608 521.725,756.941 521,757.5C 519.569,754.772 517.569,754.105 515,755.5C 511.906,754.434 508.74,753.768 505.5,753.5C 501.777,752.653 498.111,751.653 494.5,750.5C 491.215,746.366 486.882,744.699 481.5,745.5C 478.123,745.041 474.789,744.374 471.5,743.5C 467.749,742.027 464.083,740.36 460.5,738.5C 460.047,737.542 459.381,736.708 458.5,736C 455.518,735.502 452.518,735.335 449.5,735.5C 446.093,733.819 442.759,732.153 439.5,730.5C 439.062,728.874 438.728,727.207 438.5,725.5C 439.804,722.987 440.804,720.32 441.5,717.5C 444.075,713.353 446.409,709.02 448.5,704.5C 449.653,701.53 451.32,698.863 453.5,696.5C 454.75,696.423 455.583,695.756 456,694.5C 456.822,691.883 457.322,689.216 457.5,686.5C 459.208,680.394 460.875,674.394 462.5,668.5C 464.6,662.82 465.6,656.82 465.5,650.5C 465.5,649.833 465.5,649.167 465.5,648.5C 466.959,637.594 466.625,626.594 464.5,615.5C 464.253,614.287 463.586,613.62 462.5,613.5C 462.204,611.597 461.537,609.93 460.5,608.5C 460.477,606.073 459.977,603.74 459,601.5C 457.47,598.439 455.97,595.439 454.5,592.5C 452.898,588.905 450.898,585.571 448.5,582.5C 447.833,580.5 447.167,578.5 446.5,576.5C 445.448,576.649 444.448,576.483 443.5,576C 442.415,573.828 441.081,571.828 439.5,570C 433.213,568.181 427.213,565.848 421.5,563C 422.624,562.751 423.624,562.251 424.5,561.5C 420.554,560.816 416.554,560.816 412.5,561.5C 408.613,561.354 404.946,560.687 401.5,559.5C 397.455,557.823 393.122,557.156 388.5,557.5C 379.827,557.334 371.16,557.5 362.5,558C 361.263,558.232 360.263,558.732 359.5,559.5C 354.331,559.999 349.664,561.666 345.5,564.5C 342.975,565.681 340.475,567.014 338,568.5C 337.505,570.473 337.338,572.473 337.5,574.5C 340.491,574.834 342.824,573.834 344.5,571.5C 347.167,570.5 349.833,569.5 352.5,568.5C 355.187,568.664 357.854,568.497 360.5,568C 361.381,567.292 362.047,566.458 362.5,565.5C 362.833,565.5 363.167,565.5 363.5,565.5C 375.518,565.358 387.518,565.691 399.5,566.5C 400.167,566.5 400.833,566.5 401.5,566.5C 403.292,566.366 404.958,566.699 406.5,567.5C 415.803,569.749 424.803,573.082 433.5,577.5C 434.833,579.5 436.5,581.167 438.5,582.5C 439.419,585.089 441.086,587.089 443.5,588.5C 444.068,593.637 446.235,597.97 450,601.5C 450.333,603.167 450.667,604.833 451,606.5C 451.333,606.167 451.667,605.833 452,605.5C 452.232,606.737 452.732,607.737 453.5,608.5C 454.404,609.209 454.737,610.209 454.5,611.5C 455.882,621.072 456.882,630.738 457.5,640.5C 456.787,647.149 456.454,653.816 456.5,660.5C 456.412,666.638 455.079,672.304 452.5,677.5C 450.747,680.146 449.747,683.146 449.5,686.5C 448.833,688.833 448.167,691.167 447.5,693.5C 443.677,699.138 440.344,705.138 437.5,711.5C 436.833,711.833 436.167,712.167 435.5,712.5C 433.418,712.624 431.918,713.624 431,715.5C 430.667,715.167 430.333,714.833 430,714.5C 428.471,715.729 427.304,717.229 426.5,719C 426.737,723.068 426.903,727.234 427,731.5C 428.33,735.007 430.83,736.673 434.5,736.5C 435.492,736.328 436.158,736.662 436.5,737.5C 436.976,739.993 438.31,741.993 440.5,743.5C 438.665,744.428 438.332,745.594 439.5,747C 442.572,747.8 444.239,746.633 444.5,743.5C 447.862,743.07 450.695,744.07 453,746.5C 454.707,745.862 456.54,745.862 458.5,746.5C 463.351,747.229 468.018,748.562 472.5,750.5C 472.62,751.586 473.287,752.253 474.5,752.5C 478.804,753.715 483.138,754.715 487.5,755.5C 490.288,757.976 493.622,758.976 497.5,758.5C 504.684,761.118 512.017,763.118 519.5,764.5C 520.29,765.401 521.29,766.068 522.5,766.5C 522.414,767.496 522.748,768.329 523.5,769C 529.123,770.93 534.789,772.763 540.5,774.5C 542.942,775.719 545.276,777.219 547.5,779C 545.161,781.55 545.828,782.05 549.5,780.5C 551.91,782.372 554.577,783.705 557.5,784.5C 557.5,788.167 557.5,791.833 557.5,795.5C 557.5,796.167 557.167,796.5 556.5,796.5C 554.833,796.5 553.167,796.5 551.5,796.5C 551.5,797.5 551.5,798.5 551.5,799.5C 549.5,800.167 547.5,800.833 545.5,801.5C 535.516,802.213 525.516,802.547 515.5,802.5C 512.098,802.658 508.764,802.324 505.5,801.5C 494.214,798.331 482.548,796.664 470.5,796.5C 468.833,796.5 467.167,796.5 465.5,796.5C 463.52,794.895 461.187,793.728 458.5,793C 454.514,792.501 450.514,792.334 446.5,792.5C 446.167,792.5 445.833,792.5 445.5,792.5C 444.492,790.661 442.992,789.328 441,788.5C 436.378,788.609 431.545,788.609 426.5,788.5C 426.389,787.883 426.056,787.383 425.5,787C 423.19,786.503 420.857,786.337 418.5,786.5C 418.196,785.85 417.863,785.183 417.5,784.5C 405.774,780.938 393.941,777.605 382,774.5C 377.863,775.237 373.697,775.571 369.5,775.5C 364.453,773.605 359.12,772.605 353.5,772.5C 351.047,771.783 348.713,770.616 346.5,769C 343.518,768.502 340.518,768.335 337.5,768.5C 334.903,767.111 332.57,765.278 330.5,763C 326.848,762.501 323.182,762.335 319.5,762.5C 317.254,761.545 314.921,760.878 312.5,760.5C 310.297,758.9 307.964,757.567 305.5,756.5C 305.063,754.926 304.063,753.759 302.5,753C 298.543,751.165 294.543,749.665 290.5,748.5C 287.86,747.18 285.193,745.847 282.5,744.5C 276.5,740.167 270.5,735.833 264.5,731.5C 261.861,729.527 259.527,727.194 257.5,724.5C 256.857,721.675 255.523,719.175 253.5,717C 253.905,716.055 254.572,715.388 255.5,715C 254.736,712.931 254.236,710.764 254,708.5C 253.163,710.844 251.829,712.844 250,714.5C 248.106,711.127 245.273,709.127 241.5,708.5C 239.058,705.271 236.392,702.271 233.5,699.5C 231.554,695.561 229.221,691.894 226.5,688.5C 226.5,688.167 226.5,687.833 226.5,687.5C 226.643,685.738 226.309,684.071 225.5,682.5C 222.653,680.133 220.82,677.133 220,673.5C 219.329,672.748 218.496,672.414 217.5,672.5C 215.167,667.167 212.833,661.833 210.5,656.5C 210.378,649.971 208.378,644.304 204.5,639.5C 204.5,639.167 204.5,638.833 204.5,638.5C 204.093,634.797 203.426,631.13 202.5,627.5C 202.253,626.287 201.586,625.62 200.5,625.5C 199.766,624.292 199.433,622.959 199.5,621.5C 198.66,617.015 197.66,612.681 196.5,608.5C 194.505,597.774 193.172,587.107 192.5,576.5C 191.67,557.525 193.003,538.858 196.5,520.5C 199.715,512.954 201.382,504.954 201.5,496.5C 202.268,495.737 202.768,494.737 203,493.5C 203.371,499.984 204.538,506.318 206.5,512.5C 206.833,511.333 207.167,510.167 207.5,509C 206.833,506 206.167,503 205.5,500C 205.827,498.187 206.493,496.52 207.5,495C 207.2,492.976 206.367,492.476 205,493.5C 204.833,492.5 204.667,491.5 204.5,490.5C 206.019,487.399 206.685,484.066 206.5,480.5C 207.501,477.828 208.501,475.162 209.5,472.5C 211.017,472.489 212.184,471.823 213,470.5C 214.461,467.321 215.295,463.988 215.5,460.5C 215.5,460.167 215.5,459.833 215.5,459.5C 216.496,459.586 217.329,459.252 218,458.5C 219.015,455.79 220.515,453.457 222.5,451.5C 224.018,453.514 224.685,455.514 224.5,457.5C 225.168,455.074 225.502,452.741 225.5,450.5C 223.914,448.827 223.247,446.827 223.5,444.5C 225.184,442.709 227.184,441.209 229.5,440C 229.167,439.667 228.833,439.333 228.5,439C 232.034,434.487 234.701,429.654 236.5,424.5C 238.167,421.833 239.833,419.167 241.5,416.5C 244.642,416.201 246.809,414.534 248,411.5C 249.999,413.253 252.165,414.587 254.5,415.5C 254.5,413.833 254.5,412.167 254.5,410.5C 253.167,410.5 251.833,410.5 250.5,410.5C 250.5,408.833 250.5,407.167 250.5,405.5C 251.167,404.5 251.833,403.5 252.5,402.5C 254.833,400.833 256.833,398.833 258.5,396.5C 261.167,395.833 262.833,394.167 263.5,391.5C 265.453,390.538 267.286,390.205 269,390.5C 271.197,392.949 272.697,392.783 273.5,390C 273.561,388.289 272.894,386.956 271.5,386C 272.787,384.59 273.954,383.09 275,381.5C 276.737,384.533 278.903,385.033 281.5,383C 280.207,382.51 278.873,382.343 277.5,382.5C 277.343,381.127 277.51,379.793 278,378.5C 279.627,377.468 280.793,376.134 281.5,374.5C 282.211,372.97 283.211,371.637 284.5,370.5C 286.167,369.167 287.833,367.833 289.5,366.5C 292.427,365.243 294.761,363.243 296.5,360.5C 300.731,362.632 302.898,361.299 303,356.5C 303.414,356.957 303.914,357.291 304.5,357.5C 305.452,355.955 305.785,354.288 305.5,352.5C 305.5,351.833 305.833,351.5 306.5,351.5C 309.582,349.628 312.249,347.295 314.5,344.5C 315.71,344.068 316.71,343.401 317.5,342.5C 318.167,342.167 318.833,341.833 319.5,341.5C 321.591,341.682 323.591,341.348 325.5,340.5C 328.417,337.625 331.083,334.625 333.5,331.5C 333.973,330.094 334.973,329.427 336.5,329.5C 343.032,329.286 347.698,326.286 350.5,320.5C 350.973,319.094 351.973,318.427 353.5,318.5C 356.288,318.923 358.288,317.923 359.5,315.5C 361.725,314.106 364.058,312.94 366.5,312C 367.252,311.329 367.586,310.496 367.5,309.5C 368.167,309.167 368.833,308.833 369.5,308.5C 371.199,308.66 372.866,308.494 374.5,308C 378.323,305.935 381.656,303.435 384.5,300.5C 386.566,298.801 388.9,297.468 391.5,296.5C 393.262,296.643 394.929,296.309 396.5,295.5C 398.842,297.673 401.342,299.673 404,301.5C 406.135,300.873 408.302,300.373 410.5,300C 412.014,298.561 412.347,297.061 411.5,295.5C 408.451,298.048 405.117,298.714 401.5,297.5C 400.754,296.264 400.421,294.93 400.5,293.5C 404.488,293.83 407.155,292.163 408.5,288.5C 408.5,288.167 408.5,287.833 408.5,287.5C 412.099,286.301 415.765,285.301 419.5,284.5C 421.527,284.662 423.527,284.495 425.5,284C 428.311,283.017 430.977,281.851 433.5,280.5C 440.967,278.525 448.634,277.025 456.5,276C 458.233,274.811 459.9,273.644 461.5,272.5C 462.833,272.5 464.167,272.5 465.5,272.5C 470.254,272.483 474.921,271.816 479.5,270.5C 480.554,270.68 481.554,271.013 482.5,271.5C 486.977,270.595 491.311,269.595 495.5,268.5C 506.836,268.241 518.169,267.907 529.5,267.5 Z"/></g>
<g><path style="opacity:1" fill="#f1fcee" d="M 481.5,268.5 C 484.167,268.5 486.833,268.5 489.5,268.5C 491.5,268.5 493.5,268.5 495.5,268.5C 491.311,269.595 486.977,270.595 482.5,271.5C 481.554,271.013 480.554,270.68 479.5,270.5C 474.921,271.816 470.254,272.483 465.5,272.5C 470.669,270.527 476.002,269.194 481.5,268.5 Z"/></g>
<g><path style="opacity:1" fill="#edfce7" d="M 545.5,269.5 C 550.833,270.167 556.167,270.833 561.5,271.5C 561.5,271.833 561.5,272.167 561.5,272.5C 556.804,272.329 552.137,271.829 547.5,271C 546.584,270.722 545.918,270.222 545.5,269.5 Z"/></g>
<g><path style="opacity:1" fill="#80ae66" d="M 461.5,271.5 C 461.5,271.833 461.5,272.167 461.5,272.5C 457.538,273.376 453.538,274.042 449.5,274.5C 453.076,272.272 457.076,271.272 461.5,271.5 Z"/></g>
<g><path style="opacity:1" fill="#88af6c" d="M 561.5,272.5 C 561.5,272.167 561.5,271.833 561.5,271.5C 563.833,271.5 566.167,271.5 568.5,271.5C 579.569,272.925 590.569,274.759 601.5,277C 603.972,278.978 606.639,280.478 609.5,281.5C 600.315,278.871 590.982,276.871 581.5,275.5C 581.167,275.5 580.833,275.5 580.5,275.5C 575.696,274.139 570.696,273.139 565.5,272.5C 564.167,272.5 562.833,272.5 561.5,272.5 Z"/></g>
<g><path style="opacity:1" fill="#e9f8e1" d="M 565.5,272.5 C 570.696,273.139 575.696,274.139 580.5,275.5C 576.818,275.665 573.152,275.499 569.5,275C 567.68,274.8 566.347,273.966 565.5,272.5 Z"/></g>
<g><path style="opacity:1" fill="#81ae67" d="M 449.5,274.5 C 444.403,276.661 439.07,278.328 433.5,279.5C 434.642,277.567 436.308,276.067 438.5,275C 442.152,274.501 445.818,274.335 449.5,274.5 Z"/></g>
<g><path style="opacity:1" fill="#e8f8e3" d="M 461.5,272.5 C 459.9,273.644 458.233,274.811 456.5,276C 448.634,277.025 440.967,278.525 433.5,280.5C 433.5,280.167 433.5,279.833 433.5,279.5C 439.07,278.328 444.403,276.661 449.5,274.5C 453.538,274.042 457.538,273.376 461.5,272.5 Z"/></g>
<g><path style="opacity:1" fill="#eafbe5" d="M 581.5,275.5 C 590.982,276.871 600.315,278.871 609.5,281.5C 609.842,282.338 610.508,282.672 611.5,282.5C 612.5,283.167 613.5,283.833 614.5,284.5C 605.093,281.567 595.427,279.401 585.5,278C 583.68,277.8 582.347,276.966 581.5,275.5 Z"/></g>
<g><path style="opacity:1" fill="#8ab06f" d="M 433.5,279.5 C 433.5,279.833 433.5,280.167 433.5,280.5C 429.803,281.008 426.136,281.674 422.5,282.5C 423.347,281.034 424.68,280.2 426.5,280C 428.81,279.503 431.143,279.337 433.5,279.5 Z"/></g>
<g><path style="opacity:1" fill="#8cb274" d="M 611.5,282.5 C 615.162,282.723 618.495,283.723 621.5,285.5C 619.139,285.326 616.806,284.993 614.5,284.5C 613.5,283.833 612.5,283.167 611.5,282.5 Z"/></g>
<g><path style="opacity:1" fill="#84ae6e" d="M 422.5,282.5 C 421.5,283.167 420.5,283.833 419.5,284.5C 415.765,285.301 412.099,286.301 408.5,287.5C 412.296,283.853 416.962,282.186 422.5,282.5 Z"/></g>
<g><path style="opacity:1" fill="#e8f9e0" d="M 433.5,280.5 C 430.977,281.851 428.311,283.017 425.5,284C 423.527,284.495 421.527,284.662 419.5,284.5C 420.5,283.833 421.5,283.167 422.5,282.5C 426.136,281.674 429.803,281.008 433.5,280.5 Z"/></g>
<g><path style="opacity:1" fill="#88ad6d" d="M 406.5,288.5 C 405.22,289.931 403.553,290.598 401.5,290.5C 402.552,288.744 404.219,288.077 406.5,288.5 Z"/></g>
<g><path style="opacity:1" fill="#88b16c" d="M 625.5,287.5 C 639.359,291.251 652.025,297.585 663.5,306.5C 664.857,308.186 666.19,309.852 667.5,311.5C 666.391,311.443 665.391,311.11 664.5,310.5C 660.017,306.863 655.35,303.363 650.5,300C 642.326,296.412 634.326,292.579 626.5,288.5C 625.833,288.5 625.5,288.167 625.5,287.5 Z"/></g>
<g><path style="opacity:1" fill="#86af6d" d="M 401.5,290.5 C 398.466,293.016 395.132,295.016 391.5,296.5C 388.9,297.468 386.566,298.801 384.5,300.5C 379.833,302.5 375.167,304.5 370.5,306.5C 371.642,304.567 373.308,303.067 375.5,302C 383.098,298.703 390.431,295.037 397.5,291C 398.793,290.51 400.127,290.343 401.5,290.5 Z"/></g>
<g><path style="opacity:1" fill="#f6fdf1" d="M 406.5,288.5 C 407.167,288.5 407.833,288.5 408.5,288.5C 407.155,292.163 404.488,293.83 400.5,293.5C 400.421,294.93 400.754,296.264 401.5,297.5C 405.117,298.714 408.451,298.048 411.5,295.5C 412.347,297.061 412.014,298.561 410.5,300C 408.302,300.373 406.135,300.873 404,301.5C 401.342,299.673 398.842,297.673 396.5,295.5C 394.929,296.309 393.262,296.643 391.5,296.5C 395.132,295.016 398.466,293.016 401.5,290.5C 403.553,290.598 405.22,289.931 406.5,288.5 Z"/></g>
<g><path style="opacity:1" fill="#effae7" d="M 626.5,288.5 C 634.326,292.579 642.326,296.412 650.5,300C 655.35,303.363 660.017,306.863 664.5,310.5C 660.177,308.583 655.844,306.583 651.5,304.5C 644.763,298.561 637.097,294.227 628.5,291.5C 627.575,290.643 626.908,289.643 626.5,288.5 Z"/></g>
<g><path style="opacity:1" fill="#ecfae4" d="M 384.5,300.5 C 381.656,303.435 378.323,305.935 374.5,308C 372.866,308.494 371.199,308.66 369.5,308.5C 369.833,307.833 370.167,307.167 370.5,306.5C 375.167,304.5 379.833,302.5 384.5,300.5 Z"/></g>
<g><path style="opacity:1" fill="#8cb076" d="M 370.5,306.5 C 370.167,307.167 369.833,307.833 369.5,308.5C 368.833,308.833 368.167,309.167 367.5,309.5C 364.807,310.847 362.14,312.18 359.5,313.5C 359.369,312.624 359.702,311.957 360.5,311.5C 363.628,309.36 366.961,307.693 370.5,306.5 Z"/></g>
<g><path style="opacity:1" fill="#ecf9e5" d="M 367.5,309.5 C 367.586,310.496 367.252,311.329 366.5,312C 364.058,312.94 361.725,314.106 359.5,315.5C 358.288,317.923 356.288,318.923 353.5,318.5C 353.833,317.833 354.167,317.167 354.5,316.5C 356.411,315.925 358.078,314.925 359.5,313.5C 362.14,312.18 364.807,310.847 367.5,309.5 Z"/></g>
<g><path style="opacity:1" fill="#90ae77" d="M 669.5,312.5 C 671.749,313.08 673.415,314.413 674.5,316.5C 672.251,315.92 670.585,314.587 669.5,312.5 Z"/></g>
<g><path style="opacity:1" fill="#89af6f" d="M 354.5,316.5 C 354.167,317.167 353.833,317.833 353.5,318.5C 351.973,318.427 350.973,319.094 350.5,320.5C 346.007,322.579 341.674,324.912 337.5,327.5C 337.511,325.983 338.177,324.816 339.5,324C 343.537,322.65 346.87,320.317 349.5,317C 351.134,316.506 352.801,316.34 354.5,316.5 Z"/></g>
<g><path style="opacity:1" fill="#8aaf71" d="M 680.5,322.5 C 685.833,325.833 690.167,330.167 693.5,335.5C 691.167,333.5 688.833,331.5 686.5,329.5C 684.5,327.167 682.5,324.833 680.5,322.5 Z"/></g>
<g><path style="opacity:1" fill="#f1fcee" d="M 350.5,320.5 C 347.698,326.286 343.032,329.286 336.5,329.5C 336.833,328.833 337.167,328.167 337.5,327.5C 341.674,324.912 346.007,322.579 350.5,320.5 Z"/></g>
<g><path style="opacity:1" fill="#87ae6e" d="M 337.5,327.5 C 337.167,328.167 336.833,328.833 336.5,329.5C 334.973,329.427 333.973,330.094 333.5,331.5C 330.833,333.167 328.167,334.833 325.5,336.5C 325.369,335.761 325.536,335.094 326,334.5C 328.634,332.441 331.134,330.275 333.5,328C 334.793,327.51 336.127,327.343 337.5,327.5 Z"/></g>
<g><path style="opacity:1" fill="#85ad6b" d="M 325.5,336.5 C 323.5,338.167 321.5,339.833 319.5,341.5C 318.833,341.833 318.167,342.167 317.5,342.5C 317.5,341.167 317.5,339.833 317.5,338.5C 320.167,337.833 322.833,337.167 325.5,336.5 Z"/></g>
<g><path style="opacity:1" fill="#edfbe6" d="M 333.5,331.5 C 331.083,334.625 328.417,337.625 325.5,340.5C 323.591,341.348 321.591,341.682 319.5,341.5C 321.5,339.833 323.5,338.167 325.5,336.5C 328.167,334.833 330.833,333.167 333.5,331.5 Z"/></g>
<g><path style="opacity:1" fill="#e8f7e2" d="M 686.5,329.5 C 688.833,331.5 691.167,333.5 693.5,335.5C 696.239,338.233 698.573,341.233 700.5,344.5C 698.148,342.654 695.648,340.988 693,339.5C 690.233,336.564 688.066,333.231 686.5,329.5 Z"/></g>
<g><path style="opacity:1" fill="#8db277" d="M 314.5,344.5 C 312.249,347.295 309.582,349.628 306.5,351.5C 307.861,347.812 310.528,345.479 314.5,344.5 Z"/></g>
<g><path style="opacity:1" fill="#ecfcdf" d="M 700.5,344.5 C 701.833,345.5 703.167,346.5 704.5,347.5C 704.833,348.167 705.167,348.833 705.5,349.5C 702.5,349.167 700.833,347.5 700.5,344.5 Z"/></g>
<g><path style="opacity:1" fill="#85ae6b" d="M 704.5,347.5 C 706.144,347.286 707.644,347.62 709,348.5C 715.213,357.73 721.879,366.73 729,375.5C 729.483,376.448 729.649,377.448 729.5,378.5C 728.833,377.833 728.167,377.167 727.5,376.5C 722.516,369.52 717.183,362.854 711.5,356.5C 710.219,353.553 708.219,351.219 705.5,349.5C 705.167,348.833 704.833,348.167 704.5,347.5 Z"/></g>
<g><path style="opacity:1" fill="#e9f6e4" d="M 705.5,349.5 C 708.219,351.219 710.219,353.553 711.5,356.5C 710.178,356.67 709.011,356.337 708,355.5C 706.878,353.58 706.044,351.58 705.5,349.5 Z"/></g>
<g><path style="opacity:1" fill="#8aaf70" d="M 304.5,352.5 C 302.761,355.243 300.427,357.243 297.5,358.5C 297.511,356.983 298.177,355.816 299.5,355C 300.9,353.562 302.567,352.729 304.5,352.5 Z"/></g>
<g><path style="opacity:1" fill="#8daf76" d="M 672.5,355.5 C 672.5,355.833 672.5,356.167 672.5,356.5C 669.482,356.335 666.482,356.502 663.5,357C 662.944,357.383 662.611,357.883 662.5,358.5C 662.167,358.5 661.833,358.5 661.5,358.5C 661.167,358.5 660.833,358.5 660.5,358.5C 660.833,357.833 661.167,357.167 661.5,356.5C 664.957,354.211 668.624,353.878 672.5,355.5 Z"/></g>
<g><path style="opacity:1" fill="#d5ebc8" d="M 672.5,356.5 C 672.5,356.167 672.5,355.833 672.5,355.5C 676.665,356.921 678.665,359.921 678.5,364.5C 678.48,365.726 678.147,366.726 677.5,367.5C 677.784,365.585 677.451,363.919 676.5,362.5C 676.378,359.708 675.044,357.708 672.5,356.5 Z"/></g>
<g><path style="opacity:1" fill="#e6f5e1" d="M 661.5,356.5 C 661.167,357.167 660.833,357.833 660.5,358.5C 659.504,358.414 658.671,358.748 658,359.5C 657.333,363.167 657.333,366.833 658,370.5C 659.076,373.079 660.909,374.746 663.5,375.5C 669.996,377.922 674.663,375.922 677.5,369.5C 677.926,373.499 676.259,375.999 672.5,377C 667.673,377.884 663.006,377.384 658.5,375.5C 656.975,372.209 656.309,368.709 656.5,365C 656.833,362.5 657.167,360 657.5,357.5C 658.736,356.754 660.07,356.421 661.5,356.5 Z"/></g>
<g><path style="opacity:1" fill="#f4fdee" d="M 304.5,352.5 C 304.833,352.5 305.167,352.5 305.5,352.5C 305.785,354.288 305.452,355.955 304.5,357.5C 303.914,357.291 303.414,356.957 303,356.5C 302.898,361.299 300.731,362.632 296.5,360.5C 296.833,359.833 297.167,359.167 297.5,358.5C 300.427,357.243 302.761,355.243 304.5,352.5 Z"/></g>
<g><path style="opacity:1" fill="#78b152" d="M 675.5,368.5 C 673.717,370.673 671.717,372.84 669.5,375C 667.527,375.495 665.527,375.662 663.5,375.5C 663.833,373.5 664.167,371.5 664.5,369.5C 662.5,369.5 660.5,369.5 658.5,369.5C 658.335,366.482 658.502,363.482 659,360.5C 659.995,359.934 660.828,359.267 661.5,358.5C 661.833,358.5 662.167,358.5 662.5,358.5C 665.764,357.676 669.098,357.342 672.5,357.5C 672.284,359.681 673.117,361.347 675,362.5C 675.495,364.473 675.662,366.473 675.5,368.5 Z"/></g>
<g><path style="opacity:1" fill="#7fae5f" d="M 672.5,356.5 C 675.044,357.708 676.378,359.708 676.5,362.5C 676.795,364.735 676.461,366.735 675.5,368.5C 675.662,366.473 675.495,364.473 675,362.5C 673.117,361.347 672.284,359.681 672.5,357.5C 669.098,357.342 665.764,357.676 662.5,358.5C 662.611,357.883 662.944,357.383 663.5,357C 666.482,356.502 669.482,356.335 672.5,356.5 Z"/></g>
<g><path style="opacity:1" fill="#d3e9c9" d="M 296.5,360.5 C 294.761,363.243 292.427,365.243 289.5,366.5C 291.239,363.757 293.573,361.757 296.5,360.5 Z"/></g>
<g><path style="opacity:1" fill="#f0fbec" d="M 711.5,356.5 C 717.183,362.854 722.516,369.52 727.5,376.5C 725.629,376.141 724.129,375.141 723,373.5C 722.287,369.954 720.12,367.954 716.5,367.5C 717.711,366.28 717.711,365.113 716.5,364C 714.893,363.885 713.393,364.385 712,365.5C 711.228,365.355 710.561,365.022 710,364.5C 707.433,360.424 708.266,358.924 712.5,360C 711.663,358.989 711.33,357.822 711.5,356.5 Z"/></g>
<g><path style="opacity:1" fill="#81b063" d="M 660.5,358.5 C 660.833,358.5 661.167,358.5 661.5,358.5C 660.828,359.267 659.995,359.934 659,360.5C 658.502,363.482 658.335,366.482 658.5,369.5C 660.5,369.5 662.5,369.5 664.5,369.5C 664.167,371.5 663.833,373.5 663.5,375.5C 660.909,374.746 659.076,373.079 658,370.5C 657.333,366.833 657.333,363.167 658,359.5C 658.671,358.748 659.504,358.414 660.5,358.5 Z"/></g>
<g><path style="opacity:1" fill="#8db273" d="M 284.5,370.5 C 283.211,371.637 282.211,372.97 281.5,374.5C 279.668,375.248 278.001,376.248 276.5,377.5C 277.896,375.252 279.563,373.086 281.5,371C 282.448,370.517 283.448,370.351 284.5,370.5 Z"/></g>
<g><path style="opacity:1" fill="#86ac6b" d="M 676.5,362.5 C 677.451,363.919 677.784,365.585 677.5,367.5C 677.5,368.167 677.5,368.833 677.5,369.5C 674.663,375.922 669.996,377.922 663.5,375.5C 665.527,375.662 667.527,375.495 669.5,375C 671.717,372.84 673.717,370.673 675.5,368.5C 676.461,366.735 676.795,364.735 676.5,362.5 Z"/></g>
<g><path style="opacity:1" fill="#ebfbe1" d="M 504.5,390.5 C 502.266,389.553 499.932,388.886 497.5,388.5C 495.068,388.886 492.734,389.553 490.5,390.5C 490.577,389.25 491.244,388.417 492.5,388C 495.833,387.333 499.167,387.333 502.5,388C 503.756,388.417 504.423,389.25 504.5,390.5 Z"/></g>
<g><path style="opacity:1" fill="#85ae67" d="M 730.5,380.5 C 739.08,386.889 744.08,395.556 745.5,406.5C 744.347,404.364 743.014,402.364 741.5,400.5C 740.341,396.849 738.674,393.515 736.5,390.5C 735.649,388.118 734.316,386.118 732.5,384.5C 732.267,382.938 731.6,381.605 730.5,380.5 Z"/></g>
<g><path style="opacity:1" fill="#f3faf1" d="M 281.5,374.5 C 280.793,376.134 279.627,377.468 278,378.5C 277.51,379.793 277.343,381.127 277.5,382.5C 278.873,382.343 280.207,382.51 281.5,383C 278.903,385.033 276.737,384.533 275,381.5C 273.954,383.09 272.787,384.59 271.5,386C 272.894,386.956 273.561,388.289 273.5,390C 272.697,392.783 271.197,392.949 269,390.5C 267.286,390.205 265.453,390.538 263.5,391.5C 267.833,386.833 272.167,382.167 276.5,377.5C 278.001,376.248 279.668,375.248 281.5,374.5 Z"/></g>
<g><path style="opacity:1" fill="#e7f9dd" d="M 732.5,384.5 C 734.316,386.118 735.649,388.118 736.5,390.5C 733.914,389.513 732.581,387.513 732.5,384.5 Z"/></g>
<g><path style="opacity:1" fill="#87af6e" d="M 504.5,390.5 C 505.864,392.191 507.197,393.858 508.5,395.5C 510.028,404.468 506.528,410.135 498,412.5C 492.131,411.632 488.464,408.299 487,402.5C 486.309,398.979 486.809,395.645 488.5,392.5C 489.167,391.833 489.833,391.167 490.5,390.5C 492.734,389.553 495.068,388.886 497.5,388.5C 499.932,388.886 502.266,389.553 504.5,390.5 Z"/></g>
<g><path style="opacity:1" fill="#d9f2cf" d="M 263.5,391.5 C 262.833,394.167 261.167,395.833 258.5,396.5C 259.833,394.5 261.5,392.833 263.5,391.5 Z"/></g>
<g><path style="opacity:1" fill="#7faf5d" d="M 276.5,377.5 C 272.167,382.167 267.833,386.833 263.5,391.5C 261.5,392.833 259.833,394.5 258.5,396.5C 254.347,396.202 252.347,398.202 252.5,402.5C 251.833,403.5 251.167,404.5 250.5,405.5C 247.968,409.211 244.968,412.544 241.5,415.5C 242.639,412.996 243.306,410.33 243.5,407.5C 244.873,407.657 246.207,407.49 247.5,407C 248.158,405.095 249.325,403.595 251,402.5C 249.935,395.55 252.768,392.55 259.5,393.5C 259.34,391.801 259.506,390.134 260,388.5C 261.716,389.552 262.716,388.886 263,386.5C 263.333,386.833 263.667,387.167 264,387.5C 264.483,386.552 264.649,385.552 264.5,384.5C 267.588,384.803 269.254,383.47 269.5,380.5C 271.672,379.199 274.005,378.199 276.5,377.5 Z"/></g>
<g><path style="opacity:1" fill="#78b251" d="M 493.5,390.5 C 495.527,390.338 497.527,390.505 499.5,391C 501.309,393.238 503.642,394.405 506.5,394.5C 506.665,398.182 506.499,401.848 506,405.5C 503.292,406.896 500.792,408.563 498.5,410.5C 493.756,410.39 490.922,408.056 490,403.5C 489.333,400.167 489.333,396.833 490,393.5C 491.518,392.837 492.685,391.837 493.5,390.5 Z"/></g>
<g><path style="opacity:1" fill="#89b070" d="M 258.5,396.5 C 256.833,398.833 254.833,400.833 252.5,402.5C 252.347,398.202 254.347,396.202 258.5,396.5 Z"/></g>
<g><path style="opacity:1" fill="#91b37d" d="M 646.5,399.5 C 648.292,399.366 649.958,399.699 651.5,400.5C 651.88,402.698 651.213,404.365 649.5,405.5C 649.5,404.167 649.5,402.833 649.5,401.5C 646.744,401.716 644.41,402.716 642.5,404.5C 643.136,402.205 644.469,400.539 646.5,399.5 Z"/></g>
<g><path style="opacity:1" fill="#f6fbef" d="M 646.5,399.5 C 644.469,400.539 643.136,402.205 642.5,404.5C 640.091,405.701 638.091,407.367 636.5,409.5C 635.833,409.833 635.167,410.167 634.5,410.5C 633.237,408.57 631.57,406.903 629.5,405.5C 628.614,404.675 628.281,403.675 628.5,402.5C 630.698,403.014 632.698,404.014 634.5,405.5C 636.909,404.299 638.909,402.633 640.5,400.5C 641.086,400.709 641.586,401.043 642,401.5C 643.049,399.893 644.549,399.227 646.5,399.5 Z"/></g>
<g><path style="opacity:1" fill="#79b155" d="M 649.5,405.5 C 647.511,406.481 645.511,407.481 643.5,408.5C 642.833,408.167 642.167,407.833 641.5,407.5C 642.127,406.583 642.461,405.583 642.5,404.5C 644.41,402.716 646.744,401.716 649.5,401.5C 649.5,402.833 649.5,404.167 649.5,405.5 Z"/></g>
<g><path style="opacity:1" fill="#7faf5f" d="M 754.5,426.5 C 750.983,420.128 747.983,413.462 745.5,406.5C 747.074,406.937 748.241,407.937 749,409.5C 749.333,407.833 749.667,406.167 750,404.5C 751.69,407.154 751.856,409.987 750.5,413C 752.772,417.172 754.105,421.672 754.5,426.5 Z"/></g>
<g><path style="opacity:1" fill="#f5fbec" d="M 250.5,405.5 C 250.5,407.167 250.5,408.833 250.5,410.5C 251.833,410.5 253.167,410.5 254.5,410.5C 254.5,412.167 254.5,413.833 254.5,415.5C 252.165,414.587 249.999,413.253 248,411.5C 246.809,414.534 244.642,416.201 241.5,416.5C 241.5,416.167 241.5,415.833 241.5,415.5C 244.968,412.544 247.968,409.211 250.5,405.5 Z"/></g>
<g><path style="opacity:1" fill="#82af68" d="M 642.5,404.5 C 642.461,405.583 642.127,406.583 641.5,407.5C 642.167,407.833 642.833,408.167 643.5,408.5C 645.511,407.481 647.511,406.481 649.5,405.5C 647.167,408.5 644.5,411.167 641.5,413.5C 641.5,412.167 641.5,410.833 641.5,409.5C 639.833,409.5 638.167,409.5 636.5,409.5C 638.091,407.367 640.091,405.701 642.5,404.5 Z"/></g>
<g><path style="opacity:1" fill="#edfbe7" d="M 488.5,392.5 C 486.809,395.645 486.309,398.979 487,402.5C 488.464,408.299 492.131,411.632 498,412.5C 506.528,410.135 510.028,404.468 508.5,395.5C 510.302,396.315 511.302,397.815 511.5,400C 507.645,414.175 499.479,417.341 487,409.5C 486.22,406.488 485.053,403.655 483.5,401C 485.074,399.174 485.907,397.007 486,394.5C 486.708,393.619 487.542,392.953 488.5,392.5 Z"/></g>
<g><path style="opacity:1" fill="#7cb059" d="M 636.5,409.5 C 638.167,409.5 639.833,409.5 641.5,409.5C 641.5,410.833 641.5,412.167 641.5,413.5C 640.833,414.5 640.167,415.5 639.5,416.5C 637.833,417.167 636.167,417.833 634.5,418.5C 633.325,418.719 632.325,418.386 631.5,417.5C 632.246,416.264 632.579,414.93 632.5,413.5C 632.833,412.833 633.167,412.167 633.5,411.5C 634.167,411.5 634.5,411.167 634.5,410.5C 635.167,410.167 635.833,409.833 636.5,409.5 Z"/></g>
<g><path style="opacity:1" fill="#e8fae7" d="M 633.5,411.5 C 633.167,412.167 632.833,412.833 632.5,413.5C 628.167,416.167 623.833,418.833 619.5,421.5C 619.082,420.778 618.416,420.278 617.5,420C 622.973,417.344 628.306,414.511 633.5,411.5 Z"/></g>
<g><path style="opacity:1" fill="#effbe9" d="M 651.5,400.5 C 653.344,401.204 653.844,402.537 653,404.5C 649.675,408.235 646.508,412.068 643.5,416C 642.207,416.49 640.873,416.657 639.5,416.5C 640.167,415.5 640.833,414.5 641.5,413.5C 644.5,411.167 647.167,408.5 649.5,405.5C 651.213,404.365 651.88,402.698 651.5,400.5 Z"/></g>
<g><path style="opacity:1" fill="#8cb378" d="M 241.5,416.5 C 239.833,419.167 238.167,421.833 236.5,424.5C 236.167,424.5 235.833,424.5 235.5,424.5C 236.063,420.689 238.063,418.023 241.5,416.5 Z"/></g>
<g><path style="opacity:1" fill="#83b169" d="M 632.5,413.5 C 632.579,414.93 632.246,416.264 631.5,417.5C 632.325,418.386 633.325,418.719 634.5,418.5C 632.477,421.52 629.81,423.854 626.5,425.5C 628.638,423.538 629.972,421.038 630.5,418C 627.906,417.551 625.906,418.551 624.5,421C 622.846,421.608 621.179,422.108 619.5,422.5C 619.5,422.167 619.5,421.833 619.5,421.5C 623.833,418.833 628.167,416.167 632.5,413.5 Z"/></g>
<g><path style="opacity:1" fill="#79b156" d="M 626.5,425.5 C 624.5,426.5 622.5,427.5 620.5,428.5C 616.945,428.887 613.612,429.887 610.5,431.5C 608.5,431 606.5,430.5 604.5,430C 608.496,428.669 612.163,426.835 615.5,424.5C 616.514,423.326 617.847,422.66 619.5,422.5C 621.179,422.108 622.846,421.608 624.5,421C 625.906,418.551 627.906,417.551 630.5,418C 629.972,421.038 628.638,423.538 626.5,425.5 Z"/></g>
<g><path style="opacity:1" fill="#effae8" d="M 561.5,428.5 C 558.214,427.793 554.881,427.46 551.5,427.5C 551.414,426.504 551.748,425.671 552.5,425C 555.167,424.333 557.833,424.333 560.5,425C 561.337,426.011 561.67,427.178 561.5,428.5 Z"/></g>
<g><path style="opacity:1" fill="#e5fbe1" d="M 613.5,424.5 C 608.5,426.943 603.166,428.61 597.5,429.5C 597.881,428.069 598.881,427.236 600.5,427C 604.816,426.004 609.149,425.17 613.5,424.5 Z"/></g>
<g><path style="opacity:1" fill="#8bb372" d="M 551.5,427.5 C 554.881,427.46 558.214,427.793 561.5,428.5C 562.167,428.5 562.833,428.5 563.5,428.5C 571.257,430.269 579.257,430.935 587.5,430.5C 587.5,430.833 587.5,431.167 587.5,431.5C 576.764,431.814 566.097,431.148 555.5,429.5C 553.233,429.559 552.567,430.392 553.5,432C 556.167,432.333 558.833,432.667 561.5,433C 562.056,433.383 562.389,433.883 562.5,434.5C 559.193,433.949 555.86,433.616 552.5,433.5C 550.469,431.751 550.135,429.751 551.5,427.5 Z"/></g>
<g><path style="opacity:1" fill="#ecfbeb" d="M 563.5,428.5 C 574.148,429.277 584.815,429.61 595.5,429.5C 593.052,430.473 590.385,430.806 587.5,430.5C 579.257,430.935 571.257,430.269 563.5,428.5 Z"/></g>
<g><path style="opacity:1" fill="#83b166" d="M 613.5,424.5 C 614.167,424.5 614.833,424.5 615.5,424.5C 612.163,426.835 608.496,428.669 604.5,430C 606.5,430.5 608.5,431 610.5,431.5C 613.612,429.887 616.945,428.887 620.5,428.5C 616.109,431.026 611.443,433.026 606.5,434.5C 604.139,434.674 601.806,435.007 599.5,435.5C 600.574,434.115 601.907,432.949 603.5,432C 598.177,431.501 592.844,431.334 587.5,431.5C 587.5,431.167 587.5,430.833 587.5,430.5C 590.385,430.806 593.052,430.473 595.5,429.5C 596.167,429.5 596.833,429.5 597.5,429.5C 603.166,428.61 608.5,426.943 613.5,424.5 Z"/></g>
<g><path style="opacity:1" fill="#87b06e" d="M 230.5,431.5 C 227.925,435.647 225.591,439.98 223.5,444.5C 222.728,445.694 221.728,446.694 220.5,447.5C 220.092,444.401 221.259,442.067 224,440.5C 225.741,437.691 226.908,434.691 227.5,431.5C 228.5,431.5 229.5,431.5 230.5,431.5 Z"/></g>
<g><path style="opacity:1" fill="#edfae7" d="M 235.5,424.5 C 235.833,424.5 236.167,424.5 236.5,424.5C 234.701,429.654 232.034,434.487 228.5,439C 228.833,439.333 229.167,439.667 229.5,440C 227.184,441.209 225.184,442.709 223.5,444.5C 225.591,439.98 227.925,435.647 230.5,431.5C 232.522,429.469 234.189,427.135 235.5,424.5 Z"/></g>
<g><path style="opacity:1" fill="#79b154" d="M 587.5,431.5 C 592.844,431.334 598.177,431.501 603.5,432C 601.907,432.949 600.574,434.115 599.5,435.5C 598.833,435.5 598.167,435.5 597.5,435.5C 585.817,435.602 574.15,435.269 562.5,434.5C 562.389,433.883 562.056,433.383 561.5,433C 558.833,432.667 556.167,432.333 553.5,432C 552.567,430.392 553.233,429.559 555.5,429.5C 566.097,431.148 576.764,431.814 587.5,431.5 Z"/></g>
<g><path style="opacity:1" fill="#eefae9" d="M 741.5,400.5 C 743.014,402.364 744.347,404.364 745.5,406.5C 747.983,413.462 750.983,420.128 754.5,426.5C 754.5,426.833 754.5,427.167 754.5,427.5C 756.441,431.718 758.108,436.051 759.5,440.5C 757.178,438.414 755.178,435.914 753.5,433C 753.833,432.667 754.167,432.333 754.5,432C 751.709,426.739 748.875,421.573 746,416.5C 745.667,414.5 745.333,412.5 745,410.5C 742.049,407.828 740.883,404.495 741.5,400.5 Z"/></g>
<g><path style="opacity:1" fill="#e8f8e2" d="M 552.5,433.5 C 555.86,433.616 559.193,433.949 562.5,434.5C 574.111,437.753 585.778,438.087 597.5,435.5C 598.167,435.5 598.833,435.5 599.5,435.5C 601.806,435.007 604.139,434.674 606.5,434.5C 604.275,436.363 601.608,437.363 598.5,437.5C 584.099,438.949 569.765,438.449 555.5,436C 554.058,435.623 553.058,434.79 552.5,433.5 Z"/></g>
<g><path style="opacity:1" fill="#88ad6a" d="M 562.5,434.5 C 574.15,435.269 585.817,435.602 597.5,435.5C 585.778,438.087 574.111,437.753 562.5,434.5 Z"/></g>
<g><path style="opacity:1" fill="#85b169" d="M 754.5,427.5 C 755.496,427.414 756.329,427.748 757,428.5C 757.45,430.519 758.283,432.352 759.5,434C 760.742,434.311 761.742,433.811 762.5,432.5C 763.833,433.833 763.833,435.167 762.5,436.5C 761.096,435.001 760.43,435.334 760.5,437.5C 761.812,441.112 762.812,444.779 763.5,448.5C 762.833,447.5 762.167,446.5 761.5,445.5C 760.559,443.95 759.893,442.284 759.5,440.5C 758.108,436.051 756.441,431.718 754.5,427.5 Z"/></g>
<g><path style="opacity:1" fill="#f1fbee" d="M 223.5,444.5 C 223.247,446.827 223.914,448.827 225.5,450.5C 225.502,452.741 225.168,455.074 224.5,457.5C 224.685,455.514 224.018,453.514 222.5,451.5C 220.515,453.457 219.015,455.79 218,458.5C 217.329,459.252 216.496,459.586 215.5,459.5C 216.895,455.71 218.562,452.043 220.5,448.5C 220.5,448.167 220.5,447.833 220.5,447.5C 221.728,446.694 222.728,445.694 223.5,444.5 Z"/></g>
<g><path style="opacity:1" fill="#82ae63" d="M 220.5,448.5 C 218.562,452.043 216.895,455.71 215.5,459.5C 215.5,459.833 215.5,460.167 215.5,460.5C 212.992,464.182 210.992,468.182 209.5,472.5C 208.501,475.162 207.501,477.828 206.5,480.5C 204.229,485.565 202.563,490.898 201.5,496.5C 201.167,496.5 200.833,496.5 200.5,496.5C 201.965,488.445 203.631,480.445 205.5,472.5C 206.5,472.5 207.5,472.5 208.5,472.5C 208.34,470.801 208.506,469.134 209,467.5C 212,461.5 215,455.5 218,449.5C 218.671,448.748 219.504,448.414 220.5,448.5 Z"/></g>
<g><path style="opacity:1" fill="#eaf8e3" d="M 761.5,445.5 C 762.167,446.5 762.833,447.5 763.5,448.5C 763.517,450.565 763.85,452.565 764.5,454.5C 769.925,469.757 771.925,485.424 770.5,501.5C 770.5,501.833 770.5,502.167 770.5,502.5C 769.542,506.627 768.208,510.627 766.5,514.5C 766.371,512.784 766.038,511.117 765.5,509.5C 765.81,508.262 766.31,508.262 767,509.5C 771.107,494.492 770.274,479.825 764.5,465.5C 764.833,464.833 765.167,464.167 765.5,463.5C 763.526,457.663 762.193,451.663 761.5,445.5 Z"/></g>
<g><path style="opacity:1" fill="#e9f8e3" d="M 215.5,460.5 C 215.295,463.988 214.461,467.321 213,470.5C 212.184,471.823 211.017,472.489 209.5,472.5C 210.992,468.182 212.992,464.182 215.5,460.5 Z"/></g>
<g><path style="opacity:1" fill="#83ae66" d="M 764.5,454.5 C 765.482,455.141 766.482,455.807 767.5,456.5C 768.678,463.902 770.178,471.235 772,478.5C 772.667,485.167 772.667,491.833 772,498.5C 771.768,499.737 771.268,500.737 770.5,501.5C 771.925,485.424 769.925,469.757 764.5,454.5 Z"/></g>
<g><path style="opacity:1" fill="#83ae6a" d="M 805.5,496.5 C 803.684,494.882 802.351,492.882 801.5,490.5C 796.68,485.899 791.013,484.566 784.5,486.5C 786.048,485.206 788.048,484.539 790.5,484.5C 799.241,484.017 804.241,488.017 805.5,496.5 Z"/></g>
<g><path style="opacity:1" fill="#fdfefc" d="M 801.5,490.5 C 802.351,492.882 803.684,494.882 805.5,496.5C 805.5,497.5 805.5,498.5 805.5,499.5C 805.5,501.167 805.5,502.833 805.5,504.5C 806.871,522.138 805.038,539.471 800,556.5C 799.667,556.167 799.333,555.833 799,555.5C 797.344,558.053 797.177,560.719 798.5,563.5C 794.718,575.725 790.384,587.725 785.5,599.5C 785.5,599.833 785.5,600.167 785.5,600.5C 782.643,604.88 780.31,609.547 778.5,614.5C 776.358,618.915 774.025,623.248 771.5,627.5C 770.5,627.5 769.5,627.5 768.5,627.5C 767.059,631.714 765.059,635.714 762.5,639.5C 761.414,642.42 760.748,645.42 760.5,648.5C 758.159,653.868 755.825,659.201 753.5,664.5C 752.13,664.856 751.13,665.69 750.5,667C 749.044,670.4 748.044,673.9 747.5,677.5C 747.5,677.833 747.5,678.167 747.5,678.5C 746.542,678.953 745.708,679.619 745,680.5C 744.175,684.211 744.341,687.878 745.5,691.5C 748.897,693.522 752.564,694.522 756.5,694.5C 757.167,694.5 757.833,694.5 758.5,694.5C 758.973,695.906 759.973,696.573 761.5,696.5C 762.167,696.5 762.833,696.5 763.5,696.5C 770.952,699.936 777.618,704.603 783.5,710.5C 783.595,713.692 782.929,716.692 781.5,719.5C 772.97,721.825 764.303,722.158 755.5,720.5C 750.097,717.078 744.097,715.745 737.5,716.5C 736.167,716.5 734.833,716.5 733.5,716.5C 731.485,715.076 729.152,714.41 726.5,714.5C 724.585,714.784 722.919,714.451 721.5,713.5C 721.5,712.5 721.5,711.5 721.5,710.5C 719.876,710.64 718.71,709.973 718,708.5C 717.481,709.516 716.647,710.182 715.5,710.5C 708.919,709.893 702.586,708.56 696.5,706.5C 696.167,706.5 695.833,706.5 695.5,706.5C 694.426,704.716 692.76,703.549 690.5,703C 694.776,699.379 698.776,695.546 702.5,691.5C 704.372,689.09 705.705,686.423 706.5,683.5C 706.5,683.167 706.5,682.833 706.5,682.5C 710.874,678.128 714.874,673.461 718.5,668.5C 721.431,665.75 724.598,663.084 728,660.5C 728.816,657.857 729.316,655.19 729.5,652.5C 729.5,651.833 729.5,651.167 729.5,650.5C 730.737,649.035 731.737,647.368 732.5,645.5C 742.387,628.723 750.387,611.056 756.5,592.5C 756.833,592.5 757.167,592.5 757.5,592.5C 759.19,589.815 760.69,586.815 762,583.5C 762.499,579.848 762.665,576.182 762.5,572.5C 764.38,571.922 765.38,570.588 765.5,568.5C 766.363,557.7 767.697,547.034 769.5,536.5C 769.833,533.833 770.167,531.167 770.5,528.5C 771.167,526.5 771.833,524.5 772.5,522.5C 773.5,522.5 774.5,522.5 775.5,522.5C 775.5,519.167 775.5,515.833 775.5,512.5C 775.5,511.167 775.5,509.833 775.5,508.5C 777.388,506.012 778.055,503.012 777.5,499.5C 777.5,498.5 777.5,497.5 777.5,496.5C 778.224,494.782 778.891,492.948 779.5,491C 783.877,489.989 788.21,488.822 792.5,487.5C 795.465,488.709 798.465,489.709 801.5,490.5 Z"/></g>
<g><path style="opacity:1" fill="#e7f8e1" d="M 801.5,490.5 C 798.465,489.709 795.465,488.709 792.5,487.5C 788.21,488.822 783.877,489.989 779.5,491C 778.891,492.948 778.224,494.782 777.5,496.5C 777.338,494.473 777.505,492.473 778,490.5C 780.314,489.267 782.481,487.933 784.5,486.5C 791.013,484.566 796.68,485.899 801.5,490.5 Z"/></g>
<g><path style="opacity:1" fill="#f6fbf0" d="M 206.5,480.5 C 206.685,484.066 206.019,487.399 204.5,490.5C 204.667,491.5 204.833,492.5 205,493.5C 206.367,492.476 207.2,492.976 207.5,495C 206.493,496.52 205.827,498.187 205.5,500C 206.167,503 206.833,506 207.5,509C 207.167,510.167 206.833,511.333 206.5,512.5C 204.538,506.318 203.371,499.984 203,493.5C 202.768,494.737 202.268,495.737 201.5,496.5C 202.563,490.898 204.229,485.565 206.5,480.5 Z"/></g>
<g><path style="opacity:1" fill="#d2eec8" d="M 805.5,499.5 C 806.924,501.515 807.59,503.848 807.5,506.5C 806.833,505.833 806.167,505.167 805.5,504.5C 805.5,502.833 805.5,501.167 805.5,499.5 Z"/></g>
<g><path style="opacity:1" fill="#d2eaca" d="M 777.5,499.5 C 778.055,503.012 777.388,506.012 775.5,508.5C 775.676,505.273 776.343,502.273 777.5,499.5 Z"/></g>
<g><path style="opacity:1" fill="#85ac66" d="M 200.5,496.5 C 199.768,502.094 198.435,507.427 196.5,512.5C 196.126,506.63 197.459,501.297 200.5,496.5 Z"/></g>
<g><path style="opacity:1" fill="#ebf9e5" d="M 200.5,496.5 C 200.833,496.5 201.167,496.5 201.5,496.5C 201.382,504.954 199.715,512.954 196.5,520.5C 196.5,517.833 196.5,515.167 196.5,512.5C 198.435,507.427 199.768,502.094 200.5,496.5 Z"/></g>
<g><path style="opacity:1" fill="#82b065" d="M 770.5,502.5 C 770.334,506.846 770.501,511.179 771,515.5C 771.333,515.833 771.667,516.167 772,516.5C 772.608,514.934 773.442,513.6 774.5,512.5C 773.626,515.789 772.959,519.123 772.5,522.5C 771.833,524.5 771.167,526.5 770.5,528.5C 770.666,524.486 770.499,520.486 770,516.5C 767.872,520.58 766.038,524.58 764.5,528.5C 765.487,523.883 766.154,519.216 766.5,514.5C 768.208,510.627 769.542,506.627 770.5,502.5 Z"/></g>
<g><path style="opacity:1" fill="#f3fcf1" d="M 765.5,509.5 C 766.038,511.117 766.371,512.784 766.5,514.5C 766.154,519.216 765.487,523.883 764.5,528.5C 762.833,533.833 761.167,539.167 759.5,544.5C 760.091,537.363 761.425,530.363 763.5,523.5C 762.627,520.882 761.961,518.216 761.5,515.5C 762.315,513.112 763.648,511.112 765.5,509.5 Z"/></g>
<g><path style="opacity:1" fill="#8bb274" d="M 196.5,512.5 C 196.5,515.167 196.5,517.833 196.5,520.5C 193.003,538.858 191.67,557.525 192.5,576.5C 191.127,557.947 191.627,539.28 194,520.5C 194.782,517.69 195.616,515.023 196.5,512.5 Z"/></g>
<g><path style="opacity:1" fill="#ecf9e3" d="M 774.5,512.5 C 774.833,512.5 775.167,512.5 775.5,512.5C 775.5,515.833 775.5,519.167 775.5,522.5C 774.5,522.5 773.5,522.5 772.5,522.5C 772.959,519.123 773.626,515.789 774.5,512.5 Z"/></g>
<g><path style="opacity:1" fill="#89b56e" d="M 805.5,496.5 C 807.255,498.761 808.422,501.428 809,504.5C 809.167,508.5 809.333,512.5 809.5,516.5C 809.491,520.893 808.824,524.893 807.5,528.5C 807.5,521.167 807.5,513.833 807.5,506.5C 807.59,503.848 806.924,501.515 805.5,499.5C 805.5,498.5 805.5,497.5 805.5,496.5 Z"/></g>
<g><path style="opacity:1" fill="#7cb059" d="M 770.5,528.5 C 770.167,531.167 769.833,533.833 769.5,536.5C 768.232,538.905 767.565,541.572 767.5,544.5C 766.21,543.942 765.377,542.942 765,541.5C 764.501,537.179 764.334,532.846 764.5,528.5C 766.038,524.58 767.872,520.58 770,516.5C 770.499,520.486 770.666,524.486 770.5,528.5 Z"/></g>
<g><path style="opacity:1" fill="#f0fbf1" d="M 805.5,504.5 C 806.167,505.167 806.833,505.833 807.5,506.5C 807.5,513.833 807.5,521.167 807.5,528.5C 806.19,533.743 805.524,539.077 805.5,544.5C 803.837,549.717 802.17,555.05 800.5,560.5C 799.833,561.5 799.167,562.5 798.5,563.5C 797.177,560.719 797.344,558.053 799,555.5C 799.333,555.833 799.667,556.167 800,556.5C 805.038,539.471 806.871,522.138 805.5,504.5 Z"/></g>
<g><path style="opacity:1" fill="#84b269" d="M 764.5,528.5 C 764.334,532.846 764.501,537.179 765,541.5C 765.377,542.942 766.21,543.942 767.5,544.5C 766.738,548.671 765.738,552.671 764.5,556.5C 764.412,551.464 763.912,546.464 763,541.5C 761.238,550.111 759.571,558.778 758,567.5C 757.243,569.315 756.41,570.981 755.5,572.5C 757.2,563.19 758.534,553.857 759.5,544.5C 761.167,539.167 762.833,533.833 764.5,528.5 Z"/></g>
<g><path style="opacity:1" fill="#85af6c" d="M 805.5,544.5 C 806.199,550.73 804.532,556.063 800.5,560.5C 802.17,555.05 803.837,549.717 805.5,544.5 Z"/></g>
<g><path style="opacity:1" fill="#90b47f" d="M 388.5,557.5 C 388.5,557.833 388.5,558.167 388.5,558.5C 379.983,558.174 371.65,558.507 363.5,559.5C 362.167,559.5 360.833,559.5 359.5,559.5C 360.263,558.732 361.263,558.232 362.5,558C 371.16,557.5 379.827,557.334 388.5,557.5 Z"/></g>
<g><path style="opacity:1" fill="#dcf2d1" d="M 388.5,558.5 C 388.5,558.167 388.5,557.833 388.5,557.5C 393.122,557.156 397.455,557.823 401.5,559.5C 397.19,558.92 392.857,558.586 388.5,558.5 Z"/></g>
<g><path style="opacity:1" fill="#80ad63" d="M 363.5,559.5 C 371.65,558.507 379.983,558.174 388.5,558.5C 392.857,558.586 397.19,558.92 401.5,559.5C 404.946,560.687 408.613,561.354 412.5,561.5C 416.559,563.465 420.892,564.965 425.5,566C 427.898,567.524 430.231,569.024 432.5,570.5C 410.541,561.209 387.541,557.542 363.5,559.5 Z"/></g>
<g><path style="opacity:1" fill="#e9f8e5" d="M 769.5,536.5 C 767.697,547.034 766.363,557.7 765.5,568.5C 765.38,570.588 764.38,571.922 762.5,572.5C 763.167,567.167 763.833,561.833 764.5,556.5C 765.738,552.671 766.738,548.671 767.5,544.5C 767.565,541.572 768.232,538.905 769.5,536.5 Z"/></g>
<g><path style="opacity:1" fill="#79b153" d="M 363.5,559.5 C 387.541,557.542 410.541,561.209 432.5,570.5C 432.833,570.5 433.167,570.5 433.5,570.5C 433.281,571.675 433.614,572.675 434.5,573.5C 436.491,574.82 438.491,576.154 440.5,577.5C 439.536,580.083 438.202,580.583 436.5,579C 436.833,578.667 437.167,578.333 437.5,578C 436.207,577.51 434.873,577.343 433.5,577.5C 433.631,576.624 433.298,575.957 432.5,575.5C 427.012,573.139 421.678,570.639 416.5,568C 413.183,567.502 409.85,567.335 406.5,567.5C 404.958,566.699 403.292,566.366 401.5,566.5C 400.411,564.883 398.744,564.05 396.5,564C 390.333,563.833 384.167,563.667 378,563.5C 371.462,563.504 365.295,564.17 359.5,565.5C 359.167,565.5 358.833,565.5 358.5,565.5C 355.833,565.833 353.167,566.167 350.5,566.5C 350.5,565.5 350.5,564.5 350.5,563.5C 355.145,562.524 359.478,561.191 363.5,559.5 Z"/></g>
<g><path style="opacity:1" fill="#e9f9e0" d="M 363.5,565.5 C 368.322,564.834 373.322,564.501 378.5,564.5C 385.736,564.298 392.736,564.965 399.5,566.5C 387.518,565.691 375.518,565.358 363.5,565.5 Z"/></g>
<g><path style="opacity:1" fill="#93b873" d="M 401.5,566.5 C 400.833,566.5 400.167,566.5 399.5,566.5C 392.736,564.965 385.736,564.298 378.5,564.5C 373.322,564.501 368.322,564.834 363.5,565.5C 363.167,565.5 362.833,565.5 362.5,565.5C 361.5,565.5 360.5,565.5 359.5,565.5C 365.295,564.17 371.462,563.504 378,563.5C 384.167,563.667 390.333,563.833 396.5,564C 398.744,564.05 400.411,564.883 401.5,566.5 Z"/></g>
<g><path style="opacity:1" fill="#7faf60" d="M 359.5,559.5 C 360.833,559.5 362.167,559.5 363.5,559.5C 359.478,561.191 355.145,562.524 350.5,563.5C 350.5,564.5 350.5,565.5 350.5,566.5C 353.167,566.167 355.833,565.833 358.5,565.5C 356.5,566.5 354.5,567.5 352.5,568.5C 349.833,569.5 347.167,570.5 344.5,571.5C 343.833,571.5 343.167,571.5 342.5,571.5C 344.901,570.461 347.235,569.127 349.5,567.5C 347.955,566.548 346.288,566.215 344.5,566.5C 344.833,565.833 345.167,565.167 345.5,564.5C 349.664,561.666 354.331,559.999 359.5,559.5 Z"/></g>
<g><path style="opacity:1" fill="#e8f9e6" d="M 358.5,565.5 C 358.833,565.5 359.167,565.5 359.5,565.5C 360.5,565.5 361.5,565.5 362.5,565.5C 362.047,566.458 361.381,567.292 360.5,568C 357.854,568.497 355.187,568.664 352.5,568.5C 354.5,567.5 356.5,566.5 358.5,565.5 Z"/></g>
<g><path style="opacity:1" fill="#77b14d" d="M 344.5,566.5 C 346.288,566.215 347.955,566.548 349.5,567.5C 347.235,569.127 344.901,570.461 342.5,571.5C 341.417,571.539 340.417,571.873 339.5,572.5C 339.167,572 338.833,571.5 338.5,571C 340.358,569.245 342.358,567.745 344.5,566.5 Z"/></g>
<g><path style="opacity:1" fill="#ebf8e5" d="M 448.5,582.5 C 444.077,577.74 439.077,573.74 433.5,570.5C 433.167,570.5 432.833,570.5 432.5,570.5C 430.231,569.024 427.898,567.524 425.5,566C 420.892,564.965 416.559,563.465 412.5,561.5C 416.554,560.816 420.554,560.816 424.5,561.5C 423.624,562.251 422.624,562.751 421.5,563C 427.213,565.848 433.213,568.181 439.5,570C 441.081,571.828 442.415,573.828 443.5,576C 444.448,576.483 445.448,576.649 446.5,576.5C 447.167,578.5 447.833,580.5 448.5,582.5 Z"/></g>
<g><path style="opacity:1" fill="#89af6d" d="M 345.5,564.5 C 345.167,565.167 344.833,565.833 344.5,566.5C 342.358,567.745 340.358,569.245 338.5,571C 338.833,571.5 339.167,572 339.5,572.5C 340.417,571.873 341.417,571.539 342.5,571.5C 343.167,571.5 343.833,571.5 344.5,571.5C 342.824,573.834 340.491,574.834 337.5,574.5C 337.338,572.473 337.505,570.473 338,568.5C 340.475,567.014 342.975,565.681 345.5,564.5 Z"/></g>
<g><path style="opacity:1" fill="#8bb36f" d="M 406.5,567.5 C 409.85,567.335 413.183,567.502 416.5,568C 421.678,570.639 427.012,573.139 432.5,575.5C 433.298,575.957 433.631,576.624 433.5,577.5C 424.803,573.082 415.803,569.749 406.5,567.5 Z"/></g>
<g><path style="opacity:1" fill="#7bb058" d="M 764.5,556.5 C 763.833,561.833 763.167,567.167 762.5,572.5C 761.833,573.833 761.167,575.167 760.5,576.5C 759.275,577.152 758.608,578.319 758.5,580C 757.305,584.084 756.639,588.25 756.5,592.5C 754.444,594.24 753.111,596.573 752.5,599.5C 751.511,595.893 751.177,592.226 751.5,588.5C 752.038,584.476 752.705,580.476 753.5,576.5C 754.345,575.329 755.011,573.995 755.5,572.5C 756.41,570.981 757.243,569.315 758,567.5C 759.571,558.778 761.238,550.111 763,541.5C 763.912,546.464 764.412,551.464 764.5,556.5 Z"/></g>
<g><path style="opacity:1" fill="#81ae63" d="M 433.5,570.5 C 439.077,573.74 444.077,577.74 448.5,582.5C 450.898,585.571 452.898,588.905 454.5,592.5C 452.249,590.41 450.083,588.077 448,585.5C 447.667,585.833 447.333,586.167 447,586.5C 449.071,590.831 450.571,595.497 451.5,600.5C 449.342,596.19 446.675,592.19 443.5,588.5C 442.581,585.911 440.914,583.911 438.5,582.5C 436.5,581.167 434.833,579.5 433.5,577.5C 434.873,577.343 436.207,577.51 437.5,578C 437.167,578.333 436.833,578.667 436.5,579C 438.202,580.583 439.536,580.083 440.5,577.5C 438.491,576.154 436.491,574.82 434.5,573.5C 433.614,572.675 433.281,571.675 433.5,570.5 Z"/></g>
<g><path style="opacity:1" fill="#d4f1cc" d="M 438.5,582.5 C 440.914,583.911 442.581,585.911 443.5,588.5C 441.086,587.089 439.419,585.089 438.5,582.5 Z"/></g>
<g><path style="opacity:1" fill="#e7f9df" d="M 753.5,576.5 C 752.705,580.476 752.038,584.476 751.5,588.5C 750.833,589.167 750.167,589.833 749.5,590.5C 749.855,585.45 751.188,580.783 753.5,576.5 Z"/></g>
<g><path style="opacity:1" fill="#edfbe9" d="M 762.5,572.5 C 762.665,576.182 762.499,579.848 762,583.5C 760.69,586.815 759.19,589.815 757.5,592.5C 758.5,587.168 759.5,581.835 760.5,576.5C 761.167,575.167 761.833,573.833 762.5,572.5 Z"/></g>
<g><path style="opacity:1" fill="#8cb372" d="M 800.5,560.5 C 800.975,566.123 799.475,571.123 796,575.5C 794.855,580.797 792.855,585.797 790,590.5C 790.352,594.542 788.852,597.542 785.5,599.5C 790.384,587.725 794.718,575.725 798.5,563.5C 799.167,562.5 799.833,561.5 800.5,560.5 Z"/></g>
<g><path style="opacity:1" fill="#8ab170" d="M 760.5,576.5 C 759.5,581.835 758.5,587.168 757.5,592.5C 757.167,592.5 756.833,592.5 756.5,592.5C 756.639,588.25 757.305,584.084 758.5,580C 758.608,578.319 759.275,577.152 760.5,576.5 Z"/></g>
<g><path style="opacity:1" fill="#86b26a" d="M 192.5,576.5 C 193.172,587.107 194.505,597.774 196.5,608.5C 196.5,611.167 196.5,613.833 196.5,616.5C 193,603.544 191.667,590.211 192.5,576.5 Z"/></g>
<g><path style="opacity:1" fill="#83b065" d="M 751.5,588.5 C 751.177,592.226 751.511,595.893 752.5,599.5C 753.111,596.573 754.444,594.24 756.5,592.5C 750.387,611.056 742.387,628.723 732.5,645.5C 733.421,640.489 735.254,635.822 738,631.5C 738.781,630.056 738.614,628.723 737.5,627.5C 733.647,632.558 730.814,638.225 729,644.5C 727.887,645.305 726.721,645.972 725.5,646.5C 729.674,636.818 734.341,627.485 739.5,618.5C 739.247,620.827 739.914,622.827 741.5,624.5C 743.862,620.63 746.029,616.63 748,612.5C 749.277,608.903 749.61,605.236 749,601.5C 747.391,604.407 745.558,607.073 743.5,609.5C 746.302,603.427 748.302,597.093 749.5,590.5C 750.167,589.833 750.833,589.167 751.5,588.5 Z"/></g>
<g><path style="opacity:1" fill="#e4f5dc" d="M 443.5,588.5 C 446.675,592.19 449.342,596.19 451.5,600.5C 451.557,601.609 451.89,602.609 452.5,603.5C 453.301,605.042 453.634,606.708 453.5,608.5C 452.732,607.737 452.232,606.737 452,605.5C 451.667,605.833 451.333,606.167 451,606.5C 450.667,604.833 450.333,603.167 450,601.5C 446.235,597.97 444.068,593.637 443.5,588.5 Z"/></g>
<g><path style="opacity:1" fill="#83b066" d="M 785.5,600.5 C 785.763,606.544 783.429,611.21 778.5,614.5C 780.31,609.547 782.643,604.88 785.5,600.5 Z"/></g>
<g><path style="opacity:1" fill="#83ad68" d="M 452.5,603.5 C 453.75,603.577 454.583,604.244 455,605.5C 456.153,609.787 456.987,614.121 457.5,618.5C 456.651,616.112 455.651,613.779 454.5,611.5C 454.737,610.209 454.404,609.209 453.5,608.5C 453.634,606.708 453.301,605.042 452.5,603.5 Z"/></g>
<g><path style="opacity:1" fill="#7bb156" d="M 739.5,618.5 C 740.687,615.388 742.02,612.388 743.5,609.5C 745.558,607.073 747.391,604.407 749,601.5C 749.61,605.236 749.277,608.903 748,612.5C 746.029,616.63 743.862,620.63 741.5,624.5C 739.914,622.827 739.247,620.827 739.5,618.5 Z"/></g>
<g><path style="opacity:1" fill="#a6c993" d="M 196.5,608.5 C 197.66,612.681 198.66,617.015 199.5,621.5C 198.833,620.5 198.167,619.5 197.5,618.5C 197.672,617.508 197.338,616.842 196.5,616.5C 196.5,613.833 196.5,611.167 196.5,608.5 Z"/></g>
<g><path style="opacity:1" fill="#83b06a" d="M 460.5,608.5 C 461.537,609.93 462.204,611.597 462.5,613.5C 465.188,624.985 466.188,636.651 465.5,648.5C 465.5,649.167 465.5,649.833 465.5,650.5C 464.833,652.5 464.167,654.5 463.5,656.5C 464.385,647.513 464.552,638.513 464,629.5C 463.915,625.529 462.915,621.862 461,618.5C 460.502,615.183 460.335,611.85 460.5,608.5 Z"/></g>
<g><path style="opacity:1" fill="#7ab155" d="M 454.5,592.5 C 455.97,595.439 457.47,598.439 459,601.5C 459.977,603.74 460.477,606.073 460.5,608.5C 460.335,611.85 460.502,615.183 461,618.5C 462.915,621.862 463.915,625.529 464,629.5C 464.552,638.513 464.385,647.513 463.5,656.5C 463.5,658.167 463.5,659.833 463.5,661.5C 461.623,665.487 459.789,669.487 458,673.5C 456,671.5 456,669.5 458,667.5C 458.499,663.848 458.665,660.182 458.5,656.5C 459.777,655.306 460.444,653.64 460.5,651.5C 461.791,641.15 461.624,630.817 460,620.5C 459.667,621.5 459.333,622.5 459,623.5C 458.802,621.618 458.302,619.952 457.5,618.5C 456.987,614.121 456.153,609.787 455,605.5C 454.583,604.244 453.75,603.577 452.5,603.5C 451.89,602.609 451.557,601.609 451.5,600.5C 450.571,595.497 449.071,590.831 447,586.5C 447.333,586.167 447.667,585.833 448,585.5C 450.083,588.077 452.249,590.41 454.5,592.5 Z"/></g>
<g><path style="opacity:1" fill="#8bb170" d="M 778.5,614.5 C 777.458,618.919 776.125,623.252 774.5,627.5C 773.055,629.063 771.389,630.396 769.5,631.5C 769.733,629.938 770.4,628.605 771.5,627.5C 774.025,623.248 776.358,618.915 778.5,614.5 Z"/></g>
<g><path style="opacity:1" fill="#7faf60" d="M 774.5,627.5 C 772.68,630.644 771.013,633.977 769.5,637.5C 768.358,638.826 767.024,639.826 765.5,640.5C 766.561,637.378 767.895,634.378 769.5,631.5C 771.389,630.396 773.055,629.063 774.5,627.5 Z"/></g>
<g><path style="opacity:1" fill="#86af6e" d="M 197.5,618.5 C 198.167,619.5 198.833,620.5 199.5,621.5C 199.433,622.959 199.766,624.292 200.5,625.5C 200.993,627.806 201.326,630.139 201.5,632.5C 200.25,632.423 199.417,631.756 199,630.5C 198.499,626.49 197.999,622.49 197.5,618.5 Z"/></g>
<g><path style="opacity:1" fill="#e6f4df" d="M 462.5,613.5 C 463.586,613.62 464.253,614.287 464.5,615.5C 466.625,626.594 466.959,637.594 465.5,648.5C 466.188,636.651 465.188,624.985 462.5,613.5 Z"/></g>
<g><path style="opacity:1" fill="#effdea" d="M 200.5,625.5 C 201.586,625.62 202.253,626.287 202.5,627.5C 203.426,631.13 204.093,634.797 204.5,638.5C 203.5,636.5 202.5,634.5 201.5,632.5C 201.326,630.139 200.993,627.806 200.5,625.5 Z"/></g>
<g><path style="opacity:1" fill="#ecfaea" d="M 771.5,627.5 C 770.4,628.605 769.733,629.938 769.5,631.5C 767.895,634.378 766.561,637.378 765.5,640.5C 763.989,643.005 762.655,645.672 761.5,648.5C 761.167,648.5 760.833,648.5 760.5,648.5C 760.748,645.42 761.414,642.42 762.5,639.5C 765.059,635.714 767.059,631.714 768.5,627.5C 769.5,627.5 770.5,627.5 771.5,627.5 Z"/></g>
<g><path style="opacity:1" fill="#81ad62" d="M 457.5,618.5 C 458.302,619.952 458.802,621.618 459,623.5C 459.333,622.5 459.667,621.5 460,620.5C 461.624,630.817 461.791,641.15 460.5,651.5C 460.444,653.64 459.777,655.306 458.5,656.5C 458.622,650.325 458.955,644.158 459.5,638C 458.996,631.477 458.329,624.977 457.5,618.5 Z"/></g>
<g><path style="opacity:1" fill="#eefaed" d="M 204.5,639.5 C 208.378,644.304 210.378,649.971 210.5,656.5C 207.745,651.243 205.745,645.577 204.5,639.5 Z"/></g>
<g><path style="opacity:1" fill="#77b256" d="M 732.5,645.5 C 731.737,647.368 730.737,649.035 729.5,650.5C 725.509,651.128 724.176,649.795 725.5,646.5C 726.721,645.972 727.887,645.305 729,644.5C 730.814,638.225 733.647,632.558 737.5,627.5C 738.614,628.723 738.781,630.056 738,631.5C 735.254,635.822 733.421,640.489 732.5,645.5 Z"/></g>
<g><path style="opacity:1" fill="#e7f7e2" d="M 454.5,611.5 C 455.651,613.779 456.651,616.112 457.5,618.5C 458.329,624.977 458.996,631.477 459.5,638C 458.955,644.158 458.622,650.325 458.5,656.5C 457.833,657.833 457.167,659.167 456.5,660.5C 456.454,653.816 456.787,647.149 457.5,640.5C 456.882,630.738 455.882,621.072 454.5,611.5 Z"/></g>
<g><path style="opacity:1" fill="#edfae1" d="M 724.5,646.5 C 723.471,648.517 722.471,650.517 721.5,652.5C 720.167,654.167 718.833,655.833 717.5,657.5C 717.986,653.492 719.653,649.992 722.5,647C 723.094,646.536 723.761,646.369 724.5,646.5 Z"/></g>
<g><path style="opacity:1" fill="#f0fced" d="M 729.5,652.5 C 729.316,655.19 728.816,657.857 728,660.5C 724.598,663.084 721.431,665.75 718.5,668.5C 722.179,663.129 725.846,657.796 729.5,652.5 Z"/></g>
<g><path style="opacity:1" fill="#87b06c" d="M 760.5,648.5 C 760.833,648.5 761.167,648.5 761.5,648.5C 760.351,652.811 759.184,657.144 758,661.5C 757.411,663.863 755.911,664.863 753.5,664.5C 755.825,659.201 758.159,653.868 760.5,648.5 Z"/></g>
<g><path style="opacity:1" fill="#85b16a" d="M 201.5,632.5 C 202.5,634.5 203.5,636.5 204.5,638.5C 204.5,638.833 204.5,639.167 204.5,639.5C 205.745,645.577 207.745,651.243 210.5,656.5C 212.833,661.833 215.167,667.167 217.5,672.5C 217.5,672.833 217.5,673.167 217.5,673.5C 216.504,673.586 215.671,673.252 215,672.5C 212.661,666.49 210.327,660.49 208,654.5C 206.759,656.421 205.259,656.754 203.5,655.5C 204.937,653.979 205.604,652.145 205.5,650C 203.111,644.488 201.778,638.654 201.5,632.5 Z"/></g>
<g><path style="opacity:1" fill="#cfe9c8" d="M 465.5,650.5 C 465.6,656.82 464.6,662.82 462.5,668.5C 462.674,666.139 463.007,663.806 463.5,661.5C 463.5,659.833 463.5,658.167 463.5,656.5C 464.167,654.5 464.833,652.5 465.5,650.5 Z"/></g>
<g><path style="opacity:1" fill="#e9f6e5" d="M 674.5,686.5 C 675.597,681.679 675.597,677.013 674.5,672.5C 673.415,670.418 671.915,670.084 670,671.5C 669.488,677.557 668.655,683.557 667.5,689.5C 667.5,690.167 667.5,690.833 667.5,691.5C 666.408,695.816 665.408,700.149 664.5,704.5C 663.726,694.456 665.059,684.79 668.5,675.5C 668.563,673.519 667.896,671.852 666.5,670.5C 668.693,668.279 671.36,666.946 674.5,666.5C 675.425,667.641 676.259,667.641 677,666.5C 677.333,667.167 677.667,667.833 678,668.5C 677.291,674.589 676.124,680.589 674.5,686.5 Z"/></g>
<g><path style="opacity:1" fill="#7fb161" d="M 724.5,646.5 C 724.833,646.5 725.167,646.5 725.5,646.5C 724.176,649.795 725.509,651.128 729.5,650.5C 729.5,651.167 729.5,651.833 729.5,652.5C 725.846,657.796 722.179,663.129 718.5,668.5C 714.874,673.461 710.874,678.128 706.5,682.5C 706.785,680.712 706.452,679.045 705.5,677.5C 704.148,678.524 702.815,679.524 701.5,680.5C 702.075,678.589 703.075,676.922 704.5,675.5C 708.821,669.538 713.155,663.538 717.5,657.5C 718.833,655.833 720.167,654.167 721.5,652.5C 722.471,650.517 723.471,648.517 724.5,646.5 Z"/></g>
<g><path style="opacity:1" fill="#77b253" d="M 721.5,652.5 C 722.822,652.67 723.989,652.337 725,651.5C 725.5,652 726,652.5 726.5,653C 724.626,655.911 722.626,658.745 720.5,661.5C 720.167,660.833 719.833,660.167 719.5,659.5C 720.937,657.423 721.604,655.09 721.5,652.5 Z"/></g>
<g><path style="opacity:1" fill="#edfce2" d="M 753.5,664.5 C 753.5,665.167 753.5,665.833 753.5,666.5C 751.246,670.007 749.246,673.673 747.5,677.5C 748.044,673.9 749.044,670.4 750.5,667C 751.13,665.69 752.13,664.856 753.5,664.5 Z"/></g>
<g><path style="opacity:1" fill="#83b066" d="M 753.5,666.5 C 752.561,673.905 750.228,680.905 746.5,687.5C 747.993,688.141 748.993,689.141 749.5,690.5C 746.864,690.509 745.531,689.175 745.5,686.5C 745.968,683.767 746.635,681.1 747.5,678.5C 747.5,678.167 747.5,677.833 747.5,677.5C 749.246,673.673 751.246,670.007 753.5,666.5 Z"/></g>
<g><path style="opacity:1" fill="#81af63" d="M 458.5,656.5 C 458.665,660.182 458.499,663.848 458,667.5C 456,669.5 456,671.5 458,673.5C 459.789,669.487 461.623,665.487 463.5,661.5C 463.007,663.806 462.674,666.139 462.5,668.5C 460.875,674.394 459.208,680.394 457.5,686.5C 457.167,686.5 456.833,686.5 456.5,686.5C 457.283,682.854 457.45,679.188 457,675.5C 453.64,679.077 451.807,683.41 451.5,688.5C 450.492,690.499 449.159,692.166 447.5,693.5C 448.167,691.167 448.833,688.833 449.5,686.5C 451.253,683.854 452.253,680.854 452.5,677.5C 455.079,672.304 456.412,666.638 456.5,660.5C 457.167,659.167 457.833,657.833 458.5,656.5 Z"/></g>
<g><path style="opacity:1" fill="#e7f7e0" d="M 217.5,673.5 C 217.5,673.167 217.5,672.833 217.5,672.5C 218.496,672.414 219.329,672.748 220,673.5C 220.82,677.133 222.653,680.133 225.5,682.5C 226.309,684.071 226.643,685.738 226.5,687.5C 225.833,686.833 225.167,686.167 224.5,685.5C 222.163,681.492 219.83,677.492 217.5,673.5 Z"/></g>
<g><path style="opacity:1" fill="#85af65" d="M 217.5,673.5 C 219.83,677.492 222.163,681.492 224.5,685.5C 220.122,682.75 217.788,678.75 217.5,673.5 Z"/></g>
<g><path style="opacity:1" fill="#f0fce7" d="M 704.5,675.5 C 703.075,676.922 702.075,678.589 701.5,680.5C 698.806,682.527 696.473,684.861 694.5,687.5C 694.34,685.801 694.506,684.134 695,682.5C 698.195,681.149 700.028,678.815 700.5,675.5C 701.833,675.5 703.167,675.5 704.5,675.5 Z"/></g>
<g><path style="opacity:1" fill="#7bb057" d="M 706.5,682.5 C 706.5,682.833 706.5,683.167 706.5,683.5C 703.571,688.099 699.904,692.099 695.5,695.5C 692.807,696.02 690.807,697.52 689.5,700C 688.552,700.483 687.552,700.649 686.5,700.5C 686.5,699.167 686.5,697.833 686.5,696.5C 692.918,692.418 697.918,687.085 701.5,680.5C 702.815,679.524 704.148,678.524 705.5,677.5C 706.452,679.045 706.785,680.712 706.5,682.5 Z"/></g>
<g><path style="opacity:1" fill="#78b251" d="M 456.5,686.5 C 452.493,691.834 449.827,697.834 448.5,704.5C 446.112,705.219 444.612,706.885 444,709.5C 443.362,708.391 442.862,707.225 442.5,706C 443.144,702.695 444.644,699.862 447,697.5C 447.49,696.207 447.657,694.873 447.5,693.5C 449.159,692.166 450.492,690.499 451.5,688.5C 451.807,683.41 453.64,679.077 457,675.5C 457.45,679.188 457.283,682.854 456.5,686.5 Z"/></g>
<g><path style="opacity:1" fill="#e0f4d7" d="M 452.5,677.5 C 452.253,680.854 451.253,683.854 449.5,686.5C 449.747,683.146 450.747,680.146 452.5,677.5 Z"/></g>
<g><path style="opacity:1" fill="#84ae67" d="M 674.5,672.5 C 673.167,672.5 671.833,672.5 670.5,672.5C 670.828,677.875 670.495,683.208 669.5,688.5C 668.817,688.863 668.15,689.196 667.5,689.5C 668.655,683.557 669.488,677.557 670,671.5C 671.915,670.084 673.415,670.418 674.5,672.5 Z"/></g>
<g><path style="opacity:1" fill="#8db280" d="M 224.5,685.5 C 225.167,686.167 225.833,686.833 226.5,687.5C 226.5,687.833 226.5,688.167 226.5,688.5C 224.952,688.179 224.285,687.179 224.5,685.5 Z"/></g>
<g><path style="opacity:1" fill="#e7fee3" d="M 635.5,689.5 C 633.142,689.253 631.142,689.919 629.5,691.5C 629.5,690.5 629.5,689.5 629.5,688.5C 631.735,688.205 633.735,688.539 635.5,689.5 Z"/></g>
<g><path style="opacity:1" fill="#8eb278" d="M 701.5,680.5 C 697.918,687.085 692.918,692.418 686.5,696.5C 689.167,693.5 691.833,690.5 694.5,687.5C 696.473,684.861 698.806,682.527 701.5,680.5 Z"/></g>
<g><path style="opacity:1" fill="#8fb579" d="M 635.5,689.5 C 635.5,690.5 635.5,691.5 635.5,692.5C 632.937,691.623 631.27,692.623 630.5,695.5C 630.5,698.833 630.5,702.167 630.5,705.5C 630.5,706.167 630.5,706.833 630.5,707.5C 629.512,702.36 629.179,697.026 629.5,691.5C 631.142,689.919 633.142,689.253 635.5,689.5 Z"/></g>
<g><path style="opacity:1" fill="#e8f8e2" d="M 747.5,678.5 C 746.635,681.1 745.968,683.767 745.5,686.5C 745.531,689.175 746.864,690.509 749.5,690.5C 751.703,692.1 754.036,693.433 756.5,694.5C 752.564,694.522 748.897,693.522 745.5,691.5C 744.341,687.878 744.175,684.211 745,680.5C 745.708,679.619 746.542,678.953 747.5,678.5 Z"/></g>
<g><path style="opacity:1" fill="#e9f7de" d="M 456.5,686.5 C 456.833,686.5 457.167,686.5 457.5,686.5C 457.322,689.216 456.822,691.883 456,694.5C 455.583,695.756 454.75,696.423 453.5,696.5C 454.508,693.156 455.508,689.823 456.5,686.5 Z"/></g>
<g><path style="opacity:1" fill="#7ead63" d="M 635.5,692.5 C 635.523,700.183 635.857,707.85 636.5,715.5C 635.833,713.5 635.167,711.5 634.5,709.5C 634.828,704.125 634.495,698.792 633.5,693.5C 632.482,694.193 631.482,694.859 630.5,695.5C 631.27,692.623 632.937,691.623 635.5,692.5 Z"/></g>
<g><path style="opacity:1" fill="#c4e3af" d="M 758.5,694.5 C 760.027,694.427 761.027,695.094 761.5,696.5C 759.973,696.573 758.973,695.906 758.5,694.5 Z"/></g>
<g><path style="opacity:1" fill="#e0edd2" d="M 629.5,691.5 C 629.179,697.026 629.512,702.36 630.5,707.5C 631.2,711.798 631.533,716.131 631.5,720.5C 630.852,718.502 630.019,716.502 629,714.5C 628.178,706.655 628.344,698.989 629.5,691.5 Z"/></g>
<g><path style="opacity:1" fill="#8db573" d="M 667.5,691.5 C 667.188,701.311 665.854,710.977 663.5,720.5C 662.668,729.148 662.168,737.814 662,746.5C 660.961,747.71 659.794,748.71 658.5,749.5C 660.064,745.326 660.731,740.993 660.5,736.5C 661.094,725.88 662.428,715.213 664.5,704.5C 665.408,700.149 666.408,695.816 667.5,691.5 Z"/></g>
<g><path style="opacity:1" fill="#83ab65" d="M 456.5,686.5 C 455.508,689.823 454.508,693.156 453.5,696.5C 451.32,698.863 449.653,701.53 448.5,704.5C 449.827,697.834 452.493,691.834 456.5,686.5 Z"/></g>
<g><path style="opacity:1" fill="#f3fded" d="M 610.5,703.5 C 609.18,702.058 607.514,701.392 605.5,701.5C 604.883,701.611 604.383,701.944 604,702.5C 603.502,705.482 603.335,708.482 603.5,711.5C 602.404,708.334 601.904,705.001 602,701.5C 604.621,700.009 607.455,699.342 610.5,699.5C 610.5,700.833 610.5,702.167 610.5,703.5 Z"/></g>
<g><path style="opacity:1" fill="#86b26b" d="M 695.5,695.5 C 693.372,698.13 691.039,700.63 688.5,703C 689.056,703.383 689.389,703.883 689.5,704.5C 688.5,704.5 687.5,704.5 686.5,704.5C 686.5,703.5 686.5,702.5 686.5,701.5C 685.167,701.5 683.833,701.5 682.5,701.5C 683.604,699.611 684.937,697.945 686.5,696.5C 686.5,697.833 686.5,699.167 686.5,700.5C 687.552,700.649 688.552,700.483 689.5,700C 690.807,697.52 692.807,696.02 695.5,695.5 Z"/></g>
<g><path style="opacity:1" fill="#e9fbe5" d="M 706.5,683.5 C 705.705,686.423 704.372,689.09 702.5,691.5C 698.776,695.546 694.776,699.379 690.5,703C 692.76,703.549 694.426,704.716 695.5,706.5C 693.579,705.637 691.579,704.971 689.5,704.5C 689.389,703.883 689.056,703.383 688.5,703C 691.039,700.63 693.372,698.13 695.5,695.5C 699.904,692.099 703.571,688.099 706.5,683.5 Z"/></g>
<g><path style="opacity:1" fill="#8aaf6c" d="M 763.5,696.5 C 772.579,697.707 779.245,702.374 783.5,710.5C 777.618,704.603 770.952,699.936 763.5,696.5 Z"/></g>
<g><path style="opacity:1" fill="#85ac67" d="M 605.5,701.5 C 607.514,701.392 609.18,702.058 610.5,703.5C 611.341,705.379 611.675,707.379 611.5,709.5C 611.5,710.5 611.5,711.5 611.5,712.5C 610.616,709.977 609.782,707.31 609,704.5C 608.333,703.167 607.667,703.167 607,704.5C 607.096,709.809 607.262,715.142 607.5,720.5C 606.833,718.167 606.167,715.833 605.5,713.5C 605.5,713.167 605.5,712.833 605.5,712.5C 604.421,708.801 604.421,705.135 605.5,701.5 Z"/></g>
<g><path style="opacity:1" fill="#ecf8e3" d="M 635.5,689.5 C 637.524,701.27 638.524,713.27 638.5,725.5C 637.833,722.833 637.167,720.167 636.5,717.5C 636.5,716.833 636.5,716.167 636.5,715.5C 635.857,707.85 635.523,700.183 635.5,692.5C 635.5,691.5 635.5,690.5 635.5,689.5 Z"/></g>
<g><path style="opacity:1" fill="#e7f7e2" d="M 674.5,688.5 C 674.553,694.196 674.22,699.862 673.5,705.5C 675.5,704.833 677.5,704.167 679.5,703.5C 676.905,705.816 674.239,708.149 671.5,710.5C 671.167,710.167 670.833,709.833 670.5,709.5C 671.538,705.231 672.205,700.898 672.5,696.5C 672.963,693.67 673.629,691.003 674.5,688.5 Z"/></g>
<g><path style="opacity:1" fill="#eaf9e7" d="M 696.5,706.5 C 702.586,708.56 708.919,709.893 715.5,710.5C 716.647,710.182 717.481,709.516 718,708.5C 718.71,709.973 719.876,710.64 721.5,710.5C 721.5,711.5 721.5,712.5 721.5,713.5C 712.536,712.847 704.202,710.513 696.5,706.5 Z"/></g>
<g><path style="opacity:1" fill="#f4fcf1" d="M 241.5,708.5 C 245.273,709.127 248.106,711.127 250,714.5C 251.829,712.844 253.163,710.844 254,708.5C 254.236,710.764 254.736,712.931 255.5,715C 254.572,715.388 253.905,716.055 253.5,717C 255.523,719.175 256.857,721.675 257.5,724.5C 251.833,719.5 246.5,714.167 241.5,708.5 Z"/></g>
<g><path style="opacity:1" fill="#d7eac6" d="M 605.5,701.5 C 604.421,705.135 604.421,708.801 605.5,712.5C 604.508,712.672 603.842,712.338 603.5,711.5C 603.335,708.482 603.502,705.482 604,702.5C 604.383,701.944 604.883,701.611 605.5,701.5 Z"/></g>
<g><path style="opacity:1" fill="#7ead62" d="M 672.5,696.5 C 672.205,700.898 671.538,705.231 670.5,709.5C 670.833,709.833 671.167,710.167 671.5,710.5C 674.239,708.149 676.905,705.816 679.5,703.5C 680.222,702.449 681.222,701.782 682.5,701.5C 680.384,706.743 676.718,710.409 671.5,712.5C 670.423,717.751 669.423,717.751 668.5,712.5C 669.217,706.882 670.551,701.549 672.5,696.5 Z"/></g>
<g><path style="opacity:1" fill="#75b352" d="M 634.5,709.5 C 634.879,714.297 634.379,718.964 633,723.5C 632.967,717.238 632.134,711.238 630.5,705.5C 630.5,702.167 630.5,698.833 630.5,695.5C 631.482,694.859 632.482,694.193 633.5,693.5C 634.495,698.792 634.828,704.125 634.5,709.5 Z"/></g>
<g><path style="opacity:1" fill="#83ae6a" d="M 689.5,704.5 C 691.579,704.971 693.579,705.637 695.5,706.5C 695.833,706.5 696.167,706.5 696.5,706.5C 704.202,710.513 712.536,712.847 721.5,713.5C 722.919,714.451 724.585,714.784 726.5,714.5C 726.5,714.833 726.5,715.167 726.5,715.5C 722.154,715.666 717.821,715.499 713.5,715C 708.754,712.584 703.754,710.917 698.5,710C 695.102,708.643 692.102,706.81 689.5,704.5 Z"/></g>
<g><path style="opacity:1" fill="#d7edd0" d="M 726.5,715.5 C 726.5,715.167 726.5,714.833 726.5,714.5C 729.152,714.41 731.485,715.076 733.5,716.5C 731.139,716.326 728.806,715.993 726.5,715.5 Z"/></g>
<g><path style="opacity:1" fill="#eafae5" d="M 737.5,716.5 C 744.097,715.745 750.097,717.078 755.5,720.5C 749.191,720.041 743.191,718.707 737.5,716.5 Z"/></g>
<g><path style="opacity:1" fill="#78b252" d="M 431.5,731.5 C 429.575,726.869 430.408,722.869 434,719.5C 435.083,716.733 436.25,714.067 437.5,711.5C 440.658,708.941 441.991,709.941 441.5,714.5C 440.5,714.5 439.5,714.5 438.5,714.5C 436.772,718.511 435.105,722.678 433.5,727C 434.029,728.559 434.696,730.059 435.5,731.5C 434.3,732.292 432.967,732.292 431.5,731.5 Z"/></g>
<g><path style="opacity:1" fill="#f0fef1" d="M 664.5,704.5 C 662.428,715.213 661.094,725.88 660.5,736.5C 660.334,730.158 660.5,723.825 661,717.5C 661.439,712.717 662.605,708.383 664.5,704.5 Z"/></g>
<g><path style="opacity:1" fill="#89b075" d="M 611.5,712.5 C 612.657,715.273 613.324,718.273 613.5,721.5C 612.883,721.389 612.383,721.056 612,720.5C 611.503,717.854 611.336,715.187 611.5,712.5 Z"/></g>
<g><path style="opacity:1" fill="#85b068" d="M 726.5,715.5 C 728.806,715.993 731.139,716.326 733.5,716.5C 734.833,716.5 736.167,716.5 737.5,716.5C 743.191,718.707 749.191,720.041 755.5,720.5C 764.303,722.158 772.97,721.825 781.5,719.5C 780.826,721.024 779.826,722.358 778.5,723.5C 773.533,724.662 768.533,724.829 763.5,724C 752.081,722.219 740.748,720.219 729.5,718C 727.881,717.764 726.881,716.931 726.5,715.5 Z"/></g>
<g><path style="opacity:1" fill="#d6eace" d="M 605.5,713.5 C 606.167,715.833 606.833,718.167 607.5,720.5C 607.5,722.833 607.5,725.167 607.5,727.5C 607.5,728.167 607.5,728.833 607.5,729.5C 606.043,724.402 605.376,719.069 605.5,713.5 Z"/></g>
<g><path style="opacity:1" fill="#e7f9e1" d="M 611.5,709.5 C 612.315,710.429 613.148,711.429 614,712.5C 615.163,719.453 615.663,726.453 615.5,733.5C 614.833,730.5 614.167,727.5 613.5,724.5C 613.5,723.5 613.5,722.5 613.5,721.5C 613.324,718.273 612.657,715.273 611.5,712.5C 611.5,711.5 611.5,710.5 611.5,709.5 Z"/></g>
<g><path style="opacity:1" fill="#edfbe4" d="M 441.5,717.5 C 440.804,720.32 439.804,722.987 438.5,725.5C 438.728,727.207 439.062,728.874 439.5,730.5C 437.405,730.24 436.072,729.074 435.5,727C 436.644,723.193 438.644,720.027 441.5,717.5 Z"/></g>
<g><path style="opacity:1" fill="#f2fcef" d="M 435.5,712.5 C 434.18,715.806 432.347,718.806 430,721.5C 427.086,727.36 428.252,732.026 433.5,735.5C 434.167,735.5 434.5,735.833 434.5,736.5C 430.83,736.673 428.33,735.007 427,731.5C 426.903,727.234 426.737,723.068 426.5,719C 427.304,717.229 428.471,715.729 430,714.5C 430.333,714.833 430.667,715.167 431,715.5C 431.918,713.624 433.418,712.624 435.5,712.5 Z"/></g>
<g><path style="opacity:1" fill="#8cb177" d="M 437.5,711.5 C 436.25,714.067 435.083,716.733 434,719.5C 430.408,722.869 429.575,726.869 431.5,731.5C 432.6,732.605 433.267,733.938 433.5,735.5C 428.252,732.026 427.086,727.36 430,721.5C 432.347,718.806 434.18,715.806 435.5,712.5C 436.167,712.167 436.833,711.833 437.5,711.5 Z"/></g>
<g><path style="opacity:1" fill="#87b06d" d="M 233.5,699.5 C 236.392,702.271 239.058,705.271 241.5,708.5C 246.5,714.167 251.833,719.5 257.5,724.5C 259.527,727.194 261.861,729.527 264.5,731.5C 260.549,729.388 256.716,727.054 253,724.5C 249.069,718.234 244.069,712.9 238,708.5C 236.207,705.606 234.707,702.606 233.5,699.5 Z"/></g>
<g><path style="opacity:1" fill="#86b16a" d="M 570.5,725.5 C 573.212,730.625 575.545,735.958 577.5,741.5C 575.919,739.326 574.419,736.993 573,734.5C 572.333,733.167 571.667,733.167 571,734.5C 571.364,738.712 572.531,742.712 574.5,746.5C 570.738,740.108 567.238,733.442 564,726.5C 563.505,724.527 563.338,722.527 563.5,720.5C 565.5,720.5 567.5,720.5 569.5,720.5C 569.629,722.216 569.962,723.883 570.5,725.5 Z"/></g>
<g><path style="opacity:1" fill="#7ab152" d="M 570.5,725.5 C 570.808,727.924 570.474,730.257 569.5,732.5C 567.245,729.552 565.578,726.219 564.5,722.5C 565.365,721.417 566.365,721.251 567.5,722C 568.163,723.518 569.163,724.685 570.5,725.5 Z"/></g>
<g><path style="opacity:1" fill="#83af71" d="M 607.5,727.5 C 609.265,730.123 609.932,733.123 609.5,736.5C 609.167,736.5 608.833,736.5 608.5,736.5C 608.702,734.05 608.369,731.717 607.5,729.5C 607.5,728.833 607.5,728.167 607.5,727.5 Z"/></g>
<g><path style="opacity:1" fill="#86ad6a" d="M 613.5,724.5 C 614.167,727.5 614.833,730.5 615.5,733.5C 615.5,734.5 615.5,735.5 615.5,736.5C 615.575,739.206 615.908,741.873 616.5,744.5C 616.5,745.5 616.5,746.5 616.5,747.5C 614.759,745.987 613.759,743.987 613.5,741.5C 613.79,735.909 613.79,730.242 613.5,724.5 Z"/></g>
<g><path style="opacity:1" fill="#eafae8" d="M 638.5,726.5 C 640.25,730.183 640.917,734.183 640.5,738.5C 638.864,734.79 638.198,730.79 638.5,726.5 Z"/></g>
<g><path style="opacity:1" fill="#eaf5e3" d="M 449.5,735.5 C 452.518,735.335 455.518,735.502 458.5,736C 459.381,736.708 460.047,737.542 460.5,738.5C 456.603,737.945 452.937,736.945 449.5,735.5 Z"/></g>
<g><path style="opacity:1" fill="#87ae6a" d="M 636.5,717.5 C 637.167,720.167 637.833,722.833 638.5,725.5C 638.5,725.833 638.5,726.167 638.5,726.5C 638.198,730.79 638.864,734.79 640.5,738.5C 640.5,739.5 640.5,740.5 640.5,741.5C 639.504,741.586 638.671,741.252 638,740.5C 637.405,732.835 636.905,725.168 636.5,717.5 Z"/></g>
<g><path style="opacity:1" fill="#82b065" d="M 447.5,693.5 C 447.657,694.873 447.49,696.207 447,697.5C 444.644,699.862 443.144,702.695 442.5,706C 442.862,707.225 443.362,708.391 444,709.5C 444.612,706.885 446.112,705.219 448.5,704.5C 446.409,709.02 444.075,713.353 441.5,717.5C 438.644,720.027 436.644,723.193 435.5,727C 436.072,729.074 437.405,730.24 439.5,730.5C 442.759,732.153 446.093,733.819 449.5,735.5C 452.937,736.945 456.603,737.945 460.5,738.5C 464.083,740.36 467.749,742.027 471.5,743.5C 453.354,742.052 453.354,743.385 471.5,747.5C 471.611,748.117 471.944,748.617 472.5,749C 479.309,750.866 485.975,753.032 492.5,755.5C 493.506,755.062 493.506,754.396 492.5,753.5C 493.729,752.719 495.062,752.219 496.5,752C 493.809,751.844 491.476,751.011 489.5,749.5C 491.216,749.629 492.883,749.962 494.5,750.5C 498.111,751.653 501.777,752.653 505.5,753.5C 506.5,754.167 507.5,754.833 508.5,755.5C 503.985,754.018 499.319,753.352 494.5,753.5C 494.5,754.5 494.5,755.5 494.5,756.5C 492.139,756.326 489.806,755.993 487.5,755.5C 482.784,753.261 477.784,751.595 472.5,750.5C 468.018,748.562 463.351,747.229 458.5,746.5C 457.833,745.833 457.167,745.167 456.5,744.5C 454.898,742.926 452.898,742.259 450.5,742.5C 445.844,740.84 441.177,739.174 436.5,737.5C 436.158,736.662 435.492,736.328 434.5,736.5C 434.5,735.833 434.167,735.5 433.5,735.5C 433.267,733.938 432.6,732.605 431.5,731.5C 432.967,732.292 434.3,732.292 435.5,731.5C 434.696,730.059 434.029,728.559 433.5,727C 435.105,722.678 436.772,718.511 438.5,714.5C 439.5,714.5 440.5,714.5 441.5,714.5C 441.991,709.941 440.658,708.941 437.5,711.5C 440.344,705.138 443.677,699.138 447.5,693.5 Z"/></g>
<g><path style="opacity:1" fill="#77b254" d="M 437.5,734.5 C 439.288,733.378 441.288,733.211 443.5,734C 447.874,736.599 452.541,738.599 457.5,740C 454.923,741.25 452.257,741.584 449.5,741C 445.115,739.419 441.115,737.252 437.5,734.5 Z"/></g>
<g><path style="opacity:1" fill="#84b071" d="M 632.5,738.5 C 628.543,743.467 623.543,746.8 617.5,748.5C 620.167,746.5 622.833,744.5 625.5,742.5C 627.23,741.974 628.564,740.974 629.5,739.5C 630.391,738.89 631.391,738.557 632.5,738.5 Z"/></g>
<g><path style="opacity:1" fill="#93b881" d="M 450.5,742.5 C 452.898,742.259 454.898,742.926 456.5,744.5C 454.102,744.741 452.102,744.074 450.5,742.5 Z"/></g>
<g><path style="opacity:1" fill="#f1fbec" d="M 615.5,736.5 C 617.344,738.279 618.01,740.612 617.5,743.5C 619.359,743.539 620.692,742.706 621.5,741C 624.168,740.433 626.834,739.933 629.5,739.5C 628.564,740.974 627.23,741.974 625.5,742.5C 622.564,743.406 619.564,744.072 616.5,744.5C 615.908,741.873 615.575,739.206 615.5,736.5 Z"/></g>
<g><path style="opacity:1" fill="#f8fdf3" d="M 436.5,737.5 C 441.177,739.174 445.844,740.84 450.5,742.5C 452.102,744.074 454.102,744.741 456.5,744.5C 457.167,745.167 457.833,745.833 458.5,746.5C 456.54,745.862 454.707,745.862 453,746.5C 450.695,744.07 447.862,743.07 444.5,743.5C 444.239,746.633 442.572,747.8 439.5,747C 438.332,745.594 438.665,744.428 440.5,743.5C 438.31,741.993 436.976,739.993 436.5,737.5 Z"/></g>
<g><path style="opacity:1" fill="#76b24f" d="M 471.5,743.5 C 472.6,744.558 473.934,745.392 475.5,746C 474.437,747.188 473.103,747.688 471.5,747.5C 453.354,743.385 453.354,742.052 471.5,743.5 Z"/></g>
<g><path style="opacity:1" fill="#e0f9d3" d="M 625.5,742.5 C 622.833,744.5 620.167,746.5 617.5,748.5C 616.833,748.5 616.5,748.167 616.5,747.5C 616.5,746.5 616.5,745.5 616.5,744.5C 619.564,744.072 622.564,743.406 625.5,742.5 Z"/></g>
<g><path style="opacity:1" fill="#e2f5d6" d="M 660.5,736.5 C 660.731,740.993 660.064,745.326 658.5,749.5C 658.5,749.833 658.5,750.167 658.5,750.5C 658.167,750.5 657.833,750.5 657.5,750.5C 658.503,745.795 659.503,741.128 660.5,736.5 Z"/></g>
<g><path style="opacity:1" fill="#8ab170" d="M 282.5,744.5 C 285.193,745.847 287.86,747.18 290.5,748.5C 293.009,749.921 295.343,751.588 297.5,753.5C 293.144,752.489 289.144,750.656 285.5,748C 283.937,747.241 282.937,746.074 282.5,744.5 Z"/></g>
<g><path style="opacity:1" fill="#e2f3da" d="M 481.5,745.5 C 486.882,744.699 491.215,746.366 494.5,750.5C 492.883,749.962 491.216,749.629 489.5,749.5C 486.921,747.975 484.254,746.641 481.5,745.5 Z"/></g>
<g><path style="opacity:1" fill="#7bb057" d="M 471.5,743.5 C 474.789,744.374 478.123,745.041 481.5,745.5C 484.254,746.641 486.921,747.975 489.5,749.5C 491.476,751.011 493.809,751.844 496.5,752C 495.062,752.219 493.729,752.719 492.5,753.5C 493.506,754.396 493.506,755.062 492.5,755.5C 485.975,753.032 479.309,750.866 472.5,749C 471.944,748.617 471.611,748.117 471.5,747.5C 473.103,747.688 474.437,747.188 475.5,746C 473.934,745.392 472.6,744.558 471.5,743.5 Z"/></g>
<g><path style="opacity:1" fill="#e9f9e1" d="M 290.5,748.5 C 294.543,749.665 298.543,751.165 302.5,753C 304.063,753.759 305.063,754.926 305.5,756.5C 302.993,755.108 300.327,754.108 297.5,753.5C 295.343,751.588 293.009,749.921 290.5,748.5 Z"/></g>
<g><path style="opacity:1" fill="#eaf9e6" d="M 472.5,750.5 C 477.784,751.595 482.784,753.261 487.5,755.5C 483.138,754.715 478.804,753.715 474.5,752.5C 473.287,752.253 472.62,751.586 472.5,750.5 Z"/></g>
<g><path style="opacity:1" fill="#eefaeb" d="M 608.5,736.5 C 608.833,736.5 609.167,736.5 609.5,736.5C 609.244,740.269 609.577,743.936 610.5,747.5C 611.65,753.102 612.316,758.769 612.5,764.5C 611.442,763.4 610.608,762.066 610,760.5C 609.27,752.51 608.77,744.51 608.5,736.5 Z"/></g>
<g><path style="opacity:1" fill="#86ae6c" d="M 641.5,744.5 C 642.837,747.991 644.837,751.157 647.5,754C 649.81,754.497 652.143,754.663 654.5,754.5C 646.081,756.77 641.748,753.437 641.5,744.5 Z"/></g>
<g><path style="opacity:1" fill="#88ad77" d="M 657.5,750.5 C 657.833,750.5 658.167,750.5 658.5,750.5C 658.475,753.179 657.142,754.512 654.5,754.5C 655.5,753.167 656.5,751.833 657.5,750.5 Z"/></g>
<g><path style="opacity:1" fill="#7ab24f" d="M 508.5,755.5 C 509.6,756.558 510.934,757.392 512.5,758C 511.056,759.064 509.389,759.564 507.5,759.5C 503.231,758.198 498.898,757.198 494.5,756.5C 494.5,755.5 494.5,754.5 494.5,753.5C 499.319,753.352 503.985,754.018 508.5,755.5 Z"/></g>
<g><path style="opacity:1" fill="#e6f7d8" d="M 487.5,755.5 C 489.806,755.993 492.139,756.326 494.5,756.5C 495.5,757.167 496.5,757.833 497.5,758.5C 493.622,758.976 490.288,757.976 487.5,755.5 Z"/></g>
<g><path style="opacity:1" fill="#effaec" d="M 505.5,753.5 C 508.74,753.768 511.906,754.434 515,755.5C 517.569,754.105 519.569,754.772 521,757.5C 521.725,756.941 522.558,756.608 523.5,756.5C 525.569,756.824 525.902,757.658 524.5,759C 527.919,759.521 531.252,760.355 534.5,761.5C 535.386,762.325 535.719,763.325 535.5,764.5C 532.296,763.099 528.963,762.099 525.5,761.5C 520.21,758.735 514.543,756.735 508.5,755.5C 507.5,754.833 506.5,754.167 505.5,753.5 Z"/></g>
<g><path style="opacity:1" fill="#81ae61" d="M 297.5,753.5 C 300.327,754.108 302.993,755.108 305.5,756.5C 307.964,757.567 310.297,758.9 312.5,760.5C 308.24,759.415 303.906,758.748 299.5,758.5C 299.169,756.678 298.502,755.011 297.5,753.5 Z"/></g>
<g><path style="opacity:1" fill="#84b065" d="M 508.5,755.5 C 514.543,756.735 520.21,758.735 525.5,761.5C 521.8,760.868 518.133,760.368 514.5,760C 513.167,760.667 513.167,761.333 514.5,762C 516.491,762.374 518.158,763.207 519.5,764.5C 512.017,763.118 504.684,761.118 497.5,758.5C 496.5,757.833 495.5,757.167 494.5,756.5C 498.898,757.198 503.231,758.198 507.5,759.5C 509.389,759.564 511.056,759.064 512.5,758C 510.934,757.392 509.6,756.558 508.5,755.5 Z"/></g>
<g><path style="opacity:1" fill="#84af69" d="M 583.5,752.5 C 586.258,755.678 588.258,759.345 589.5,763.5C 587.224,761.669 585.391,759.336 584,756.5C 583.51,755.207 583.343,753.873 583.5,752.5 Z"/></g>
<g><path style="opacity:1" fill="#effbe7" d="M 319.5,762.5 C 323.182,762.335 326.848,762.501 330.5,763C 332.57,765.278 334.903,767.111 337.5,768.5C 336.833,768.5 336.167,768.5 335.5,768.5C 330.167,766.5 324.833,764.5 319.5,762.5 Z"/></g>
<g><path style="opacity:1" fill="#88ae70" d="M 312.5,760.5 C 314.921,760.878 317.254,761.545 319.5,762.5C 324.833,764.5 330.167,766.5 335.5,768.5C 333.143,768.663 330.81,768.497 328.5,768C 325.085,766.083 321.419,764.75 317.5,764C 315.416,763.303 313.749,762.136 312.5,760.5 Z"/></g>
<g><path style="opacity:1" fill="#8ab271" d="M 519.5,764.5 C 528.453,766.697 536.787,770.03 544.5,774.5C 543.167,774.5 541.833,774.5 540.5,774.5C 534.626,771.649 528.626,768.982 522.5,766.5C 521.29,766.068 520.29,765.401 519.5,764.5 Z"/></g>
<g><path style="opacity:1" fill="#eefce7" d="M 579.5,757.5 C 580.771,759.109 581.771,760.942 582.5,763C 578.108,764.868 573.774,766.701 569.5,768.5C 569.167,768.5 568.833,768.5 568.5,768.5C 566.139,768.674 563.806,769.007 561.5,769.5C 567.113,766.47 573.113,763.97 579.5,762C 579.034,760.701 579.034,759.201 579.5,757.5 Z"/></g>
<g><path style="opacity:1" fill="#89b274" d="M 574.5,746.5 C 579.905,751.645 582.905,757.978 583.5,765.5C 579.017,766.998 574.351,767.998 569.5,768.5C 573.774,766.701 578.108,764.868 582.5,763C 581.771,760.942 580.771,759.109 579.5,757.5C 577.576,753.983 575.909,750.316 574.5,746.5 Z"/></g>
<g><path style="opacity:1" fill="#f0fbea" d="M 522.5,766.5 C 528.626,768.982 534.626,771.649 540.5,774.5C 534.789,772.763 529.123,770.93 523.5,769C 522.748,768.329 522.414,767.496 522.5,766.5 Z"/></g>
<g><path style="opacity:1" fill="#e3f6db" d="M 337.5,769.5 C 337.5,769.167 337.5,768.833 337.5,768.5C 340.518,768.335 343.518,768.502 346.5,769C 348.713,770.616 351.047,771.783 353.5,772.5C 348.167,771.5 342.833,770.5 337.5,769.5 Z"/></g>
<g><path style="opacity:1" fill="#86ae69" d="M 337.5,769.5 C 342.833,770.5 348.167,771.5 353.5,772.5C 353.5,772.833 353.5,773.167 353.5,773.5C 347.478,774.259 342.144,772.925 337.5,769.5 Z"/></g>
<g><path style="opacity:1" fill="#eafae3" d="M 543.5,767.5 C 547.064,767.688 550.397,768.688 553.5,770.5C 556.084,769.607 558.751,769.274 561.5,769.5C 555.142,772.498 549.142,771.831 543.5,767.5 Z"/></g>
<g><path style="opacity:1" fill="#85ae6b" d="M 537.5,766.5 C 539.5,766.833 541.5,767.167 543.5,767.5C 549.142,771.831 555.142,772.498 561.5,769.5C 563.806,769.007 566.139,768.674 568.5,768.5C 564.426,771.898 559.592,773.565 554,773.5C 548.375,771.353 542.875,769.02 537.5,766.5 Z"/></g>
<g><path style="opacity:1" fill="#e7f6df" d="M 353.5,773.5 C 353.5,773.167 353.5,772.833 353.5,772.5C 359.12,772.605 364.453,773.605 369.5,775.5C 364.07,775.464 358.737,774.797 353.5,773.5 Z"/></g>
<g><path style="opacity:1" fill="#83af61" d="M 610.5,747.5 C 612.255,749.761 613.422,752.428 614,755.5C 614.148,761.934 614.982,768.267 616.5,774.5C 615.674,779.324 613.007,782.658 608.5,784.5C 606.604,783.725 604.937,782.725 603.5,781.5C 611.143,781.68 614.476,777.847 613.5,770C 613.492,768.293 613.158,766.793 612.5,765.5C 612.5,765.167 612.5,764.833 612.5,764.5C 612.316,758.769 611.65,753.102 610.5,747.5 Z"/></g>
<g><path style="opacity:1" fill="#8bb26f" d="M 353.5,773.5 C 358.737,774.797 364.07,775.464 369.5,775.5C 369.5,775.833 369.5,776.167 369.5,776.5C 363.657,777.169 358.324,776.169 353.5,773.5 Z"/></g>
<g><path style="opacity:1" fill="#effbed" d="M 418.5,786.5 C 415.833,786.167 413.167,785.833 410.5,785.5C 407.659,784.331 404.659,783.331 401.5,782.5C 393.2,779.574 384.534,777.908 375.5,777.5C 373.621,776.659 371.621,776.325 369.5,776.5C 369.5,776.167 369.5,775.833 369.5,775.5C 373.697,775.571 377.863,775.237 382,774.5C 393.941,777.605 405.774,780.938 417.5,784.5C 417.863,785.183 418.196,785.85 418.5,786.5 Z"/></g>
<g><path style="opacity:1" fill="#8ab272" d="M 546.5,775.5 C 550.139,775.422 552.806,776.922 554.5,780C 557.652,780.464 559.318,782.297 559.5,785.5C 558.833,785.167 558.167,784.833 557.5,784.5C 554.124,781.122 550.457,778.122 546.5,775.5 Z"/></g>
<g><path style="opacity:1" fill="#ebfbe3" d="M 612.5,765.5 C 613.158,766.793 613.492,768.293 613.5,770C 614.476,777.847 611.143,781.68 603.5,781.5C 602.167,779.833 600.833,778.167 599.5,776.5C 602.1,778.755 605.1,779.921 608.5,780C 611.083,775.599 612.416,770.766 612.5,765.5 Z"/></g>
<g><path style="opacity:1" fill="#84af69" d="M 375.5,777.5 C 384.534,777.908 393.2,779.574 401.5,782.5C 393.561,781.236 385.561,780.236 377.5,779.5C 376.757,778.818 376.091,778.151 375.5,777.5 Z"/></g>
<g><path style="opacity:1" fill="#f0fcee" d="M 540.5,774.5 C 541.833,774.5 543.167,774.5 544.5,774.5C 544.842,775.338 545.508,775.672 546.5,775.5C 550.457,778.122 554.124,781.122 557.5,784.5C 554.577,783.705 551.91,782.372 549.5,780.5C 545.828,782.05 545.161,781.55 547.5,779C 545.276,777.219 542.942,775.719 540.5,774.5 Z"/></g>
<g><path style="opacity:1" fill="#dcf4ce" d="M 418.5,786.5 C 420.857,786.337 423.19,786.503 425.5,787C 426.056,787.383 426.389,787.883 426.5,788.5C 423.572,788.435 420.905,787.768 418.5,786.5 Z"/></g>
<g><path style="opacity:1" fill="#e9f8e7" d="M 426.5,788.5 C 431.545,788.609 436.378,788.609 441,788.5C 442.992,789.328 444.492,790.661 445.5,792.5C 438.943,791.657 432.61,790.323 426.5,788.5 Z"/></g>
<g><path style="opacity:1" fill="#e9fae7" d="M 557.5,784.5 C 558.167,784.833 558.833,785.167 559.5,785.5C 560.167,785.5 560.5,785.833 560.5,786.5C 560.868,790.044 559.868,793.044 557.5,795.5C 557.5,791.833 557.5,788.167 557.5,784.5 Z"/></g>
<g><path style="opacity:1" fill="#def1d2" d="M 446.5,792.5 C 450.514,792.334 454.514,792.501 458.5,793C 461.187,793.728 463.52,794.895 465.5,796.5C 458.987,795.475 452.654,794.142 446.5,792.5 Z"/></g>
<g><path style="opacity:1" fill="#87b06b" d="M 560.5,786.5 C 563.217,789.886 562.883,793.219 559.5,796.5C 555.659,800.418 550.992,802.085 545.5,801.5C 547.5,800.833 549.5,800.167 551.5,799.5C 553.674,799.25 555.341,798.25 556.5,796.5C 557.167,796.5 557.5,796.167 557.5,795.5C 559.868,793.044 560.868,790.044 560.5,786.5 Z"/></g>
<g><path style="opacity:1" fill="#eaf9dd" d="M 556.5,796.5 C 555.341,798.25 553.674,799.25 551.5,799.5C 551.5,798.5 551.5,797.5 551.5,796.5C 553.167,796.5 554.833,796.5 556.5,796.5 Z"/></g>
<g><path style="opacity:1" fill="#7faf5c" d="M 410.5,785.5 C 413.167,785.833 415.833,786.167 418.5,786.5C 420.905,787.768 423.572,788.435 426.5,788.5C 432.61,790.323 438.943,791.657 445.5,792.5C 445.833,792.5 446.167,792.5 446.5,792.5C 452.654,794.142 458.987,795.475 465.5,796.5C 467.167,796.5 468.833,796.5 470.5,796.5C 470.5,796.833 470.5,797.167 470.5,797.5C 465.615,797.248 460.781,797.581 456,798.5C 454.829,797.66 453.662,796.827 452.5,796C 447.148,795.678 441.814,795.178 436.5,794.5C 428.416,791.483 420.083,789.483 411.5,788.5C 410.873,787.583 410.539,786.583 410.5,785.5 Z"/></g>
<g><path style="opacity:1" fill="#e0f4da" d="M 470.5,797.5 C 470.5,797.167 470.5,796.833 470.5,796.5C 482.548,796.664 494.214,798.331 505.5,801.5C 504.5,801.5 503.5,801.5 502.5,801.5C 500.5,801.5 498.5,801.5 496.5,801.5C 492.057,800.199 487.391,799.532 482.5,799.5C 478.606,798.407 474.606,797.74 470.5,797.5 Z"/></g>
<g><path style="opacity:1" fill="#82ae67" d="M 482.5,799.5 C 487.391,799.532 492.057,800.199 496.5,801.5C 491.547,801.877 486.881,801.211 482.5,799.5 Z"/></g>
<g><path style="opacity:1" fill="#8bb374" d="M 502.5,801.5 C 503.5,801.5 504.5,801.5 505.5,801.5C 508.764,802.324 512.098,802.658 515.5,802.5C 525.341,803.605 535.341,803.605 545.5,802.5C 544.737,803.268 543.737,803.768 542.5,804C 529.471,804.769 516.471,804.436 503.5,803C 502.944,802.617 502.611,802.117 502.5,801.5 Z"/></g>
<g><path style="opacity:1" fill="#e6fadc" d="M 545.5,801.5 C 545.5,801.833 545.5,802.167 545.5,802.5C 535.341,803.605 525.341,803.605 515.5,802.5C 525.516,802.547 535.516,802.213 545.5,801.5 Z"/></g>
</svg>
