<?xml version="1.0" encoding="UTF-8" standalone="no"?>
<svg
   width="65"
   height="65"
   viewBox="0 0 61 65"
   fill="none"
   version="1.1"
   id="svg632"
   sodipodi:docname="logo.svg"
   xml:space="preserve"
   inkscape:version="1.2.2 (b0a8486541, 2022-12-01)"
   xmlns:inkscape="http://www.inkscape.org/namespaces/inkscape"
   xmlns:sodipodi="http://sodipodi.sourceforge.net/DTD/sodipodi-0.dtd"
   xmlns="http://www.w3.org/2000/svg"
   xmlns:svg="http://www.w3.org/2000/svg"><sodipodi:namedview
     id="namedview634"
     pagecolor="#ffffff"
     bordercolor="#000000"
     borderopacity="0.25"
     inkscape:showpageshadow="2"
     inkscape:pageopacity="0.0"
     inkscape:pagecheckerboard="0"
     inkscape:deskcolor="#d1d1d1"
     showgrid="false"
     inkscape:zoom="4.7376154"
     inkscape:cx="38.41595"
     inkscape:cy="63.428534"
     inkscape:window-width="1920"
     inkscape:window-height="1080"
     inkscape:window-x="0"
     inkscape:window-y="0"
     inkscape:window-maximized="1"
     inkscape:current-layer="svg632" /><defs
     id="defs630"><linearGradient
       id="paint0_linear_89_8"
       x1="30.5"
       y1="0"
       x2="30.5"
       y2="65"
       gradientUnits="userSpaceOnUse"
       gradientTransform="translate(64.765966,-3.5032392)"><stop
         stop-color="#6364FF"
         id="stop625" /><stop
         offset="1"
         stop-color="#563ACC"
         id="stop627" /></linearGradient></defs><g
     style="clip-rule:evenodd;fill-rule:evenodd;image-rendering:optimizeQuality;shape-rendering:geometricPrecision;text-rendering:geometricPrecision"
     id="g3590"
     transform="matrix(0.10042578,0,0,0.10476729,-6.3928345,-7.6498902)"><g
       id="g2980"><path
         style="opacity:1"
         fill="#78b152"
         d="m 455.5,125.5 c 2.615,0.791 5.282,1.457 8,2 15.173,5.781 30.506,11.281 46,16.5 3.694,2.178 7.361,4.345 11,6.5 11.928,8.263 23.261,17.263 34,27 4.936,5.438 10.103,10.771 15.5,16 7.605,11.899 16.605,22.566 27,32 4.315,10.635 9.649,20.635 16,30 0.822,2.288 1.489,4.622 2,7 4.533,7.352 8.367,15.019 11.5,23 2.156,6.473 4.489,12.807 7,19 0.338,2.354 0.838,4.687 1.5,7 0.717,-0.544 1.217,-1.211 1.5,-2 0.951,1.419 1.284,3.085 1,5 -0.863,-0.963 -1.53,-0.963 -2,0 0.494,1.526 1.161,2.859 2,4 1.862,9.578 2.362,19.244 1.5,29 -5.726,21.812 -9.893,44.145 -12.5,67 -3.833,13 -7.667,26 -11.5,39 -5.478,12.109 -11.145,24.109 -17,36 -15.434,26.775 -34.601,50.608 -57.5,71.5 -0.948,0.483 -1.948,0.649 -3,0.5 0.699,-3.596 1.699,-7.096 3,-10.5 -0.34,-6.408 0.327,-12.908 2,-19.5 0.658,-1.293 0.992,-2.793 1,-4.5 0.195,-2.352 -0.472,-4.352 -2,-6 -1.496,-0.507 -2.663,-0.007 -3.5,1.5 -0.494,1.634 -0.66,3.301 -0.5,5 -0.283,10.963 -2.116,21.963 -5.5,33 -1.098,7.964 -1.598,15.964 -1.5,24 -1.363,4.132 -2.363,8.465 -3,13 0.092,5.168 -2.408,7.502 -7.5,7 -4.809,0.534 -8.143,-1.466 -10,-6 -0.36,-2.108 -1.027,-4.108 -2,-6 -2.148,-17.331 -4.148,-34.664 -6,-52 -1,-1.333 -2,-1.333 -3,0 -0.031,8.307 -0.864,16.474 -2.5,24.5 0.805,4.749 1.305,9.582 1.5,14.5 0.606,2.93 1.44,5.763 2.5,8.5 -3.49,2.911 -7.156,5.578 -11,8 -1.654,0.608 -3.321,1.108 -5,1.5 -0.124,-4.549 -0.791,-8.882 -2,-13 -0.952,-10.097 -2.452,-20.097 -4.5,-30 -0.708,-0.881 -1.542,-1.547 -2.5,-2 -1.832,-1.218 -2.832,-0.551 -3,2 1.673,9.23 3.34,18.73 5,28.5 -0.559,0.725 -0.892,1.558 -1,2.5 0.983,7.644 1.816,15.31 2.5,23 2.259,5.061 3.092,10.395 2.5,16 -0.057,1.109 -0.39,2.109 -1,3 -3.831,4.989 -8.165,5.322 -13,1 -2.311,-3.163 -4.478,-6.497 -6.5,-10 -0.464,0.594 -0.631,1.261 -0.5,2 -0.333,0 -0.667,0 -1,0 -0.715,-6.091 -3.048,-11.424 -7,-16 -2.088,-1.836 -3.421,-4.169 -4,-7 -0.25,-2.174 -1.25,-3.841 -3,-5 -2.935,-7.701 -6.268,-15.201 -10,-22.5 -0.949,-0.617 -1.782,-0.451 -2.5,0.5 -0.667,3 -0.667,6 0,9 3.231,5.341 5.898,11.008 8,17 4.091,5.195 7.924,10.528 11.5,16 -1.26,0.882 -2.426,1.882 -3.5,3 -0.333,-0.333 -0.667,-0.667 -1,-1 -6.693,2.229 -13.526,4.062 -20.5,5.5 -3.184,0.754 -5.851,2.254 -8,4.5 -1.836,-3.137 -4.503,-5.637 -8,-7.5 -31.955,-11.652 -64.288,-22.318 -97,-32 -5.292,-1.628 -8.958,-4.962 -11,-10 3.384,-6.713 7.55,-12.88 12.5,-18.5 13.809,-24.737 19.809,-51.07 18,-79 -3.085,-16.035 -8.752,-31.035 -17,-45 -3.5,-3.5 -7,-7 -10.5,-10.5 -28.432,-13.691 -57.765,-17.691 -88,-12 -4.28,1.967 -8.28,4.3 -12,7 -4.03,3.123 -3.697,5.623 1,7.5 4.552,-0.783 8.219,-2.95 11,-6.5 14.49,-3.907 29.156,-4.574 44,-2 7.095,0.857 14.095,2.191 21,4 7.891,2.612 15.224,6.279 22,11 9.56,9.974 15.726,21.807 18.5,35.5 5.675,26.329 2.675,51.663 -9,76 -5.667,9.333 -11.333,18.667 -17,28 -0.145,3.839 -0.145,7.839 0,12 3.573,3.248 7.407,6.081 11.5,8.5 24.534,6.938 48.867,14.605 73,23 13.044,5.105 26.044,10.272 39,15.5 1.998,2.1 4.165,4.1 6.5,6 0.495,1.973 0.662,3.973 0.5,6 -4.241,7.875 -10.907,11.875 -20,12 -8,0 -16,0 -24,0 -5.529,-0.379 -11.029,-1.045 -16.5,-2 -1.07,0.028 -1.903,0.361 -2.5,1 -1.109,-0.057 -2.109,-0.39 -3,-1 -4.254,-1.909 -8.588,-2.242 -13,-1 -4.907,-1.319 -9.907,-2.319 -15,-3 -10.06,-2.745 -20.393,-4.745 -31,-6 -5.447,-1.777 -11.114,-3.11 -17,-4 -4.237,-1.381 -8.57,-2.381 -13,-3 -1.602,-1.574 -3.602,-2.241 -6,-2 -1.599,0.268 -2.932,-0.066 -4,-1 -0.418,-0.722 -1.084,-1.222 -2,-1.5 -2.646,-0.497 -5.313,-0.664 -8,-0.5 -5.047,-0.422 -10.047,-1.089 -15,-2 -5.113,-1.695 -10.447,-3.029 -16,-4 -0.916,0.043 -1.583,0.376 -2,1 -0.992,0.172 -1.658,-0.162 -2,-1 -11.334,-3.886 -23.334,-7.886 -36,-12 -2.814,-1.57 -5.814,-2.903 -9,-4 -0.992,0.172 -1.658,-0.162 -2,-1 -0.528,-1.221 -1.195,-2.387 -2,-3.5 -2.704,-1.356 -5.371,-1.856 -8,-1.5 -6.342,-3.168 -12.342,-6.835 -18,-11 -2.391,-1.482 -4.724,-3.149 -7,-5 -2.96,-3.145 -6.293,-5.812 -10,-8 -3.048,-3.715 -6.381,-7.048 -10,-10 -1.93,-3.6 -4.597,-6.6 -8,-9 -4.749,-7.802 -10.2493,-15.135 -16.5,-22 -2.3047,-6.613 -5.6381,-12.613 -10,-18 -3.1513,-9.957 -6.9846,-19.624 -11.5,-29 1.2574,-1.123 0.9241,-1.789 -1,-2 0,-0.333 0,-0.667 0,-1 0.5431,-0.06 0.8764,-0.393 1,-1 -0.7092,-2.884 -1.7092,-5.551 -3,-8 -0.4926,-2.306 -0.8259,-4.639 -1,-7 -0.4608,-5.664 -1.7941,-10.997 -4,-16 -0.1377,-6.863 -0.8044,-13.53 -2,-20 -1.0961,-15.661 -1.0961,-31.328 0,-47 0.7679,-0.763 1.2679,-1.763 1.5,-3 0.4983,-3.317 0.665,-6.65 0.5,-10 1.7947,-15.179 5.4614,-29.846 11,-44 2.3742,-4.777 4.3742,-9.777 6,-15 2.2795,-4.224 4.2795,-8.558 6,-13 2.164,-2.322 3.8307,-4.989 5,-8 3.6206,-4.587 6.2873,-9.587 8,-15 0.31,1.238 0.81,1.238 1.5,0 1.421,-1.905 2.588,-3.905 3.5,-6 1.333,-1.433 2.833,-2.767 4.5,-4 2.833,-5.67 6.166,-11.003 10,-16 8.794,-9.455 18.294,-18.289 28.5,-26.5 10.991,-13.047 23.658,-24.047 38,-33 3.576,-4.082 7.576,-7.582 12,-10.5 2.87,-0.933 5.204,-2.6 7,-5 0.342,-0.838 1.008,-1.172 2,-1 5.18,-3.088 10.18,-6.422 15,-10 10.137,-5.442 20.47,-10.609 31,-15.5 6.294,-4.662 13.294,-7.995 21,-10 4,-2.333 8,-4.667 12,-7 15.363,-5.676 31.029,-10.343 47,-14 17.422,-2.451 34.922,-4.284 52.5,-5.5 9.687,0.335 19.187,1.835 28.5,4.5 14.587,0.124 28.92,1.958 43,5.5 z m 82,79 c 8.299,5.085 9.966,11.918 5,20.5 -14.891,3.108 -19.891,-2.559 -15,-17 3.35,-1.486 6.684,-2.653 10,-3.5 z m -172,34 c 7.147,1.648 10.814,6.148 11,13.5 -0.986,3.955 -2.986,7.289 -6,10 -9.291,1.45 -14.291,-2.55 -15,-12 -0.006,-2.3 0.494,-4.466 1.5,-6.5 2.682,-2.085 5.516,-3.752 8.5,-5 z m 149,10 c 4.568,-0.417 6.068,1.583 4.5,6 -26.624,30.748 -59.624,40.081 -99,28 -1.165,-3.314 0.002,-5.314 3.5,-6 36.065,10.386 66.398,1.053 91,-28 z"
         id="path2978" /></g><g
       id="g2984"><path
         style="opacity:0.075"
         fill="#6b3b1f"
         d="m 463.5,127.5 c -2.718,-0.543 -5.385,-1.209 -8,-2 0.761,-0.891 1.761,-1.558 3,-2 1.919,1.112 3.586,2.446 5,4 z"
         id="path2982" /></g><g
       id="g2988"><path
         style="opacity:0.039"
         fill="#4f3942"
         d="m 520.5,150.5 c 5.27,2.303 10.27,5.136 15,8.5 4.711,4.38 9.711,8.38 15,12 1.732,1.972 3.065,4.139 4,6.5 -10.739,-9.737 -22.072,-18.737 -34,-27 z"
         id="path2986" /></g><g
       id="g2992"><path
         style="opacity:0.125"
         fill="#503f48"
         d="m 220.5,167.5 c -4.82,3.578 -9.82,6.912 -15,10 3.786,-5.066 8.786,-8.4 15,-10 z"
         id="path2990" /></g><g
       id="g2996"><path
         style="opacity:0.102"
         fill="#3f2e4a"
         d="m 203.5,178.5 c -1.796,2.4 -4.13,4.067 -7,5 1.796,-2.4 4.13,-4.067 7,-5 z"
         id="path2994" /></g><g
       id="g3000"><path
         style="opacity:0.00400002"
         fill="#006552"
         d="m 125.5,217.5 c 1.333,0.667 1.333,0.667 0,0 z"
         id="path2998" /></g><g
       id="g3004"><path
         style="opacity:0.00400002"
         fill="#006500"
         d="m 109.5,233.5 c 1.333,0.667 1.333,0.667 0,0 z"
         id="path3002" /></g><g
       id="g3008"><path
         style="opacity:0.059"
         fill="#333048"
         d="m 103.5,273.5 c -0.912,2.095 -2.079,4.095 -3.5,6 -0.69,1.238 -1.19,1.238 -1.5,0 -0.1322,-3.532 1.534,-5.532 5,-6 z"
         id="path3006" /></g><g
       id="g3012"><path
         style="opacity:0.09"
         fill="#3f3c36"
         d="m 90.5,294.5 c -1.1693,3.011 -2.836,5.678 -5,8 -0.3534,-3.959 1.3132,-6.626 5,-8 z"
         id="path3010" /></g><g
       id="g3016"><path
         style="opacity:0.02"
         fill="#218902"
         d="m 631.5,293.5 c 3.197,3.233 4.864,7.233 5,12 -0.838,-0.342 -1.172,-1.008 -1,-2 -1.891,-3.114 -3.224,-6.448 -4,-10 z"
         id="path3014" /></g><g
       id="g3020"><path
         style="opacity:0.082"
         fill="#493336"
         d="m 626.5,285.5 c 2.493,2.158 4.16,4.824 5,8 0.776,3.552 2.109,6.886 4,10 -0.667,0.333 -1.333,0.667 -2,1 -2.511,-6.193 -4.844,-12.527 -7,-19 z"
         id="path3018" /></g><g
       id="g3024"><path
         style="opacity:0.122"
         fill="#281953"
         d="m 635.5,303.5 c -0.172,0.992 0.162,1.658 1,2 0,1.333 0,2.667 0,4 -0.283,0.789 -0.783,1.456 -1.5,2 -0.662,-2.313 -1.162,-4.646 -1.5,-7 0.667,-0.333 1.333,-0.667 2,-1 z"
         id="path3022" /></g><g
       id="g3028"><path
         style="opacity:0.055"
         fill="#331153"
         d="m 637.5,314.5 c 0,1.333 0,2.667 0,4 -0.839,-1.141 -1.506,-2.474 -2,-4 0.47,-0.963 1.137,-0.963 2,0 z"
         id="path3026" /></g><g
       id="g3032"><path
         style="opacity:0.024"
         fill="#206901"
         d="m 76.5,318.5 c 0.0086,1.808 -0.4914,3.475 -1.5,5 -0.69,-1.238 -1.19,-1.238 -1.5,0 -0.5869,-2.185 0.4131,-3.852 3,-5 z"
         id="path3030" /></g><g
       id="g3036"><path
         style="opacity:0.071"
         fill="#511f46"
         d="m 79.5,315.5 c -1.6258,5.223 -3.6258,10.223 -6,15 0,-2.333 0,-4.667 0,-7 0.31,-1.238 0.81,-1.238 1.5,0 1.0086,-1.525 1.5086,-3.192 1.5,-5 0.6667,-1.333 1.6667,-2.333 3,-3 z"
         id="path3034" /></g><g
       id="g3040"><path
         style="opacity:0.02"
         fill="#0a0017"
         d="m 637.5,366.5 c 1.073,0.751 1.24,1.751 0.5,3 -0.483,-0.948 -0.649,-1.948 -0.5,-3 z"
         id="path3038" /></g><g
       id="g3044"><path
         style="opacity:0.00799997"
         fill="#114545"
         d="m 636.5,370.5 c 1.282,1.208 1.282,2.542 0,4 -0.406,-1.057 -0.406,-2.391 0,-4 z"
         id="path3042" /></g><g
       id="g3048"><path
         style="opacity:0.386"
         fill="#545955"
         d="m 62.5,374.5 c 0.165,3.35 -0.0017,6.683 -0.5,10 -0.2321,1.237 -0.7321,2.237 -1.5,3 0.2704,-4.528 0.9371,-8.861 2,-13 z"
         id="path3046" /></g><g
       id="g3052"><path
         style="opacity:0.098"
         fill="#653731"
         d="m 675.5,384.5 c 0.59,5.14 -0.41,9.807 -3,14 0.51,-4.891 1.51,-9.558 3,-14 z"
         id="path3050" /></g><g
       id="g3056"><path
         style="opacity:0.106"
         fill="#483e49"
         d="m 671.5,402.5 c -0.485,6.438 -2.151,12.438 -5,18 -0.543,-0.06 -0.876,-0.393 -1,-1 1.865,-5.842 3.865,-11.509 6,-17 z"
         id="path3054" /></g><g
       id="g3060"><path
         style="opacity:0.059"
         fill="#3b2848"
         d="m 662.5,429.5 c -1.527,6.064 -3.36,12.064 -5.5,18 -1.306,3.121 -3.14,5.787 -5.5,8 3.287,-8.872 6.954,-17.539 11,-26 z"
         id="path3058" /></g><g
       id="g3064"><path
         style="opacity:0.031"
         fill="#2d224e"
         d="m 60.5,434.5 c 1.1956,6.47 1.8623,13.137 2,20 -0.3333,0 -0.6667,0 -1,0 -0.7757,-6.637 -1.109,-13.304 -1,-20 z"
         id="path3062" /></g><g
       id="g3068"><path
         style="opacity:0.067"
         fill="#2d2538"
         d="m 650.5,457.5 c -0.435,2.657 -1.435,4.991 -3,7 0.052,-2.846 1.052,-5.18 3,-7 z"
         id="path3066" /></g><g
       id="g3072"><path
         style="opacity:0.00799997"
         fill="#4c2935"
         d="m 647.5,464.5 c -0.25,2.174 -1.25,3.841 -3,5 -0.227,-2.433 0.773,-4.099 3,-5 z"
         id="path3070" /></g><g
       id="g3076"><path
         style="opacity:0.341"
         fill="#4b6649"
         d="m 61.5,454.5 c 0.3333,0 0.6667,0 1,0 2.2059,5.003 3.5392,10.336 4,16 -2.5761,-4.948 -4.2427,-10.281 -5,-16 z"
         id="path3074" /></g><g
       id="g3080"><path
         style="opacity:0.141"
         fill="#411b52"
         d="m 643.5,471.5 c -0.192,3.602 -1.526,6.602 -4,9 0.952,-3.197 2.285,-6.197 4,-9 z"
         id="path3078" /></g><g
       id="g3084"><path
         style="opacity:0.073"
         fill="#3c2653"
         d="m 67.5,477.5 c 1.2908,2.449 2.2908,5.116 3,8 -0.1236,0.607 -0.4569,0.94 -1,1 -0.6174,-0.111 -1.1174,-0.444 -1.5,-1 -0.4974,-2.646 -0.6641,-5.313 -0.5,-8 z"
         id="path3082" /></g><g
       id="g3088"><path
         style="opacity:0.184"
         fill="#472743"
         d="m 69.5,487.5 c 1.9241,0.211 2.2574,0.877 1,2 -0.8382,-0.342 -1.1716,-1.008 -1,-2 z"
         id="path3086" /></g><g
       id="g3092"><path
         style="opacity:0.999"
         fill="#76b050"
         d="m 675.5,384.5 c -1.49,4.442 -2.49,9.109 -3,14 0.067,1.459 -0.266,2.792 -1,4 -2.135,5.491 -4.135,11.158 -6,17 0.124,0.607 0.457,0.94 1,1 -1.487,2.973 -2.82,5.973 -4,9 -4.046,8.461 -7.713,17.128 -11,26 0.172,0.992 -0.162,1.658 -1,2 -1.948,1.82 -2.948,4.154 -3,7 -2.227,0.901 -3.227,2.567 -3,5 0.172,0.992 -0.162,1.658 -1,2 -1.715,2.803 -3.048,5.803 -4,9 -2.571,4.805 -5.404,9.472 -8.5,14 -2.526,4.414 -4.359,9.08 -5.5,14 -2.107,2.557 -3.441,5.557 -4,9 -1.721,4.029 -3.388,8.029 -5,12 -2.212,2.821 -3.212,6.155 -3,10 1.716,0.129 3.383,0.462 5,1 2.638,2.324 5.638,4.157 9,5.5 8.764,1.964 16.264,6.13 22.5,12.5 1.511,3.68 1.677,7.346 0.5,11 -1.527,-0.073 -2.527,0.594 -3,2 -3.018,0.204 -6.018,0.537 -9,1 -7.083,0.053 -14.083,-0.614 -21,-2 -5.242,-1.429 -10.575,-2.429 -16,-3 -10.42,-2.935 -21.087,-5.268 -32,-7 -1.653,-0.16 -2.986,-0.826 -4,-2 -2.588,-2.125 -5.588,-3.458 -9,-4 -0.667,0 -1.333,0 -2,0 5.329,-5.433 10.829,-10.766 16.5,-16 10.655,-15.299 21.322,-30.633 32,-46 2.319,-5.609 4.486,-11.276 6.5,-17 2.614,-2.666 4.78,-5.666 6.5,-9 1.541,-5.412 3.874,-10.412 7,-15 5.357,-20.118 9.69,-40.451 13,-61 3.943,-13.05 6.61,-26.383 8,-40 2.056,-3.768 3.222,-7.768 3.5,-12 7.31,-2.886 14.477,-2.553 21.5,1 5.517,14.465 7.684,29.465 6.5,45 z"
         id="path3090" /></g><g
       id="g3096"><path
         style="opacity:0.012"
         fill="#4d4f50"
         d="m 625.5,508.5 c -0.424,3.418 -1.758,6.418 -4,9 0.559,-3.443 1.893,-6.443 4,-9 z"
         id="path3094" /></g><g
       id="g3100"><path
         style="opacity:0.204"
         fill="#453145"
         d="m 542.5,531.5 c 0.277,-2.948 -0.056,-5.781 -1,-8.5 -0.832,-0.688 -1.498,-0.521 -2,0.5 -0.494,1.526 -1.161,2.859 -2,4 -0.16,-1.699 0.006,-3.366 0.5,-5 0.837,-1.507 2.004,-2.007 3.5,-1.5 1.528,1.648 2.195,3.648 2,6 -0.008,1.707 -0.342,3.207 -1,4.5 z"
         id="path3098" /></g><g
       id="g3104"><path
         style="opacity:0.063"
         fill="#029e0d"
         d="m 616.5,533.5 c 0.129,1.716 0.462,3.383 1,5 -3.643,-0.961 -3.976,-2.628 -1,-5 z"
         id="path3102" /></g><g
       id="g3108"><path
         style="opacity:0.086"
         fill="#2a3252"
         d="m 616.5,529.5 c 0,1.333 0,2.667 0,4 -2.976,2.372 -2.643,4.039 1,5 0.838,0.342 1.172,1.008 1,2 -1.617,-0.538 -3.284,-0.871 -5,-1 -0.212,-3.845 0.788,-7.179 3,-10 z"
         id="path3106" /></g><g
       id="g3112"><path
         style="opacity:0.071"
         fill="#4a3954"
         d="m 475.5,552.5 c -1,0.667 -2,1.333 -3,2 0.168,-2.551 1.168,-3.218 3,-2 z"
         id="path3110" /></g><g
       id="g3116"><path
         style="opacity:0.02"
         fill="#1a7a1f"
         d="m 554.5,554.5 c 0.342,0.838 1.008,1.172 2,1 1,0.333 1.667,1 2,2 -2.371,-0.842 -4.704,-1.176 -7,-1 0.505,-1.419 1.505,-2.085 3,-2 z"
         id="path3114" /></g><g
       id="g3120"><path
         style="opacity:0.125"
         fill="#414147"
         d="m 556.5,555.5 c 0,-0.333 0,-0.667 0,-1 3.412,0.542 6.412,1.875 9,4 -2.306,-0.493 -4.639,-0.826 -7,-1 -0.333,-1 -1,-1.667 -2,-2 z"
         id="path3118" /></g><g
       id="g3124"><path
         style="opacity:0.055"
         fill="#433a40"
         d="m 108.5,558.5 c 3.403,2.4 6.07,5.4 8,9 -3.675,-2.156 -6.342,-5.156 -8,-9 z"
         id="path3122" /></g><g
       id="g3128"><path
         style="opacity:0.057"
         fill="#44244e"
         d="m 569.5,560.5 c 10.913,1.732 21.58,4.065 32,7 -11.045,-1.074 -21.711,-3.407 -32,-7 z"
         id="path3126" /></g><g
       id="g3132"><path
         style="opacity:0.00400002"
         fill="#0d6b49"
         d="m 535.5,563.5 c 2.501,0.011 2.668,0.678 0.5,2 -0.464,-0.594 -0.631,-1.261 -0.5,-2 z"
         id="path3130" /></g><g
       id="g3136"><path
         style="opacity:0.00400002"
         fill="#009a00"
         d="m 541.5,565.5 c 1.025,0.397 1.192,1.063 0.5,2 -0.464,-0.594 -0.631,-1.261 -0.5,-2 z"
         id="path3134" /></g><g
       id="g3140"><path
         style="opacity:0.00400002"
         fill="#780000"
         d="m 544.5,569.5 c 1.333,0.667 1.333,0.667 0,0 z"
         id="path3138" /></g><g
       id="g3144"><path
         style="opacity:0.012"
         fill="#411324"
         d="m 650.5,569.5 c -0.321,1.548 -1.321,2.215 -3,2 0.473,-1.406 1.473,-2.073 3,-2 z"
         id="path3142" /></g><g
       id="g3148"><path
         style="opacity:0.054"
         fill="#37264b"
         d="m 617.5,570.5 c 6.917,1.386 13.917,2.053 21,2 -7.223,2.496 -14.223,1.83 -21,-2 z"
         id="path3146" /></g><g
       id="g3152"><path
         style="opacity:0.118"
         fill="#412e49"
         d="m 116.5,567.5 c 3.619,2.952 6.952,6.285 10,10 -4.978,-1.644 -8.311,-4.978 -10,-10 z"
         id="path3150" /></g><g
       id="g3156"><path
         style="opacity:0.00400002"
         fill="#006552"
         d="m 533.5,578.5 c 1.333,0.667 1.333,0.667 0,0 z"
         id="path3154" /></g><g
       id="g3160"><path
         style="opacity:0.118"
         fill="#624935"
         d="m 126.5,577.5 c 3.707,2.188 7.04,4.855 10,8 0,0.333 0,0.667 0,1 -3.936,-2.266 -7.269,-5.266 -10,-9 z"
         id="path3158" /></g><g
       id="g3164"><path
         style="opacity:0.035"
         fill="#322448"
         d="m 136.5,585.5 c 2.276,1.851 4.609,3.518 7,5 -3.722,0.82 -6.055,-0.513 -7,-4 0,-0.333 0,-0.667 0,-1 z"
         id="path3162" /></g><g
       id="g3168"><path
         style="opacity:0.09"
         fill="#684b3d"
         d="m 530.5,584.5 c 1.674,4.973 0.674,9.306 -3,13 0.637,-4.535 1.637,-8.868 3,-13 z"
         id="path3166" /></g><g
       id="g3172"><path
         style="opacity:0.043"
         fill="#4d3351"
         d="m 482.5,584.5 c 1.209,4.118 1.876,8.451 2,13 -0.617,0.111 -1.117,0.444 -1.5,1 -0.499,-4.655 -0.666,-9.321 -0.5,-14 z"
         id="path3170" /></g><g
       id="g3176"><path
         style="opacity:0.047"
         fill="#633648"
         d="m 445.5,592.5 c 1.75,1.159 2.75,2.826 3,5 -1.75,-1.159 -2.75,-2.826 -3,-5 z"
         id="path3174" /></g><g
       id="g3180"><path
         style="opacity:0.024"
         fill="#38254d"
         d="m 501.5,599.5 c -1.667,0 -3.333,0 -5,0 0.901,-2.227 2.567,-3.227 5,-3 0,1 0,2 0,3 z"
         id="path3178" /></g><g
       id="g3184"><path
         style="opacity:0.013"
         fill="#006500"
         d="m 541.5,602.5 c -0.149,-1.052 0.017,-2.052 0.5,-3 0.74,1.249 0.573,2.249 -0.5,3 z"
         id="path3182" /></g><g
       id="g3188"><path
         style="opacity:0.039"
         fill="#059a0d"
         d="m 496.5,600.5 c 0,-0.333 0,-0.667 0,-1 1.667,0 3.333,0 5,0 0.749,1.031 1.415,2.198 2,3.5 -2.212,0.789 -4.212,0.622 -6,-0.5 0,-0.333 0,-0.667 0,-1 0,-0.667 -0.333,-1 -1,-1 z"
         id="path3186" /></g><g
       id="g3192"><path
         style="opacity:0.024"
         fill="#4e4528"
         d="m 496.5,599.5 c 0,0.333 0,0.667 0,1 0.667,0 1,0.333 1,1 0,0.333 0,0.667 0,1 -1.842,1.534 -3.175,1.2 -4,-1 0.505,-1.419 1.505,-2.085 3,-2 z"
         id="path3190" /></g><g
       id="g3196"><path
         style="opacity:1"
         fill="#646d4e"
         d="m 161.5,601.5 c 2.629,-0.356 5.296,0.144 8,1.5 0.805,1.113 1.472,2.279 2,3.5 -3.683,-1.175 -7.016,-2.841 -10,-5 z"
         id="path3194" /></g><g
       id="g3200"><path
         style="opacity:0.00400002"
         fill="#006500"
         d="m 541.5,602.5 c -0.667,0.667 -0.667,0.667 0,0 z"
         id="path3198" /></g><g
       id="g3204"><path
         style="opacity:0.00799997"
         fill="#004353"
         d="m 488.5,603.5 c 1.333,0.667 1.333,0.667 0,0 z"
         id="path3202" /></g><g
       id="g3208"><path
         style="opacity:0.02"
         fill="#008500"
         d="m 492.5,610.5 c -1.264,-2.272 -1.098,-4.605 0.5,-7 0.556,2.385 0.39,4.718 -0.5,7 z"
         id="path3206" /></g><g
       id="g3212"><path
         style="opacity:0.00400002"
         fill="#230000"
         d="m 483.5,609.5 c -1.025,-0.397 -1.192,-1.063 -0.5,-2 0.464,0.594 0.631,1.261 0.5,2 z"
         id="path3210" /></g><g
       id="g3216"><path
         style="opacity:0.00400002"
         fill="#40b240"
         d="m 483.5,609.5 c 0.667,0 1,0.333 1,1 -0.333,-0.333 -0.667,-0.667 -1,-1 z"
         id="path3214" /></g><g
       id="g3220"><path
         style="opacity:0.031"
         fill="#643527"
         d="m 173.5,607.5 c 3.186,1.097 6.186,2.43 9,4 0,0.333 0,0.667 0,1 -4.003,0.01 -7.003,-1.657 -9,-5 z"
         id="path3218" /></g><g
       id="g3224"><path
         style="opacity:0.00799997"
         fill="#6b232f"
         d="m 492.5,610.5 c 1.424,2.015 2.09,4.348 2,7 -1,0 -2,0 -3,0 0.493,-2.306 0.826,-4.639 1,-7 z"
         id="path3222" /></g><g
       id="g3228"><path
         style="opacity:0.278"
         fill="#4c3d47"
         d="m 452.5,604.5 c 3.952,4.576 6.285,9.909 7,16 0,0.333 0,0.667 0,1 -1.102,-4.769 -3.269,-9.102 -6.5,-13 -0.49,-1.293 -0.657,-2.627 -0.5,-4 z"
         id="path3226" /></g><g
       id="g3232"><path
         style="opacity:0.00799997"
         fill="#0b7c50"
         d="m 484.5,610.5 c 1.113,1.446 1.28,3.113 0.5,5 -0.494,-1.634 -0.66,-3.301 -0.5,-5 z"
         id="path3230" /></g><g
       id="g3236"><path
         style="opacity:0.02"
         fill="#3f2049"
         d="m 182.5,612.5 c 0,-0.333 0,-0.667 0,-1 12.666,4.114 24.666,8.114 36,12 -7.957,-0.435 -15.623,-1.935 -23,-4.5 -3.811,-3.215 -8.145,-5.381 -13,-6.5 z"
         id="path3234" /></g><g
       id="g3240"><path
         style="opacity:0.031"
         fill="#004b00"
         d="m 454.5,619.5 c -1.025,-0.397 -1.192,-1.063 -0.5,-2 0.464,0.594 0.631,1.261 0.5,2 z"
         id="path3238" /></g><g
       id="g3244"><path
         style="opacity:0.014"
         fill="#40b200"
         d="m 454.5,619.5 c 1.333,0.667 1.333,1.333 0,2 0,-0.667 0,-1.333 0,-2 z"
         id="path3242" /></g><g
       id="g3248"><path
         style="opacity:0.00400002"
         fill="#001200"
         d="m 454.5,621.5 c -0.667,0.667 -0.667,0.667 0,0 z"
         id="path3246" /></g><g
       id="g3252"><path
         style="opacity:0.00400002"
         fill="#5b284c"
         d="m 428.5,623.5 c 1.101,-1.098 2.434,-1.265 4,-0.5 -1.378,1.334 -2.711,1.501 -4,0.5 z"
         id="path3250" /></g><g
       id="g3256"><path
         style="opacity:0.00799997"
         fill="#26b200"
         d="m 425.5,623.5 c 1.333,0.667 1.333,0.667 0,0 z"
         id="path3254" /></g><g
       id="g3260"><path
         style="opacity:0.173"
         fill="#60304a"
         d="m 220.5,624.5 c 0.417,-0.624 1.084,-0.957 2,-1 5.553,0.971 10.887,2.305 16,4 -6.078,-0.569 -12.078,-1.569 -18,-3 z"
         id="path3258" /></g><g
       id="g3264"><path
         style="opacity:0.00400002"
         fill="#3d6552"
         d="m 419.5,624.5 c -0.667,0.667 -0.667,0.667 0,0 z"
         id="path3262" /></g><g
       id="g3268"><path
         style="opacity:0.032"
         fill="#0c6a00"
         d="m 442.5,624.5 c -1.159,1.75 -2.826,2.75 -5,3 -1.175,0.219 -2.175,-0.114 -3,-1 2.512,-1.295 5.179,-1.961 8,-2 z"
         id="path3266" /></g><g
       id="g3272"><path
         style="opacity:0.075"
         fill="#493d2b"
         d="m 467.5,628.5 c -3.312,-1.657 -5.979,-3.99 -8,-7 0.667,0 1,-0.333 1,-1 -0.131,-0.739 0.036,-1.406 0.5,-2 2.022,3.503 4.189,6.837 6.5,10 z"
         id="path3270" /></g><g
       id="g3276"><path
         style="opacity:0.00400002"
         fill="#00a200"
         d="m 432.5,626.5 c 1.333,0.667 1.333,0.667 0,0 z"
         id="path3274" /></g><g
       id="g3280"><path
         style="opacity:0.031"
         fill="#382544"
         d="m 481.5,624.5 c 2.548,1.513 2.215,2.513 -1,3 0.61,-0.891 0.943,-1.891 1,-3 z"
         id="path3278" /></g><g
       id="g3284"><path
         style="opacity:0.00400002"
         fill="#006552"
         d="m 435.5,628.5 c 0,0.667 0,1.333 0,2 -2.667,-0.667 -2.667,-1.333 0,-2 z"
         id="path3282" /></g><g
       id="g3288"><path
         style="opacity:0.00799997"
         fill="#76121f"
         d="m 445.5,626.5 c -3.016,0.341 -5.682,1.507 -8,3.5 1.256,0.417 1.923,1.25 2,2.5 -1.333,0 -2.667,0 -4,0 0,-0.667 0,-1.333 0,-2 0,-0.667 0,-1.333 0,-2 0.992,0.172 1.658,-0.162 2,-1 2.174,-0.25 3.841,-1.25 5,-3 2.531,-2.879 3.531,-2.212 3,2 z"
         id="path3286" /></g><g
       id="g3292"><path
         style="opacity:0.027"
         fill="#184353"
         d="m 445.5,626.5 c 0.951,1.419 1.284,3.085 1,5 -1.915,-0.284 -3.581,0.049 -5,1 -0.667,0 -1.333,0 -2,0 -0.077,-1.25 -0.744,-2.083 -2,-2.5 2.318,-1.993 4.984,-3.159 8,-3.5 z"
         id="path3290" /></g><g
       id="g3296"><path
         style="opacity:0.271"
         fill="#494554"
         d="m 253.5,629.5 c 2.687,-0.164 5.354,0.003 8,0.5 0.916,0.278 1.582,0.778 2,1.5 -3.54,-0.253 -6.873,-0.919 -10,-2 z"
         id="path3294" /></g><g
       id="g3300"><path
         style="opacity:0.039"
         fill="#1ab200"
         d="m 428.5,629.5 c 1.333,0.667 1.333,0.667 0,0 z"
         id="path3298" /></g><g
       id="g3304"><path
         style="opacity:0.043"
         fill="#392b3d"
         d="m 421.5,629.5 c 3.134,1.401 6.134,3.068 9,5 0,0.333 0,0.667 0,1 0.475,2.582 -0.192,4.582 -2,6 0.162,-2.027 -0.005,-4.027 -0.5,-6 -2.335,-1.9 -4.502,-3.9 -6.5,-6 z"
         id="path3302" /></g><g
       id="g3308"><path
         style="opacity:0.196"
         fill="#301e41"
         d="m 267.5,632.5 c 2.398,-0.241 4.398,0.426 6,2 -2.286,-0.095 -4.286,-0.762 -6,-2 z"
         id="path3306" /></g><g
       id="g3312"><path
         style="opacity:0.027"
         fill="#0e8d00"
         d="m 435.5,632.5 c 1.333,0 2.667,0 4,0 0.667,1.333 1.333,1.333 2,0 1.419,-0.951 3.085,-1.284 5,-1 0.353,2.135 -0.48,3.468 -2.5,4 -4.497,-1.223 -8.997,-1.223 -13.5,0 0,-0.333 0,-0.667 0,-1 1.29,-0.558 2.123,-1.558 2.5,-3 0.671,0.752 1.504,1.086 2.5,1 z"
         id="path3310" /></g><g
       id="g3316"><path
         style="opacity:0.173"
         fill="#44294e"
         d="m 286.5,637.5 c 5.886,0.89 11.553,2.223 17,4 -6.1,0.057 -11.766,-1.276 -17,-4 z"
         id="path3314" /></g><g
       id="g3320"><path
         style="opacity:0.012"
         fill="#572a4a"
         d="m 303.5,641.5 c 10.607,1.255 20.94,3.255 31,6 -10.65,-0.997 -20.984,-2.997 -31,-6 z"
         id="path3318" /></g><g
       id="g3324"><path
         style="opacity:0.00400002"
         fill="#1d6500"
         d="m 429.5,644.5 c 1.333,0.667 1.333,0.667 0,0 z"
         id="path3322" /></g><g
       id="g3328"><path
         style="opacity:0.00799997"
         fill="#008f00"
         d="m 429.5,648.5 c 1.333,0.667 1.333,0.667 0,0 z"
         id="path3326" /></g><g
       id="g3332"><path
         style="opacity:0.314"
         fill="#403f54"
         d="m 349.5,650.5 c 4.412,-1.242 8.746,-0.909 13,1 -4.342,-0.239 -8.676,-0.573 -13,-1 z"
         id="path3330" /></g><g
       id="g3336"><path
         style="opacity:0.031"
         fill="#581738"
         d="m 365.5,652.5 c 0.597,-0.639 1.43,-0.972 2.5,-1 5.471,0.955 10.971,1.621 16.5,2 0,0.333 0,0.667 0,1 -2.667,0 -5.333,0 -8,0 -3.721,-0.411 -7.388,-1.078 -11,-2 z"
         id="path3334" /></g><g
       id="g3340"><path
         style="opacity:0.289"
         fill="#436752"
         d="m 384.5,654.5 c 0,-0.333 0,-0.667 0,-1 8,0 16,0 24,0 -5.566,0.707 -11.232,1.374 -17,2 -2.403,0.052 -4.736,-0.281 -7,-1 z"
         id="path3338" /></g><g
       id="g3344"><path
         style="opacity:0.018"
         fill="#337d04"
         d="m 376.5,654.5 c 2.667,0 5.333,0 8,0 2.264,0.719 4.597,1.052 7,1 0,0.667 0,1.333 0,2 -1.419,0.951 -3.085,1.284 -5,1 -3.489,-1.158 -6.822,-2.491 -10,-4 z"
         id="path3342" /></g><g
       id="g3348"><path
         style="opacity:0.024"
         fill="#762314"
         d="m 391.5,657.5 c 3.581,0.76 7.248,1.26 11,1.5 -4.791,1.052 -9.291,1.885 -13.5,2.5 -1.045,-0.873 -1.878,-1.873 -2.5,-3 1.915,0.284 3.581,-0.049 5,-1 z"
         id="path3346" /></g><g
       id="g3352"><path
         style="opacity:0.00400002"
         fill="#008d00"
         d="m 409.5,660.5 c 1.333,0.667 1.333,0.667 0,0 z"
         id="path3350" /></g><g
       id="g3356"><path
         style="opacity:0.024"
         fill="#008700"
         d="m 422.5,666.5 c 1.476,-1.73 1.142,-3.063 -1,-4 -1.484,0.967 -2.484,2.3 -3,4 -1.188,0.548 -2.355,0.881 -3.5,1 -0.278,-0.916 -0.778,-1.582 -1.5,-2 -0.342,-0.838 -1.008,-1.172 -2,-1 4.5,-4.908 10.167,-7.908 17,-9 1.333,3.667 1.333,7.333 0,11 -0.667,-0.667 -1.333,-1.333 -2,-2 -1.024,1.353 -2.357,2.02 -4,2 z"
         id="path3354" /></g><g
       id="g3360"><path
         style="opacity:0.00400002"
         fill="#00a200"
         d="m 407.5,661.5 c 1.333,0.667 1.333,0.667 0,0 z"
         id="path3358" /></g><g
       id="g3364"><path
         style="opacity:0.047"
         fill="#009e00"
         d="m 399.5,663.5 c 1.101,-1.098 2.434,-1.265 4,-0.5 -1.293,0.49 -2.627,0.657 -4,0.5 z"
         id="path3362" /></g><g
       id="g3368"><path
         style="opacity:0.014"
         fill="#006552"
         d="m 422.5,666.5 c -1.333,1.333 -2.667,1.333 -4,0 0.516,-1.7 1.516,-3.033 3,-4 2.142,0.937 2.476,2.27 1,4 z"
         id="path3366" /></g><g
       id="g3372"><path
         style="opacity:0.014"
         fill="#00ae00"
         d="m 395.5,664.5 c 0.397,-1.025 1.063,-1.192 2,-0.5 -0.594,0.464 -1.261,0.631 -2,0.5 z"
         id="path3370" /></g><g
       id="g3376"><path
         style="opacity:0.00400002"
         fill="#002b53"
         d="m 390.5,664.5 c 1.333,0.667 1.333,0.667 0,0 z"
         id="path3374" /></g><g
       id="g3380"><path
         style="opacity:0.033"
         fill="#790e0a"
         d="m 411.5,664.5 c 0.992,-0.172 1.658,0.162 2,1 -1.194,1.277 -2.86,1.944 -5,2 -1.667,-0.167 -3.333,-0.333 -5,-0.5 2.654,-0.941 5.321,-1.774 8,-2.5 z"
         id="path3378" /></g></g></svg>
