<?xml version="1.0" encoding="UTF-8"?>
<!DOCTYPE svg PUBLIC "-//W3C//DTD SVG 1.1//EN" "http://www.w3.org/Graphics/SVG/1.1/DTD/svg11.dtd">
<svg xmlns="http://www.w3.org/2000/svg" version="1.1" width="774px" height="705px" style="shape-rendering:geometricPrecision; text-rendering:geometricPrecision; image-rendering:optimizeQuality; fill-rule:evenodd; clip-rule:evenodd" xmlns:xlink="http://www.w3.org/1999/xlink">
<g><path style="opacity:1" fill="#78b152" d="M 455.5,125.5 C 458.115,126.291 460.782,126.957 463.5,127.5C 478.673,133.281 494.006,138.781 509.5,144C 513.194,146.178 516.861,148.345 520.5,150.5C 532.428,158.763 543.761,167.763 554.5,177.5C 559.436,182.938 564.603,188.271 570,193.5C 577.605,205.399 586.605,216.066 597,225.5C 601.315,236.135 606.649,246.135 613,255.5C 613.822,257.788 614.489,260.122 615,262.5C 619.533,269.852 623.367,277.519 626.5,285.5C 628.656,291.973 630.989,298.307 633.5,304.5C 633.838,306.854 634.338,309.187 635,311.5C 635.717,310.956 636.217,310.289 636.5,309.5C 637.451,310.919 637.784,312.585 637.5,314.5C 636.637,313.537 635.97,313.537 635.5,314.5C 635.994,316.026 636.661,317.359 637.5,318.5C 639.362,328.078 639.862,337.744 639,347.5C 633.274,369.312 629.107,391.645 626.5,414.5C 622.667,427.5 618.833,440.5 615,453.5C 609.522,465.609 603.855,477.609 598,489.5C 582.566,516.275 563.399,540.108 540.5,561C 539.552,561.483 538.552,561.649 537.5,561.5C 538.199,557.904 539.199,554.404 540.5,551C 540.16,544.592 540.827,538.092 542.5,531.5C 543.158,530.207 543.492,528.707 543.5,527C 543.695,524.648 543.028,522.648 541.5,521C 540.004,520.493 538.837,520.993 538,522.5C 537.506,524.134 537.34,525.801 537.5,527.5C 537.217,538.463 535.384,549.463 532,560.5C 530.902,568.464 530.402,576.464 530.5,584.5C 529.137,588.632 528.137,592.965 527.5,597.5C 527.592,602.668 525.092,605.002 520,604.5C 515.191,605.034 511.857,603.034 510,598.5C 509.64,596.392 508.973,594.392 508,592.5C 505.852,575.169 503.852,557.836 502,540.5C 501,539.167 500,539.167 499,540.5C 498.969,548.807 498.136,556.974 496.5,565C 497.305,569.749 497.805,574.582 498,579.5C 498.606,582.43 499.44,585.263 500.5,588C 497.01,590.911 493.344,593.578 489.5,596C 487.846,596.608 486.179,597.108 484.5,597.5C 484.376,592.951 483.709,588.618 482.5,584.5C 481.548,574.403 480.048,564.403 478,554.5C 477.292,553.619 476.458,552.953 475.5,552.5C 473.668,551.282 472.668,551.949 472.5,554.5C 474.173,563.73 475.84,573.23 477.5,583C 476.941,583.725 476.608,584.558 476.5,585.5C 477.483,593.144 478.316,600.81 479,608.5C 481.259,613.561 482.092,618.895 481.5,624.5C 481.443,625.609 481.11,626.609 480.5,627.5C 476.669,632.489 472.335,632.822 467.5,628.5C 465.189,625.337 463.022,622.003 461,618.5C 460.536,619.094 460.369,619.761 460.5,620.5C 460.167,620.5 459.833,620.5 459.5,620.5C 458.785,614.409 456.452,609.076 452.5,604.5C 450.412,602.664 449.079,600.331 448.5,597.5C 448.25,595.326 447.25,593.659 445.5,592.5C 442.565,584.799 439.232,577.299 435.5,570C 434.551,569.383 433.718,569.549 433,570.5C 432.333,573.5 432.333,576.5 433,579.5C 436.231,584.841 438.898,590.508 441,596.5C 445.091,601.695 448.924,607.028 452.5,612.5C 451.24,613.382 450.074,614.382 449,615.5C 448.667,615.167 448.333,614.833 448,614.5C 441.307,616.729 434.474,618.562 427.5,620C 424.316,620.754 421.649,622.254 419.5,624.5C 417.664,621.363 414.997,618.863 411.5,617C 379.545,605.348 347.212,594.682 314.5,585C 309.208,583.372 305.542,580.038 303.5,575C 306.884,568.287 311.05,562.12 316,556.5C 329.809,531.763 335.809,505.43 334,477.5C 330.915,461.465 325.248,446.465 317,432.5C 313.5,429 310,425.5 306.5,422C 278.068,408.309 248.735,404.309 218.5,410C 214.22,411.967 210.22,414.3 206.5,417C 202.47,420.123 202.803,422.623 207.5,424.5C 212.052,423.717 215.719,421.55 218.5,418C 232.99,414.093 247.656,413.426 262.5,416C 269.595,416.857 276.595,418.191 283.5,420C 291.391,422.612 298.724,426.279 305.5,431C 315.06,440.974 321.226,452.807 324,466.5C 329.675,492.829 326.675,518.163 315,542.5C 309.333,551.833 303.667,561.167 298,570.5C 297.855,574.339 297.855,578.339 298,582.5C 301.573,585.748 305.407,588.581 309.5,591C 334.034,597.938 358.367,605.605 382.5,614C 395.544,619.105 408.544,624.272 421.5,629.5C 423.498,631.6 425.665,633.6 428,635.5C 428.495,637.473 428.662,639.473 428.5,641.5C 424.259,649.375 417.593,653.375 408.5,653.5C 400.5,653.5 392.5,653.5 384.5,653.5C 378.971,653.121 373.471,652.455 368,651.5C 366.93,651.528 366.097,651.861 365.5,652.5C 364.391,652.443 363.391,652.11 362.5,651.5C 358.246,649.591 353.912,649.258 349.5,650.5C 344.593,649.181 339.593,648.181 334.5,647.5C 324.44,644.755 314.107,642.755 303.5,641.5C 298.053,639.723 292.386,638.39 286.5,637.5C 282.263,636.119 277.93,635.119 273.5,634.5C 271.898,632.926 269.898,632.259 267.5,632.5C 265.901,632.768 264.568,632.434 263.5,631.5C 263.082,630.778 262.416,630.278 261.5,630C 258.854,629.503 256.187,629.336 253.5,629.5C 248.453,629.078 243.453,628.411 238.5,627.5C 233.387,625.805 228.053,624.471 222.5,623.5C 221.584,623.543 220.917,623.876 220.5,624.5C 219.508,624.672 218.842,624.338 218.5,623.5C 207.166,619.614 195.166,615.614 182.5,611.5C 179.686,609.93 176.686,608.597 173.5,607.5C 172.508,607.672 171.842,607.338 171.5,606.5C 170.972,605.279 170.305,604.113 169.5,603C 166.796,601.644 164.129,601.144 161.5,601.5C 155.158,598.332 149.158,594.665 143.5,590.5C 141.109,589.018 138.776,587.351 136.5,585.5C 133.54,582.355 130.207,579.688 126.5,577.5C 123.452,573.785 120.119,570.452 116.5,567.5C 114.57,563.9 111.903,560.9 108.5,558.5C 103.751,550.698 98.2507,543.365 92,536.5C 89.6953,529.887 86.3619,523.887 82,518.5C 78.8487,508.543 75.0154,498.876 70.5,489.5C 71.7574,488.377 71.4241,487.711 69.5,487.5C 69.5,487.167 69.5,486.833 69.5,486.5C 70.0431,486.44 70.3764,486.107 70.5,485.5C 69.7908,482.616 68.7908,479.949 67.5,477.5C 67.0074,475.194 66.6741,472.861 66.5,470.5C 66.0392,464.836 64.7059,459.503 62.5,454.5C 62.3623,447.637 61.6956,440.97 60.5,434.5C 59.4039,418.839 59.4039,403.172 60.5,387.5C 61.2679,386.737 61.7679,385.737 62,384.5C 62.4983,381.183 62.665,377.85 62.5,374.5C 64.2947,359.321 67.9614,344.654 73.5,330.5C 75.8742,325.723 77.8742,320.723 79.5,315.5C 81.7795,311.276 83.7795,306.942 85.5,302.5C 87.664,300.178 89.3307,297.511 90.5,294.5C 94.1206,289.913 96.7873,284.913 98.5,279.5C 98.81,280.738 99.31,280.738 100,279.5C 101.421,277.595 102.588,275.595 103.5,273.5C 104.833,272.067 106.333,270.733 108,269.5C 110.833,263.83 114.166,258.497 118,253.5C 126.794,244.045 136.294,235.211 146.5,227C 157.491,213.953 170.158,202.953 184.5,194C 188.076,189.918 192.076,186.418 196.5,183.5C 199.37,182.567 201.704,180.9 203.5,178.5C 203.842,177.662 204.508,177.328 205.5,177.5C 210.68,174.412 215.68,171.078 220.5,167.5C 230.637,162.058 240.97,156.891 251.5,152C 257.794,147.338 264.794,144.005 272.5,142C 276.5,139.667 280.5,137.333 284.5,135C 299.863,129.324 315.529,124.657 331.5,121C 348.922,118.549 366.422,116.716 384,115.5C 393.687,115.835 403.187,117.335 412.5,120C 427.087,120.124 441.42,121.958 455.5,125.5 Z M 537.5,204.5 C 545.799,209.585 547.466,216.418 542.5,225C 527.609,228.108 522.609,222.441 527.5,208C 530.85,206.514 534.184,205.347 537.5,204.5 Z M 365.5,238.5 C 372.647,240.148 376.314,244.648 376.5,252C 375.514,255.955 373.514,259.289 370.5,262C 361.209,263.45 356.209,259.45 355.5,250C 355.494,247.7 355.994,245.534 357,243.5C 359.682,241.415 362.516,239.748 365.5,238.5 Z M 514.5,248.5 C 519.068,248.083 520.568,250.083 519,254.5C 492.376,285.248 459.376,294.581 420,282.5C 418.835,279.186 420.002,277.186 423.5,276.5C 459.565,286.886 489.898,277.553 514.5,248.5 Z"/></g>
<g><path style="opacity:0.075" fill="#6b3b1f" d="M 463.5,127.5 C 460.782,126.957 458.115,126.291 455.5,125.5C 456.261,124.609 457.261,123.942 458.5,123.5C 460.419,124.612 462.086,125.946 463.5,127.5 Z"/></g>
<g><path style="opacity:0.039" fill="#4f3942" d="M 520.5,150.5 C 525.77,152.803 530.77,155.636 535.5,159C 540.211,163.38 545.211,167.38 550.5,171C 552.232,172.972 553.565,175.139 554.5,177.5C 543.761,167.763 532.428,158.763 520.5,150.5 Z"/></g>
<g><path style="opacity:0.125" fill="#503f48" d="M 220.5,167.5 C 215.68,171.078 210.68,174.412 205.5,177.5C 209.286,172.434 214.286,169.1 220.5,167.5 Z"/></g>
<g><path style="opacity:0.102" fill="#3f2e4a" d="M 203.5,178.5 C 201.704,180.9 199.37,182.567 196.5,183.5C 198.296,181.1 200.63,179.433 203.5,178.5 Z"/></g>
<g><path style="opacity:0.004" fill="#006552" d="M 125.5,217.5 C 126.833,218.167 126.833,218.167 125.5,217.5 Z"/></g>
<g><path style="opacity:0.004" fill="#006500" d="M 109.5,233.5 C 110.833,234.167 110.833,234.167 109.5,233.5 Z"/></g>
<g><path style="opacity:0.059" fill="#333048" d="M 103.5,273.5 C 102.588,275.595 101.421,277.595 100,279.5C 99.31,280.738 98.81,280.738 98.5,279.5C 98.3678,275.968 100.034,273.968 103.5,273.5 Z"/></g>
<g><path style="opacity:0.09" fill="#3f3c36" d="M 90.5,294.5 C 89.3307,297.511 87.664,300.178 85.5,302.5C 85.1466,298.541 86.8132,295.874 90.5,294.5 Z"/></g>
<g><path style="opacity:0.02" fill="#218902" d="M 631.5,293.5 C 634.697,296.733 636.364,300.733 636.5,305.5C 635.662,305.158 635.328,304.492 635.5,303.5C 633.609,300.386 632.276,297.052 631.5,293.5 Z"/></g>
<g><path style="opacity:0.082" fill="#493336" d="M 626.5,285.5 C 628.993,287.658 630.66,290.324 631.5,293.5C 632.276,297.052 633.609,300.386 635.5,303.5C 634.833,303.833 634.167,304.167 633.5,304.5C 630.989,298.307 628.656,291.973 626.5,285.5 Z"/></g>
<g><path style="opacity:0.122" fill="#281953" d="M 635.5,303.5 C 635.328,304.492 635.662,305.158 636.5,305.5C 636.5,306.833 636.5,308.167 636.5,309.5C 636.217,310.289 635.717,310.956 635,311.5C 634.338,309.187 633.838,306.854 633.5,304.5C 634.167,304.167 634.833,303.833 635.5,303.5 Z"/></g>
<g><path style="opacity:0.055" fill="#331153" d="M 637.5,314.5 C 637.5,315.833 637.5,317.167 637.5,318.5C 636.661,317.359 635.994,316.026 635.5,314.5C 635.97,313.537 636.637,313.537 637.5,314.5 Z"/></g>
<g><path style="opacity:0.024" fill="#206901" d="M 76.5,318.5 C 76.5086,320.308 76.0086,321.975 75,323.5C 74.31,322.262 73.81,322.262 73.5,323.5C 72.9131,321.315 73.9131,319.648 76.5,318.5 Z"/></g>
<g><path style="opacity:0.071" fill="#511f46" d="M 79.5,315.5 C 77.8742,320.723 75.8742,325.723 73.5,330.5C 73.5,328.167 73.5,325.833 73.5,323.5C 73.81,322.262 74.31,322.262 75,323.5C 76.0086,321.975 76.5086,320.308 76.5,318.5C 77.1667,317.167 78.1667,316.167 79.5,315.5 Z"/></g>
<g><path style="opacity:0.02" fill="#0a0017" d="M 637.5,366.5 C 638.573,367.251 638.74,368.251 638,369.5C 637.517,368.552 637.351,367.552 637.5,366.5 Z"/></g>
<g><path style="opacity:0.008" fill="#114545" d="M 636.5,370.5 C 637.782,371.708 637.782,373.042 636.5,374.5C 636.094,373.443 636.094,372.109 636.5,370.5 Z"/></g>
<g><path style="opacity:0.386" fill="#545955" d="M 62.5,374.5 C 62.665,377.85 62.4983,381.183 62,384.5C 61.7679,385.737 61.2679,386.737 60.5,387.5C 60.7704,382.972 61.4371,378.639 62.5,374.5 Z"/></g>
<g><path style="opacity:0.098" fill="#653731" d="M 675.5,384.5 C 676.09,389.64 675.09,394.307 672.5,398.5C 673.01,393.609 674.01,388.942 675.5,384.5 Z"/></g>
<g><path style="opacity:0.106" fill="#483e49" d="M 671.5,402.5 C 671.015,408.938 669.349,414.938 666.5,420.5C 665.957,420.44 665.624,420.107 665.5,419.5C 667.365,413.658 669.365,407.991 671.5,402.5 Z"/></g>
<g><path style="opacity:0.059" fill="#3b2848" d="M 662.5,429.5 C 660.973,435.564 659.14,441.564 657,447.5C 655.694,450.621 653.86,453.287 651.5,455.5C 654.787,446.628 658.454,437.961 662.5,429.5 Z"/></g>
<g><path style="opacity:0.031" fill="#2d224e" d="M 60.5,434.5 C 61.6956,440.97 62.3623,447.637 62.5,454.5C 62.1667,454.5 61.8333,454.5 61.5,454.5C 60.7243,447.863 60.391,441.196 60.5,434.5 Z"/></g>
<g><path style="opacity:0.067" fill="#2d2538" d="M 650.5,457.5 C 650.065,460.157 649.065,462.491 647.5,464.5C 647.552,461.654 648.552,459.32 650.5,457.5 Z"/></g>
<g><path style="opacity:0.008" fill="#4c2935" d="M 647.5,464.5 C 647.25,466.674 646.25,468.341 644.5,469.5C 644.273,467.067 645.273,465.401 647.5,464.5 Z"/></g>
<g><path style="opacity:0.341" fill="#4b6649" d="M 61.5,454.5 C 61.8333,454.5 62.1667,454.5 62.5,454.5C 64.7059,459.503 66.0392,464.836 66.5,470.5C 63.9239,465.552 62.2573,460.219 61.5,454.5 Z"/></g>
<g><path style="opacity:0.141" fill="#411b52" d="M 643.5,471.5 C 643.308,475.102 641.974,478.102 639.5,480.5C 640.452,477.303 641.785,474.303 643.5,471.5 Z"/></g>
<g><path style="opacity:0.073" fill="#3c2653" d="M 67.5,477.5 C 68.7908,479.949 69.7908,482.616 70.5,485.5C 70.3764,486.107 70.0431,486.44 69.5,486.5C 68.8826,486.389 68.3826,486.056 68,485.5C 67.5026,482.854 67.3359,480.187 67.5,477.5 Z"/></g>
<g><path style="opacity:0.184" fill="#472743" d="M 69.5,487.5 C 71.4241,487.711 71.7574,488.377 70.5,489.5C 69.6618,489.158 69.3284,488.492 69.5,487.5 Z"/></g>
<g><path style="opacity:0.999" fill="#76b050" d="M 675.5,384.5 C 674.01,388.942 673.01,393.609 672.5,398.5C 672.567,399.959 672.234,401.292 671.5,402.5C 669.365,407.991 667.365,413.658 665.5,419.5C 665.624,420.107 665.957,420.44 666.5,420.5C 665.013,423.473 663.68,426.473 662.5,429.5C 658.454,437.961 654.787,446.628 651.5,455.5C 651.672,456.492 651.338,457.158 650.5,457.5C 648.552,459.32 647.552,461.654 647.5,464.5C 645.273,465.401 644.273,467.067 644.5,469.5C 644.672,470.492 644.338,471.158 643.5,471.5C 641.785,474.303 640.452,477.303 639.5,480.5C 636.929,485.305 634.096,489.972 631,494.5C 628.474,498.914 626.641,503.58 625.5,508.5C 623.393,511.057 622.059,514.057 621.5,517.5C 619.779,521.529 618.112,525.529 616.5,529.5C 614.288,532.321 613.288,535.655 613.5,539.5C 615.216,539.629 616.883,539.962 618.5,540.5C 621.138,542.824 624.138,544.657 627.5,546C 636.264,547.964 643.764,552.13 650,558.5C 651.511,562.18 651.677,565.846 650.5,569.5C 648.973,569.427 647.973,570.094 647.5,571.5C 644.482,571.704 641.482,572.037 638.5,572.5C 631.417,572.553 624.417,571.886 617.5,570.5C 612.258,569.071 606.925,568.071 601.5,567.5C 591.08,564.565 580.413,562.232 569.5,560.5C 567.847,560.34 566.514,559.674 565.5,558.5C 562.912,556.375 559.912,555.042 556.5,554.5C 555.833,554.5 555.167,554.5 554.5,554.5C 559.829,549.067 565.329,543.734 571,538.5C 581.655,523.201 592.322,507.867 603,492.5C 605.319,486.891 607.486,481.224 609.5,475.5C 612.114,472.834 614.28,469.834 616,466.5C 617.541,461.088 619.874,456.088 623,451.5C 628.357,431.382 632.69,411.049 636,390.5C 639.943,377.45 642.61,364.117 644,350.5C 646.056,346.732 647.222,342.732 647.5,338.5C 654.81,335.614 661.977,335.947 669,339.5C 674.517,353.965 676.684,368.965 675.5,384.5 Z"/></g>
<g><path style="opacity:0.012" fill="#4d4f50" d="M 625.5,508.5 C 625.076,511.918 623.742,514.918 621.5,517.5C 622.059,514.057 623.393,511.057 625.5,508.5 Z"/></g>
<g><path style="opacity:0.204" fill="#453145" d="M 542.5,531.5 C 542.777,528.552 542.444,525.719 541.5,523C 540.668,522.312 540.002,522.479 539.5,523.5C 539.006,525.026 538.339,526.359 537.5,527.5C 537.34,525.801 537.506,524.134 538,522.5C 538.837,520.993 540.004,520.493 541.5,521C 543.028,522.648 543.695,524.648 543.5,527C 543.492,528.707 543.158,530.207 542.5,531.5 Z"/></g>
<g><path style="opacity:0.063" fill="#029e0d" d="M 616.5,533.5 C 616.629,535.216 616.962,536.883 617.5,538.5C 613.857,537.539 613.524,535.872 616.5,533.5 Z"/></g>
<g><path style="opacity:0.086" fill="#2a3252" d="M 616.5,529.5 C 616.5,530.833 616.5,532.167 616.5,533.5C 613.524,535.872 613.857,537.539 617.5,538.5C 618.338,538.842 618.672,539.508 618.5,540.5C 616.883,539.962 615.216,539.629 613.5,539.5C 613.288,535.655 614.288,532.321 616.5,529.5 Z"/></g>
<g><path style="opacity:0.071" fill="#4a3954" d="M 475.5,552.5 C 474.5,553.167 473.5,553.833 472.5,554.5C 472.668,551.949 473.668,551.282 475.5,552.5 Z"/></g>
<g><path style="opacity:0.02" fill="#1a7a1f" d="M 554.5,554.5 C 554.842,555.338 555.508,555.672 556.5,555.5C 557.5,555.833 558.167,556.5 558.5,557.5C 556.129,556.658 553.796,556.324 551.5,556.5C 552.005,555.081 553.005,554.415 554.5,554.5 Z"/></g>
<g><path style="opacity:0.125" fill="#414147" d="M 556.5,555.5 C 556.5,555.167 556.5,554.833 556.5,554.5C 559.912,555.042 562.912,556.375 565.5,558.5C 563.194,558.007 560.861,557.674 558.5,557.5C 558.167,556.5 557.5,555.833 556.5,555.5 Z"/></g>
<g><path style="opacity:0.055" fill="#433a40" d="M 108.5,558.5 C 111.903,560.9 114.57,563.9 116.5,567.5C 112.825,565.344 110.158,562.344 108.5,558.5 Z"/></g>
<g><path style="opacity:0.057" fill="#44244e" d="M 569.5,560.5 C 580.413,562.232 591.08,564.565 601.5,567.5C 590.455,566.426 579.789,564.093 569.5,560.5 Z"/></g>
<g><path style="opacity:0.004" fill="#0d6b49" d="M 535.5,563.5 C 538.001,563.511 538.168,564.178 536,565.5C 535.536,564.906 535.369,564.239 535.5,563.5 Z"/></g>
<g><path style="opacity:0.004" fill="#009a00" d="M 541.5,565.5 C 542.525,565.897 542.692,566.563 542,567.5C 541.536,566.906 541.369,566.239 541.5,565.5 Z"/></g>
<g><path style="opacity:0.004" fill="#780000" d="M 544.5,569.5 C 545.833,570.167 545.833,570.167 544.5,569.5 Z"/></g>
<g><path style="opacity:0.012" fill="#411324" d="M 650.5,569.5 C 650.179,571.048 649.179,571.715 647.5,571.5C 647.973,570.094 648.973,569.427 650.5,569.5 Z"/></g>
<g><path style="opacity:0.054" fill="#37264b" d="M 617.5,570.5 C 624.417,571.886 631.417,572.553 638.5,572.5C 631.277,574.996 624.277,574.33 617.5,570.5 Z"/></g>
<g><path style="opacity:0.118" fill="#412e49" d="M 116.5,567.5 C 120.119,570.452 123.452,573.785 126.5,577.5C 121.522,575.856 118.189,572.522 116.5,567.5 Z"/></g>
<g><path style="opacity:0.004" fill="#006552" d="M 533.5,578.5 C 534.833,579.167 534.833,579.167 533.5,578.5 Z"/></g>
<g><path style="opacity:0.118" fill="#624935" d="M 126.5,577.5 C 130.207,579.688 133.54,582.355 136.5,585.5C 136.5,585.833 136.5,586.167 136.5,586.5C 132.564,584.234 129.231,581.234 126.5,577.5 Z"/></g>
<g><path style="opacity:0.035" fill="#322448" d="M 136.5,585.5 C 138.776,587.351 141.109,589.018 143.5,590.5C 139.778,591.32 137.445,589.987 136.5,586.5C 136.5,586.167 136.5,585.833 136.5,585.5 Z"/></g>
<g><path style="opacity:0.09" fill="#684b3d" d="M 530.5,584.5 C 532.174,589.473 531.174,593.806 527.5,597.5C 528.137,592.965 529.137,588.632 530.5,584.5 Z"/></g>
<g><path style="opacity:0.043" fill="#4d3351" d="M 482.5,584.5 C 483.709,588.618 484.376,592.951 484.5,597.5C 483.883,597.611 483.383,597.944 483,598.5C 482.501,593.845 482.334,589.179 482.5,584.5 Z"/></g>
<g><path style="opacity:0.047" fill="#633648" d="M 445.5,592.5 C 447.25,593.659 448.25,595.326 448.5,597.5C 446.75,596.341 445.75,594.674 445.5,592.5 Z"/></g>
<g><path style="opacity:0.024" fill="#38254d" d="M 501.5,599.5 C 499.833,599.5 498.167,599.5 496.5,599.5C 497.401,597.273 499.067,596.273 501.5,596.5C 501.5,597.5 501.5,598.5 501.5,599.5 Z"/></g>
<g><path style="opacity:0.013" fill="#006500" d="M 541.5,602.5 C 541.351,601.448 541.517,600.448 542,599.5C 542.74,600.749 542.573,601.749 541.5,602.5 Z"/></g>
<g><path style="opacity:0.039" fill="#059a0d" d="M 496.5,600.5 C 496.5,600.167 496.5,599.833 496.5,599.5C 498.167,599.5 499.833,599.5 501.5,599.5C 502.249,600.531 502.915,601.698 503.5,603C 501.288,603.789 499.288,603.622 497.5,602.5C 497.5,602.167 497.5,601.833 497.5,601.5C 497.5,600.833 497.167,600.5 496.5,600.5 Z"/></g>
<g><path style="opacity:0.024" fill="#4e4528" d="M 496.5,599.5 C 496.5,599.833 496.5,600.167 496.5,600.5C 497.167,600.5 497.5,600.833 497.5,601.5C 497.5,601.833 497.5,602.167 497.5,602.5C 495.658,604.034 494.325,603.7 493.5,601.5C 494.005,600.081 495.005,599.415 496.5,599.5 Z"/></g>
<g><path style="opacity:1" fill="#646d4e" d="M 161.5,601.5 C 164.129,601.144 166.796,601.644 169.5,603C 170.305,604.113 170.972,605.279 171.5,606.5C 167.817,605.325 164.484,603.659 161.5,601.5 Z"/></g>
<g><path style="opacity:0.004" fill="#006500" d="M 541.5,602.5 C 540.833,603.167 540.833,603.167 541.5,602.5 Z"/></g>
<g><path style="opacity:0.008" fill="#004353" d="M 488.5,603.5 C 489.833,604.167 489.833,604.167 488.5,603.5 Z"/></g>
<g><path style="opacity:0.02" fill="#008500" d="M 492.5,610.5 C 491.236,608.228 491.402,605.895 493,603.5C 493.556,605.885 493.39,608.218 492.5,610.5 Z"/></g>
<g><path style="opacity:0.004" fill="#230000" d="M 483.5,609.5 C 482.475,609.103 482.308,608.437 483,607.5C 483.464,608.094 483.631,608.761 483.5,609.5 Z"/></g>
<g><path style="opacity:0.004" fill="#40b240" d="M 483.5,609.5 C 484.167,609.5 484.5,609.833 484.5,610.5C 484.167,610.167 483.833,609.833 483.5,609.5 Z"/></g>
<g><path style="opacity:0.031" fill="#643527" d="M 173.5,607.5 C 176.686,608.597 179.686,609.93 182.5,611.5C 182.5,611.833 182.5,612.167 182.5,612.5C 178.497,612.51 175.497,610.843 173.5,607.5 Z"/></g>
<g><path style="opacity:0.008" fill="#6b232f" d="M 492.5,610.5 C 493.924,612.515 494.59,614.848 494.5,617.5C 493.5,617.5 492.5,617.5 491.5,617.5C 491.993,615.194 492.326,612.861 492.5,610.5 Z"/></g>
<g><path style="opacity:0.278" fill="#4c3d47" d="M 452.5,604.5 C 456.452,609.076 458.785,614.409 459.5,620.5C 459.5,620.833 459.5,621.167 459.5,621.5C 458.398,616.731 456.231,612.398 453,608.5C 452.51,607.207 452.343,605.873 452.5,604.5 Z"/></g>
<g><path style="opacity:0.008" fill="#0b7c50" d="M 484.5,610.5 C 485.613,611.946 485.78,613.613 485,615.5C 484.506,613.866 484.34,612.199 484.5,610.5 Z"/></g>
<g><path style="opacity:0.02" fill="#3f2049" d="M 182.5,612.5 C 182.5,612.167 182.5,611.833 182.5,611.5C 195.166,615.614 207.166,619.614 218.5,623.5C 210.543,623.065 202.877,621.565 195.5,619C 191.689,615.785 187.355,613.619 182.5,612.5 Z"/></g>
<g><path style="opacity:0.031" fill="#004b00" d="M 454.5,619.5 C 453.475,619.103 453.308,618.437 454,617.5C 454.464,618.094 454.631,618.761 454.5,619.5 Z"/></g>
<g><path style="opacity:0.014" fill="#40b200" d="M 454.5,619.5 C 455.833,620.167 455.833,620.833 454.5,621.5C 454.5,620.833 454.5,620.167 454.5,619.5 Z"/></g>
<g><path style="opacity:0.004" fill="#001200" d="M 454.5,621.5 C 453.833,622.167 453.833,622.167 454.5,621.5 Z"/></g>
<g><path style="opacity:0.004" fill="#5b284c" d="M 428.5,623.5 C 429.601,622.402 430.934,622.235 432.5,623C 431.122,624.334 429.789,624.501 428.5,623.5 Z"/></g>
<g><path style="opacity:0.008" fill="#26b200" d="M 425.5,623.5 C 426.833,624.167 426.833,624.167 425.5,623.5 Z"/></g>
<g><path style="opacity:0.173" fill="#60304a" d="M 220.5,624.5 C 220.917,623.876 221.584,623.543 222.5,623.5C 228.053,624.471 233.387,625.805 238.5,627.5C 232.422,626.931 226.422,625.931 220.5,624.5 Z"/></g>
<g><path style="opacity:0.004" fill="#3d6552" d="M 419.5,624.5 C 418.833,625.167 418.833,625.167 419.5,624.5 Z"/></g>
<g><path style="opacity:0.032" fill="#0c6a00" d="M 442.5,624.5 C 441.341,626.25 439.674,627.25 437.5,627.5C 436.325,627.719 435.325,627.386 434.5,626.5C 437.012,625.205 439.679,624.539 442.5,624.5 Z"/></g>
<g><path style="opacity:0.075" fill="#493d2b" d="M 467.5,628.5 C 464.188,626.843 461.521,624.51 459.5,621.5C 460.167,621.5 460.5,621.167 460.5,620.5C 460.369,619.761 460.536,619.094 461,618.5C 463.022,622.003 465.189,625.337 467.5,628.5 Z"/></g>
<g><path style="opacity:0.004" fill="#00a200" d="M 432.5,626.5 C 433.833,627.167 433.833,627.167 432.5,626.5 Z"/></g>
<g><path style="opacity:0.031" fill="#382544" d="M 481.5,624.5 C 484.048,626.013 483.715,627.013 480.5,627.5C 481.11,626.609 481.443,625.609 481.5,624.5 Z"/></g>
<g><path style="opacity:0.004" fill="#006552" d="M 435.5,628.5 C 435.5,629.167 435.5,629.833 435.5,630.5C 432.833,629.833 432.833,629.167 435.5,628.5 Z"/></g>
<g><path style="opacity:0.008" fill="#76121f" d="M 445.5,626.5 C 442.484,626.841 439.818,628.007 437.5,630C 438.756,630.417 439.423,631.25 439.5,632.5C 438.167,632.5 436.833,632.5 435.5,632.5C 435.5,631.833 435.5,631.167 435.5,630.5C 435.5,629.833 435.5,629.167 435.5,628.5C 436.492,628.672 437.158,628.338 437.5,627.5C 439.674,627.25 441.341,626.25 442.5,624.5C 445.031,621.621 446.031,622.288 445.5,626.5 Z"/></g>
<g><path style="opacity:0.027" fill="#184353" d="M 445.5,626.5 C 446.451,627.919 446.784,629.585 446.5,631.5C 444.585,631.216 442.919,631.549 441.5,632.5C 440.833,632.5 440.167,632.5 439.5,632.5C 439.423,631.25 438.756,630.417 437.5,630C 439.818,628.007 442.484,626.841 445.5,626.5 Z"/></g>
<g><path style="opacity:0.271" fill="#494554" d="M 253.5,629.5 C 256.187,629.336 258.854,629.503 261.5,630C 262.416,630.278 263.082,630.778 263.5,631.5C 259.96,631.247 256.627,630.581 253.5,629.5 Z"/></g>
<g><path style="opacity:0.039" fill="#1ab200" d="M 428.5,629.5 C 429.833,630.167 429.833,630.167 428.5,629.5 Z"/></g>
<g><path style="opacity:0.043" fill="#392b3d" d="M 421.5,629.5 C 424.634,630.901 427.634,632.568 430.5,634.5C 430.5,634.833 430.5,635.167 430.5,635.5C 430.975,638.082 430.308,640.082 428.5,641.5C 428.662,639.473 428.495,637.473 428,635.5C 425.665,633.6 423.498,631.6 421.5,629.5 Z"/></g>
<g><path style="opacity:0.196" fill="#301e41" d="M 267.5,632.5 C 269.898,632.259 271.898,632.926 273.5,634.5C 271.214,634.405 269.214,633.738 267.5,632.5 Z"/></g>
<g><path style="opacity:0.027" fill="#0e8d00" d="M 435.5,632.5 C 436.833,632.5 438.167,632.5 439.5,632.5C 440.167,633.833 440.833,633.833 441.5,632.5C 442.919,631.549 444.585,631.216 446.5,631.5C 446.853,633.635 446.02,634.968 444,635.5C 439.503,634.277 435.003,634.277 430.5,635.5C 430.5,635.167 430.5,634.833 430.5,634.5C 431.79,633.942 432.623,632.942 433,631.5C 433.671,632.252 434.504,632.586 435.5,632.5 Z"/></g>
<g><path style="opacity:0.173" fill="#44294e" d="M 286.5,637.5 C 292.386,638.39 298.053,639.723 303.5,641.5C 297.4,641.557 291.734,640.224 286.5,637.5 Z"/></g>
<g><path style="opacity:0.012" fill="#572a4a" d="M 303.5,641.5 C 314.107,642.755 324.44,644.755 334.5,647.5C 323.85,646.503 313.516,644.503 303.5,641.5 Z"/></g>
<g><path style="opacity:0.004" fill="#1d6500" d="M 429.5,644.5 C 430.833,645.167 430.833,645.167 429.5,644.5 Z"/></g>
<g><path style="opacity:0.008" fill="#008f00" d="M 429.5,648.5 C 430.833,649.167 430.833,649.167 429.5,648.5 Z"/></g>
<g><path style="opacity:0.314" fill="#403f54" d="M 349.5,650.5 C 353.912,649.258 358.246,649.591 362.5,651.5C 358.158,651.261 353.824,650.927 349.5,650.5 Z"/></g>
<g><path style="opacity:0.031" fill="#581738" d="M 365.5,652.5 C 366.097,651.861 366.93,651.528 368,651.5C 373.471,652.455 378.971,653.121 384.5,653.5C 384.5,653.833 384.5,654.167 384.5,654.5C 381.833,654.5 379.167,654.5 376.5,654.5C 372.779,654.089 369.112,653.422 365.5,652.5 Z"/></g>
<g><path style="opacity:0.289" fill="#436752" d="M 384.5,654.5 C 384.5,654.167 384.5,653.833 384.5,653.5C 392.5,653.5 400.5,653.5 408.5,653.5C 402.934,654.207 397.268,654.874 391.5,655.5C 389.097,655.552 386.764,655.219 384.5,654.5 Z"/></g>
<g><path style="opacity:0.018" fill="#337d04" d="M 376.5,654.5 C 379.167,654.5 381.833,654.5 384.5,654.5C 386.764,655.219 389.097,655.552 391.5,655.5C 391.5,656.167 391.5,656.833 391.5,657.5C 390.081,658.451 388.415,658.784 386.5,658.5C 383.011,657.342 379.678,656.009 376.5,654.5 Z"/></g>
<g><path style="opacity:0.024" fill="#762314" d="M 391.5,657.5 C 395.081,658.26 398.748,658.76 402.5,659C 397.709,660.052 393.209,660.885 389,661.5C 387.955,660.627 387.122,659.627 386.5,658.5C 388.415,658.784 390.081,658.451 391.5,657.5 Z"/></g>
<g><path style="opacity:0.004" fill="#008d00" d="M 409.5,660.5 C 410.833,661.167 410.833,661.167 409.5,660.5 Z"/></g>
<g><path style="opacity:0.024" fill="#008700" d="M 422.5,666.5 C 423.976,664.77 423.642,663.437 421.5,662.5C 420.016,663.467 419.016,664.8 418.5,666.5C 417.312,667.048 416.145,667.381 415,667.5C 414.722,666.584 414.222,665.918 413.5,665.5C 413.158,664.662 412.492,664.328 411.5,664.5C 416,659.592 421.667,656.592 428.5,655.5C 429.833,659.167 429.833,662.833 428.5,666.5C 427.833,665.833 427.167,665.167 426.5,664.5C 425.476,665.853 424.143,666.52 422.5,666.5 Z"/></g>
<g><path style="opacity:0.004" fill="#00a200" d="M 407.5,661.5 C 408.833,662.167 408.833,662.167 407.5,661.5 Z"/></g>
<g><path style="opacity:0.047" fill="#009e00" d="M 399.5,663.5 C 400.601,662.402 401.934,662.235 403.5,663C 402.207,663.49 400.873,663.657 399.5,663.5 Z"/></g>
<g><path style="opacity:0.014" fill="#006552" d="M 422.5,666.5 C 421.167,667.833 419.833,667.833 418.5,666.5C 419.016,664.8 420.016,663.467 421.5,662.5C 423.642,663.437 423.976,664.77 422.5,666.5 Z"/></g>
<g><path style="opacity:0.014" fill="#00ae00" d="M 395.5,664.5 C 395.897,663.475 396.563,663.308 397.5,664C 396.906,664.464 396.239,664.631 395.5,664.5 Z"/></g>
<g><path style="opacity:0.004" fill="#002b53" d="M 390.5,664.5 C 391.833,665.167 391.833,665.167 390.5,664.5 Z"/></g>
<g><path style="opacity:0.033" fill="#790e0a" d="M 411.5,664.5 C 412.492,664.328 413.158,664.662 413.5,665.5C 412.306,666.777 410.64,667.444 408.5,667.5C 406.833,667.333 405.167,667.167 403.5,667C 406.154,666.059 408.821,665.226 411.5,664.5 Z"/></g>
</svg>
