<?xml version="1.0" encoding="UTF-8"?>
<!DOCTYPE svg PUBLIC "-//W3C//DTD SVG 1.1//EN" "http://www.w3.org/Graphics/SVG/1.1/DTD/svg11.dtd">
<svg xmlns="http://www.w3.org/2000/svg" version="1.1" width="2048px" height="924px" style="shape-rendering:geometricPrecision; text-rendering:geometricPrecision; image-rendering:optimizeQuality; fill-rule:evenodd; clip-rule:evenodd" xmlns:xlink="http://www.w3.org/1999/xlink">
<g><path style="opacity:1" fill="#78b152" d="M 470.5,197.5 C 473.115,198.291 475.782,198.957 478.5,199.5C 493.673,205.281 509.006,210.781 524.5,216C 528.194,218.178 531.861,220.345 535.5,222.5C 547.428,230.763 558.761,239.763 569.5,249.5C 574.436,254.938 579.603,260.271 585,265.5C 592.605,277.399 601.605,288.066 612,297.5C 616.315,308.135 621.649,318.135 628,327.5C 628.822,329.788 629.489,332.122 630,334.5C 634.533,341.852 638.367,349.519 641.5,357.5C 643.656,363.973 645.989,370.307 648.5,376.5C 648.838,378.854 649.338,381.187 650,383.5C 650.717,382.956 651.217,382.289 651.5,381.5C 652.451,382.919 652.784,384.585 652.5,386.5C 651.637,385.537 650.97,385.537 650.5,386.5C 650.994,388.026 651.661,389.359 652.5,390.5C 654.362,400.078 654.862,409.744 654,419.5C 648.274,441.312 644.107,463.645 641.5,486.5C 637.667,499.5 633.833,512.5 630,525.5C 624.522,537.609 618.855,549.609 613,561.5C 597.566,588.275 578.399,612.108 555.5,633C 554.552,633.483 553.552,633.649 552.5,633.5C 553.199,629.904 554.199,626.404 555.5,623C 555.16,616.592 555.827,610.092 557.5,603.5C 558.158,602.207 558.492,600.707 558.5,599C 558.695,596.648 558.028,594.648 556.5,593C 555.004,592.493 553.837,592.993 553,594.5C 552.506,596.134 552.34,597.801 552.5,599.5C 552.217,610.463 550.384,621.463 547,632.5C 545.902,640.464 545.402,648.464 545.5,656.5C 544.137,660.632 543.137,664.965 542.5,669.5C 542.592,674.668 540.092,677.002 535,676.5C 530.191,677.034 526.857,675.034 525,670.5C 524.64,668.392 523.973,666.392 523,664.5C 520.852,647.169 518.852,629.836 517,612.5C 516,611.167 515,611.167 514,612.5C 513.969,620.807 513.136,628.974 511.5,637C 512.305,641.749 512.805,646.582 513,651.5C 513.606,654.43 514.44,657.263 515.5,660C 512.01,662.911 508.344,665.578 504.5,668C 502.846,668.608 501.179,669.108 499.5,669.5C 499.376,664.951 498.709,660.618 497.5,656.5C 496.548,646.403 495.048,636.403 493,626.5C 492.292,625.619 491.458,624.953 490.5,624.5C 488.668,623.282 487.668,623.949 487.5,626.5C 489.173,635.73 490.84,645.23 492.5,655C 491.941,655.725 491.608,656.558 491.5,657.5C 492.483,665.144 493.316,672.81 494,680.5C 496.259,685.561 497.092,690.895 496.5,696.5C 496.443,697.609 496.11,698.609 495.5,699.5C 491.669,704.489 487.335,704.822 482.5,700.5C 480.189,697.337 478.022,694.003 476,690.5C 475.536,691.094 475.369,691.761 475.5,692.5C 475.167,692.5 474.833,692.5 474.5,692.5C 473.785,686.409 471.452,681.076 467.5,676.5C 465.412,674.664 464.079,672.331 463.5,669.5C 463.25,667.326 462.25,665.659 460.5,664.5C 457.565,656.799 454.232,649.299 450.5,642C 449.551,641.383 448.718,641.549 448,642.5C 447.333,645.5 447.333,648.5 448,651.5C 451.231,656.841 453.898,662.508 456,668.5C 460.091,673.695 463.924,679.028 467.5,684.5C 466.24,685.382 465.074,686.382 464,687.5C 463.667,687.167 463.333,686.833 463,686.5C 456.307,688.729 449.474,690.562 442.5,692C 439.316,692.754 436.649,694.254 434.5,696.5C 432.664,693.363 429.997,690.863 426.5,689C 394.545,677.348 362.212,666.682 329.5,657C 324.208,655.372 320.542,652.038 318.5,647C 321.884,640.287 326.05,634.12 331,628.5C 344.809,603.763 350.809,577.43 349,549.5C 345.915,533.465 340.248,518.465 332,504.5C 328.5,501 325,497.5 321.5,494C 293.068,480.309 263.735,476.309 233.5,482C 229.22,483.967 225.22,486.3 221.5,489C 217.47,492.123 217.803,494.623 222.5,496.5C 227.052,495.717 230.719,493.55 233.5,490C 247.99,486.093 262.656,485.426 277.5,488C 284.595,488.857 291.595,490.191 298.5,492C 306.391,494.612 313.724,498.279 320.5,503C 330.06,512.974 336.226,524.807 339,538.5C 344.675,564.829 341.675,590.163 330,614.5C 324.333,623.833 318.667,633.167 313,642.5C 312.855,646.339 312.855,650.339 313,654.5C 316.573,657.748 320.407,660.581 324.5,663C 349.034,669.938 373.367,677.605 397.5,686C 410.544,691.105 423.544,696.272 436.5,701.5C 438.498,703.6 440.665,705.6 443,707.5C 443.495,709.473 443.662,711.473 443.5,713.5C 439.259,721.375 432.593,725.375 423.5,725.5C 415.5,725.5 407.5,725.5 399.5,725.5C 393.971,725.121 388.471,724.455 383,723.5C 381.93,723.528 381.097,723.861 380.5,724.5C 379.391,724.443 378.391,724.11 377.5,723.5C 373.246,721.591 368.912,721.258 364.5,722.5C 359.593,721.181 354.593,720.181 349.5,719.5C 339.44,716.755 329.107,714.755 318.5,713.5C 313.053,711.723 307.386,710.39 301.5,709.5C 297.263,708.119 292.93,707.119 288.5,706.5C 286.898,704.926 284.898,704.259 282.5,704.5C 280.901,704.768 279.568,704.434 278.5,703.5C 278.082,702.778 277.416,702.278 276.5,702C 273.854,701.503 271.187,701.336 268.5,701.5C 263.453,701.078 258.453,700.411 253.5,699.5C 248.387,697.805 243.053,696.471 237.5,695.5C 236.584,695.543 235.917,695.876 235.5,696.5C 234.508,696.672 233.842,696.338 233.5,695.5C 222.166,691.614 210.166,687.614 197.5,683.5C 194.686,681.93 191.686,680.597 188.5,679.5C 187.508,679.672 186.842,679.338 186.5,678.5C 185.972,677.279 185.305,676.113 184.5,675C 181.796,673.644 179.129,673.144 176.5,673.5C 170.158,670.332 164.158,666.665 158.5,662.5C 156.109,661.018 153.776,659.351 151.5,657.5C 148.54,654.355 145.207,651.688 141.5,649.5C 138.452,645.785 135.119,642.452 131.5,639.5C 129.57,635.9 126.903,632.9 123.5,630.5C 118.751,622.698 113.251,615.365 107,608.5C 104.695,601.887 101.362,595.887 97,590.5C 93.8487,580.543 90.0154,570.876 85.5,561.5C 86.7574,560.377 86.4241,559.711 84.5,559.5C 84.5,559.167 84.5,558.833 84.5,558.5C 85.0431,558.44 85.3764,558.107 85.5,557.5C 84.7908,554.616 83.7908,551.949 82.5,549.5C 82.0074,547.194 81.6741,544.861 81.5,542.5C 81.0392,536.836 79.7059,531.503 77.5,526.5C 77.3623,519.637 76.6956,512.97 75.5,506.5C 74.4039,490.839 74.4039,475.172 75.5,459.5C 76.2679,458.737 76.7679,457.737 77,456.5C 77.4983,453.183 77.665,449.85 77.5,446.5C 79.2947,431.321 82.9614,416.654 88.5,402.5C 90.8742,397.723 92.8742,392.723 94.5,387.5C 96.7795,383.276 98.7795,378.942 100.5,374.5C 102.664,372.178 104.331,369.511 105.5,366.5C 109.121,361.913 111.787,356.913 113.5,351.5C 113.81,352.738 114.31,352.738 115,351.5C 116.421,349.595 117.588,347.595 118.5,345.5C 119.833,344.067 121.333,342.733 123,341.5C 125.833,335.83 129.166,330.497 133,325.5C 141.794,316.045 151.294,307.211 161.5,299C 172.491,285.953 185.158,274.953 199.5,266C 203.076,261.918 207.076,258.418 211.5,255.5C 214.37,254.567 216.704,252.9 218.5,250.5C 218.842,249.662 219.508,249.328 220.5,249.5C 225.68,246.412 230.68,243.078 235.5,239.5C 245.637,234.058 255.97,228.891 266.5,224C 272.794,219.338 279.794,216.005 287.5,214C 291.5,211.667 295.5,209.333 299.5,207C 314.863,201.324 330.529,196.657 346.5,193C 363.922,190.549 381.422,188.716 399,187.5C 408.687,187.835 418.187,189.335 427.5,192C 442.087,192.124 456.42,193.958 470.5,197.5 Z M 552.5,276.5 C 560.799,281.585 562.466,288.418 557.5,297C 542.609,300.108 537.609,294.441 542.5,280C 545.85,278.514 549.184,277.347 552.5,276.5 Z M 380.5,310.5 C 387.647,312.148 391.314,316.648 391.5,324C 390.514,327.955 388.514,331.289 385.5,334C 376.209,335.45 371.209,331.45 370.5,322C 370.494,319.7 370.994,317.534 372,315.5C 374.682,313.415 377.516,311.748 380.5,310.5 Z M 529.5,320.5 C 534.068,320.083 535.568,322.083 534,326.5C 507.376,357.248 474.376,366.581 435,354.5C 433.835,351.186 435.002,349.186 438.5,348.5C 474.565,358.886 504.898,349.553 529.5,320.5 Z"/></g>
<g><path style="opacity:0.075" fill="#6b3b1f" d="M 478.5,199.5 C 475.782,198.957 473.115,198.291 470.5,197.5C 471.261,196.609 472.261,195.942 473.5,195.5C 475.419,196.612 477.086,197.946 478.5,199.5 Z"/></g>
<g><path style="opacity:0.039" fill="#4f3942" d="M 535.5,222.5 C 540.77,224.803 545.77,227.636 550.5,231C 555.211,235.38 560.211,239.38 565.5,243C 567.232,244.972 568.565,247.139 569.5,249.5C 558.761,239.763 547.428,230.763 535.5,222.5 Z"/></g>
<g><path style="opacity:0.125" fill="#503f48" d="M 235.5,239.5 C 230.68,243.078 225.68,246.412 220.5,249.5C 224.286,244.434 229.286,241.1 235.5,239.5 Z"/></g>
<g><path style="opacity:0.102" fill="#3f2e4a" d="M 218.5,250.5 C 216.704,252.9 214.37,254.567 211.5,255.5C 213.296,253.1 215.63,251.433 218.5,250.5 Z"/></g>
<g><path style="opacity:0.004" fill="#006552" d="M 140.5,289.5 C 141.833,290.167 141.833,290.167 140.5,289.5 Z"/></g>
<g><path style="opacity:0.004" fill="#006500" d="M 124.5,305.5 C 125.833,306.167 125.833,306.167 124.5,305.5 Z"/></g>
<g><path style="opacity:0.059" fill="#333048" d="M 118.5,345.5 C 117.588,347.595 116.421,349.595 115,351.5C 114.31,352.738 113.81,352.738 113.5,351.5C 113.368,347.968 115.034,345.968 118.5,345.5 Z"/></g>
<g><path style="opacity:0.09" fill="#3f3c36" d="M 105.5,366.5 C 104.331,369.511 102.664,372.178 100.5,374.5C 100.147,370.541 101.813,367.874 105.5,366.5 Z"/></g>
<g><path style="opacity:0.02" fill="#218902" d="M 646.5,365.5 C 649.697,368.733 651.364,372.733 651.5,377.5C 650.662,377.158 650.328,376.492 650.5,375.5C 648.609,372.386 647.276,369.052 646.5,365.5 Z"/></g>
<g><path style="opacity:0.082" fill="#493336" d="M 641.5,357.5 C 643.993,359.658 645.66,362.324 646.5,365.5C 647.276,369.052 648.609,372.386 650.5,375.5C 649.833,375.833 649.167,376.167 648.5,376.5C 645.989,370.307 643.656,363.973 641.5,357.5 Z"/></g>
<g><path style="opacity:0.122" fill="#281953" d="M 650.5,375.5 C 650.328,376.492 650.662,377.158 651.5,377.5C 651.5,378.833 651.5,380.167 651.5,381.5C 651.217,382.289 650.717,382.956 650,383.5C 649.338,381.187 648.838,378.854 648.5,376.5C 649.167,376.167 649.833,375.833 650.5,375.5 Z"/></g>
<g><path style="opacity:0.055" fill="#331153" d="M 652.5,386.5 C 652.5,387.833 652.5,389.167 652.5,390.5C 651.661,389.359 650.994,388.026 650.5,386.5C 650.97,385.537 651.637,385.537 652.5,386.5 Z"/></g>
<g><path style="opacity:0.024" fill="#206901" d="M 91.5,390.5 C 91.5086,392.308 91.0086,393.975 90,395.5C 89.31,394.262 88.81,394.262 88.5,395.5C 87.9131,393.315 88.9131,391.648 91.5,390.5 Z"/></g>
<g><path style="opacity:0.071" fill="#511f46" d="M 94.5,387.5 C 92.8742,392.723 90.8742,397.723 88.5,402.5C 88.5,400.167 88.5,397.833 88.5,395.5C 88.81,394.262 89.31,394.262 90,395.5C 91.0086,393.975 91.5086,392.308 91.5,390.5C 92.1667,389.167 93.1667,388.167 94.5,387.5 Z"/></g>
<g><path style="opacity:0.965" fill="#000000" d="M 753.5,403.5 C 781.124,399.87 803.957,408.537 822,429.5C 825.141,433.613 827.641,438.113 829.5,443C 820.194,449.324 810.528,455.158 800.5,460.5C 796.801,454.291 792.135,448.791 786.5,444C 776.398,438.384 765.732,437.051 754.5,440C 745.066,443.699 741.566,450.532 744,460.5C 747.085,466.636 751.919,470.802 758.5,473C 771.092,477.531 783.759,481.864 796.5,486C 832.901,500.178 843.401,525.345 828,561.5C 818.803,574.528 806.303,582.695 790.5,586C 765.772,591.157 742.772,587.157 721.5,574C 711.342,566.333 704.009,556.499 699.5,544.5C 709.064,538.131 718.897,532.131 729,526.5C 733.109,532.509 737.609,538.342 742.5,544C 755.709,552.514 770.043,554.848 785.5,551C 795.955,547.535 800.122,540.368 798,529.5C 796.6,526.098 794.433,523.264 791.5,521C 778.01,514.614 764.01,509.614 749.5,506C 736.526,502.007 725.359,495.174 716,485.5C 707.889,473.027 705.222,459.36 708,444.5C 712.379,427.117 722.879,414.95 739.5,408C 744.254,406.358 748.921,404.858 753.5,403.5 Z"/></g>
<g><path style="opacity:0.97" fill="#000000" d="M 837.5,407.5 C 850.006,406.175 862.673,406.175 875.5,407.5C 886.665,450.161 897.832,492.828 909,535.5C 921,492.833 933,450.167 945,407.5C 955.418,406.513 965.918,406.18 976.5,406.5C 988.157,449.305 1000.32,491.972 1013,534.5C 1024,492.167 1035,449.833 1046,407.5C 1058.42,406.511 1070.92,406.178 1083.5,406.5C 1067.58,465.263 1051.25,523.93 1034.5,582.5C 1020.83,583.833 1007.17,583.833 993.5,582.5C 982.512,544.884 971.679,507.217 961,469.5C 949.657,507.362 938.824,545.362 928.5,583.5C 914.588,583.823 900.754,583.49 887,582.5C 870.761,523.967 854.261,465.634 837.5,407.5 Z"/></g>
<g><path style="opacity:0.976" fill="#000000" d="M 1139.5,406.5 C 1154.51,406.167 1169.51,406.501 1184.5,407.5C 1204.88,466.13 1225.54,524.63 1246.5,583C 1233.5,583.667 1220.5,583.667 1207.5,583C 1203.83,572.667 1200.17,562.333 1196.5,552C 1173.5,551.333 1150.5,551.333 1127.5,552C 1123.83,562.333 1120.17,572.667 1116.5,583C 1103.5,583.667 1090.5,583.667 1077.5,583C 1098.27,524.197 1118.93,465.364 1139.5,406.5 Z M 1161.5,448.5 C 1169.86,471.252 1177.86,494.252 1185.5,517.5C 1169.83,518.833 1154.17,518.833 1138.5,517.5C 1146.38,494.539 1154.04,471.539 1161.5,448.5 Z"/></g>
<g><path style="opacity:0.988" fill="#000000" d="M 1262.5,406.5 C 1274.84,406.333 1287.17,406.5 1299.5,407C 1315.87,434.25 1332.37,461.417 1349,488.5C 1365.5,461.333 1382,434.167 1398.5,407C 1410.83,406.5 1423.16,406.333 1435.5,406.5C 1435.5,465.5 1435.5,524.5 1435.5,583.5C 1423.83,583.5 1412.17,583.5 1400.5,583.5C 1400.67,545.832 1400.5,508.165 1400,470.5C 1383.96,497.416 1367.79,524.25 1351.5,551C 1347.83,552.271 1345.33,551.104 1344,547.5C 1328.41,521.999 1313.08,496.332 1298,470.5C 1297.5,508.165 1297.33,545.832 1297.5,583.5C 1285.83,583.5 1274.17,583.5 1262.5,583.5C 1262.5,524.5 1262.5,465.5 1262.5,406.5 Z"/></g>
<g><path style="opacity:0.988" fill="#000000" d="M 1468.5,406.5 C 1494.5,406.333 1520.5,406.5 1546.5,407C 1570.49,412.073 1586.32,426.24 1594,449.5C 1600.41,478.808 1591.25,501.641 1566.5,518C 1561.73,520.59 1556.73,522.59 1551.5,524C 1535.55,525.422 1519.55,525.922 1503.5,525.5C 1503.5,544.833 1503.5,564.167 1503.5,583.5C 1491.83,583.5 1480.17,583.5 1468.5,583.5C 1468.5,524.5 1468.5,465.5 1468.5,406.5 Z M 1503.5,439.5 C 1513.84,439.334 1524.17,439.5 1534.5,440C 1550.69,441.185 1559.02,449.851 1559.5,466C 1559.02,482.149 1550.69,490.815 1534.5,492C 1524.17,492.5 1513.84,492.666 1503.5,492.5C 1503.5,474.833 1503.5,457.167 1503.5,439.5 Z"/></g>
<g><path style="opacity:0.988" fill="#000000" d="M 1617.5,406.5 C 1643.5,406.333 1669.5,406.5 1695.5,407C 1719.49,412.073 1735.32,426.24 1743,449.5C 1749.41,478.808 1740.25,501.641 1715.5,518C 1710.73,520.59 1705.73,522.59 1700.5,524C 1684.55,525.422 1668.55,525.922 1652.5,525.5C 1652.5,544.833 1652.5,564.167 1652.5,583.5C 1640.83,583.5 1629.17,583.5 1617.5,583.5C 1617.5,524.5 1617.5,465.5 1617.5,406.5 Z M 1652.5,439.5 C 1662.84,439.334 1673.17,439.5 1683.5,440C 1699.69,441.185 1708.02,449.851 1708.5,466C 1708.02,482.149 1699.69,490.815 1683.5,492C 1673.17,492.5 1662.84,492.666 1652.5,492.5C 1652.5,474.833 1652.5,457.167 1652.5,439.5 Z"/></g>
<g><path style="opacity:0.975" fill="#000000" d="M 1745.5,407.5 C 1759.01,406.174 1772.67,406.174 1786.5,407.5C 1799,431.167 1811.5,454.833 1824,478.5C 1836.5,454.833 1849,431.167 1861.5,407.5C 1875.17,406.167 1888.83,406.167 1902.5,407.5C 1882.33,443.167 1862.17,478.833 1842,514.5C 1841.5,537.498 1841.33,560.498 1841.5,583.5C 1829.83,583.5 1818.17,583.5 1806.5,583.5C 1806.67,560.498 1806.5,537.498 1806,514.5C 1785.81,478.771 1765.64,443.104 1745.5,407.5 Z"/></g>
<g><path style="opacity:0.02" fill="#0a0017" d="M 652.5,438.5 C 653.573,439.251 653.74,440.251 653,441.5C 652.517,440.552 652.351,439.552 652.5,438.5 Z"/></g>
<g><path style="opacity:0.008" fill="#114545" d="M 651.5,442.5 C 652.782,443.708 652.782,445.042 651.5,446.5C 651.094,445.443 651.094,444.109 651.5,442.5 Z"/></g>
<g><path style="opacity:0.386" fill="#545955" d="M 77.5,446.5 C 77.665,449.85 77.4983,453.183 77,456.5C 76.7679,457.737 76.2679,458.737 75.5,459.5C 75.7704,454.972 76.4371,450.639 77.5,446.5 Z"/></g>
<g><path style="opacity:0.098" fill="#653731" d="M 690.5,456.5 C 691.09,461.64 690.09,466.307 687.5,470.5C 688.01,465.609 689.01,460.942 690.5,456.5 Z"/></g>
<g><path style="opacity:0.106" fill="#483e49" d="M 686.5,474.5 C 686.015,480.938 684.349,486.938 681.5,492.5C 680.957,492.44 680.624,492.107 680.5,491.5C 682.365,485.658 684.365,479.991 686.5,474.5 Z"/></g>
<g><path style="opacity:0.059" fill="#3b2848" d="M 677.5,501.5 C 675.973,507.564 674.14,513.564 672,519.5C 670.694,522.621 668.86,525.287 666.5,527.5C 669.787,518.628 673.454,509.961 677.5,501.5 Z"/></g>
<g><path style="opacity:0.031" fill="#2d224e" d="M 75.5,506.5 C 76.6956,512.97 77.3623,519.637 77.5,526.5C 77.1667,526.5 76.8333,526.5 76.5,526.5C 75.7243,519.863 75.391,513.196 75.5,506.5 Z"/></g>
<g><path style="opacity:0.067" fill="#2d2538" d="M 665.5,529.5 C 665.065,532.157 664.065,534.491 662.5,536.5C 662.552,533.654 663.552,531.32 665.5,529.5 Z"/></g>
<g><path style="opacity:0.008" fill="#4c2935" d="M 662.5,536.5 C 662.25,538.674 661.25,540.341 659.5,541.5C 659.273,539.067 660.273,537.401 662.5,536.5 Z"/></g>
<g><path style="opacity:0.341" fill="#4b6649" d="M 76.5,526.5 C 76.8333,526.5 77.1667,526.5 77.5,526.5C 79.7059,531.503 81.0392,536.836 81.5,542.5C 78.9239,537.552 77.2573,532.219 76.5,526.5 Z"/></g>
<g><path style="opacity:0.141" fill="#411b52" d="M 658.5,543.5 C 658.308,547.102 656.974,550.102 654.5,552.5C 655.452,549.303 656.785,546.303 658.5,543.5 Z"/></g>
<g><path style="opacity:0.073" fill="#3c2653" d="M 82.5,549.5 C 83.7908,551.949 84.7908,554.616 85.5,557.5C 85.3764,558.107 85.0431,558.44 84.5,558.5C 83.8826,558.389 83.3826,558.056 83,557.5C 82.5026,554.854 82.3359,552.187 82.5,549.5 Z"/></g>
<g><path style="opacity:0.184" fill="#472743" d="M 84.5,559.5 C 86.4241,559.711 86.7574,560.377 85.5,561.5C 84.6618,561.158 84.3284,560.492 84.5,559.5 Z"/></g>
<g><path style="opacity:0.999" fill="#76b050" d="M 690.5,456.5 C 689.01,460.942 688.01,465.609 687.5,470.5C 687.567,471.959 687.234,473.292 686.5,474.5C 684.365,479.991 682.365,485.658 680.5,491.5C 680.624,492.107 680.957,492.44 681.5,492.5C 680.013,495.473 678.68,498.473 677.5,501.5C 673.454,509.961 669.787,518.628 666.5,527.5C 666.672,528.492 666.338,529.158 665.5,529.5C 663.552,531.32 662.552,533.654 662.5,536.5C 660.273,537.401 659.273,539.067 659.5,541.5C 659.672,542.492 659.338,543.158 658.5,543.5C 656.785,546.303 655.452,549.303 654.5,552.5C 651.929,557.305 649.096,561.972 646,566.5C 643.474,570.914 641.641,575.58 640.5,580.5C 638.393,583.057 637.059,586.057 636.5,589.5C 634.779,593.529 633.112,597.529 631.5,601.5C 629.288,604.321 628.288,607.655 628.5,611.5C 630.216,611.629 631.883,611.962 633.5,612.5C 636.138,614.824 639.138,616.657 642.5,618C 651.264,619.964 658.764,624.13 665,630.5C 666.511,634.18 666.677,637.846 665.5,641.5C 663.973,641.427 662.973,642.094 662.5,643.5C 659.482,643.704 656.482,644.037 653.5,644.5C 646.417,644.553 639.417,643.886 632.5,642.5C 627.258,641.071 621.925,640.071 616.5,639.5C 606.08,636.565 595.413,634.232 584.5,632.5C 582.847,632.34 581.514,631.674 580.5,630.5C 577.912,628.375 574.912,627.042 571.5,626.5C 570.833,626.5 570.167,626.5 569.5,626.5C 574.829,621.067 580.329,615.734 586,610.5C 596.655,595.201 607.322,579.867 618,564.5C 620.319,558.891 622.486,553.224 624.5,547.5C 627.114,544.834 629.28,541.834 631,538.5C 632.541,533.088 634.874,528.088 638,523.5C 643.357,503.382 647.69,483.049 651,462.5C 654.943,449.45 657.61,436.117 659,422.5C 661.056,418.732 662.222,414.732 662.5,410.5C 669.81,407.614 676.977,407.947 684,411.5C 689.517,425.965 691.684,440.965 690.5,456.5 Z"/></g>
<g><path style="opacity:0.012" fill="#4d4f50" d="M 640.5,580.5 C 640.076,583.918 638.742,586.918 636.5,589.5C 637.059,586.057 638.393,583.057 640.5,580.5 Z"/></g>
<g><path style="opacity:0.204" fill="#453145" d="M 557.5,603.5 C 557.777,600.552 557.444,597.719 556.5,595C 555.668,594.312 555.002,594.479 554.5,595.5C 554.006,597.026 553.339,598.359 552.5,599.5C 552.34,597.801 552.506,596.134 553,594.5C 553.837,592.993 555.004,592.493 556.5,593C 558.028,594.648 558.695,596.648 558.5,599C 558.492,600.707 558.158,602.207 557.5,603.5 Z"/></g>
<g><path style="opacity:0.063" fill="#029e0d" d="M 631.5,605.5 C 631.629,607.216 631.962,608.883 632.5,610.5C 628.857,609.539 628.524,607.872 631.5,605.5 Z"/></g>
<g><path style="opacity:0.086" fill="#2a3252" d="M 631.5,601.5 C 631.5,602.833 631.5,604.167 631.5,605.5C 628.524,607.872 628.857,609.539 632.5,610.5C 633.338,610.842 633.672,611.508 633.5,612.5C 631.883,611.962 630.216,611.629 628.5,611.5C 628.288,607.655 629.288,604.321 631.5,601.5 Z"/></g>
<g><path style="opacity:0.071" fill="#4a3954" d="M 490.5,624.5 C 489.5,625.167 488.5,625.833 487.5,626.5C 487.668,623.949 488.668,623.282 490.5,624.5 Z"/></g>
<g><path style="opacity:0.02" fill="#1a7a1f" d="M 569.5,626.5 C 569.842,627.338 570.508,627.672 571.5,627.5C 572.5,627.833 573.167,628.5 573.5,629.5C 571.129,628.658 568.796,628.324 566.5,628.5C 567.005,627.081 568.005,626.415 569.5,626.5 Z"/></g>
<g><path style="opacity:0.125" fill="#414147" d="M 571.5,627.5 C 571.5,627.167 571.5,626.833 571.5,626.5C 574.912,627.042 577.912,628.375 580.5,630.5C 578.194,630.007 575.861,629.674 573.5,629.5C 573.167,628.5 572.5,627.833 571.5,627.5 Z"/></g>
<g><path style="opacity:0.055" fill="#433a40" d="M 123.5,630.5 C 126.903,632.9 129.57,635.9 131.5,639.5C 127.825,637.344 125.158,634.344 123.5,630.5 Z"/></g>
<g><path style="opacity:0.057" fill="#44244e" d="M 584.5,632.5 C 595.413,634.232 606.08,636.565 616.5,639.5C 605.455,638.426 594.789,636.093 584.5,632.5 Z"/></g>
<g><path style="opacity:0.004" fill="#0d6b49" d="M 550.5,635.5 C 553.001,635.511 553.168,636.178 551,637.5C 550.536,636.906 550.369,636.239 550.5,635.5 Z"/></g>
<g><path style="opacity:0.004" fill="#009a00" d="M 556.5,637.5 C 557.525,637.897 557.692,638.563 557,639.5C 556.536,638.906 556.369,638.239 556.5,637.5 Z"/></g>
<g><path style="opacity:0.004" fill="#780000" d="M 559.5,641.5 C 560.833,642.167 560.833,642.167 559.5,641.5 Z"/></g>
<g><path style="opacity:0.012" fill="#411324" d="M 665.5,641.5 C 665.179,643.048 664.179,643.715 662.5,643.5C 662.973,642.094 663.973,641.427 665.5,641.5 Z"/></g>
<g><path style="opacity:0.054" fill="#37264b" d="M 632.5,642.5 C 639.417,643.886 646.417,644.553 653.5,644.5C 646.277,646.996 639.277,646.33 632.5,642.5 Z"/></g>
<g><path style="opacity:0.118" fill="#412e49" d="M 131.5,639.5 C 135.119,642.452 138.452,645.785 141.5,649.5C 136.522,647.856 133.189,644.522 131.5,639.5 Z"/></g>
<g><path style="opacity:0.004" fill="#006552" d="M 548.5,650.5 C 549.833,651.167 549.833,651.167 548.5,650.5 Z"/></g>
<g><path style="opacity:0.118" fill="#624935" d="M 141.5,649.5 C 145.207,651.688 148.54,654.355 151.5,657.5C 151.5,657.833 151.5,658.167 151.5,658.5C 147.564,656.234 144.231,653.234 141.5,649.5 Z"/></g>
<g><path style="opacity:0.035" fill="#322448" d="M 151.5,657.5 C 153.776,659.351 156.109,661.018 158.5,662.5C 154.778,663.32 152.445,661.987 151.5,658.5C 151.5,658.167 151.5,657.833 151.5,657.5 Z"/></g>
<g><path style="opacity:0.09" fill="#684b3d" d="M 545.5,656.5 C 547.174,661.473 546.174,665.806 542.5,669.5C 543.137,664.965 544.137,660.632 545.5,656.5 Z"/></g>
<g><path style="opacity:0.043" fill="#4d3351" d="M 497.5,656.5 C 498.709,660.618 499.376,664.951 499.5,669.5C 498.883,669.611 498.383,669.944 498,670.5C 497.501,665.845 497.334,661.179 497.5,656.5 Z"/></g>
<g><path style="opacity:0.047" fill="#633648" d="M 460.5,664.5 C 462.25,665.659 463.25,667.326 463.5,669.5C 461.75,668.341 460.75,666.674 460.5,664.5 Z"/></g>
<g><path style="opacity:0.024" fill="#38254d" d="M 516.5,671.5 C 514.833,671.5 513.167,671.5 511.5,671.5C 512.401,669.273 514.067,668.273 516.5,668.5C 516.5,669.5 516.5,670.5 516.5,671.5 Z"/></g>
<g><path style="opacity:0.013" fill="#006500" d="M 556.5,674.5 C 556.351,673.448 556.517,672.448 557,671.5C 557.74,672.749 557.573,673.749 556.5,674.5 Z"/></g>
<g><path style="opacity:0.039" fill="#059a0d" d="M 511.5,672.5 C 511.5,672.167 511.5,671.833 511.5,671.5C 513.167,671.5 514.833,671.5 516.5,671.5C 517.249,672.531 517.915,673.698 518.5,675C 516.288,675.789 514.288,675.622 512.5,674.5C 512.5,674.167 512.5,673.833 512.5,673.5C 512.5,672.833 512.167,672.5 511.5,672.5 Z"/></g>
<g><path style="opacity:0.024" fill="#4e4528" d="M 511.5,671.5 C 511.5,671.833 511.5,672.167 511.5,672.5C 512.167,672.5 512.5,672.833 512.5,673.5C 512.5,673.833 512.5,674.167 512.5,674.5C 510.658,676.034 509.325,675.7 508.5,673.5C 509.005,672.081 510.005,671.415 511.5,671.5 Z"/></g>
<g><path style="opacity:1" fill="#646d4e" d="M 176.5,673.5 C 179.129,673.144 181.796,673.644 184.5,675C 185.305,676.113 185.972,677.279 186.5,678.5C 182.817,677.325 179.484,675.659 176.5,673.5 Z"/></g>
<g><path style="opacity:0.004" fill="#006500" d="M 556.5,674.5 C 555.833,675.167 555.833,675.167 556.5,674.5 Z"/></g>
<g><path style="opacity:0.008" fill="#004353" d="M 503.5,675.5 C 504.833,676.167 504.833,676.167 503.5,675.5 Z"/></g>
<g><path style="opacity:0.02" fill="#008500" d="M 507.5,682.5 C 506.236,680.228 506.402,677.895 508,675.5C 508.556,677.885 508.39,680.218 507.5,682.5 Z"/></g>
<g><path style="opacity:0.004" fill="#230000" d="M 498.5,681.5 C 497.475,681.103 497.308,680.437 498,679.5C 498.464,680.094 498.631,680.761 498.5,681.5 Z"/></g>
<g><path style="opacity:0.004" fill="#40b240" d="M 498.5,681.5 C 499.167,681.5 499.5,681.833 499.5,682.5C 499.167,682.167 498.833,681.833 498.5,681.5 Z"/></g>
<g><path style="opacity:0.031" fill="#643527" d="M 188.5,679.5 C 191.686,680.597 194.686,681.93 197.5,683.5C 197.5,683.833 197.5,684.167 197.5,684.5C 193.497,684.51 190.497,682.843 188.5,679.5 Z"/></g>
<g><path style="opacity:0.008" fill="#6b232f" d="M 507.5,682.5 C 508.924,684.515 509.59,686.848 509.5,689.5C 508.5,689.5 507.5,689.5 506.5,689.5C 506.993,687.194 507.326,684.861 507.5,682.5 Z"/></g>
<g><path style="opacity:0.278" fill="#4c3d47" d="M 467.5,676.5 C 471.452,681.076 473.785,686.409 474.5,692.5C 474.5,692.833 474.5,693.167 474.5,693.5C 473.398,688.731 471.231,684.398 468,680.5C 467.51,679.207 467.343,677.873 467.5,676.5 Z"/></g>
<g><path style="opacity:0.008" fill="#0b7c50" d="M 499.5,682.5 C 500.613,683.946 500.78,685.613 500,687.5C 499.506,685.866 499.34,684.199 499.5,682.5 Z"/></g>
<g><path style="opacity:0.02" fill="#3f2049" d="M 197.5,684.5 C 197.5,684.167 197.5,683.833 197.5,683.5C 210.166,687.614 222.166,691.614 233.5,695.5C 225.543,695.065 217.877,693.565 210.5,691C 206.689,687.785 202.355,685.619 197.5,684.5 Z"/></g>
<g><path style="opacity:0.031" fill="#004b00" d="M 469.5,691.5 C 468.475,691.103 468.308,690.437 469,689.5C 469.464,690.094 469.631,690.761 469.5,691.5 Z"/></g>
<g><path style="opacity:0.014" fill="#40b200" d="M 469.5,691.5 C 470.833,692.167 470.833,692.833 469.5,693.5C 469.5,692.833 469.5,692.167 469.5,691.5 Z"/></g>
<g><path style="opacity:0.004" fill="#001200" d="M 469.5,693.5 C 468.833,694.167 468.833,694.167 469.5,693.5 Z"/></g>
<g><path style="opacity:0.004" fill="#5b284c" d="M 443.5,695.5 C 444.601,694.402 445.934,694.235 447.5,695C 446.122,696.334 444.789,696.501 443.5,695.5 Z"/></g>
<g><path style="opacity:0.008" fill="#26b200" d="M 440.5,695.5 C 441.833,696.167 441.833,696.167 440.5,695.5 Z"/></g>
<g><path style="opacity:0.173" fill="#60304a" d="M 235.5,696.5 C 235.917,695.876 236.584,695.543 237.5,695.5C 243.053,696.471 248.387,697.805 253.5,699.5C 247.422,698.931 241.422,697.931 235.5,696.5 Z"/></g>
<g><path style="opacity:0.004" fill="#3d6552" d="M 434.5,696.5 C 433.833,697.167 433.833,697.167 434.5,696.5 Z"/></g>
<g><path style="opacity:0.032" fill="#0c6a00" d="M 457.5,696.5 C 456.341,698.25 454.674,699.25 452.5,699.5C 451.325,699.719 450.325,699.386 449.5,698.5C 452.012,697.205 454.679,696.539 457.5,696.5 Z"/></g>
<g><path style="opacity:0.075" fill="#493d2b" d="M 482.5,700.5 C 479.188,698.843 476.521,696.51 474.5,693.5C 475.167,693.5 475.5,693.167 475.5,692.5C 475.369,691.761 475.536,691.094 476,690.5C 478.022,694.003 480.189,697.337 482.5,700.5 Z"/></g>
<g><path style="opacity:0.004" fill="#00a200" d="M 447.5,698.5 C 448.833,699.167 448.833,699.167 447.5,698.5 Z"/></g>
<g><path style="opacity:0.031" fill="#382544" d="M 496.5,696.5 C 499.048,698.013 498.715,699.013 495.5,699.5C 496.11,698.609 496.443,697.609 496.5,696.5 Z"/></g>
<g><path style="opacity:0.004" fill="#006552" d="M 450.5,700.5 C 450.5,701.167 450.5,701.833 450.5,702.5C 447.833,701.833 447.833,701.167 450.5,700.5 Z"/></g>
<g><path style="opacity:0.008" fill="#76121f" d="M 460.5,698.5 C 457.484,698.841 454.818,700.007 452.5,702C 453.756,702.417 454.423,703.25 454.5,704.5C 453.167,704.5 451.833,704.5 450.5,704.5C 450.5,703.833 450.5,703.167 450.5,702.5C 450.5,701.833 450.5,701.167 450.5,700.5C 451.492,700.672 452.158,700.338 452.5,699.5C 454.674,699.25 456.341,698.25 457.5,696.5C 460.031,693.621 461.031,694.288 460.5,698.5 Z"/></g>
<g><path style="opacity:0.027" fill="#184353" d="M 460.5,698.5 C 461.451,699.919 461.784,701.585 461.5,703.5C 459.585,703.216 457.919,703.549 456.5,704.5C 455.833,704.5 455.167,704.5 454.5,704.5C 454.423,703.25 453.756,702.417 452.5,702C 454.818,700.007 457.484,698.841 460.5,698.5 Z"/></g>
<g><path style="opacity:0.271" fill="#494554" d="M 268.5,701.5 C 271.187,701.336 273.854,701.503 276.5,702C 277.416,702.278 278.082,702.778 278.5,703.5C 274.96,703.247 271.627,702.581 268.5,701.5 Z"/></g>
<g><path style="opacity:0.039" fill="#1ab200" d="M 443.5,701.5 C 444.833,702.167 444.833,702.167 443.5,701.5 Z"/></g>
<g><path style="opacity:0.043" fill="#392b3d" d="M 436.5,701.5 C 439.634,702.901 442.634,704.568 445.5,706.5C 445.5,706.833 445.5,707.167 445.5,707.5C 445.975,710.082 445.308,712.082 443.5,713.5C 443.662,711.473 443.495,709.473 443,707.5C 440.665,705.6 438.498,703.6 436.5,701.5 Z"/></g>
<g><path style="opacity:0.196" fill="#301e41" d="M 282.5,704.5 C 284.898,704.259 286.898,704.926 288.5,706.5C 286.214,706.405 284.214,705.738 282.5,704.5 Z"/></g>
<g><path style="opacity:0.027" fill="#0e8d00" d="M 450.5,704.5 C 451.833,704.5 453.167,704.5 454.5,704.5C 455.167,705.833 455.833,705.833 456.5,704.5C 457.919,703.549 459.585,703.216 461.5,703.5C 461.853,705.635 461.02,706.968 459,707.5C 454.503,706.277 450.003,706.277 445.5,707.5C 445.5,707.167 445.5,706.833 445.5,706.5C 446.79,705.942 447.623,704.942 448,703.5C 448.671,704.252 449.504,704.586 450.5,704.5 Z"/></g>
<g><path style="opacity:0.173" fill="#44294e" d="M 301.5,709.5 C 307.386,710.39 313.053,711.723 318.5,713.5C 312.4,713.557 306.734,712.224 301.5,709.5 Z"/></g>
<g><path style="opacity:0.012" fill="#572a4a" d="M 318.5,713.5 C 329.107,714.755 339.44,716.755 349.5,719.5C 338.85,718.503 328.516,716.503 318.5,713.5 Z"/></g>
<g><path style="opacity:0.004" fill="#1d6500" d="M 444.5,716.5 C 445.833,717.167 445.833,717.167 444.5,716.5 Z"/></g>
<g><path style="opacity:0.008" fill="#008f00" d="M 444.5,720.5 C 445.833,721.167 445.833,721.167 444.5,720.5 Z"/></g>
<g><path style="opacity:0.314" fill="#403f54" d="M 364.5,722.5 C 368.912,721.258 373.246,721.591 377.5,723.5C 373.158,723.261 368.824,722.927 364.5,722.5 Z"/></g>
<g><path style="opacity:0.031" fill="#581738" d="M 380.5,724.5 C 381.097,723.861 381.93,723.528 383,723.5C 388.471,724.455 393.971,725.121 399.5,725.5C 399.5,725.833 399.5,726.167 399.5,726.5C 396.833,726.5 394.167,726.5 391.5,726.5C 387.779,726.089 384.112,725.422 380.5,724.5 Z"/></g>
<g><path style="opacity:0.289" fill="#436752" d="M 399.5,726.5 C 399.5,726.167 399.5,725.833 399.5,725.5C 407.5,725.5 415.5,725.5 423.5,725.5C 417.934,726.207 412.268,726.874 406.5,727.5C 404.097,727.552 401.764,727.219 399.5,726.5 Z"/></g>
<g><path style="opacity:0.018" fill="#337d04" d="M 391.5,726.5 C 394.167,726.5 396.833,726.5 399.5,726.5C 401.764,727.219 404.097,727.552 406.5,727.5C 406.5,728.167 406.5,728.833 406.5,729.5C 405.081,730.451 403.415,730.784 401.5,730.5C 398.011,729.342 394.678,728.009 391.5,726.5 Z"/></g>
<g><path style="opacity:0.024" fill="#762314" d="M 406.5,729.5 C 410.081,730.26 413.748,730.76 417.5,731C 412.709,732.052 408.209,732.885 404,733.5C 402.955,732.627 402.122,731.627 401.5,730.5C 403.415,730.784 405.081,730.451 406.5,729.5 Z"/></g>
<g><path style="opacity:0.004" fill="#008d00" d="M 424.5,732.5 C 425.833,733.167 425.833,733.167 424.5,732.5 Z"/></g>
<g><path style="opacity:0.024" fill="#008700" d="M 437.5,738.5 C 438.976,736.77 438.642,735.437 436.5,734.5C 435.016,735.467 434.016,736.8 433.5,738.5C 432.312,739.048 431.145,739.381 430,739.5C 429.722,738.584 429.222,737.918 428.5,737.5C 428.158,736.662 427.492,736.328 426.5,736.5C 431,731.592 436.667,728.592 443.5,727.5C 444.833,731.167 444.833,734.833 443.5,738.5C 442.833,737.833 442.167,737.167 441.5,736.5C 440.476,737.853 439.143,738.52 437.5,738.5 Z"/></g>
<g><path style="opacity:0.004" fill="#00a200" d="M 422.5,733.5 C 423.833,734.167 423.833,734.167 422.5,733.5 Z"/></g>
<g><path style="opacity:0.047" fill="#009e00" d="M 414.5,735.5 C 415.601,734.402 416.934,734.235 418.5,735C 417.207,735.49 415.873,735.657 414.5,735.5 Z"/></g>
<g><path style="opacity:0.014" fill="#006552" d="M 437.5,738.5 C 436.167,739.833 434.833,739.833 433.5,738.5C 434.016,736.8 435.016,735.467 436.5,734.5C 438.642,735.437 438.976,736.77 437.5,738.5 Z"/></g>
<g><path style="opacity:0.014" fill="#00ae00" d="M 410.5,736.5 C 410.897,735.475 411.563,735.308 412.5,736C 411.906,736.464 411.239,736.631 410.5,736.5 Z"/></g>
<g><path style="opacity:0.004" fill="#002b53" d="M 405.5,736.5 C 406.833,737.167 406.833,737.167 405.5,736.5 Z"/></g>
<g><path style="opacity:0.033" fill="#790e0a" d="M 426.5,736.5 C 427.492,736.328 428.158,736.662 428.5,737.5C 427.306,738.777 425.64,739.444 423.5,739.5C 421.833,739.333 420.167,739.167 418.5,739C 421.154,738.059 423.821,737.226 426.5,736.5 Z"/></g>
</svg>
