<?xml version="1.0" encoding="UTF-8" standalone="no"?>
<!-- Uploaded to: SVG Repo, www.svgrepo.com, Generator: SVG Repo Mixer Tools -->

<svg
   fill="#000000"
   height="800px"
   width="800px"
   version="1.1"
   id="Layer_1"
   viewBox="0 0 511.999 511.999"
   xml:space="preserve"
   sodipodi:docname="icon_person_add.svg"
   inkscape:version="1.2.2 (b0a8486541, 2022-12-01)"
   xmlns:inkscape="http://www.inkscape.org/namespaces/inkscape"
   xmlns:sodipodi="http://sodipodi.sourceforge.net/DTD/sodipodi-0.dtd"
   xmlns="http://www.w3.org/2000/svg"
   xmlns:svg="http://www.w3.org/2000/svg"><defs
   id="defs35167" /><sodipodi:namedview
   id="namedview35165"
   pagecolor="#ffffff"
   bordercolor="#000000"
   borderopacity="0.25"
   inkscape:showpageshadow="2"
   inkscape:pageopacity="0.0"
   inkscape:pagecheckerboard="0"
   inkscape:deskcolor="#d1d1d1"
   showgrid="false"
   inkscape:zoom="0.38493125"
   inkscape:cx="276.67278"
   inkscape:cy="141.58372"
   inkscape:window-width="1906"
   inkscape:window-height="994"
   inkscape:window-x="6"
   inkscape:window-y="79"
   inkscape:window-maximized="1"
   inkscape:current-layer="Layer_1" />
<g
   id="g35150"
   style="fill:#ffffff"
   transform="matrix(0.54679647,0,0,0.55431174,174.47487,185.50596)">
	<g
   id="g35148"
   style="fill:#ffffff">
		<path
   d="m 459.829,189.078 c 7.744,-14.071 11.907,-30.011 11.907,-46.212 0,-52.81 -42.958,-95.773 -95.76,-95.773 -46.264,0 -84.369,32.627 -93.59,75.429 -17.435,-1.176 -35.236,-1.176 -52.673,0 -9.224,-42.809 -47.334,-75.429 -93.591,-75.429 -52.802,0 -95.76,42.963 -95.76,95.773 0,16.203 4.164,32.145 11.907,46.212 -126.116,111.344 -10.682,275.828 203.78,275.828 216.433,10e-4 328.882,-165.379 203.78,-275.828 z M 375.976,80.451 c 34.408,0 62.401,28 62.401,62.415 0,34.415 -27.861,62.401 -62.401,62.401 -34.419,0 -62.415,-27.998 -62.415,-62.401 0,-34.446 27.879,-62.415 62.415,-62.415 z m -239.855,0 c 33.829,0 61.425,26.89 62.38,60.583 0.806,36.281 -28.128,64.233 -62.38,64.233 -34.118,0 -62.401,-27.578 -62.401,-62.401 0,-34.415 27.993,-62.415 62.401,-62.415 z M 73.216,215.08 c 57.522,50.332 147.611,15.498 157.8,-59.216 16.562,-1.165 33.506,-1.165 50.065,0 10.181,74.665 100.194,109.583 157.8,59.216 20.465,18.417 33.466,39.577 37.873,61.506 H 35.344 C 39.75,254.658 52.75,233.497 73.216,215.08 Z M 256.048,431.549 C 141.935,431.549 48.597,377.275 35.3,309.945 H 476.797 C 463.365,377.96 368.966,431.549 256.048,431.549 Z"
   id="path35146"
   style="fill:#ffffff" />
	</g>
</g>
<g
   id="g35156"
   style="fill:#ffffff"
   transform="matrix(0.54679647,0,0,0.55431174,174.47487,185.50596)">
	<g
   id="g35154"
   style="fill:#ffffff">
		<circle
   cx="136.468"
   cy="142.99699"
   r="22.063999"
   id="circle35152"
   style="fill:#ffffff" />
	</g>
</g>
<g
   id="g35162"
   style="fill:#ffffff"
   transform="matrix(0.54679647,0,0,0.55431174,174.47487,185.50596)">
	<g
   id="g35160"
   style="fill:#ffffff">
		<circle
   cx="380.10699"
   cy="142.99699"
   r="22.063999"
   id="circle35158"
   style="fill:#ffffff" />
	</g>
</g>
<g
   style="fill:#ffffff"
   id="g38821"
   transform="matrix(13.653307,0,0,13.653307,7.4988445,-21.641984)"><path
     d="M 0,0 H 24 V 24 H 0 Z"
     fill="none"
     id="path38809" /><path
     id="path38811"
     d="m 9.6668434,11.527017 v 3 h -3 v 1.999969 h 3 v 3 h 2.0000606 v -3 h 3 v -1.999969 h -3 v -3 z" /></g></svg>
